<?xml version="1.0" encoding="iso-8859-1"?>
<!-- Generator: Adobe Illustrator 17.1.0, SVG Export Plug-In . SVG Version: 6.00 Build 0)  -->
<!DOCTYPE svg PUBLIC "-//W3C//DTD SVG 1.1//EN" "http://www.w3.org/Graphics/SVG/1.1/DTD/svg11.dtd">
<svg version="1.1" id="Capa_1" xmlns="http://www.w3.org/2000/svg" xmlns:xlink="http://www.w3.org/1999/xlink" x="0px" y="0px"
	 viewBox="0 0 512 512" style="enable-background:new 0 0 512 512;" xml:space="preserve">
<g>
	<path d="M223.155,164.422c-1.976-3.95-6.78-5.553-10.733-3.577c-3.952,1.976-5.554,6.781-3.578,10.733l8,16
		c1.401,2.803,4.227,4.424,7.162,4.424c1.202,0,2.423-0.272,3.571-0.847c3.952-1.976,5.554-6.781,3.578-10.733L223.155,164.422z"/>
	<path d="M351.77,26.138C323.287,10.26,285.695,0,256,0s-67.287,10.26-95.77,26.138C123.969,46.351,104,74.003,104,104
		c0,3.357,1.853,6.273,4.836,7.609c1.171,0.525,2.275,0.738,3.3,0.738c0.402,0,0.791-0.035,1.168-0.095
		c0.193,1.14,0.386,2.274,0.581,3.433c5.528,32.759,12.407,73.528,39.529,112.856c17.763,25.756,52.808,55.272,62.889,63.52
		c3.523,43.523,7.787,92.99,12.859,134.074c3.016,24.431,6.046,43.538,9.006,56.792C242.177,500.876,246.559,512,256,512
		s13.823-11.124,17.832-29.072c2.96-13.254,5.991-32.361,9.006-56.792c5.072-41.083,9.336-90.551,12.859-134.074
		c10.08-8.248,45.125-37.764,62.889-63.52c27.122-39.328,34.001-80.098,39.529-112.856c0.196-1.159,0.388-2.293,0.581-3.432
		c0.377,0.06,0.766,0.094,1.168,0.094c1.024,0,2.128-0.213,3.3-0.738c2.983-1.336,4.836-4.252,4.836-7.609
		C408,74.003,388.031,46.351,351.77,26.138z M267.94,416.038c-4.971,42.176-9.122,62.582-11.94,72.446
		c-2.819-9.864-6.97-30.271-11.94-72.446c-4.767-40.453-8.785-87.75-12.085-128.682c-2.465-30.567-9.98-49.469-17.248-67.748
		C207.153,200.562,200,182.571,200,152c0-54.477,55.44-56,56-56s56,1.523,56,56c0,30.571-7.153,48.562-14.726,67.608
		c-7.268,18.279-14.783,37.181-17.248,67.748C276.725,328.288,272.708,375.585,267.94,416.038z M345.414,219.458
		c-11.728,17.005-32.441,36.5-46.769,49.083c3.275-17.301,8.448-30.323,13.496-43.021C319.938,205.911,328,185.635,328,152
		c0-33.057-16.85-50.612-30.985-59.519C281.377,82.629,263.875,80,256,80s-25.377,2.629-41.015,12.481
		C200.85,101.388,184,118.943,184,152c0,33.635,8.062,53.911,15.858,73.521c5.049,12.697,10.222,25.72,13.496,43.021
		c-14.327-12.583-35.041-32.078-46.769-49.083c-25.107-36.406-31.66-75.235-36.924-106.436c-0.587-3.476-1.16-6.868-1.741-10.17
		c2.347-1.248,5.167-2.489,8.547-3.565C136.163,100.812,136,102.387,136,104c0,13.233,10.766,24,24,24s24-10.767,24-24
		s-10.766-24-24-24c-16.988,0-29.04,3.557-37.34,7.546c4.803-14.645,17.173-31.721,45.36-47.434C194.297,25.465,228.831,16,256,16
		s61.703,9.465,87.98,24.112c28.187,15.713,40.558,32.789,45.36,47.434C381.04,83.557,368.988,80,352,80c-13.234,0-24,10.767-24,24
		s10.766,24,24,24s24-10.767,24-24c0-1.613-0.163-3.188-0.467-4.712c3.379,1.076,6.2,2.316,8.547,3.565
		c-0.581,3.302-1.154,6.694-1.741,10.17C377.074,144.223,370.521,183.052,345.414,219.458z M168,104c0,4.411-3.589,8-8,8
		s-8-3.589-8-8s3.589-8,8-8S168,99.589,168,104z M360,104c0,4.411-3.589,8-8,8s-8-3.589-8-8s3.589-8,8-8S360,99.589,360,104z"/>
	<path d="M284.422,191.155c1.148,0.574,2.369,0.847,3.571,0.847c2.935,0,5.76-1.621,7.162-4.424l8-16
		c1.976-3.952,0.375-8.758-3.578-10.733c-3.952-1.977-8.757-0.374-10.733,3.577l-8,16
		C278.869,184.374,280.47,189.18,284.422,191.155z"/>
</g>
<g>
</g>
<g>
</g>
<g>
</g>
<g>
</g>
<g>
</g>
<g>
</g>
<g>
</g>
<g>
</g>
<g>
</g>
<g>
</g>
<g>
</g>
<g>
</g>
<g>
</g>
<g>
</g>
<g>
</g>
</svg>
