<?xml version="1.0" encoding="iso-8859-1"?>
<!-- Generator: Adobe Illustrator 17.1.0, SVG Export Plug-In . SVG Version: 6.00 Build 0)  -->
<!DOCTYPE svg PUBLIC "-//W3C//DTD SVG 1.1//EN" "http://www.w3.org/Graphics/SVG/1.1/DTD/svg11.dtd">
<svg version="1.1" id="Capa_1" xmlns="http://www.w3.org/2000/svg" xmlns:xlink="http://www.w3.org/1999/xlink" x="0px" y="0px"
	 viewBox="0 0 512 512" style="enable-background:new 0 0 512 512;" xml:space="preserve">
<g>
	<path d="M278.906,454.143C270.232,455.34,262.098,456,256,456s-14.232-0.66-22.906-1.857c-4.373-0.604-8.414,2.454-9.019,6.831
		c-0.604,4.376,2.454,8.415,6.831,9.019C240.281,471.287,249.193,472,256,472s15.719-0.713,25.094-2.008
		c4.377-0.604,7.435-4.643,6.831-9.019C287.32,456.596,283.282,453.538,278.906,454.143z"/>
	<path d="M236.833,346.424c-3.7-2.593-12.364-8.667-12.97-11.898c-0.814-4.343-4.992-7.209-9.337-6.389
		c-4.343,0.814-7.203,4.995-6.389,9.337c1.808,9.642,11.625,16.523,19.512,22.052c1.704,1.194,3.935,2.758,5.021,3.686
		c1.237,2.819,4.053,4.788,7.329,4.788c4.418,0,8-3.582,8-8C248,354.252,243.316,350.969,236.833,346.424z"/>
	<path d="M297.474,328.137c-4.344-0.82-8.523,2.046-9.337,6.389c-0.606,3.232-9.271,9.305-12.97,11.898
		C268.684,350.969,264,354.252,264,360c0,4.418,3.582,8,8,8c3.276,0,6.092-1.969,7.329-4.788c1.086-0.927,3.318-2.491,5.021-3.686
		c7.888-5.529,17.705-12.41,19.512-22.052C304.677,333.132,301.817,328.951,297.474,328.137z"/>
	<path d="M224,128c0-13.234-10.766-24-24-24s-24,10.766-24,24s10.766,24,24,24S224,141.234,224,128z M200,136c-4.411,0-8-3.589-8-8
		s3.589-8,8-8s8,3.589,8,8S204.411,136,200,136z"/>
	<path d="M312,104c-13.234,0-24,10.766-24,24s10.766,24,24,24s24-10.766,24-24S325.234,104,312,104z M312,136c-4.411,0-8-3.589-8-8
		s3.589-8,8-8s8,3.589,8,8S316.411,136,312,136z"/>
	<path d="M354.663,88.456C353.684,88.111,330.218,80,288,80c-14.689,0-25.162,3.487-32,10.631C249.162,83.487,238.689,80,224,80
		c-42.218,0-65.684,8.111-66.663,8.456c-4.16,1.468-6.337,6.023-4.879,10.186c1.459,4.163,6.019,6.357,10.187,4.908
		C162.862,103.475,184.808,96,224,96c10.188,0,17.16,2.009,20.72,5.971c1.611,1.793,2.674,4.172,3.207,7.173
		c-0.36,3.456-0.333,7.218,0.082,11.307c-0.042,4.014-0.066,21.522-0.009,103.554c0.003,4.417,3.584,7.995,8,7.995
		c0.001,0,0.004,0,0.005,0c4.418-0.003,7.998-3.587,7.995-8.005c-0.019-27.389-0.056-98.142-0.007-103.506
		c0.419-4.109,0.444-7.884,0.081-11.354c0.534-2.996,1.597-5.373,3.206-7.163C270.84,98.009,277.812,96,288,96
		c39.192,0,61.138,7.475,61.337,7.544c4.167,1.469,8.736-0.715,10.207-4.881S358.829,89.927,354.663,88.456z"/>
	<path d="M455.921,134.085c-0.271-5.761-1.332-26.445-3.464-46.913c-1.485-14.256-3.2-25.681-5.097-33.958
		C445.782,46.328,442.499,32,432,32c-7.715,0-16.202,6.023-26.709,18.955c-2.988,3.677-5.655,7.327-7.721,10.285
		c-13.935-12.927-28.66-24.021-44.077-33.143C321.985,9.453,289.183,0,256,0s-65.985,9.453-97.493,28.097
		c-15.417,9.123-30.142,20.217-44.077,33.143c-2.066-2.958-4.734-6.608-7.721-10.285C96.202,38.023,87.715,32,80,32
		c-10.499,0-13.782,14.328-15.36,21.213c-1.897,8.277-3.612,19.703-5.097,33.958c-2.132,20.469-3.193,41.152-3.464,46.913
		C25.568,185.125,8,243.3,8,296c0,50.229,15.97,91.218,47.467,121.828c28.146,27.353,68.211,45.959,119.083,55.301
		c0.162,0.03,0.323,0.044,0.484,0.064C194.115,496.842,223.318,512,256,512c32.681,0,61.883-15.157,80.963-38.805
		c0.162-0.02,0.324-0.037,0.486-0.067c50.873-9.342,90.938-27.948,119.083-55.301C488.03,387.218,504,346.229,504,296
		C504,243.3,486.432,185.125,455.921,134.085z M429.625,49.059c2.947,7.653,6.395,29.016,8.672,58.361
		c-2.053-2.82-4.135-5.619-6.271-8.372c-7.321-9.437-14.952-18.264-22.868-26.464C416.328,61.865,424.783,52.208,429.625,49.059z
		 M166.655,41.867C195.663,24.703,225.723,16,256,16s60.337,8.703,89.345,25.867c8.842,5.232,17.559,11.288,26.061,18.047
		C344.023,53.461,293.925,48,256,48c-37.926,0-88.024,5.461-115.406,11.913C149.096,53.155,157.813,47.098,166.655,41.867z
		 M82.365,49.084c4.895,3.18,13.327,12.813,20.476,23.499c-7.916,8.2-15.547,17.027-22.868,26.464
		c-2.136,2.753-4.217,5.551-6.27,8.371C75.978,78.108,79.42,56.76,82.365,49.084z M256,496c-41.053,0-75.627-28.258-85.301-66.344
		C198.066,442.126,235.768,448,256,448s57.934-5.874,85.301-18.344C331.627,467.742,297.053,496,256,496z M445.381,406.354
		c-23.154,22.502-55.513,38.625-96.32,48.035C356.056,440.415,360,424.661,360,408V240c0-0.207-0.009-0.423-0.025-0.628
		c-0.751-9.686,0.958-22.26,4.613-24.818c3.62-2.534,4.5-7.522,1.966-11.142c-2.534-3.619-7.522-4.5-11.142-1.966
		c-12.819,8.973-11.83,33.226-11.412,38.86V408c0,0.754-0.01,1.506-0.029,2.255C320.386,424.448,278.126,432,256,432
		s-64.386-7.552-87.971-21.745C168.01,409.506,168,408.754,168,408V240.307c0.417-5.635,1.407-29.887-11.412-38.86
		c-3.619-2.533-8.607-1.653-11.142,1.966c-2.534,3.62-1.654,8.608,1.966,11.142c3.654,2.558,5.364,15.132,4.613,24.808
		C152.008,239.574,152,239.787,152,240v168c0,16.661,3.944,32.415,10.938,46.389c-40.806-9.411-73.166-25.534-96.32-48.035
		C38.339,378.871,24,341.743,24,296c0-61.802,25.65-131.763,68.615-187.145c6.267-8.078,12.862-15.736,19.704-22.946
		c-0.181,0.668-0.286,1.366-0.286,2.091v72c0,1.735-0.009,3.338-0.018,4.829c-0.085,14.552-0.124,21.194,10.072,32.522
		c1.58,1.755,3.76,2.648,5.949,2.648c1.907,0,3.82-0.678,5.349-2.054c3.284-2.956,3.55-8.014,0.595-11.298
		c-6.052-6.725-6.044-8.145-5.965-21.726c0.009-1.52,0.019-3.154,0.019-4.923v-56.015c3.076,0.174,6.11-1.445,7.592-4.369
		c1.997-3.941,0.421-8.755-3.521-10.752c-2.596-1.315-3.929-3.775-3.904-5.525c0.023-1.578,1.266-2.958,3.694-4.1
		C144.684,73.221,205.37,64,256,64s111.317,9.221,124.106,15.239c2.428,1.143,3.671,2.522,3.694,4.1
		c0.025,1.75-1.307,4.209-3.904,5.525c-3.941,1.997-5.517,6.811-3.52,10.752c1.41,2.782,4.223,4.386,7.143,4.386
		c0.16,0,0.321-0.018,0.481-0.028V160c0,1.769,0.01,3.403,0.019,4.923c0.079,13.581,0.087,15-5.965,21.726
		c-2.956,3.284-2.689,8.342,0.595,11.298c1.529,1.376,3.442,2.054,5.349,2.054c2.189,0,4.369-0.893,5.949-2.648
		c10.196-11.329,10.157-17.97,10.072-32.522C400.009,163.338,400,161.735,400,160V88c0-0.707-0.101-1.389-0.273-2.043
		c6.825,7.196,13.405,14.838,19.658,22.898C462.35,164.237,488,234.198,488,296C488,341.743,473.661,378.871,445.381,406.354z"/>
</g>
<g>
</g>
<g>
</g>
<g>
</g>
<g>
</g>
<g>
</g>
<g>
</g>
<g>
</g>
<g>
</g>
<g>
</g>
<g>
</g>
<g>
</g>
<g>
</g>
<g>
</g>
<g>
</g>
<g>
</g>
</svg>
