<?xml version="1.0" encoding="iso-8859-1"?>
<!-- Generator: Adobe Illustrator 17.1.0, SVG Export Plug-In . SVG Version: 6.00 Build 0)  -->
<!DOCTYPE svg PUBLIC "-//W3C//DTD SVG 1.1//EN" "http://www.w3.org/Graphics/SVG/1.1/DTD/svg11.dtd">
<svg version="1.1" id="Capa_1" xmlns="http://www.w3.org/2000/svg" xmlns:xlink="http://www.w3.org/1999/xlink" x="0px" y="0px"
	 viewBox="0 0 512 512" style="enable-background:new 0 0 512 512;" xml:space="preserve">
<g>
	<path d="M511.642,209.735c-0.552-1.784-4.159-11.017-20.982-17.587c-19.946-7.789-50.786-9.131-91.659-3.985
		c-12.818,1.614-28.589,2.719-46.148,3.438c-2.505-3.895-6.296-9.005-10.461-13.64c-8.584-9.553-15.614-13.943-22.178-13.859
		c-32.991,0.493-63.962,0.26-93.913,0.031c-104.057-0.785-179.24-1.36-210.825,29.986C5.207,204.31,0,217.593,0,233.6
		c0,0.303,0.021,0.602,0.053,0.896C0.033,235.03,0,235.558,0,236.1c0,24.543,8.579,43.979,25.498,57.768
		c13.284,10.826,31.497,18.324,57.317,23.599c29.379,6.001,55.141,28.412,55.392,28.633c1.491,1.315,3.381,2.001,5.294,2.001
		c1.113,0,2.235-0.232,3.29-0.708c2.866-1.294,4.709-4.147,4.709-7.292c0-37.792-44.249-55.522-83.29-71.166
		c-3.21-1.286-6.475-2.598-9.728-3.928c4.115-0.478,10.338-0.661,19.705,0.025c15.483,1.136,33.999,4.219,48.877,6.696
		c8.734,1.454,16.277,2.71,21.984,3.394c0.426,0.051,0.859,0.075,1.304,0.075c11.14,0,27.734-15.606,35.234-23.982
		c40.987,4.473,85.653,8.886,126.414,8.886c75.011,0,126.561-4.602,157.595-14.068c27.449-8.373,35.502-19.435,41.398-30.046
		C512.053,214.077,512.288,211.82,511.642,209.735z M226.179,180.131c29.986,0.227,60.993,0.461,94.099-0.029
		c2.775,0.624,8.449,6.274,13.258,12.122c-68.853,1.689-156.526-1.305-205.501-2.978C108.539,188.581,94.453,188.1,88,188.1
		c-12.661,0-24.086,0.906-34.208,2.647C90.873,179.106,152.629,179.57,226.179,180.131z M124.873,317.294
		c-10.733-6.241-24.26-12.523-38.855-15.504c-23.19-4.737-39.209-11.196-50.412-20.326c-5.459-4.449-9.758-9.599-12.921-15.508
		c10.895,6.338,24.788,11.904,39.575,17.829C85.549,293.118,110.946,303.294,124.873,317.294z M129.692,255.945
		c-37.308-6.213-67.76-10.492-83.345-4.353c2.194-3.249,6.308-6.41,11.593-7.731c18.2-4.551,61.193,0.015,107.329,5.114
		c-5.926,5.222-12.102,9.553-14.804,10.201C145.165,258.521,137.977,257.324,129.692,255.945z M312,244.1
		c-45.297,0-96.031-5.613-140.792-10.566c-53.418-5.912-95.611-10.581-117.148-5.194c-12.345,3.086-22.271,12.316-24.829,22.835
		C21.265,246.328,16,241.29,16,236.1c0-9.621,7.016-32,72-32c6.18,0,20.151,0.478,39.488,1.138
		c72.57,2.478,207.649,7.09,273.511-1.2c66.509-8.372,87.497,3.178,93.432,8.505C485.451,225.959,460.334,244.1,312,244.1z"/>
	<path d="M400,211.818c-5.019,0-8.985,1.093-12.483,2.058c-5.443,1.499-9.039,2.489-16.408-0.729
		c-4.048-1.767-8.765,0.079-10.534,4.128s0.079,8.765,4.127,10.534c5.977,2.611,10.93,3.479,15.177,3.479
		c4.679,0,8.501-1.053,11.888-1.986c2.885-0.796,5.377-1.482,8.232-1.482c4.418,0,8-3.582,8-8S404.418,211.818,400,211.818z"/>
	<path d="M456,220.101c2.11,0,4.17-0.859,5.66-2.35c1.49-1.479,2.34-3.55,2.34-5.65c0-2.109-0.85-4.17-2.34-5.659
		c-1.49-1.49-3.56-2.341-5.66-2.341s-4.17,0.851-5.66,2.341c-1.49,1.489-2.34,3.55-2.34,5.659c0,2.11,0.85,4.171,2.34,5.65
		C451.83,219.242,453.89,220.101,456,220.101z"/>
</g>
<g>
</g>
<g>
</g>
<g>
</g>
<g>
</g>
<g>
</g>
<g>
</g>
<g>
</g>
<g>
</g>
<g>
</g>
<g>
</g>
<g>
</g>
<g>
</g>
<g>
</g>
<g>
</g>
<g>
</g>
</svg>
