<?xml version="1.0" encoding="iso-8859-1"?>
<!-- Generator: Adobe Illustrator 17.1.0, SVG Export Plug-In . SVG Version: 6.00 Build 0)  -->
<!DOCTYPE svg PUBLIC "-//W3C//DTD SVG 1.1//EN" "http://www.w3.org/Graphics/SVG/1.1/DTD/svg11.dtd">
<svg version="1.1" id="Capa_1" xmlns="http://www.w3.org/2000/svg" xmlns:xlink="http://www.w3.org/1999/xlink" x="0px" y="0px"
	 viewBox="0 0 512 512" style="enable-background:new 0 0 512 512;" xml:space="preserve">
<g>
	<path d="M499.026,230.244c-2.698-0.856-6.037-1.938-9.864-3.176C448.695,213.972,403.859,200,384,200H240
		c-11.74,0-28.624,2.975-46.489,6.833c-3.754-3.103-9.97-8.14-16.78-13.237C156.018,178.091,148.562,176,144,176
		c-5.504,0-15.041,1.944-23.559,4.198c-0.098,0.023-0.196,0.051-0.293,0.078c-2.243,0.597-4.414,1.213-6.413,1.82
		C94.975,187.801,88,192.653,88,200c0,3.898,2.938,11.198,8.726,21.741c-14.95-3.254-35.409-9.367-50.477-13.869
		C26.342,201.923,19.604,200,16,200c-4.28,0-9.137,0.313-12.612,4.057C0,207.704,0,212.499,0,216c0,6.883,6.526,12.37,19.034,22.271
		c3.479,2.754,8.755,6.932,11.601,9.729c-2.845,2.796-8.121,6.973-11.6,9.727C6.527,267.629,0,273.117,0,280
		c0,3.501,0,8.295,3.387,11.943C6.863,295.687,11.72,296,16,296c3.604,0,10.342-1.923,30.249-7.872
		c16.327-4.879,38.987-11.649,54.104-14.623C97.701,277.787,96,282.541,96,288c0,10.146,12.88,18.032,16.827,20.208
		c6.259,3.45,12.283,5.199,17.558,5.199c3.731-0.001,7.088-0.876,9.887-2.644c9.765-6.167,31.792-23.771,32.726-24.517
		c0.527-0.421,0.978-0.901,1.368-1.415C198.789,290.55,224.106,296,240,296h0.593c1.385,9.645,4.981,18.028,8.113,23.833
		c0.746,1.383,7.43,13.573,12.21,15.556c0.991,0.411,2.034,0.611,3.069,0.611c2.087,0,4.142-0.813,5.672-2.344
		c8.477-8.478,14.964-25.924,17.348-37.656h59.103c0.024,6.765,2.247,13.446,6.647,19.719c4.646,6.623,10.119,10.467,10.728,10.884
		c1.34,0.917,2.917,1.397,4.518,1.397c0.507,0,1.017-0.048,1.521-0.146c2.1-0.406,3.949-1.637,5.135-3.416l19.53-29.295
		c25.063-3.589,70.423-18.266,94.969-26.209c3.83-1.239,7.171-2.32,9.872-3.178C506.786,263.292,512,256.157,512,248
		S506.786,232.708,499.026,230.244z M143.862,192.001c3.534,0.554,15.301,8.011,29.79,19.334c-4.038,0.947-8.049,1.899-11.986,2.834
		c-4.234,1.006-8.42,2-12.477,2.947l-14.422-23.883C138.474,192.486,141.697,192.02,143.862,192.001z M118.575,197.371
		l14.157,23.445c-6.51,1.375-12.151,2.414-16.394,2.892c-4.711-7.934-9.385-16.558-11.389-21.317
		C107.944,200.882,112.997,199.063,118.575,197.371z M62.35,266.696c-7.037,2.025-14.073,4.127-20.683,6.102
		c-9.148,2.734-19.318,5.773-23.922,6.834c2.916-2.785,7.892-6.725,11.221-9.36C41.474,260.37,48,254.883,48,248
		s-6.527-12.371-19.035-22.273c-3.329-2.635-8.303-6.573-11.219-9.358c4.604,1.062,14.774,4.101,23.921,6.834
		c6.61,1.975,13.647,4.077,20.684,6.103C58.339,234.565,56,241.085,56,248C56,254.917,58.338,261.437,62.35,266.696z
		 M131.733,297.233c-0.308,0.171-2.25,0.547-6.125-0.771c-6.552-2.229-12.276-7.011-13.585-9.166
		c0.229-3.375,2.24-7.265,9.887-14.202c8.572,1.438,20.313,4.136,32.904,7.112C147.535,285.884,137.222,293.766,131.733,297.233z
		 M263.857,314.134c-2.718-4.634-5.686-10.961-7.066-18.134h13.84C269.193,301.556,266.744,308.479,263.857,314.134z
		 M353.788,274.96c-1.332,1.642-2.488,3.326-3.466,5.04H240c-16.805,0-47.529-7.297-74.637-13.735
		C142.173,260.757,122.145,256,112,256c-7.066,0-18.399,2.332-31.098,5.6C75.537,259.259,72,253.924,72,248
		c0-5.921,3.537-11.257,8.901-13.6c12.692,3.266,24.021,5.597,31.087,5.6c0.007,0,0.013,0.001,0.019,0.001
		c0.007,0,0.013-0.001,0.02-0.001c10.153-0.008,30.166-4.761,53.336-10.264c8.23-1.955,16.793-3.988,25.2-5.873
		c2.085,0.379,4.273-0.081,6.047-1.334C213.649,218.834,229.528,216,240,216h144c0.536,0,1.11,0.019,1.702,0.046
		c-4.437,10.178-8.212,25.485-4.739,45.09C369.896,261.872,360.575,266.588,353.788,274.96z M366.628,307.636
		c-3.172-4.099-5.981-10.091-3.618-17.071c0.608-1.796,1.686-3.654,3.204-5.526c5.129-6.326,12.008-8.041,17.959-8.041
		c0.961,0,1.897,0.045,2.798,0.122L366.628,307.636z M494.185,250.506c-2.724,0.864-6.094,1.955-9.957,3.205
		c-19.721,6.383-53.149,17.199-77.601,22.77l0.029-0.043c1.324-1.986,1.692-4.459,1.004-6.745c-0.688-2.285-2.362-4.144-4.563-5.068
		c-0.391-0.164-2.381-0.973-5.446-1.782c-4.994-21.071,0.19-36.154,4.598-44.298c24.712,5.215,61.741,17.196,81.986,23.747
		c3.859,1.249,7.228,2.339,9.949,3.203c1.086,0.345,1.815,1.352,1.815,2.506S495.271,250.161,494.185,250.506z"/>
	<path d="M440.02,232h-0.01c-4.418,0-7.995,3.582-7.995,8s3.586,8,8.005,8s8-3.582,8-8S444.438,232,440.02,232z"/>
</g>
<g>
</g>
<g>
</g>
<g>
</g>
<g>
</g>
<g>
</g>
<g>
</g>
<g>
</g>
<g>
</g>
<g>
</g>
<g>
</g>
<g>
</g>
<g>
</g>
<g>
</g>
<g>
</g>
<g>
</g>
</svg>
