<?xml version="1.0" encoding="iso-8859-1"?>
<!-- Generator: Adobe Illustrator 17.1.0, SVG Export Plug-In . SVG Version: 6.00 Build 0)  -->
<!DOCTYPE svg PUBLIC "-//W3C//DTD SVG 1.1//EN" "http://www.w3.org/Graphics/SVG/1.1/DTD/svg11.dtd">
<svg version="1.1" id="Capa_1" xmlns="http://www.w3.org/2000/svg" xmlns:xlink="http://www.w3.org/1999/xlink" x="0px" y="0px"
	 viewBox="0 0 512.005 512.005" style="enable-background:new 0 0 512.005 512.005;" xml:space="preserve">
<path d="M493.615,266.302c-3.148-3.1-8.214-3.061-11.313,0.089c-9.143,9.286-19.442,19.663-22.577,22.69
	c-26.577,9.827-56.517-6.779-78.474-18.957c-3.347-1.855-6.508-3.609-9.515-5.196c-20.953-11.059-31.653-9.269-41.297-3.896
	c-2.985-6.021-6.241-11.766-9.737-17.159c3.263-1.746,8.597-3.87,15.299-3.87c4.953,0,13.733,2.809,23.029,5.781
	c14.233,4.553,31.946,10.219,48.971,10.219c28.817,0,36.811-8.37,38.91-11.969c0.381-0.653,0.667-1.357,0.851-2.091l8-32
	c1.071-4.286-1.535-8.63-5.821-9.701c-4.288-1.069-8.63,1.534-9.702,5.82l-7.425,29.7c-2.132,1.307-8.715,4.24-24.814,4.24
	c-14.528,0-30.237-5.024-44.097-9.458c-10.976-3.51-20.454-6.542-27.903-6.542c-11.221,0-19.899,3.946-24.787,6.866
	c-1.762-2.14-3.568-4.195-5.418-6.152c12.103-15.465,16.596-30.318,19.956-41.43c2.393-7.914,4.282-14.165,7.773-17.497
	c1.842-1.759,4.518-4.292,7.799-7.4c45.528-43.116,76.846-73.656,81.7-82.556c1.243-2.279,3.01-5.881,5.246-10.44
	c4.313-8.793,10.22-20.837,16.21-31.174c8.988-15.508,12.987-18.148,13.668-18.511c4.163-1.157,6.667-5.43,5.613-9.646
	c-1.072-4.286-5.414-6.898-9.702-5.82c-11.23,2.808-22.334,21.771-40.156,58.105c-2.066,4.212-3.85,7.85-4.927,9.824
	c-3.079,5.644-29.542,32.089-78.656,78.601c-3.301,3.126-5.992,5.675-7.845,7.443c-6.54,6.242-9.089,14.676-12.041,24.441
	c-3.224,10.664-6.846,22.595-16.536,35.282c-1.812-1.38-3.657-2.66-5.528-3.854c5.457-7.44,10.869-21.942,5.427-48.718
	c-4.088-20.118-14.4-43.988-27.377-48.854c-2.21-0.829-4.672-0.64-6.729,0.516c-1.98,1.113-3.391,3.014-3.887,5.223
	c-0.499-2.223-1.923-4.131-3.919-5.24c-2.05-1.14-4.498-1.321-6.696-0.498c-12.977,4.866-23.289,28.736-27.377,48.854
	c-5.483,26.977,0.052,41.498,5.55,48.887c-1.78,1.146-3.537,2.37-5.263,3.685c-9.69-12.687-13.312-24.617-16.536-35.282
	c-2.952-9.766-5.501-18.199-12.041-24.441c-1.853-1.769-4.544-4.317-7.845-7.443c-49.114-46.512-75.577-72.957-78.656-78.601
	c-1.077-1.975-2.861-5.612-4.927-9.824C80.277,22.013,69.173,3.051,57.943,0.243c-4.288-1.071-8.63,1.534-9.702,5.82
	c-1.054,4.217,1.451,8.489,5.613,9.646c0.682,0.362,4.681,3.003,13.668,18.511c5.991,10.337,11.897,22.381,16.21,31.174
	c2.236,4.56,4.003,8.161,5.246,10.44c4.854,8.899,36.171,39.439,81.7,82.556c3.282,3.108,5.958,5.642,7.799,7.4
	c3.491,3.332,5.381,9.583,7.773,17.497c3.359,11.112,7.853,25.965,19.956,41.43c-1.85,1.957-3.656,4.011-5.418,6.152
	c-4.888-2.919-13.566-6.866-24.787-6.866c-7.449,0-16.928,3.032-27.903,6.542c-13.859,4.434-29.568,9.458-44.097,9.458
	c-16.099,0-22.682-2.934-24.814-4.24l-7.425-29.7c-1.071-4.286-5.414-6.893-9.702-5.82c-4.286,1.071-6.892,5.415-5.821,9.701l8,32
	c0.184,0.733,0.47,1.438,0.851,2.091c2.099,3.599,10.093,11.969,38.91,11.969c17.025,0,34.738-5.666,48.971-10.219
	c9.296-2.973,18.076-5.781,23.029-5.781c6.702,0,12.036,2.124,15.299,3.87c-3.495,5.393-6.751,11.138-9.737,17.159
	c-9.643-5.373-20.343-7.163-41.297,3.896c-3.007,1.587-6.168,3.341-9.515,5.196c-21.958,12.179-51.902,28.785-78.474,18.957
	c-3.135-3.027-13.435-13.404-22.577-22.69c-3.1-3.149-8.165-3.188-11.313-0.089c-3.149,3.1-3.188,8.165-0.088,11.313
	c24.545,24.933,24.708,24.998,26.705,25.806c8.266,3.338,16.558,4.733,24.736,4.733c25.43,0,49.759-13.493,68.771-24.038
	c3.272-1.814,6.362-3.528,9.222-5.038c15.89-8.388,21.231-7.113,27.296-3.368c-2.619,6.579-4.93,13.376-6.907,20.302
	c-0.651-0.01-1.313,0.051-1.976,0.209c-17.849,4.249-25.081,28.068-37.063,67.531c-6.135,20.204-13.771,45.351-24.551,73.379
	c-2.344,6.096-25.285,41.534-39.194,62.44c-2.447,3.679-1.449,8.645,2.229,11.092c1.362,0.907,2.901,1.341,4.424,1.341
	c2.587,0,5.127-1.254,6.668-3.569c6.171-9.275,37.139-56.026,40.806-65.56c10.988-28.57,18.717-54.022,24.927-74.475
	c6.822-22.469,12.587-41.441,18.722-50.699c-2.033,11.472-3.116,23.033-3.116,34.302c0,33.209,9.736,60.37,28.155,78.547
	c16.873,16.651,40.333,25.453,67.845,25.453s50.972-8.802,67.845-25.453c18.419-18.177,28.155-45.338,28.155-78.547
	c0-11.269-1.083-22.83-3.116-34.302c6.135,9.258,11.9,28.23,18.722,50.699c6.21,20.452,13.938,45.904,24.927,74.475
	c3.667,9.533,34.635,56.284,40.806,65.56c1.541,2.315,4.08,3.569,6.668,3.569c1.522,0,3.062-0.434,4.424-1.341
	c3.679-2.447,4.677-7.413,2.229-11.092c-13.909-20.906-36.85-56.345-39.194-62.44c-10.78-28.028-18.416-53.175-24.551-73.379
	c-11.982-39.463-19.214-63.282-37.063-67.531c-0.663-0.157-1.324-0.218-1.976-0.208c-1.977-6.926-4.288-13.723-6.907-20.303
	c6.066-3.744,11.406-5.018,27.296,3.368c2.86,1.51,5.95,3.224,9.222,5.038c19.012,10.545,43.339,24.038,68.771,24.038
	c8.179,0,16.474-1.396,24.741-4.735c1.993-0.806,2.156-0.871,26.701-25.804C496.803,274.468,496.764,269.402,493.615,266.302z
	 M237.512,202.204c-6.032-5.731-7.571-20.157-4.017-37.649c2.351-11.568,6.168-21.063,9.747-27.559l4.915,24.577
	c0.748,3.74,4.033,6.431,7.844,6.431c0.013,0,0.025,0,0.038,0c3.827-0.018,7.106-2.744,7.821-6.505l4.625-24.3
	c3.546,6.49,7.308,15.906,9.635,27.355c3.555,17.492,2.016,31.918-4.017,37.649c-0.228,0.217-0.436,0.446-0.633,0.682
	c-5.648-1.876-11.483-2.882-17.469-2.882c-6.094,0-12.031,1.047-17.774,2.989C238.008,202.719,237.774,202.453,237.512,202.204z
	 M312.608,419.163c-13.816,13.634-33.39,20.841-56.606,20.841s-42.79-7.207-56.606-20.841
	c-15.523-15.319-23.394-37.915-23.394-67.159c0-15.672,2.33-32.223,6.606-48.23c2.86,6.618,6.598,12.865,11.172,18.517
	c1.581,1.954,3.892,2.968,6.224,2.968c1.767,0,3.546-0.583,5.027-1.78c3.435-2.779,3.967-7.816,1.188-11.252
	c-8.397-10.378-13.206-22.729-14.063-35.937c2.588-5.969,5.439-11.725,8.558-17.153c15.75-27.411,35.902-43.133,55.289-43.133
	s39.539,15.722,55.289,43.133c3.117,5.424,5.966,11.175,8.552,17.139c-2.208,33.304-29.989,59.728-63.842,59.728
	c-7.323,0-14.502-1.225-21.336-3.641c-4.166-1.473-8.736,0.711-10.209,4.877c-1.472,4.166,0.711,8.736,4.877,10.209
	c8.552,3.022,17.524,4.555,26.668,4.555c32.822,0,61.078-19.875,73.398-48.216c4.273,16.002,6.602,32.549,6.602,48.216
	C336.002,381.248,328.131,403.844,312.608,419.163z"/>
<g>
</g>
<g>
</g>
<g>
</g>
<g>
</g>
<g>
</g>
<g>
</g>
<g>
</g>
<g>
</g>
<g>
</g>
<g>
</g>
<g>
</g>
<g>
</g>
<g>
</g>
<g>
</g>
<g>
</g>
</svg>
