<?xml version="1.0" encoding="iso-8859-1"?>
<!-- Generator: Adobe Illustrator 17.1.0, SVG Export Plug-In . SVG Version: 6.00 Build 0)  -->
<!DOCTYPE svg PUBLIC "-//W3C//DTD SVG 1.1//EN" "http://www.w3.org/Graphics/SVG/1.1/DTD/svg11.dtd">
<svg version="1.1" id="Capa_1" xmlns="http://www.w3.org/2000/svg" xmlns:xlink="http://www.w3.org/1999/xlink" x="0px" y="0px"
	 viewBox="0 0 512.003 512.003" style="enable-background:new 0 0 512.003 512.003;" xml:space="preserve">
<path d="M378.734,180.424l44.422-88.845c1.976-3.952,0.374-8.758-3.578-10.733c-3.952-1.977-8.757-0.373-10.733,3.577
	l-44.422,88.845c-1.422,2.844-5.139,7.378-7.649,9.33l-60.62,47.149c-2.424-3.694-5.342-7.031-8.661-9.924l24.508-24.507
	c3.923-3.924,8.351-10.8,10.3-15.996l18.382-49.019c1.691-4.51,3.807-11.734,4.817-16.446L367.824,9.677
	c0.926-4.319-1.826-8.572-6.146-9.498c-4.321-0.924-8.573,1.826-9.499,6.146l-22.324,104.177
	c-0.842,3.928-2.744,10.421-4.154,14.181l-18.382,49.019c-1.152,3.072-4.313,7.981-6.632,10.3l-12.687,12.686v-36.686
	c0-13.376-7.809-20.849-12.422-23.155l-7.155,14.311c0,0-0.086-0.035-0.232-0.123c0.39,0.232,3.81,2.46,3.81,8.968v12.305
	c-4.711-2.732-10.173-4.305-16-4.305s-11.289,1.573-16,4.305v-12.305c0-6.508,3.42-8.735,3.81-8.968
	c-0.146,0.088-0.232,0.123-0.232,0.123l-7.155-14.311c-4.614,2.307-12.422,9.779-12.422,23.155v36.686l-12.687-12.686
	c-2.319-2.318-5.48-7.228-6.632-10.299l-18.382-49.021c-1.41-3.759-3.312-10.252-4.154-14.179L159.824,6.325
	c-0.925-4.32-5.176-7.069-9.499-6.146c-4.32,0.926-7.072,5.179-6.146,9.498l22.324,104.179c1.01,4.711,3.125,11.936,4.817,16.444
	l18.382,49.021c1.949,5.195,6.377,12.071,10.3,15.995l24.508,24.507c-3.319,2.893-6.238,6.23-8.661,9.924l-60.62-47.15
	c-2.51-1.951-6.227-6.485-7.648-9.329l-44.422-88.845c-1.975-3.95-6.78-5.553-10.733-3.577c-3.952,1.976-5.554,6.781-3.578,10.733
	l44.422,88.845c2.502,5.004,7.72,11.368,12.136,14.803l63.9,49.701c-0.844,3.558-1.304,7.262-1.304,11.074
	c0,1.029,0.044,2.048,0.108,3.061c-9.418,3.911-35.354,12.18-58.68,19.013c-6.067,1.777-13.016,6.885-16.521,12.145l-23.125,34.688
	c-3.553,5.331-5.475,13.803-4.569,20.146l6.869,48.08c0.57,3.99,3.993,6.869,7.91,6.869c0.376,0,0.757-0.026,1.141-0.081
	c4.374-0.625,7.413-4.678,6.788-9.052l-6.868-48.079c-0.346-2.425,0.685-6.971,2.042-9.008l23.125-34.688
	c1.398-2.098,5.288-4.956,7.707-5.665c17.089-5.006,43.573-13.031,57.876-18.708c2.81,6.608,7.065,12.455,12.359,17.158
	l-54.561,40.921c-4.85,3.637-9.821,10.758-11.562,16.564l-19.402,64.675c-1.637,5.458-2.029,13.787-0.912,19.375l14.431,72.155
	c0.761,3.803,4.101,6.433,7.836,6.433c0.52,0,1.048-0.052,1.577-0.157c4.333-0.866,7.142-5.081,6.276-9.414l-14.431-72.154
	c-0.605-3.026-0.339-8.684,0.548-11.641l19.402-64.675c0.778-2.594,3.669-6.735,5.836-8.36l23.279-17.459
	c-1.636,5.965-2.479,12.422-2.479,19.288c0,36.146,23.949,76.571,56,76.571s56-40.426,56-76.571c0-6.866-0.843-13.323-2.479-19.288
	l23.279,17.459c2.167,1.625,5.058,5.767,5.836,8.361l19.402,64.673c0.887,2.958,1.153,8.615,0.548,11.641l-14.431,72.155
	c-0.866,4.333,1.943,8.548,6.276,9.414c0.53,0.105,1.057,0.157,1.577,0.157c3.735,0,7.076-2.63,7.836-6.433l14.431-72.156
	c1.117-5.587,0.725-13.916-0.912-19.375l-19.402-64.673c-1.741-5.808-6.712-12.929-11.562-16.565L287.84,291.88
	c5.294-4.703,9.549-10.55,12.359-17.158c14.303,5.677,40.788,13.702,57.876,18.707c2.42,0.71,6.31,3.568,7.708,5.666l23.125,34.688
	c1.358,2.037,2.389,6.583,2.043,9.007l-6.869,48.08c-0.625,4.374,2.414,8.427,6.788,9.052c0.384,0.055,0.765,0.081,1.141,0.081
	c3.917,0,7.34-2.88,7.91-6.869l6.869-48.081c0.905-6.342-1.016-14.813-4.57-20.145l-23.125-34.688
	c-3.506-5.26-10.455-10.367-16.522-12.146c-23.326-6.833-49.261-15.101-58.68-19.012c0.064-1.013,0.108-2.032,0.108-3.061
	c0-3.812-0.46-7.516-1.304-11.074l63.9-49.7C371.015,191.792,376.232,185.428,378.734,180.424z M256.001,184.001
	c8.822,0,16,7.178,16,16c0,3.534-1.169,6.937-3.3,9.718c-4.048-1.112-8.303-1.718-12.7-1.718c-4.394,0-8.646,0.605-12.692,1.716
	c-2.119-2.772-3.308-6.179-3.308-9.716C240.001,191.179,247.179,184.001,256.001,184.001z M256.001,408.001
	c-20.187,0-40-30.003-40-60.571c0-26.382,15.701-43.429,40-43.429s40,17.047,40,43.429
	C296.001,377.998,276.188,408.001,256.001,408.001z M256.001,288.001c-17.645,0-32-14.355-32-32s14.355-32,32-32s32,14.355,32,32
	S273.646,288.001,256.001,288.001z"/>
<g>
</g>
<g>
</g>
<g>
</g>
<g>
</g>
<g>
</g>
<g>
</g>
<g>
</g>
<g>
</g>
<g>
</g>
<g>
</g>
<g>
</g>
<g>
</g>
<g>
</g>
<g>
</g>
<g>
</g>
</svg>
