<?xml version="1.0" encoding="iso-8859-1"?>
<!-- Generator: Adobe Illustrator 17.1.0, SVG Export Plug-In . SVG Version: 6.00 Build 0)  -->
<!DOCTYPE svg PUBLIC "-//W3C//DTD SVG 1.1//EN" "http://www.w3.org/Graphics/SVG/1.1/DTD/svg11.dtd">
<svg version="1.1" id="Capa_1" xmlns="http://www.w3.org/2000/svg" xmlns:xlink="http://www.w3.org/1999/xlink" x="0px" y="0px"
	 viewBox="0 0 512.003 512.003" style="enable-background:new 0 0 512.003 512.003;" xml:space="preserve">
<path d="M450.224,400.848c0.777,0.237,1.563,0.35,2.335,0.35c3.427,0,6.598-2.221,7.649-5.669c1.288-4.227-1.093-8.697-5.32-9.985
	l-14.189-4.325c-0.596-4.406-1.301-8.73-2.093-12.988l11.03-1.936c4.352-0.764,7.26-4.911,6.497-9.263s-4.907-7.265-9.262-6.497
	l-11.694,2.052c-0.948-3.721-1.981-7.379-3.093-10.98l12.893-6.959c3.888-2.099,5.339-6.952,3.24-10.84
	c-2.099-3.888-6.953-5.34-10.84-3.24l-10.653,5.75c-1.446-3.668-2.991-7.266-4.627-10.801l9.683-12.613
	c2.69-3.505,2.031-8.527-1.474-11.218c-3.505-2.69-8.527-2.03-11.217,1.474l-5.117,6.665c-1.983-3.437-4.062-6.809-6.248-10.111
	l6.728-11.944c2.168-3.85,0.806-8.728-3.044-10.896c-3.851-2.169-8.729-0.806-10.896,3.045l-3.155,5.601
	c-2.279-2.846-4.644-5.637-7.095-8.374c-0.024-0.143-0.042-0.286-0.075-0.429c-0.029-0.128-0.07-0.25-0.105-0.375l6.691-6.59
	c3.148-3.101,3.187-8.166,0.086-11.313c-3.101-3.148-8.166-3.188-11.313-0.086l-6.891,6.786c-2.659-2.549-5.536-5.179-8.687-7.882
	l7.3-4.037c3.866-2.139,5.268-7.006,3.129-10.872s-7.004-5.268-10.873-3.13l-13.161,7.278c-2.657-1.942-5.469-3.91-8.45-5.904
	l6.536-5.697c3.331-2.902,3.677-7.956,0.774-11.287c-2.903-3.331-7.957-3.678-11.287-0.773l-10.197,8.888
	c-2.025-1.188-4.116-2.382-6.272-3.583c-0.409-0.278-0.84-0.517-1.289-0.713c-0.648-0.357-1.301-0.715-1.96-1.073l6.083-8.552
	c2.561-3.601,1.718-8.595-1.882-11.156c-3.601-2.561-8.596-1.719-11.156,1.883l-7.418,10.429c-3.309-1.616-6.748-3.241-10.323-4.873
	l5.503-8.65c2.372-3.728,1.272-8.672-2.456-11.044c-3.728-2.371-8.672-1.271-11.044,2.456l-6.846,10.76
	c-3.424-1.43-6.963-2.864-10.611-4.301l4.466-8.563c2.043-3.917,0.524-8.749-3.394-10.792c-3.919-2.046-8.75-0.525-10.793,3.394
	l-5.347,10.251c-1.587-0.579-3.186-1.158-4.812-1.738c-1.942-0.692-4.339-1.548-7.086-2.631l4.337-8.314
	c2.043-3.918,0.524-8.75-3.394-10.793c-3.917-2.046-8.749-0.524-10.793,3.393l-4.692,8.995c-3.419-1.839-7.027-3.979-10.746-6.481
	l7.338-11.405c2.391-3.716,1.317-8.666-2.399-11.057c-3.715-2.393-8.666-1.318-11.056,2.398l-6.605,10.265
	c-3.787-3.319-7.59-7.054-11.334-11.254l9.683-8.363c3.344-2.888,3.713-7.94,0.826-11.284c-2.889-3.343-7.941-3.714-11.284-0.825
	l-9.162,7.913c-2.249-3.203-4.447-6.606-6.574-10.234c0.011-0.133,0.023-0.265,0.027-0.399l9.747-4.874
	c3.952-1.976,5.554-6.781,3.578-10.733c-1.975-3.95-6.78-5.552-10.733-3.577l-10.153,5.077c-1.436-3.129-2.818-6.393-4.141-9.791
	l13.45-6.725c3.952-1.976,5.554-6.781,3.578-10.733c-1.975-3.95-6.78-5.553-10.733-3.577l-11.531,5.766
	c-0.391-1.307-0.775-2.627-1.149-3.969l-1.044-3.672c-2.136-7.263-6.667-13.4-12.887-17.553l21.542-50.265
	c1.741-4.062-0.141-8.764-4.202-10.505c-4.063-1.741-8.764,0.141-10.504,4.202l-21.965,51.253c-3.894-0.326-7.854,0.062-11.714,1.2
	c-4.641,1.366-8.735,3.702-12.138,6.713c-0.058-0.042-0.12-0.086-0.176-0.125c-1.283-0.911-3.157-2.199-5.57-3.827
	c-4.001-2.7-9.586-6.407-16.6-11.017c-11.915-7.832-24.011-15.68-24.131-15.758c-3.707-2.403-8.661-1.348-11.065,2.358
	c-2.404,3.707-1.348,8.661,2.358,11.065c19.517,12.66,41.371,27.036,46.217,30.555c-2.2,6.137-2.556,12.986-0.586,19.681
	l0.824,2.918c0.576,2.067,1.177,4.108,1.791,6.136l-11.155,0.409c-4.416,0.161-7.863,3.872-7.701,8.288
	c0.158,4.315,3.707,7.706,7.989,7.706c0.099,0,0.199-0.002,0.299-0.006l15.888-0.583c1.313,3.541,2.676,7.031,4.114,10.441
	l-12.433,7.022c-3.847,2.173-5.205,7.053-3.032,10.899c1.471,2.604,4.182,4.067,6.973,4.067c1.333,0,2.684-0.333,3.927-1.035
	l11.313-6.389c1.723,3.416,3.51,6.766,5.374,10.034l-8.731,13.606c-2.386,3.719-1.306,8.667,2.413,11.054
	c1.337,0.858,2.833,1.268,4.313,1.268c2.633,0,5.212-1.3,6.74-3.681l4.657-7.259c2.253,3.272,4.593,6.452,7.009,9.551
	c-0.044,0.472-0.057,0.779-0.06,0.886c-0.02,0.661,0.051,1.302,0.183,1.92l-5.728,8.927c-2.386,3.719-1.306,8.668,2.413,11.054
	c1.337,0.857,2.833,1.268,4.313,1.268c2.634,0,5.212-1.3,6.741-3.681l4.123-6.426c3.175,3.356,6.46,6.593,9.863,9.702l-6.515,10.153
	c-2.386,3.719-1.306,8.667,2.413,11.054c1.337,0.858,2.833,1.268,4.313,1.268c2.633,0,5.212-1.3,6.74-3.681l5.417-8.443
	c4.253,3.268,8.66,6.367,13.218,9.299l-6.065,5.107c-3.38,2.846-3.813,7.893-0.967,11.272c1.583,1.879,3.845,2.847,6.124,2.847
	c1.819,0,3.648-0.617,5.149-1.881l10.403-8.76c3.608,1.913,7.298,3.735,11.072,5.462l-4.018,3.696
	c-3.252,2.991-3.463,8.053-0.472,11.304c1.578,1.715,3.73,2.584,5.89,2.584c1.936,0,3.877-0.698,5.414-2.112l9.54-8.776
	c0.636,0.233,1.26,0.479,1.901,0.708c2.917,1.04,5.759,2.077,8.552,3.114l-4.364,6.053c-2.583,3.584-1.772,8.584,1.812,11.167
	c1.415,1.021,3.051,1.512,4.671,1.512c2.484,0,4.933-1.154,6.497-3.323l6.808-9.444c3.599,1.455,7.074,2.912,10.452,4.375
	l-4.771,8.801c-2.106,3.884-0.665,8.739,3.22,10.846c1.212,0.656,2.518,0.969,3.806,0.969c2.84,0,5.591-1.517,7.04-4.189l5.292-9.76
	c3.559,1.724,6.986,3.459,10.281,5.212l-4.396,11.438c-1.585,4.124,0.473,8.753,4.597,10.338c0.944,0.362,1.914,0.534,2.869,0.534
	c3.215,0,6.247-1.952,7.469-5.132l3.506-9.124c3.693,2.288,7.2,4.615,10.538,6.986l-5.804,8.204c-2.552,3.606-1.696,8.6,1.91,11.151
	c1.403,0.992,3.017,1.47,4.614,1.47c2.508,0,4.979-1.177,6.538-3.381l5.358-7.573c4.026,3.478,7.767,7.067,11.262,10.79
	l-9.856,6.341c-3.715,2.391-4.79,7.34-2.399,11.056c1.529,2.377,4.105,3.673,6.735,3.673c1.482,0,2.982-0.412,4.321-1.273
	l11.521-7.412c2.132,2.903,4.139,5.892,6.025,8.968l-11.502,7.4c-3.715,2.391-4.79,7.34-2.399,11.056
	c1.529,2.377,4.105,3.673,6.735,3.673c1.482,0,2.982-0.412,4.321-1.273l10.378-6.677c1.941,4.247,3.69,8.65,5.249,13.216
	l-10.402,4.419c-4.066,1.728-5.963,6.425-4.235,10.491c1.294,3.046,4.254,4.874,7.367,4.874c1.043,0,2.104-0.205,3.125-0.639
	l8.569-3.64c1.082,4.642,1.999,9.439,2.754,14.397l-11.517,6.217c-3.888,2.099-5.339,6.952-3.24,10.84
	c1.447,2.68,4.201,4.202,7.047,4.202c1.283,0,2.585-0.31,3.793-0.962l5.838-3.151c0.316,4.237,0.534,8.581,0.65,13.038
	l-12.589,6.795c-3.888,2.099-5.339,6.952-3.24,10.84c1.447,2.68,4.201,4.202,7.047,4.202c1.283,0,2.585-0.31,3.793-0.962l6.504-3.51
	c3.246,10.573,11.83,18.833,22.596,21.614v49.013c0,4.418,3.582,8,8,8s8-3.582,8-8V454.99c0.75-0.194,1.487-0.423,2.215-0.669
	l22.63,45.26c1.401,2.803,4.227,4.424,7.162,4.424c1.202,0,2.423-0.272,3.571-0.847c3.952-1.976,5.554-6.781,3.578-10.733
	l-23.466-46.931c3.935-4.334,6.691-9.75,7.783-15.74l4.871,2.788c1.254,0.717,2.62,1.058,3.967,1.058
	c2.775,0,5.473-1.445,6.95-4.026c2.195-3.835,0.866-8.723-2.968-10.918l-12.512-7.162c-0.156-4.399-0.397-8.729-0.719-12.996
	L450.224,400.848z M378.377,277.856c4.466,4.995,8.623,10.192,12.471,15.596c-15.594,1.878-23.951,8.879-28.353,15.056
	c-2.343-3.093-4.815-6.105-7.419-9.039C355.621,295.544,358.905,284.052,378.377,277.856z M384.487,349.921
	c0.539-0.944,2.289-3.608,5.939-5.818c6.057-3.67,14.695-4.344,24.985-1.956c1.271,3.813,2.439,7.701,3.508,11.666
	c-14.937-1.604-24.899,1.87-31.305,6.074C386.664,356.487,385.615,353.171,384.487,349.921z M373.532,321.611l-0.035,0.176
	c0.303-1.309,3.601-12.793,25.63-12.832c0.516-0.001,1.018-0.055,1.507-0.149c2.951,5.199,5.664,10.564,8.123,16.112
	c-15.198-1.271-25.01,3.518-30.998,8.603c-2.042-4.253-4.274-8.365-6.683-12.355L373.532,321.611z M391.706,377.981
	c0.116-0.202,0.24-0.396,0.34-0.611c0.011-0.022,1.519-2.568,5.259-4.697c4.302-2.448,12.137-4.687,25.434-2.113
	c1.301,6.867,2.33,13.946,3.089,21.241c-14.64-3.937-25.06-1.892-31.967,1.355C393.296,387.948,392.578,382.891,391.706,377.981z
	 M319.734,269.296c-3.342-2.199-6.827-4.362-10.466-6.492c-0.921-3.073-3.737-16.71,13.862-28.73
	c4.912,2.849,9.773,5.854,14.547,9.031C326.428,252.049,321.586,261.456,319.734,269.296z M279.594,247.622
	c-0.676-5.64,0.48-16.624,15.088-28.252c4.383,2.025,8.779,4.151,13.166,6.389c-10.225,9.141-14.239,19.397-15.11,28.104
	C288.542,251.763,284.159,249.684,279.594,247.622z M257.159,238.204c-0.278-0.127-0.561-0.236-0.847-0.33
	c-2.574-1.004-5.185-2.007-7.863-3.009c-0.906-5.179-0.633-16.596,14.342-28.802c5.142,1.951,10.399,4.023,15.727,6.233
	c-10.372,10.231-14.036,20.354-14.889,28.488C261.511,239.923,259.351,239.063,257.159,238.204z M194.282,168.344
	c-12.747,6.686-19.346,15.057-22.708,22.536c-4.492-4.27-8.766-8.778-12.813-13.534c2.556-5.58,9.379-13.891,27.486-17.079
	C188.76,162.998,191.436,165.696,194.282,168.344z M186.397,197.084c3.464-7.212,10.919-13.209,21.629-17.435
	c3.455,2.51,7.107,4.936,10.969,7.259c-11.399,9.179-15.788,19.087-17.232,27.015c-5.974-3.624-11.672-7.557-17.105-11.784
	C184.977,200.651,185.509,198.932,186.397,197.084z M217.144,222.297c-0.406-4.737,0.62-16.458,17.733-27.023
	c3.529,1.615,7.205,3.144,11.026,4.581c-10.133,10.573-13.271,20.94-13.722,29.022C227.013,226.861,222.006,224.662,217.144,222.297
	z M130.747,133.221c-2.051-4.406-3.992-8.927-5.803-13.584c1.886-4.326,8.353-14.249,28.166-15.474
	c1.565,4.413,3.462,9.251,5.778,14.361C144.695,120.908,136.001,127.113,130.747,133.221z M126.934,72.653
	c1.496-0.441,3.021-0.66,4.539-0.66c2.638,0,5.251,0.661,7.633,1.961c3.752,2.047,6.482,5.433,7.667,9.462l1.012,3.562
	c0.138,0.495,0.284,1.02,0.436,1.561c-14.399,1.608-23.684,6.969-29.6,12.731c-0.572-1.891-1.132-3.795-1.669-5.723l-0.856-3.028
	C113.607,84.055,118.467,75.144,126.934,72.653z M139.221,149.534c1.601-3.99,7.65-14.333,27.482-15.843
	c2.45,4.205,5.199,8.48,8.283,12.758c-13.714,3.973-21.854,10.748-26.688,17.349C145.097,159.23,142.073,154.473,139.221,149.534z
	 M334.791,280.227c-0.587-4.371-0.209-15.94,16.569-27.328c5.089,3.922,10.025,8.072,14.76,12.469
	c-13.408,5.9-20.21,14.233-23.65,21.399C340.01,284.543,337.453,282.364,334.791,280.227z M395.445,424.003
	c0-4.133-0.085-8.173-0.237-12.141c0.317-0.326,0.62-0.672,0.885-1.061c0.014-0.021,1.919-2.285,5.958-3.771
	c4.596-1.693,12.581-2.608,25.047,1.949c0.223,4.919,0.347,9.92,0.347,15.024c0,8.822-7.178,16-16,16
	S395.445,432.825,395.445,424.003z"/>
<g>
</g>
<g>
</g>
<g>
</g>
<g>
</g>
<g>
</g>
<g>
</g>
<g>
</g>
<g>
</g>
<g>
</g>
<g>
</g>
<g>
</g>
<g>
</g>
<g>
</g>
<g>
</g>
<g>
</g>
</svg>
