<?xml version="1.0" encoding="iso-8859-1"?>
<!-- Generator: Adobe Illustrator 17.1.0, SVG Export Plug-In . SVG Version: 6.00 Build 0)  -->
<!DOCTYPE svg PUBLIC "-//W3C//DTD SVG 1.1//EN" "http://www.w3.org/Graphics/SVG/1.1/DTD/svg11.dtd">
<svg version="1.1" id="Capa_1" xmlns="http://www.w3.org/2000/svg" xmlns:xlink="http://www.w3.org/1999/xlink" x="0px" y="0px"
	 viewBox="0 0 512.002 512.002" style="enable-background:new 0 0 512.002 512.002;" xml:space="preserve">
<path d="M447.92,326.869c-0.625-4.375-4.679-7.414-9.051-6.789l-48.082,6.869c-2.181,0.31-6.313-0.815-8.036-2.194l-27.506-22.004
	c-4.338-3.471-11.675-7.104-17.065-8.452l-19.625-4.906c-2.414-5.295-7.623-9.04-13.735-9.351c-0.27-0.027-0.543-0.042-0.819-0.042
	c-6.127,0-7.591-0.01-7.914-9.104c2.186-0.674,4.587-1.744,6.91-3.455c4.108-3.027,9.004-8.856,9.004-19.44h16
	c12.772,0,24.422-9.869,26.521-22.467l10.739-64.436c1.059-6.353,7.052-15.156,12.575-18.469l26.28-15.769
	c3.789-2.273,5.017-7.188,2.744-10.977c-2.273-3.788-7.187-5.017-10.976-2.744l-26.28,15.769
	c-9.627,5.776-18.28,18.484-20.125,29.559l-10.739,64.436c-0.808,4.847-5.826,9.098-10.739,9.098h-18.962
	c-0.959-2.642-2.033-4.967-3.035-6.886c7.229-2.621,14.007-6.236,19.423-11.235c5.377-4.964,3.524-11.499,2.172-16.271
	c-1.456-5.136-3.106-10.957-0.126-18.751c3.961-10.359,2.379-17.23,0.56-21.001c12.669-32.883,10.338-66.348-6.977-99.559
	c-14.239-27.313-34.845-46.554-42.602-53.797c-0.991-0.925-1.767-1.646-2.279-2.158c-2.944-2.943-7.654-3.134-10.83-0.442
	c-3.176,2.694-3.753,7.375-1.329,10.761c0.291,0.406,29.124,41.047,30.508,75.658c1.18,29.492-14.932,47.368-28.656,57.171
	c-0.108,0.077-0.206,0.163-0.309,0.245c-2.954-1.017-6.084-1.735-9.56-1.735c-3.886,0-7.346,0.889-10.603,2.102
	c-0.235-0.215-0.481-0.421-0.747-0.611c-13.724-9.803-29.836-27.679-28.656-57.171c1.384-34.611,30.217-75.252,30.506-75.655
	c2.429-3.384,1.854-8.066-1.322-10.763s-7.889-2.503-10.834,0.441c-0.512,0.513-1.288,1.233-2.279,2.158
	c-7.757,7.243-28.362,26.484-42.602,53.797c-17.639,33.832-19.735,67.93-6.257,101.406c-1.399,4.001-2.063,10.303,1.321,19.154
	c2.98,7.794,1.33,13.615-0.125,18.751c-1.353,4.771-3.205,11.307,2.172,16.271c5.02,4.633,11.521,8.394,19.409,11.261
	c-0.998,1.914-2.066,4.231-3.021,6.86h-18.962c-4.913,0-9.932-4.251-10.739-9.098l-10.739-64.436
	c-1.846-11.074-10.498-23.782-20.125-29.559l-26.28-15.769c-3.79-2.272-8.703-1.046-10.976,2.744
	c-2.273,3.789-1.045,8.703,2.744,10.977l26.281,15.769c5.522,3.313,11.516,12.116,12.575,18.469l10.739,64.436
	c2.1,12.598,13.75,22.467,26.521,22.467h16c0,10.584,4.896,16.413,9.004,19.44c2.322,1.711,4.724,2.781,6.91,3.455
	c-0.323,9.095-1.787,9.104-7.914,9.104c-0.277,0-0.55,0.014-0.819,0.042c-6.112,0.312-11.322,4.057-13.735,9.351l-19.625,4.906
	c-5.39,1.348-12.727,4.981-17.065,8.452l-27.506,22.004c-1.723,1.379-5.852,2.513-8.038,2.193l-48.081-6.868
	c-4.372-0.626-8.426,2.414-9.051,6.789c-0.625,4.373,2.414,8.426,6.788,9.051l48.079,6.867c0.978,0.141,1.998,0.208,3.045,0.208
	c5.993,0,12.836-2.214,17.251-5.746l27.506-22.004c2.556-2.045,7.776-4.631,10.951-5.425l14.298-3.574v26.977l-9.424,1.571
	c-4.254,0.709-8.037,3.148-10.379,6.693s-3.103,7.981-2.087,12.172c6.577,27.128,13.516,57.649,13.884,62.345
	c-0.423,5.997-9.91,56.043-15.846,86.464c-0.846,4.337,1.983,8.538,6.32,9.384c0.518,0.102,1.033,0.15,1.541,0.15
	c3.75-0.001,7.098-2.65,7.843-6.47c4.855-24.884,16.148-83.419,16.148-89.532c0-6.21-9.812-47.415-14.198-65.523l6.476-1.079
	c1.315,22.498,7.336,43.462,17.291,59.816C221.654,429.066,238.143,440,256.001,440s34.347-10.934,46.432-30.786
	c9.955-16.354,15.976-37.318,17.291-59.816l6.476,1.079c-4.386,18.107-14.198,59.313-14.198,65.523
	c0,6.113,11.293,64.648,16.148,89.532c0.745,3.819,4.093,6.47,7.843,6.47c0.508,0,1.024-0.049,1.541-0.15
	c4.336-0.846,7.166-5.047,6.32-9.384c-5.936-30.421-15.422-80.467-15.846-86.464c0.368-4.694,7.307-35.216,13.884-62.345
	c1.016-4.19,0.255-8.627-2.087-12.172s-6.125-5.984-10.379-6.694l-9.424-1.571v-26.977l14.298,3.574
	c3.176,0.794,8.396,3.38,10.952,5.425l27.506,22.004c4.416,3.533,11.258,5.746,17.251,5.746c1.046,0,2.067-0.067,3.044-0.207
	l48.081-6.868C445.506,335.295,448.545,331.242,447.92,326.869z M263.12,296.514c-2.083,2.8-5.569,7.485-7.119,7.485
	c-1.55,0-5.036-4.686-7.119-7.485c-4.193-5.636-9.643-12.951-18.233-15.546c0.752-2.771,1.087-5.762,1.233-8.968h48.237
	c0.146,3.207,0.482,6.198,1.233,8.968C272.763,283.563,267.313,290.878,263.12,296.514z M310.513,87.681
	c-0.284-7.098-1.508-14.313-3.332-21.384c15.054,29.226,16.841,58.579,5.336,87.308c-5.791,1.046-16.444,2-29.7-1.158
	C297.527,139.533,311.761,118.877,310.513,87.681z M203.339,66.297c-1.824,7.071-3.048,14.286-3.332,21.384
	c-1.257,31.419,13.189,52.145,28.01,65.04c-14.034,3.127-25.01,1.661-30.138,0.567C186.514,124.659,188.341,95.415,203.339,66.297z
	 M199.473,173.142c-0.513-1.341-0.85-2.501-1.064-3.494c7.908,1.234,20.437,1.888,35.532-1.888
	c4.629-1.156,8.556-2.942,12.021-4.518c3.828-1.74,7.134-3.243,10.039-3.243c2.905,0,6.211,1.503,10.039,3.243
	c3.465,1.575,7.392,3.361,12.021,4.518c15.098,3.776,27.625,3.123,35.532,1.888c-0.214,0.993-0.552,2.153-1.064,3.494
	c-4.878,12.759-2.026,22.818-0.323,28.829c0.153,0.539,0.331,1.168,0.484,1.746C302.219,211.87,283.172,216,256.001,216
	s-46.218-4.13-56.689-12.282c0.153-0.578,0.332-1.207,0.484-1.746C201.5,195.961,204.351,185.901,199.473,173.142z M223.047,229.579
	c12.424,2.17,24.757,2.421,32.954,2.421c6.467,0,19.874-0.004,33.99-2.628c1.376,2.08,6.01,9.745,6.01,18.628c0,6.612-3.807,8-7,8
	h-66c-3.193,0-7-1.388-7-8c0-8.852,4.621-16.518,6.003-18.616C222.353,229.448,222.695,229.517,223.047,229.579z M304.001,340
	c0,40.774-17.631,75.86-40,82.752V344c0-4.418-3.582-8-8-8c-4.418,0-8,3.582-8,8v78.752c-22.369-6.893-40-41.978-40-82.752v-44h16
	c4.249,0,7.384,3.803,12.044,10.065c4.619,6.208,10.368,13.935,19.956,13.935c9.588,0,15.337-7.727,19.956-13.935
	c4.66-6.263,7.795-10.065,12.044-10.065h16V340z"/>
<g>
</g>
<g>
</g>
<g>
</g>
<g>
</g>
<g>
</g>
<g>
</g>
<g>
</g>
<g>
</g>
<g>
</g>
<g>
</g>
<g>
</g>
<g>
</g>
<g>
</g>
<g>
</g>
<g>
</g>
</svg>
