<?xml version="1.0" encoding="iso-8859-1"?>
<!-- Generator: Adobe Illustrator 17.1.0, SVG Export Plug-In . SVG Version: 6.00 Build 0)  -->
<!DOCTYPE svg PUBLIC "-//W3C//DTD SVG 1.1//EN" "http://www.w3.org/Graphics/SVG/1.1/DTD/svg11.dtd">
<svg version="1.1" id="Capa_1" xmlns="http://www.w3.org/2000/svg" xmlns:xlink="http://www.w3.org/1999/xlink" x="0px" y="0px"
	 viewBox="0 0 512.002 512.002" style="enable-background:new 0 0 512.002 512.002;" xml:space="preserve">
<path d="M503.973,366.449c-0.411-2.874-1.586-5.592-3.4-7.86l-30.297-37.872c-1.752-2.188-4.054-3.896-6.66-4.94l-37.16-14.863
	c-2.765-1.107-5.781-1.431-8.718-0.943l-89.866,14.978c10.096-5.277,18.731-10.657,25.893-16.128
	c0.465,0.084,0.942,0.129,1.427,0.129c0.377,0,0.758-0.026,1.142-0.081l56.101-8.015c2.305-0.329,4.47-1.13,6.434-2.38
	l89.429-56.909c3.728-2.372,4.827-7.316,2.455-11.044c-2.373-3.73-7.318-4.828-11.044-2.454l-89.43,56.909
	c-0.031,0.02-0.067,0.033-0.105,0.038l-30.445,4.349l43.985-21.993c1.57-0.785,2.994-1.812,4.228-3.047l38.617-38.616
	c2.277-2.278,3.815-5.151,4.447-8.311l7.775-38.879c0.866-4.333-1.943-8.548-6.276-9.414c-4.334-0.857-8.547,1.943-9.414,6.275
	l-7.775,38.878c-0.011,0.053-0.037,0.102-0.073,0.138l-23.984,23.972c5.2-11.165,8.617-23.132,5.904-30.969
	c-2.389-6.902-7.567-11.745-14.858-14.366c1.911-6.695,2.694-16.174-1.817-27.346c-5.148-12.746-45.603-71.819-86.924-87.451
	c-14.461-5.471-27.766-5.295-39.552,0.507c-0.038,0.018-0.075,0.035-0.113,0.053c-0.046,0.023-0.094,0.042-0.14,0.065
	c-0.076,0.038-0.145,0.083-0.219,0.124c-0.128,0.069-0.255,0.138-0.379,0.214c-0.109,0.067-0.213,0.137-0.318,0.208
	c-0.11,0.075-0.22,0.15-0.326,0.23c-0.106,0.08-0.209,0.164-0.31,0.249c-0.098,0.082-0.195,0.165-0.289,0.251
	c-0.098,0.09-0.193,0.184-0.286,0.279c-0.09,0.091-0.178,0.184-0.264,0.279c-0.087,0.098-0.17,0.198-0.252,0.3
	s-0.162,0.204-0.24,0.31c-0.076,0.105-0.148,0.212-0.219,0.32c-0.072,0.11-0.143,0.22-0.21,0.334
	c-0.068,0.115-0.13,0.233-0.192,0.352c-0.059,0.112-0.117,0.224-0.171,0.34c-0.06,0.13-0.114,0.263-0.167,0.396
	c-0.032,0.08-0.07,0.155-0.1,0.236c-0.012,0.034-0.02,0.069-0.032,0.103c-0.047,0.135-0.086,0.272-0.126,0.409
	c-0.035,0.12-0.072,0.238-0.101,0.358c-0.03,0.124-0.051,0.25-0.075,0.375c-0.026,0.134-0.054,0.268-0.072,0.401
	c-0.016,0.115-0.023,0.231-0.034,0.346c-0.013,0.144-0.03,0.287-0.035,0.43c-0.005,0.118,0,0.236,0.001,0.355
	c0.001,0.139-0.002,0.278,0.006,0.416c0.007,0.131,0.026,0.263,0.04,0.394c0.013,0.125,0.023,0.25,0.042,0.373
	c0.021,0.136,0.053,0.271,0.081,0.406c0.025,0.119,0.046,0.239,0.077,0.356c0.033,0.127,0.075,0.252,0.114,0.378
	c0.039,0.126,0.076,0.253,0.122,0.377c0.041,0.112,0.091,0.223,0.137,0.334c0.057,0.135,0.113,0.271,0.177,0.403
	c0.015,0.032,0.026,0.064,0.042,0.096c0.038,0.075,0.083,0.144,0.123,0.217c0.069,0.128,0.139,0.257,0.215,0.381
	c0.066,0.108,0.136,0.211,0.206,0.315c0.076,0.111,0.152,0.222,0.233,0.33c0.08,0.105,0.163,0.208,0.248,0.309
	c0.082,0.098,0.164,0.194,0.251,0.289c0.091,0.099,0.186,0.194,0.282,0.289c0.09,0.088,0.18,0.175,0.275,0.259
	c0.1,0.089,0.203,0.174,0.307,0.258c0.098,0.079,0.197,0.157,0.3,0.232c0.11,0.08,0.223,0.156,0.337,0.23
	c0.103,0.067,0.206,0.134,0.313,0.196c0.125,0.074,0.253,0.142,0.382,0.208c0.102,0.053,0.203,0.106,0.307,0.154
	c0.146,0.068,0.294,0.128,0.443,0.187c0.068,0.027,0.132,0.06,0.202,0.085c23.332,8.484,35.184,24.613,40.628,34.885
	c-18.013-1.076-41.678-11.613-50.667-16.396c-0.078-0.042-0.159-0.073-0.239-0.112c-0.125-0.062-0.25-0.124-0.379-0.178
	c-0.139-0.06-0.28-0.111-0.421-0.163c-0.095-0.035-0.19-0.07-0.287-0.101c-0.166-0.054-0.333-0.099-0.501-0.141
	c-0.077-0.019-0.153-0.039-0.231-0.056c-0.18-0.039-0.36-0.071-0.541-0.097c-0.073-0.011-0.146-0.022-0.22-0.031
	c-0.179-0.021-0.359-0.036-0.538-0.044c-0.082-0.004-0.164-0.008-0.246-0.01c-0.169-0.003-0.337,0-0.506,0.007
	c-0.095,0.004-0.19,0.009-0.286,0.017c-0.157,0.013-0.313,0.031-0.469,0.053c-0.104,0.015-0.208,0.029-0.312,0.048
	c-0.152,0.027-0.301,0.061-0.451,0.097c-0.104,0.025-0.207,0.049-0.31,0.079c-0.156,0.044-0.31,0.096-0.463,0.149
	c-0.092,0.032-0.184,0.063-0.275,0.099c-0.168,0.066-0.333,0.14-0.496,0.217c-0.056,0.026-0.114,0.046-0.169,0.074
	c-0.02,0.01-0.037,0.022-0.057,0.032c-0.17,0.086-0.335,0.183-0.499,0.282c-0.065,0.04-0.133,0.076-0.197,0.117
	c-0.152,0.098-0.298,0.205-0.444,0.313c-0.068,0.051-0.14,0.099-0.206,0.151c-0.125,0.099-0.243,0.208-0.362,0.315
	c-0.078,0.07-0.16,0.137-0.235,0.21c-0.096,0.093-0.185,0.194-0.277,0.293c-0.089,0.096-0.18,0.189-0.264,0.289
	c-0.073,0.087-0.14,0.18-0.209,0.271c-0.093,0.12-0.186,0.239-0.272,0.364c-0.059,0.086-0.112,0.177-0.167,0.267
	c-0.085,0.136-0.171,0.272-0.248,0.413c-0.014,0.026-0.031,0.049-0.045,0.075c-0.041,0.076-0.071,0.155-0.109,0.232
	c-0.064,0.131-0.129,0.262-0.186,0.396c-0.054,0.125-0.1,0.252-0.147,0.379c-0.042,0.113-0.083,0.226-0.12,0.34
	c-0.046,0.144-0.084,0.287-0.121,0.432c-0.027,0.104-0.054,0.208-0.076,0.314c-0.032,0.148-0.057,0.297-0.081,0.447
	c-0.017,0.108-0.033,0.216-0.045,0.325c-0.016,0.142-0.027,0.284-0.035,0.426c-0.007,0.121-0.013,0.243-0.015,0.365
	c-0.002,0.128,0.001,0.256,0.006,0.384c0.005,0.136,0.011,0.271,0.023,0.408c0.01,0.116,0.024,0.23,0.039,0.346
	c0.019,0.144,0.039,0.287,0.066,0.43c0.021,0.112,0.046,0.224,0.072,0.334c0.032,0.14,0.066,0.279,0.106,0.417
	c0.035,0.121,0.076,0.241,0.116,0.36c0.042,0.123,0.083,0.246,0.131,0.368c0.055,0.14,0.118,0.277,0.182,0.414
	c0.035,0.075,0.062,0.152,0.099,0.226c0.018,0.035,0.041,0.074,0.059,0.11c0.022,0.042,0.044,0.083,0.066,0.125
	c4.78,9.229,25.22,30.05,42.334,45.619c11.486,10.448,30.874,27.125,47.968,37.223c-4.517,4.458-6.778,9.261-7.819,13.58
	c-4.178-3.819-8.881-7.423-14.091-10.772c-6.252-4.019-13.064-7.532-20.295-10.545v-4.517c0-4.418-3.582-8-8-8
	c-4.052,0-7.392,3.016-7.919,6.923c-15.534-4.523-32.468-6.923-49.948-6.923s-34.414,2.4-49.948,6.923
	c-0.527-3.907-3.867-6.923-7.919-6.923c-4.418,0-8,3.582-8,8v4.517c-7.231,3.013-14.043,6.526-20.295,10.545
	c-5.209,3.349-9.912,6.954-14.091,10.772c-1.041-4.319-3.302-9.122-7.819-13.58c17.093-10.097,36.482-26.774,47.968-37.223
	c17.115-15.569,37.555-36.39,42.334-45.619c0.022-0.041,0.045-0.083,0.066-0.125c0.018-0.036,0.041-0.075,0.059-0.11
	c0.037-0.074,0.064-0.151,0.099-0.226c0.063-0.137,0.126-0.274,0.182-0.414c0.048-0.122,0.089-0.245,0.131-0.368
	c0.041-0.12,0.081-0.239,0.116-0.36c0.04-0.139,0.073-0.278,0.106-0.417c0.026-0.111,0.051-0.222,0.072-0.334
	c0.027-0.143,0.047-0.287,0.066-0.431c0.015-0.114,0.029-0.229,0.039-0.344c0.012-0.137,0.018-0.273,0.023-0.409
	c0.005-0.127,0.007-0.255,0.006-0.383c-0.002-0.122-0.008-0.243-0.015-0.365c-0.008-0.143-0.019-0.284-0.035-0.426
	c-0.012-0.109-0.029-0.217-0.045-0.325c-0.023-0.149-0.049-0.298-0.081-0.447c-0.023-0.105-0.049-0.209-0.076-0.314
	c-0.037-0.145-0.076-0.288-0.121-0.432c-0.036-0.115-0.078-0.228-0.12-0.34c-0.047-0.127-0.093-0.253-0.147-0.379
	c-0.057-0.134-0.122-0.265-0.186-0.396c-0.038-0.077-0.068-0.156-0.109-0.232c-0.014-0.026-0.031-0.049-0.045-0.075
	c-0.076-0.14-0.161-0.275-0.246-0.41c-0.057-0.09-0.11-0.183-0.17-0.271c-0.083-0.122-0.175-0.238-0.266-0.356
	c-0.072-0.093-0.141-0.189-0.216-0.279c-0.08-0.096-0.168-0.185-0.253-0.276c-0.095-0.103-0.188-0.208-0.289-0.306
	c-0.07-0.068-0.147-0.131-0.22-0.197c-0.124-0.112-0.247-0.225-0.377-0.328c-0.062-0.049-0.128-0.093-0.192-0.141
	c-0.15-0.112-0.301-0.223-0.458-0.324c-0.06-0.039-0.124-0.073-0.186-0.11c-0.167-0.101-0.335-0.199-0.508-0.287
	c-0.019-0.01-0.036-0.021-0.055-0.031c-0.056-0.028-0.114-0.048-0.17-0.075c-0.162-0.076-0.325-0.15-0.491-0.215
	c-0.098-0.038-0.196-0.071-0.294-0.105c-0.145-0.051-0.291-0.1-0.438-0.142c-0.114-0.033-0.228-0.06-0.343-0.087
	c-0.137-0.032-0.273-0.063-0.412-0.088c-0.118-0.021-0.237-0.039-0.355-0.055c-0.141-0.019-0.281-0.036-0.423-0.048
	c-0.111-0.009-0.222-0.014-0.334-0.019c-0.152-0.006-0.304-0.009-0.456-0.006c-0.099,0.001-0.197,0.006-0.296,0.012
	c-0.163,0.009-0.327,0.021-0.49,0.04c-0.089,0.011-0.177,0.024-0.266,0.038c-0.167,0.025-0.333,0.054-0.5,0.09
	c-0.09,0.019-0.178,0.042-0.267,0.064c-0.157,0.04-0.314,0.083-0.471,0.133c-0.105,0.033-0.208,0.072-0.312,0.11
	c-0.134,0.049-0.268,0.098-0.4,0.155c-0.132,0.057-0.261,0.121-0.39,0.184c-0.078,0.038-0.157,0.069-0.234,0.11
	c-8.979,4.788-32.628,15.336-50.664,16.399c5.448-10.28,17.3-26.406,40.629-34.89c0.086-0.031,0.165-0.071,0.249-0.105
	c0.127-0.051,0.253-0.102,0.377-0.159c0.121-0.056,0.239-0.117,0.356-0.179c0.113-0.059,0.226-0.119,0.336-0.184
	c0.118-0.069,0.233-0.143,0.346-0.218c0.104-0.068,0.206-0.137,0.307-0.21c0.11-0.08,0.217-0.164,0.322-0.249
	c0.098-0.079,0.194-0.159,0.289-0.243c0.099-0.088,0.194-0.179,0.288-0.271c0.093-0.091,0.184-0.183,0.272-0.279
	c0.089-0.096,0.173-0.195,0.256-0.295c0.083-0.1,0.165-0.2,0.244-0.304c0.082-0.108,0.159-0.22,0.235-0.332
	c0.07-0.103,0.14-0.206,0.205-0.313c0.076-0.125,0.146-0.253,0.216-0.382c0.04-0.074,0.085-0.142,0.123-0.217
	c0.016-0.032,0.027-0.064,0.042-0.096c0.064-0.132,0.12-0.268,0.177-0.403c0.047-0.111,0.096-0.222,0.137-0.334
	c0.045-0.124,0.082-0.25,0.122-0.377c0.039-0.125,0.082-0.251,0.114-0.378c0.03-0.118,0.052-0.237,0.077-0.356
	c0.028-0.135,0.06-0.271,0.081-0.406c0.019-0.124,0.029-0.249,0.042-0.373c0.014-0.131,0.032-0.263,0.04-0.394
	c0.008-0.138,0.005-0.277,0.006-0.416c0-0.119,0.005-0.237,0.001-0.355c-0.006-0.143-0.022-0.287-0.035-0.43
	c-0.011-0.115-0.018-0.231-0.034-0.346c-0.018-0.134-0.047-0.268-0.072-0.401c-0.024-0.125-0.045-0.251-0.075-0.375
	c-0.029-0.12-0.066-0.239-0.101-0.358c-0.04-0.137-0.079-0.274-0.126-0.409c-0.012-0.034-0.019-0.069-0.032-0.103
	c-0.03-0.081-0.068-0.156-0.099-0.236c-0.053-0.133-0.107-0.266-0.167-0.396c-0.053-0.115-0.111-0.226-0.169-0.336
	c-0.063-0.12-0.126-0.24-0.195-0.357c-0.065-0.111-0.135-0.219-0.205-0.327c-0.073-0.111-0.147-0.221-0.225-0.328
	c-0.075-0.103-0.153-0.202-0.232-0.3c-0.085-0.106-0.172-0.21-0.263-0.312c-0.081-0.091-0.165-0.178-0.25-0.265
	c-0.098-0.1-0.198-0.198-0.302-0.294c-0.088-0.081-0.178-0.157-0.269-0.234c-0.108-0.091-0.218-0.18-0.332-0.266
	c-0.098-0.073-0.198-0.142-0.298-0.21c-0.114-0.078-0.229-0.155-0.348-0.228c-0.112-0.068-0.226-0.13-0.341-0.192
	c-0.083-0.045-0.161-0.097-0.246-0.139c-0.052-0.026-0.106-0.048-0.158-0.074c-0.025-0.012-0.05-0.023-0.075-0.035
	c-11.791-5.811-25.101-5.988-39.571-0.516c-41.321,15.632-81.776,74.705-86.924,87.452c-4.512,11.172-3.728,20.65-1.817,27.346
	c-7.291,2.62-12.469,7.463-14.858,14.365c-2.714,7.843,0.709,19.82,5.915,30.991l-23.993-23.992
	c-0.038-0.038-0.064-0.087-0.074-0.138l-7.775-38.88c-0.867-4.332-5.082-7.137-9.414-6.275c-4.333,0.866-7.142,5.081-6.276,9.414
	l7.776,38.88c0.632,3.158,2.169,6.031,4.448,8.312l38.611,38.609c1.238,1.24,2.662,2.267,4.232,3.052l43.986,21.993l-30.446-4.35
	c-0.037-0.005-0.073-0.019-0.104-0.038l-89.429-56.909c-3.727-2.373-8.672-1.272-11.044,2.454
	c-2.372,3.728-1.273,8.672,2.455,11.044l89.429,56.909c1.964,1.25,4.129,2.051,6.433,2.38l56.102,8.015
	c0.384,0.055,0.765,0.081,1.142,0.081c0.485,0,0.961-0.045,1.426-0.129c7.162,5.471,15.796,10.851,25.891,16.128L94.266,299.97
	c-2.938-0.491-5.954-0.164-8.717,0.941l-37.165,14.865c-2.603,1.043-4.905,2.751-6.658,4.941L11.429,358.59
	c-1.814,2.268-2.989,4.985-3.4,7.859l-7.948,55.633c-0.625,4.374,2.414,8.427,6.788,9.052c0.384,0.055,0.765,0.081,1.142,0.081
	c3.917,0,7.339-2.88,7.909-6.869l7.948-55.633c0.007-0.048,0.026-0.093,0.056-0.13l30.295-37.868
	c0.029-0.037,0.069-0.066,0.11-0.083l37.165-14.865c0.043-0.017,0.091-0.022,0.141-0.014l92.72,15.452
	c5.169,0.86,10.469-0.836,14.179-4.543l3.272-3.272c2.639,1.15,5.289,2.261,7.926,3.327c-6.104,6.41-11.857,11.663-14.56,14.064
	c-0.016,0.015-0.037,0.033-0.14,0.033h-76.14c-4.346,0-8.431,1.692-11.502,4.764l-44.756,44.757
	c-3.073,3.072-4.766,7.157-4.766,11.503v37.909c0,4.418,3.582,8,8,8s8-3.582,8-8v-37.909c0-0.069,0.028-0.138,0.078-0.188
	l44.758-44.759c0.05-0.05,0.116-0.077,0.188-0.077h76.14c3.987,0,7.811-1.445,10.767-4.071c4.382-3.894,12.377-11.292,20.115-19.966
	c13.469,4.635,24.904,7.503,30.088,7.503c5.184,0,16.619-2.869,30.088-7.503c7.738,8.674,15.733,16.072,20.116,19.967
	c2.955,2.625,6.779,4.07,10.766,4.07h76.14c0.071,0,0.138,0.027,0.188,0.078l44.758,44.759c0.049,0.049,0.077,0.117,0.077,0.187
	v37.909c0,4.418,3.582,8,8,8s8-3.582,8-8v-37.909c0-4.346-1.692-8.431-4.765-11.502l-44.756-44.757
	c-3.072-3.072-7.157-4.765-11.503-4.765h-76.14c-0.104,0-0.125-0.019-0.139-0.032c-2.703-2.402-8.457-7.656-14.561-14.065
	c2.637-1.066,5.287-2.177,7.926-3.327l3.273,3.273c3.708,3.707,9.007,5.403,14.176,4.543l92.724-15.454
	c0.047-0.008,0.095-0.003,0.141,0.016l37.159,14.863c0.044,0.018,0.084,0.047,0.112,0.082l30.295,37.87
	c0.03,0.037,0.049,0.082,0.056,0.13l7.948,55.633c0.57,3.99,3.992,6.869,7.909,6.869c0.377,0,0.758-0.026,1.142-0.081
	c4.374-0.625,7.413-4.678,6.788-9.052L503.973,366.449z M383.069,202.092c0.196-0.082,0.392-0.163,0.581-0.26
	c2.233-0.975,4.56-1.759,6.783-2.384c5.945-1.672,12.162-2.652,17.517-2.652c7.09,0,12.667,1.72,14.091,5.834
	c0.599,1.802-0.411,9.849-7.359,23.213c-7.767,14.938-15.826,22.976-18.489,24.029c-8.755-0.429-24.317-17.108-24.728-33.525
	C371.294,209.467,376.723,204.981,383.069,202.092z M381.076,260.799l-1.548,0.774c0.062-0.567,0.114-1.135,0.147-1.703
	C380.14,260.191,380.606,260.501,381.076,260.799z M308.704,129.31c9.434,2.935,19.796,5.186,29.394,5.186
	c3.667,0,7.223-0.328,10.572-1.072c2.144-0.477,3.998-1.813,5.127-3.697c1.129-1.885,1.434-4.149,0.843-6.265
	c-0.343-1.226-6.913-23.725-29.476-41.209c0.902,0.288,1.811,0.596,2.737,0.946c36.11,13.661,73.8,68.698,77.75,78.478
	c3.481,8.621,2.062,15.359,0.59,19.094c-6.095,0.154-12.862,1.229-20.138,3.276c-2.198,0.618-4.227,1.297-6.128,2.018
	c-12.365-5.559-31.449-19.689-53.102-39.387C320.072,140.491,313.964,134.612,308.704,129.31z M104.053,196.796
	c5.354,0,11.572,0.98,17.516,2.652c2.223,0.625,4.55,1.409,6.783,2.384c0.189,0.098,0.385,0.178,0.581,0.26
	c6.346,2.889,11.776,7.375,11.604,14.254c-0.41,16.417-15.972,33.097-24.728,33.525c-2.664-1.054-10.723-9.091-18.489-24.029
	c-6.948-13.364-7.958-21.411-7.359-23.212C91.385,198.515,96.963,196.796,104.053,196.796z M132.327,259.87
	c0.033,0.567,0.085,1.133,0.147,1.699l-1.543-0.772C131.399,260.499,131.864,260.19,132.327,259.87z M106.352,161.676
	c3.95-9.78,41.639-64.817,77.75-78.479c0.926-0.35,1.835-0.658,2.737-0.946c-22.563,17.485-29.133,39.983-29.476,41.209
	c-0.591,2.115-0.286,4.38,0.843,6.265c1.129,1.884,2.983,3.221,5.127,3.697c3.351,0.744,6.903,1.072,10.572,1.072
	c9.598,0,19.961-2.252,29.394-5.186c-5.261,5.302-11.369,11.181-18.168,17.367c-21.654,19.698-40.737,33.828-53.103,39.387
	c-1.901-0.721-3.93-1.4-6.128-2.018c-7.279-2.047-14.048-3.123-20.145-3.275C104.299,177.066,102.865,170.313,106.352,161.676z
	 M196.545,303.318c-30.681-15.175-48.277-31.736-48.277-45.438c0-17.057,10.733-33.351,30.224-45.88
	c4.136-2.659,8.564-5.065,13.22-7.233c1.458,1.966,3.788,3.246,6.423,3.246c4.418,0,8-3.582,8-8v-0.908
	c15.217-4.974,32.197-7.625,49.867-7.625s34.65,2.651,49.867,7.625v0.908c0,4.418,3.582,8,8,8c2.635,0,4.966-1.28,6.423-3.246
	c4.656,2.168,9.084,4.575,13.22,7.233c19.49,12.529,30.224,28.823,30.224,45.88c0,13.701-17.596,30.263-48.277,45.438
	c-27.81,13.755-55.068,20.962-59.457,20.962C251.613,324.28,224.354,317.073,196.545,303.318z"/>
<g>
</g>
<g>
</g>
<g>
</g>
<g>
</g>
<g>
</g>
<g>
</g>
<g>
</g>
<g>
</g>
<g>
</g>
<g>
</g>
<g>
</g>
<g>
</g>
<g>
</g>
<g>
</g>
<g>
</g>
</svg>
