<?xml version="1.0" encoding="iso-8859-1"?>
<!-- Generator: Adobe Illustrator 17.1.0, SVG Export Plug-In . SVG Version: 6.00 Build 0)  -->
<!DOCTYPE svg PUBLIC "-//W3C//DTD SVG 1.1//EN" "http://www.w3.org/Graphics/SVG/1.1/DTD/svg11.dtd">
<svg version="1.1" id="Capa_1" xmlns="http://www.w3.org/2000/svg" xmlns:xlink="http://www.w3.org/1999/xlink" x="0px" y="0px"
	 viewBox="0 0 512 512" style="enable-background:new 0 0 512 512;" xml:space="preserve">
<g>
	<path d="M503.502,276.347c-1.715-1.34-3.556-2.35-5.434-3.102l3.588-3.588c2.143-2.143,2.891-5.313,1.933-8.188
		c-4.832-14.496-22.317-39.698-49.289-60.773C430.542,182.131,390.731,160,336,160c-15.901,0-32.339,1.669-48.836,4.453
		c-0.209-0.421-0.452-0.832-0.742-1.223c-9.647-12.986-21.404-27.008-31.45-37.51C236.662,106.58,229.041,104,224,104
		c-2.559,0-10.347,0-40.069,29.65c-8.737,8.716-29.318,30.115-31.726,40.551c-2.203,9.544,4.259,22.107,7.588,27.735
		c-5.95,2.246-11.662,4.43-17.063,6.497C121.812,216.438,102.054,224,96,224c-0.221,0-2.28-0.166-6.559-5.907
		c-3.84-5.153-7.95-12.754-12.301-20.801C63.154,171.426,43.999,136,8,136c-4.418,0-8,3.582-8,8c0,30.824,5.244,50.822,9.871,68.467
		C13.16,225.009,16,235.839,16,248v8c0,12.161-2.84,22.991-6.129,35.533C5.244,309.178,0,329.176,0,360c0,4.418,3.582,8,8,8
		c35.999,0,55.154-35.426,69.141-61.292c4.351-8.047,8.461-15.647,12.301-20.801c4.278-5.741,6.338-5.907,6.531-5.908
		c0.011,0,0.025,0.004,0.036,0.005c0,0.071-0.007,0.141-0.005,0.212c0.796,29.451,31.458,68.188,50.599,85.688
		c11.191,10.232,15.786,20.851,13.656,31.561c-0.274,1.38-0.917,4.611,1.535,7.6c1.52,1.852,3.812,2.936,6.207,2.936
		c18.614,0,47.819-25.306,54.656-35.563c0.422-0.633,0.735-1.306,0.956-1.996C248.692,383.187,275.844,392,304,392
		c60.951,0,114.856-23.276,141.563-37.15c18.109-9.408,34.647-20.162,46.567-30.282C505.5,313.218,512,303.873,512,296
		C512,285.24,507.379,279.373,503.502,276.347z M174.701,195.63c-3.842-5.892-7.612-14.77-6.917-17.785
		c0.878-3.046,9.553-14.835,26.092-31.507c15.262-15.386,26.42-24.126,30.402-26.12c6.642,2.796,26.592,22.891,45.526,47.554
		c-33.337,7.099-66.226,18.042-94.739,28.482C174.952,196.043,174.834,195.834,174.701,195.63z M209.344,363.563
		c-4.724,7.086-20.987,20.225-32.667,25.813c-1.089-15.28-10.578-27.324-19.279-35.279c-17.728-16.209-36.847-42.304-43.206-62.593
		c5.908,4.608,12.377,9.964,18.247,14.826c20.991,17.384,47.453,39.295,77.37,56.607
		C209.646,363.135,209.49,363.343,209.344,363.563z M142.645,294.006C118.176,273.741,105.972,264,96,264
		c-13.956,0-22.331,15.488-32.934,35.098c-11.964,22.127-25.355,46.889-46.901,51.965c0.895-23.866,5.272-40.557,9.183-55.471
		C28.769,282.546,32,270.224,32,256v-8c0-14.224-3.231-26.546-6.652-39.592c-3.911-14.914-8.288-31.604-9.183-55.471
		c21.546,5.076,34.937,29.838,46.901,51.965C73.669,224.512,82.044,240,96,240c8.609,0,23.905-5.7,52.449-16.624
		C197.746,204.511,272.244,176,336,176c39.625,0,70.709,12.652,92.759,26.354C393.912,210.993,368,242.521,368,280
		c0,18.25,6.308,36.103,17.763,50.269c7.532,9.314,17.084,16.79,27.776,21.913C385.979,363.749,346.709,376,304,376
		C241.648,376,182.069,326.657,142.645,294.006z M480.491,313.447c-11.274,9.337-26.832,19.273-43.807,27.979
		c-0.74,0.379-1.506,0.768-2.29,1.162c-0.198-0.062-0.397-0.122-0.603-0.169c-13.917-3.153-26.555-11.042-35.587-22.212
		C388.912,308.716,384,294.813,384,280c0-35.225,28.605-63.889,63.804-63.995c20.753,17.018,33.621,35.182,38.786,46.091
		l-12.247,12.247c-2.543,2.543-3.077,6.47-1.305,9.599c1.771,3.129,5.415,4.697,8.902,3.819c1.529-0.381,8.424-1.373,11.715,1.197
		c1.545,1.206,2.334,3.553,2.345,6.974C495.78,297.441,492.603,303.417,480.491,313.447z"/>
	<path d="M448,248c-8.822,0-16,7.178-16,16s7.178,16,16,16s16-7.178,16-16S456.822,248,448,248z"/>
	<path d="M372.422,336.845l-28.787,14.394l-21.481-8.593c20.074-8.109,45.029-6.681,45.338-6.661
		c4.402,0.273,8.207-3.063,8.491-7.47c0.285-4.408-3.059-8.214-7.468-8.498c-1.817-0.118-44.777-2.637-69.601,17.808
		c-2.182,1.797-3.253,4.611-2.819,7.404c0.435,2.793,2.31,5.149,4.934,6.199l40,16c0.956,0.383,1.964,0.572,2.971,0.572
		c1.229,0,2.455-0.283,3.578-0.845l32-16c3.952-1.976,5.554-6.781,3.578-10.733C381.18,336.473,376.376,334.871,372.422,336.845z"/>
</g>
<g>
</g>
<g>
</g>
<g>
</g>
<g>
</g>
<g>
</g>
<g>
</g>
<g>
</g>
<g>
</g>
<g>
</g>
<g>
</g>
<g>
</g>
<g>
</g>
<g>
</g>
<g>
</g>
<g>
</g>
</svg>
