<?xml version="1.0" encoding="iso-8859-1"?>
<!-- Generator: Adobe Illustrator 17.1.0, SVG Export Plug-In . SVG Version: 6.00 Build 0)  -->
<!DOCTYPE svg PUBLIC "-//W3C//DTD SVG 1.1//EN" "http://www.w3.org/Graphics/SVG/1.1/DTD/svg11.dtd">
<svg version="1.1" id="Capa_1" xmlns="http://www.w3.org/2000/svg" xmlns:xlink="http://www.w3.org/1999/xlink" x="0px" y="0px"
	 viewBox="0 0 512.003 512.003" style="enable-background:new 0 0 512.003 512.003;" xml:space="preserve">
<path d="M363.177,305.766c-2.242-3.083-5.566-8.842-7.114-12.324l-25.501-57.379c-2.284-5.14-7.265-11.729-11.584-15.328
	l-17.852-14.877c8.599,1.225,18.004,2.144,26.876,2.144c24.974,0,82.287-14.973,93.657-26.343c6.963-6.964,5.25-13.666,4.19-16.225
	c-3.536-8.537-15.873-13.433-33.847-13.433c-12.513,0-43.862,7.315-74.179,14.391c-13.661,3.188-28.603,6.674-37.821,8.441v-6.832
	c0-1.13-0.084-2.24-0.236-3.329l29.492-17.695c6.226-3.735,10.744-11.716,10.744-18.977v-32c0-2.973,1.446-8.194,2.976-10.744
	l43.884-73.14c2.273-3.789,1.045-8.703-2.744-10.977c-3.789-2.271-8.703-1.045-10.976,2.744l-43.884,73.141
	c-2.996,4.994-5.256,13.152-5.256,18.976v32c0,1.59-1.613,4.438-2.976,5.256l-28.67,17.202c-2.385-2.225-5.22-3.97-8.354-5.081
	V80.001c0-4.418-3.582-8-8-8s-8,3.582-8,8v65.376c-3.134,1.112-5.97,2.857-8.354,5.081l-28.67-17.202
	c-1.362-0.817-2.976-3.666-2.976-5.256v-32c0-5.823-2.259-13.981-5.256-18.977l-43.884-73.14c-2.273-3.788-7.187-5.017-10.976-2.744
	c-3.789,2.273-5.017,7.188-2.744,10.977l43.884,73.139c1.53,2.55,2.976,7.772,2.976,10.745v32c0,7.261,4.519,15.241,10.744,18.977
	l29.492,17.695c-0.152,1.089-0.236,2.199-0.236,3.329v6.832c-9.217-1.767-24.159-5.253-37.819-8.441
	c-30.318-7.075-61.667-14.391-74.181-14.391c-17.974,0-30.311,4.896-33.846,13.433c-1.06,2.559-2.773,9.261,4.189,16.225
	c11.371,11.37,68.683,26.343,93.657,26.343c8.872,0,18.277-0.919,26.876-2.144l-17.851,14.876c-4.319,3.6-9.3,10.189-11.584,15.329
	l-25.501,57.379c-1.548,3.482-4.873,9.241-7.114,12.324l-59.295,81.53c-2.599,3.573-1.809,8.576,1.764,11.175
	c1.421,1.033,3.067,1.531,4.699,1.531c2.472,0,4.911-1.143,6.476-3.296l59.295-81.53c2.917-4.012,6.78-10.704,8.795-15.236
	l25.501-57.379c1.281-2.883,4.783-7.517,7.206-9.535l18.377-15.314l-16.388,27.314c-2.996,4.995-5.256,13.152-5.256,18.976v64
	c0,3.327-1.194,9.144-2.504,12.202L128.648,500.85c-1.741,4.061,0.141,8.764,4.202,10.505c1.028,0.44,2.096,0.648,3.147,0.648
	c3.104,0,6.057-1.817,7.357-4.851l68.849-160.646c2.166-5.053,3.798-13.008,3.798-18.505v-64c0-2.973,1.446-8.194,2.976-10.744
	l13.024-21.707v48.451c0,13.233,10.766,24,24,24s24-10.767,24-24V231.55l13.024,21.706c1.53,2.55,2.976,7.772,2.976,10.745v64
	c0,5.495,1.633,13.45,3.798,18.505l68.849,160.646c1.3,3.033,4.253,4.851,7.357,4.851c1.051,0,2.12-0.208,3.147-0.648
	c4.061-1.741,5.942-6.444,4.202-10.505l-68.848-160.646c-1.311-3.061-2.505-8.877-2.505-12.203v-64
	c0-5.823-2.259-13.981-5.256-18.977l-16.389-27.314l18.378,15.315c2.422,2.02,5.924,6.653,7.206,9.535l25.501,57.379
	c2.015,4.532,5.878,11.225,8.795,15.236l59.294,81.53c1.565,2.153,4.003,3.296,6.476,3.296c1.632,0,3.279-0.498,4.699-1.531
	c3.573-2.599,4.363-7.602,1.764-11.175L363.177,305.766z M321.458,181.973c26.675-6.225,59.873-13.972,70.543-13.972
	c9.678,0,15.147,1.679,17.661,2.905c-3.209,2.315-14.113,7.252-33.546,12.635c-18.838,5.219-37.275,8.46-48.115,8.46
	c-11.504,0-24.329-1.765-34.59-3.608C300.896,186.759,310.2,184.6,321.458,181.973z M256.001,160.001c4.411,0,8,3.589,8,8
	s-3.589,8-8,8s-8-3.589-8-8S251.59,160.001,256.001,160.001z M135.887,183.541c-19.433-5.383-30.337-10.319-33.546-12.634
	c2.513-1.228,7.983-2.906,17.66-2.906c10.671,0,43.869,7.747,70.544,13.972c11.262,2.628,20.569,4.788,28.055,6.422
	c-10.254,1.844-23.073,3.606-34.6,3.606C173.161,192.001,154.725,188.76,135.887,183.541z M256.001,288.001c-4.411,0-8-3.589-8-8
	v-89.376c2.504,0.888,5.195,1.376,8,1.376s5.496-0.488,8-1.376v1.332v0.003v88.041C264.001,284.412,260.412,288.001,256.001,288.001
	z"/>
<g>
</g>
<g>
</g>
<g>
</g>
<g>
</g>
<g>
</g>
<g>
</g>
<g>
</g>
<g>
</g>
<g>
</g>
<g>
</g>
<g>
</g>
<g>
</g>
<g>
</g>
<g>
</g>
<g>
</g>
</svg>
