<?xml version="1.0" encoding="iso-8859-1"?>
<!-- Generator: Adobe Illustrator 17.1.0, SVG Export Plug-In . SVG Version: 6.00 Build 0)  -->
<!DOCTYPE svg PUBLIC "-//W3C//DTD SVG 1.1//EN" "http://www.w3.org/Graphics/SVG/1.1/DTD/svg11.dtd">
<svg version="1.1" id="Capa_1" xmlns="http://www.w3.org/2000/svg" xmlns:xlink="http://www.w3.org/1999/xlink" x="0px" y="0px"
	 viewBox="0 0 511.987 511.987" style="enable-background:new 0 0 511.987 511.987;" xml:space="preserve">
<g>
	<path d="M511.967,334.081c-0.01-0.354-0.019-0.661-0.019-0.917c0-9.846-7.517-19.121-9.64-21.546
		c-0.889-1.332-1.786-2.68-2.699-4.055c-6.867-10.334-14.65-22.046-23.753-33.248c-2.786-3.43-7.824-3.95-11.253-1.164
		c-3.429,2.787-3.95,7.825-1.164,11.254c8.046,9.901,15.156,20.457,21.492,29.982c-2.96,1.888-6.607,4.076-10.823,6.428
		c-4.594-7.309-12.042-18.802-16.74-24.204c-2.898-3.334-7.951-3.688-11.286-0.788c-3.334,2.899-3.687,7.952-0.787,11.286
		c3.608,4.15,9.922,13.762,14.578,21.128c-4.119,2.007-8.497,4.017-13.054,5.962c-3.006-5.72-7.539-13.714-11.84-18.835
		c-2.842-3.385-7.888-3.82-11.271-0.981c-3.384,2.841-3.823,7.888-0.982,11.271c2.932,3.491,6.381,9.375,9.089,14.411
		c-13.127,4.644-26.999,8.225-40.158,9.268c-0.358-11.191-0.367-33.26,3.465-56.947l6.087,4.138c1.377,0.936,2.942,1.385,4.49,1.385
		c2.56,0,5.076-1.227,6.623-3.503c2.484-3.654,1.536-8.63-2.118-11.114l-11.659-7.926c1.244-5.088,2.704-10.148,4.404-15.096
		l7.351,7.544c1.568,1.609,3.648,2.417,5.73,2.417c2.013,0,4.027-0.755,5.583-2.271c3.165-3.083,3.23-8.148,0.147-11.313
		L409.631,244.2c2.605-5.204,5.576-10.128,8.96-14.646l9.142,15.998c1.477,2.585,4.176,4.032,6.953,4.032
		c1.346,0,2.71-0.34,3.962-1.055c3.836-2.192,5.169-7.079,2.977-10.915l-14.62-25.585c-0.987-1.999-7.201-14.224-18.355-28.499
		c0.742-19.19,9.102-38.412,15.298-50.176c0.025,0,0.05,0.004,0.075,0.004c8.818,0,15.993-7.174,15.993-15.992
		s-7.174-15.992-15.993-15.992s-15.992,7.174-15.992,15.992c0,2.855,0.761,5.533,2.078,7.855
		c-5.385,10.104-12.301,25.423-15.598,42.307c-22.486-22.391-48.068-34.185-74.39-34.185c-47.182,0-62.359,27.018-62.982,28.167
		l1.514,0.82c-3.505,0.164-7.614,0.615-12.441,1.427c-3.345-8.151-11.271-22.234-37.987-22.234c-26.121,0-69.134,25.2-82.305,41.027
		c-0.58,0.697-1.108,1.384-1.592,2.063c-23.837-10.091-49.482-19.663-60.244-19.297c-22.532,0.777-40.508,12.035-51.982,32.559
		c-10.632,19.016-11.909,38.755-12.058,42.52c-0.128,3.254-0.468,11.897,7.464,12.798c19.226,2.188,80.673,10.896,123.255,17.002
		c-3.377,7.544-3.573,16.126-0.268,24.531c5.118,13.014,17.221,22.459,28.776,22.459h48.194
		c21.262,22.805,44.006,46.032,57.033,59.336c4.399,4.493,7.82,7.986,9.893,10.142c10.219,10.628,19.301,14.236,26.925,14.236
		c5.23,0,9.766-1.707,13.518-4.003c3.117,2.678,6.062,4.948,8.738,6.793c6.704,4.623,17.227,6.924,31.86,6.924
		c8.438,0,18.243-0.765,29.47-2.29c22.274-3.026,49.735-9.22,73.458-16.566C494.653,380.518,512.689,361.113,511.967,334.081z
		 M265.902,178.533c8.163,15.467,3.711,27.101-1.884,41.727c-0.85,2.221-1.724,4.513-2.569,6.874
		c-5.6-8.883-12.797-19.511-19.319-26.718c-2.965-3.277-8.024-3.53-11.299-0.563c-3.276,2.964-3.529,8.023-0.564,11.3
		c6.333,6.999,13.69,18.127,19.114,26.875c-11.394-3.178-25.623-5.434-40.455-7.575c-2.794-0.402-5.32-0.767-7.425-1.094
		c-0.703-0.229-3.893-3.179-6.648-13.407c-1.882-6.983-2.592-13.738-2.674-16.593c3.257-2.998,15.832-9.29,35.703-14.97
		C249.727,178.144,262.199,177.709,265.902,178.533z M164.586,173.098c16.862-9.606,33.583-15.574,43.638-15.574
		c14.045,0,19.246,4.749,21.941,9.675c-10.037,2.563-20.345,5.896-29.008,9.432c-20.859,8.514-24.27,14.749-24.855,19.726
		c-0.492,4.183,0.573,14.404,3.135,23.863l-3.182-6.944c-0.002-2.301-0.999-4.525-2.775-6.054l-0.558-1.218
		c-0.077,0.035-0.315,0.148-0.679,0.342c-0.169-0.097-0.338-0.195-0.516-0.281c-5.076-2.438-17.409-8.294-32.141-14.83
		C143.562,187.082,151.521,180.542,164.586,173.098z M32.484,196.406c8.211-9.565,19.028-14.645,32.151-15.098
		c4.986-0.167,24.822,5.633,59.781,20.708c0.691,0.435,1.446,0.768,2.245,0.975c9.878,4.292,20.908,9.297,33.122,15.101
		c-1.749,2.624-3.376,5.744-4.669,9.419c-16.318-4.483-56.162-15.057-85.003-19.639c-4.363-0.686-8.462,2.283-9.156,6.646
		s2.282,8.463,6.646,9.156c28.575,4.539,69.694,15.532,84.709,19.665c-0.019,0.629-0.04,1.256-0.04,1.905
		c0,2.594,0.67,5.892,4.899,12.582c-35.488-5.123-110.505-15.881-140.932-19.695C17.103,228.954,20.699,210.134,32.484,196.406z
		 M145.384,288.871c-1.688-4.292-2.479-10.444,2.605-16.199c10.505,1.513,18.607,2.686,22.776,3.291
		c5.53,6.71,12.715,14.984,21.988,25.224H159.27C154.903,301.186,148.281,296.238,145.384,288.871z M453.626,376.474
		c-46.908,14.526-106.497,24.025-120.972,14.044c-17.741-12.235-53.227-50.208-60.549-106.345c-0.571-4.38-4.588-7.473-8.967-6.897
		c-4.381,0.571-7.47,4.586-6.898,8.968c5.739,43.999,26.804,77.589,46.108,98.531c-3.563,0.356-8.819-1.292-16.424-9.201
		c-2.094-2.178-5.55-5.707-9.994-10.246c-15.467-15.795-41.354-42.231-64.435-67.337c-14.056-15.289-23.552-26.278-29.978-34.174
		c-0.183-0.254-0.379-0.498-0.59-0.729c-9.936-12.278-12.179-16.783-12.655-18.299c0.167-17.392,9.793-23.39,11.263-24.204
		c0.021,0.074,0.039,0.149,0.06,0.223c4.118,14.788,10.646,22.98,19.403,24.35c2.192,0.343,4.781,0.716,7.645,1.129
		c14.552,2.101,44.832,6.47,52.263,12.973c1.487,1.302,3.367,1.979,5.27,1.979c1.119,0,2.246-0.234,3.304-0.715
		c2.858-1.297,4.694-4.146,4.694-7.285c0-9.519,3.297-18.138,6.789-27.263c6.085-15.904,12.982-33.93,0.168-56.6
		c-0.909-1.607-2.215-3.218-4.442-4.5c1.613-1.649,3.818-3.595,6.735-5.534c9.845-6.542,23.227-10,38.698-10
		c49.089,0,81.12,49.458,90.056,65.175c-41.406,47.592-34.417,139.753-34.089,143.774c0.339,4.151,3.808,7.349,7.974,7.349
		c41.211,0,89.135-24.468,109.997-38.053c1.092,1.986,1.891,4.021,1.891,5.575c0,0.375,0.011,0.825,0.025,1.345
		C496.161,341.586,496.738,363.123,453.626,376.474z"/>
	<path d="M352.09,221.261c-8.818,0-15.992,7.174-15.992,15.992s7.174,15.992,15.992,15.992s15.993-7.174,15.993-15.992
		S360.908,221.261,352.09,221.261z"/>
</g>
<g>
</g>
<g>
</g>
<g>
</g>
<g>
</g>
<g>
</g>
<g>
</g>
<g>
</g>
<g>
</g>
<g>
</g>
<g>
</g>
<g>
</g>
<g>
</g>
<g>
</g>
<g>
</g>
<g>
</g>
</svg>
