<?xml version="1.0" encoding="iso-8859-1"?>
<!-- Generator: Adobe Illustrator 17.1.0, SVG Export Plug-In . SVG Version: 6.00 Build 0)  -->
<!DOCTYPE svg PUBLIC "-//W3C//DTD SVG 1.1//EN" "http://www.w3.org/Graphics/SVG/1.1/DTD/svg11.dtd">
<svg version="1.1" id="Capa_1" xmlns="http://www.w3.org/2000/svg" xmlns:xlink="http://www.w3.org/1999/xlink" x="0px" y="0px"
	 viewBox="0 0 512 512" style="enable-background:new 0 0 512 512;" xml:space="preserve">
<g>
	<path d="M448,136c-0.978,0-1.952,0.035-2.925,0.085C411.186,67.881,337.377,24,256,24c-81.552,0-155.172,43.831-189.068,112.085
		C65.957,136.035,64.98,136,64,136c-35.29,0-64,32.677-64,72.842c0,23.714,9.541,52.709,25.521,77.563
		c15.436,24.008,33.231,38.714,49.573,41.212c17.32,30.071,42.119,55.451,72.004,73.619C158.463,450.865,202.975,488,256,488
		c53.025,0,97.538-37.135,108.903-86.764c29.869-18.158,54.684-43.554,72.002-73.618c16.342-2.497,34.138-17.204,49.574-41.212
		C502.459,261.552,512,232.556,512,208.842C512,168.677,483.29,136,448,136z M335.899,282.086
		C315.45,252.765,290.18,235.406,264,232.453V216c0-4.418-3.582-8-8-8s-8,3.582-8,8v16.453c-26.18,2.952-51.45,20.312-71.899,49.633
		c-4.467,6.405-8.544,13.226-12.185,20.29c-4.176-13.25-10.976-25.207-17.635-36.916c-12.804-22.51-23.861-41.951-15.215-67.193
		c9.548-27.877,35.257-46.874,62.483-46.249c10.038,0.238,19.596,2.739,28.409,7.433c10.505,5.595,22.314,8.551,34.13,8.55
		c0.048,0,0.097,0,0.145,0c11.895,0.027,23.691-2.934,34.208-8.556c8.774-4.69,18.289-7.189,28.281-7.427
		c27.128-0.649,52.711,18.369,62.223,46.241c8.618,25.252-2.401,44.697-15.161,67.212c-6.66,11.753-13.462,23.757-17.617,37.066
		C344.505,295.416,340.4,288.54,335.899,282.086z M256,472c-52.777,0-95.714-42.938-95.714-95.714
		c0-26.864,11.089-59.452,28.939-85.046C215.463,253.618,242.324,248,256,248s40.537,5.618,66.775,43.239
		c17.85,25.595,28.939,58.183,28.939,85.046C351.714,429.063,308.777,472,256,472z M432,312c-3.328,0-6.179,2.032-7.385,4.922
		c-0.036,0.061-0.077,0.117-0.111,0.179c-13.898,25.02-33.407,46.643-56.87,63.213c0.048-1.338,0.08-2.679,0.08-4.028
		c0-14.405-2.824-30.226-7.93-45.899c0.235-0.754,0.362-1.555,0.362-2.386c0-20.129,9.5-36.893,19.558-54.64
		c13.433-23.703,27.322-48.213,16.383-80.269c-5.591-16.383-16.128-31.036-29.671-41.258
		c-14.246-10.753-30.874-16.225-48.075-15.811c-12.518,0.298-24.442,3.431-35.443,9.312c-8.161,4.363-17.328,6.667-26.551,6.667
		c-0.074,0-0.152,0-0.227,0c-9.233,0-18.443-2.306-26.641-6.672c-11.035-5.877-22.996-9.008-35.55-9.306
		c-17.253-0.415-33.931,5.055-48.221,15.802c-13.591,10.221-24.167,24.873-29.778,41.257c-10.983,32.066,2.96,56.581,16.444,80.288
		C142.466,291.116,152,307.878,152,328c0,0.741,0.109,1.456,0.297,2.137c-5.157,15.755-8.012,31.667-8.012,46.148
		c0,1.35,0.033,2.692,0.08,4.031c-23.602-16.665-43.176-38.432-57.093-63.634C86.012,313.922,83.233,312,80,312
		c-11.542,0-27.644-13.443-41.021-34.248C24.805,255.708,16,229.303,16,208.842C16,177.5,37.533,152,64,152
		c8.561,0,16.968,2.712,24.311,7.844c3.622,2.532,8.61,1.646,11.14-1.975c2.531-3.622,1.646-8.609-1.975-11.14
		c-4.48-3.13-9.265-5.598-14.243-7.376C115.27,78.715,182.064,40,256,40c73.775,0,140.727,38.759,172.767,99.353
		c-4.978,1.778-9.763,4.246-14.243,7.376c-3.622,2.531-4.506,7.518-1.975,11.14c2.53,3.622,7.518,4.505,11.14,1.975
		C431.032,154.712,439.439,152,448,152c26.467,0,48,25.5,48,56.842C496,254.37,456.319,312,432,312z"/>
	<path d="M192,200c-8.822,0-16,7.178-16,16s7.178,16,16,16s16-7.178,16-16S200.822,200,192,200z"/>
	<path d="M320,200c-8.822,0-16,7.178-16,16s7.178,16,16,16s16-7.178,16-16S328.822,200,320,200z"/>
	<path d="M220.422,311.155l16,8c1.148,0.574,2.369,0.847,3.571,0.847c2.935,0,5.76-1.621,7.162-4.424
		c1.976-3.952,0.375-8.757-3.578-10.733l-16-8c-3.952-1.977-8.758-0.374-10.733,3.578
		C214.869,304.374,216.47,309.18,220.422,311.155z"/>
	<path d="M272.006,320.002c1.202,0,2.423-0.272,3.571-0.847l16-8c3.952-1.976,5.554-6.781,3.578-10.733
		c-1.975-3.952-6.78-5.554-10.733-3.578l-16,8c-3.952,1.976-5.554,6.781-3.578,10.733
		C266.246,318.381,269.071,320.002,272.006,320.002z"/>
	<path d="M317.238,373.63C298.793,380.414,277.618,384,256,384s-42.793-3.586-61.238-10.37c-4.148-1.524-8.745,0.601-10.27,4.747
		c-1.525,4.147,0.6,8.745,4.747,10.27C209.433,396.074,232.518,400,256,400s46.567-3.926,66.762-11.354
		c4.146-1.525,6.271-6.123,4.747-10.27C325.983,374.23,321.386,372.105,317.238,373.63z"/>
	<path d="M279.04,414.635c-15.083,1.812-30.997,1.812-46.079,0c-4.382-0.528-8.37,2.602-8.897,6.989
		c-0.527,4.387,2.602,8.37,6.989,8.897C239.225,431.502,247.618,432,256,432s16.775-0.498,24.948-1.479
		c4.387-0.527,7.516-4.51,6.989-8.897C287.41,417.236,283.424,414.106,279.04,414.635z"/>
	<path d="M69.435,234.13c-6.249-5.786-9.646-16.162-7.733-23.621c1.397-5.451,5.515-9.067,12.238-10.748
		c4.286-1.072,6.892-5.415,5.821-9.702s-5.414-6.892-9.702-5.821c-12.499,3.125-20.971,11.043-23.856,22.296
		c-3.403,13.27,1.681,29.445,12.361,39.335C71.513,257.859,80,266.711,80,280c0,4.418,3.582,8,8,8s8-3.582,8-8
		C96,258.726,81.887,245.659,69.435,234.13z"/>
	<path d="M441.94,184.239c-4.286-1.071-8.63,1.535-9.702,5.821c-1.071,4.287,1.535,8.63,5.821,9.702
		c6.723,1.681,10.841,5.297,12.238,10.748c1.913,7.459-1.484,17.835-7.733,23.621C430.113,245.659,416,258.726,416,280
		c0,4.418,3.582,8,8,8s8-3.582,8-8c0-13.289,8.487-22.141,21.435-34.13c10.681-9.89,15.764-26.065,12.361-39.335
		C462.911,195.282,454.439,187.364,441.94,184.239z"/>
</g>
<g>
</g>
<g>
</g>
<g>
</g>
<g>
</g>
<g>
</g>
<g>
</g>
<g>
</g>
<g>
</g>
<g>
</g>
<g>
</g>
<g>
</g>
<g>
</g>
<g>
</g>
<g>
</g>
<g>
</g>
</svg>
