<?xml version="1.0" encoding="iso-8859-1"?>
<!-- Generator: Adobe Illustrator 17.1.0, SVG Export Plug-In . SVG Version: 6.00 Build 0)  -->
<!DOCTYPE svg PUBLIC "-//W3C//DTD SVG 1.1//EN" "http://www.w3.org/Graphics/SVG/1.1/DTD/svg11.dtd">
<svg version="1.1" id="Capa_1" xmlns="http://www.w3.org/2000/svg" xmlns:xlink="http://www.w3.org/1999/xlink" x="0px" y="0px"
	 viewBox="0 0 511.996 511.996" style="enable-background:new 0 0 511.996 511.996;" xml:space="preserve">
<path d="M367.998,111.995c0-9.674-3.067-18.213-8-24.033c-0.008-30.999-10.545-52.053-35.229-70.389
	C304.944,2.846,261.731,0.271,256.478,0.01c-0.093-0.005-0.187-0.003-0.281-0.005c-0.239-0.007-0.477-0.007-0.711,0.007
	c-1.315,0.068-12.44,0.694-25.847,2.927c-19.422,3.233-33.691,8.157-42.412,14.636c-24.685,18.336-35.222,39.389-35.229,70.389
	c-4.933,5.821-8,14.359-8,24.033c0,9.676,3.068,18.215,8.003,24.036c0.002,0.294,0.016,0.589,0.051,0.888
	c0.396,3.406,0.703,7.213,1.028,11.242c2.419,29.979,6.075,75.223,56.504,128.688c5.087,29.448,11.123,69.103,16.094,101.766
	c4.939,32.454,9.605,63.109,13.575,86.601c2.146,12.697,3.891,22.126,5.335,28.825c2.372,11,3.708,14.767,7.441,16.9c0,0,0,0,0,0
	c0.306,0.175,0.622,0.329,0.947,0.461c0.978,0.4,2.001,0.594,3.014,0.594c0.002,0,0.005,0,0.007,0c0.002,0,0.005,0,0.007,0
	c1.04,0,2.089-0.208,3.09-0.63c0.297-0.125,0.587-0.263,0.868-0.423c0.001-0.001,0.002-0.001,0.003-0.002
	c3.734-2.134,5.07-5.9,7.441-16.9c1.444-6.699,3.189-16.128,5.335-28.825c3.97-23.491,8.636-54.146,13.575-86.601
	c4.971-32.663,11.007-72.317,16.094-101.766c50.429-53.466,54.085-98.709,56.504-128.688c0.325-4.029,0.632-7.836,1.028-11.242
	c0.035-0.298,0.049-0.594,0.051-0.888C364.93,130.211,367.998,121.671,367.998,111.995z M351.998,111.995c0,9.767-4.738,16-8,16
	s-8-6.233-8-16s4.738-16,8-16S351.998,102.229,351.998,111.995z M256,16.007c10.1,0.529,34.483,3.164,50.339,9.639
	C297,30.407,288.36,38.779,280.698,46.212c-8.591,8.335-18.33,17.783-24.7,17.783c-6.371,0-16.109-9.448-24.7-17.783
	c-7.661-7.432-16.299-15.802-25.637-20.564C221.509,19.186,245.9,16.542,256,16.007z M159.998,111.995c0-9.767,4.738-16,8-16
	s8,6.233,8,16s-4.738,16-8,16S159.998,121.762,159.998,111.995z M270.501,376.208c-4.742,31.155-10.182,66.896-14.503,92.002
	c-4.321-25.105-9.761-60.847-14.503-92.002c-12.872-84.571-21.064-136.711-26.274-147.652c-2.501-5.253-2.248-6.961-2.263-6.961h0
	c0.198-0.36,1.23-1.289,1.914-1.904c3.414-3.072,9.127-8.214,9.127-19.695c0-1.958-0.075-3.883-0.231-5.804
	c14.696-34.175,27.874-34.196,32.231-34.196c4.357,0,17.535,0.021,32.231,34.196c-0.156,1.921-0.231,3.847-0.231,5.804
	c0,11.481,5.713,16.623,9.127,19.695c0.685,0.616,1.72,1.548,1.884,1.822c0.003,0.016,0.317,1.687-2.233,7.043
	C291.565,239.497,283.373,291.637,270.501,376.208z M308.524,244.85c1.054-4.62,1.967-7.883,2.697-9.415
	c6.824-14.33,3.761-21.199-3.393-27.637c-2.63-2.367-3.83-3.447-3.83-7.803c0-11.963,3.8-23.125,15.059-44.235
	c2.08-3.898,0.604-8.744-3.294-10.823c-3.897-2.078-8.744-0.604-10.823,3.294c-4.627,8.675-8.13,15.92-10.718,22.357
	c-10.845-18.046-23.244-26.592-38.224-26.592c-14.98,0-27.379,8.546-38.224,26.592c-2.588-6.436-6.091-13.682-10.718-22.357
	c-2.079-3.899-6.926-5.375-10.823-3.294c-3.898,2.079-5.374,6.925-3.294,10.823c11.259,21.11,15.059,32.272,15.059,44.235
	c0,4.355-1.2,5.436-3.83,7.803c-7.154,6.438-10.217,13.307-3.393,27.637c0.73,1.532,1.643,4.795,2.697,9.415
	c-29.749-39.857-32.418-72.863-34.444-97.974c-0.079-0.982-0.157-1.949-0.236-2.906c13.075-0.542,23.206-14.385,23.206-31.974
	c0-17.81-10.386-31.782-23.699-31.99c1.307-16.979,7.04-29.798,18.556-41.162c8.736-4.021,18.928,4.906,33.301,18.852
	c11.82,11.468,22.985,22.3,35.842,22.3c12.857,0,24.021-10.832,35.842-22.3c14.374-13.946,24.564-22.875,33.301-18.853
	c11.517,11.364,17.25,24.183,18.557,41.162c-13.313,0.208-23.699,14.18-23.699,31.99c0,17.589,10.131,31.433,23.206,31.974
	c-0.079,0.956-0.157,1.923-0.236,2.906C340.943,171.987,338.273,204.993,308.524,244.85z"/>
<g>
</g>
<g>
</g>
<g>
</g>
<g>
</g>
<g>
</g>
<g>
</g>
<g>
</g>
<g>
</g>
<g>
</g>
<g>
</g>
<g>
</g>
<g>
</g>
<g>
</g>
<g>
</g>
<g>
</g>
</svg>
