<?xml version="1.0" encoding="iso-8859-1"?>
<!-- Generator: Adobe Illustrator 17.1.0, SVG Export Plug-In . SVG Version: 6.00 Build 0)  -->
<!DOCTYPE svg PUBLIC "-//W3C//DTD SVG 1.1//EN" "http://www.w3.org/Graphics/SVG/1.1/DTD/svg11.dtd">
<svg version="1.1" id="Capa_1" xmlns="http://www.w3.org/2000/svg" xmlns:xlink="http://www.w3.org/1999/xlink" x="0px" y="0px"
	 viewBox="0 0 512 512" style="enable-background:new 0 0 512 512;" xml:space="preserve">
<g>
	<path d="M489.823,251.604c-12.521-30.967-35.247-51.563-69.435-62.941c-15.644-5.208-33.903-8.468-55.069-9.811
		c-9.984-13.674-33.437-39.204-69.319-39.204c-2.95,0-5.66,1.623-7.052,4.224c-1.393,2.6-1.241,5.755,0.394,8.21
		c0.082,0.124,7.207,11.019,8.936,28.015c-0.99,0.082-1.975,0.162-2.973,0.249c-88.977,7.763-173.307,60.844-205.054,80.826
		c-4.726,2.976-9.593,6.039-11.688,7.149c-27.022,0.216-54.704,6.51-74.316,16.93c-2.765,1.469-4.418,4.415-4.232,7.54
		s2.178,5.854,5.098,6.985c1.642,0.636,38.378,14.73,69.204,16.382c0.133,0.514,0.267,1.037,0.397,1.545
		c3.187,12.455,9.12,35.638,23.254,51.866c1.579,1.813,3.83,2.783,6.124,2.783c1.228,0,2.468-0.278,3.623-0.853
		c2.966-1.475,4.508-3.977,6.873-11.155c1.577-4.785,3.076-10.614,4.221-16.412c2.022-10.237,3.847-24.739,2.072-38.926
		c18.84-8.401,84.541-34.693,141.232-20.917c36.15,8.781,71.448,11.548,103.867,13.074c-5.832,13.333-25.533,24.751-33.908,28.513
		c-3.447,1.54-5.349,5.28-4.562,8.973s4.049,6.332,7.824,6.332c53,0,79.464-24.711,86.587-41.286
		c18.21,1.204,34.098,3.166,46.7,7.322c15.088,4.975,24.866,1.24,30.413-2.771c9.561-6.915,12.967-18.962,12.967-27.931
		C512,268.221,505.105,260.477,489.823,251.604z M309.411,157.433c9.598,2.418,22.35,8.007,34.566,20.722
		c-9.406-0.044-19.309,0.228-29.737,0.82C313.418,170.501,311.476,163.192,309.411,157.433z M392.661,309.612
		c-5.524,3.932-13.596,8.288-24.827,11.355c6.698-6.359,12.493-14.134,14.767-23.096c1.839,0.073,3.678,0.145,5.495,0.216
		c5.447,0.212,10.756,0.422,15.936,0.651C401.614,301.986,397.953,305.846,392.661,309.612z M473.631,291.822
		c-22.045-7.27-51.178-8.406-84.912-9.722c-37.42-1.46-79.833-3.114-122.832-13.559c-72.29-17.558-154.035,22.895-157.48,24.625
		c-3.242,1.629-4.982,5.236-4.239,8.787c3.154,15.07,0.48,32.866-2.385,44.753c-6.132-11.717-9.499-24.872-11.571-32.971
		c-0.619-2.417-1.107-4.327-1.567-5.805c-1.574-5.054-4.482-7.616-8.646-7.616c-15.777,0-34.904-4.599-49.034-8.78
		c14.859-4.622,32.07-7.22,49.034-7.22c3.519,0,6.146-1.654,18.774-9.603c30.851-19.419,112.801-71.002,197.921-78.428
		c51.144-4.463,89.951-1.99,118.64,7.559c22.122,7.363,38.642,19.116,50.018,35.68c-3.753-1.61-6.229-2.577-6.454-2.664
		c-4.118-1.603-8.754,0.438-10.355,4.557c-1.602,4.118,0.439,8.754,4.557,10.355c0.104,0.041,10.562,4.123,21.433,9.716
		c17.888,9.203,21.036,14.307,21.463,15.169c-0.014,0.876-0.089,1.791-0.216,2.72c-11.083-8.273-30.204-17.686-54.029-24.118
		c-4.267-1.147-8.657,1.373-9.809,5.639c-1.151,4.266,1.373,8.656,5.638,9.809c24.706,6.67,41.677,16.09,49.381,21.969
		C483.517,293.888,479.053,293.609,473.631,291.822z"/>
	<path d="M437.66,241.967c1.49-1.479,2.34-3.54,2.34-5.649c0-2.11-0.85-4.17-2.34-5.66c-1.49-1.49-3.55-2.34-5.66-2.34
		c-2.11,0-4.17,0.85-5.66,2.34s-2.34,3.55-2.34,5.66c0,2.1,0.85,4.16,2.34,5.649c1.49,1.49,3.56,2.351,5.66,2.351
		C434.11,244.318,436.17,243.458,437.66,241.967z"/>
	<path d="M380.778,253.325c-19.492,8.576-38.511,8.449-53.883,5.502c3.5-0.837,6.895-1.732,10.123-2.583
		c8.576-2.263,17.443-4.601,21.306-3.774c4.322,0.925,8.573-1.825,9.499-6.146c0.926-4.319-1.826-8.572-6.146-9.498
		c-7.596-1.63-17.393,0.956-28.738,3.947c-14.202,3.745-30.298,7.989-42.597,4.226c-3.813-1.173-7.9,0.649-9.588,4.26
		s-0.462,7.913,2.876,10.091c1.47,0.959,27.253,17.421,61.67,17.421c13.021,0,27.278-2.356,41.921-8.8
		c4.044-1.779,5.88-6.5,4.101-10.544C389.543,253.381,384.821,251.544,380.778,253.325z"/>
</g>
<g>
</g>
<g>
</g>
<g>
</g>
<g>
</g>
<g>
</g>
<g>
</g>
<g>
</g>
<g>
</g>
<g>
</g>
<g>
</g>
<g>
</g>
<g>
</g>
<g>
</g>
<g>
</g>
<g>
</g>
</svg>
