<?xml version="1.0" encoding="iso-8859-1"?>
<!-- Generator: Adobe Illustrator 17.1.0, SVG Export Plug-In . SVG Version: 6.00 Build 0)  -->
<!DOCTYPE svg PUBLIC "-//W3C//DTD SVG 1.1//EN" "http://www.w3.org/Graphics/SVG/1.1/DTD/svg11.dtd">
<svg version="1.1" id="Capa_1" xmlns="http://www.w3.org/2000/svg" xmlns:xlink="http://www.w3.org/1999/xlink" x="0px" y="0px"
	 viewBox="0 0 512 512" style="enable-background:new 0 0 512 512;" xml:space="preserve">
<g>
	<path d="M156.278,96c-5.474,0-12,4.164-12,24s6.526,24,12,24s12-4.164,12-24S161.753,96,156.278,96z"/>
	<path d="M356.278,96c-5.474,0-12,4.164-12,24s6.526,24,12,24s12-4.164,12-24S361.753,96,356.278,96z"/>
	<path d="M400.824,158.873c-4.882-16.06-9.098-29.931-9.098-38.873c0-34.247-8.967-63.596-17.299-76.37
		c-20.89-32.032-76.472-43.503-118.035-43.624C256.354,0.005,256.317,0,256.278,0h-0.01c0,0-0.001,0-0.002,0
		c-0.089,0-0.182,0.002-0.271,0.002c-0.09,0-0.183-0.002-0.274-0.002c-0.038,0-0.075,0.005-0.112,0.006
		c-41.564,0.122-97.147,11.593-118.037,43.624c-8.332,12.775-17.299,42.124-17.299,76.37c0,8.942-4.216,22.813-9.097,38.873
		c-8.014,26.364-17.987,59.176-14.857,89.937c3.343,32.854,13.795,57.92,31.065,74.503c14.264,13.697,29.366,17.765,35.814,19.502
		c0.286,0.077,0.594,0.16,0.888,0.241c-2.379,29.498-3.813,61.727-3.813,96.945c0,23.308,11.075,42.515,32.028,55.544
		c17.064,10.61,39.782,16.455,63.97,16.456c0.001,0,0.001,0,0.002,0c0.001,0,0.002,0,0.002,0c0.002,0,0.002,0,0.003,0
		c0.001,0,0.001,0,0.002,0c24.188-0.001,46.906-5.846,63.97-16.456c20.953-13.029,32.028-32.236,32.028-55.544
		c0-35.276-1.44-67.553-3.826-97.092c0.117-0.032,0.237-0.064,0.349-0.094c6.449-1.737,21.551-5.805,35.814-19.502
		c17.271-16.583,27.722-41.649,31.065-74.503C418.811,218.05,408.837,185.238,400.824,158.873z M256.278,472.049
		c2.691,1.218,7.071,11.334,8.96,15.701c1.157,2.674,2.28,5.257,3.453,7.639c-4.084,0.398-8.234,0.611-12.415,0.611
		c-4.18,0-8.328-0.213-12.411-0.611c1.174-2.382,2.296-4.965,3.453-7.639C249.208,483.383,253.588,473.267,256.278,472.049z
		 M311.801,481.956c-7.185,4.468-15.845,7.981-25.329,10.377c-0.424-0.106-0.857-0.183-1.299-0.218
		c-1.53-2.118-3.728-7.2-5.25-10.719C275.028,470.082,268.935,456,256.278,456c-12.657,0-18.749,14.082-23.645,25.396
		c-1.522,3.519-3.721,8.601-5.25,10.719c-0.443,0.035-0.877,0.112-1.301,0.218c-9.485-2.396-18.146-5.909-25.331-10.377
		c-16.242-10.1-24.477-24.216-24.477-41.956c0-137.063,21.163-224.854,36.615-288.955c0.074-0.308,0.145-0.603,0.219-0.91
		C223.601,157.793,240.533,168,256.273,168c15.742,0,32.674-10.209,43.165-17.867c0.076,0.314,0.148,0.616,0.224,0.932
		c15.453,64.1,36.615,151.887,36.615,288.936C336.278,457.74,328.043,471.856,311.801,481.956z M399.763,247.19
		c-6.428,63.166-38.951,75.586-52.738,79.518c-7.495-78.528-21.493-136.607-31.808-179.394c-1.092-4.531-2.149-8.918-3.162-13.167
		c-0.006-0.027-0.016-0.052-0.023-0.078c-0.011-0.043-0.026-0.086-0.038-0.129c-0.416-1.562-1.266-2.896-2.394-3.902
		c-0.039-0.035-0.08-0.066-0.12-0.1c-0.155-0.133-0.311-0.262-0.475-0.382c-0.079-0.058-0.161-0.11-0.242-0.165
		c-0.131-0.089-0.261-0.177-0.396-0.258c-0.1-0.06-0.202-0.113-0.304-0.168c-0.125-0.068-0.25-0.135-0.378-0.196
		c-0.105-0.049-0.211-0.093-0.317-0.137c-0.134-0.057-0.269-0.113-0.406-0.162c-0.097-0.035-0.195-0.064-0.293-0.095
		c-0.152-0.048-0.304-0.095-0.459-0.134c-0.086-0.021-0.173-0.038-0.26-0.057c-0.167-0.036-0.334-0.07-0.504-0.095
		c-0.082-0.012-0.165-0.02-0.248-0.029c-0.172-0.02-0.344-0.038-0.518-0.047c-0.094-0.005-0.188-0.004-0.283-0.005
		c-0.159-0.002-0.317-0.005-0.477,0.002c-0.132,0.006-0.264,0.021-0.396,0.033c-0.12,0.011-0.24,0.019-0.361,0.036
		c-0.204,0.028-0.407,0.069-0.609,0.113c-0.045,0.01-0.089,0.014-0.134,0.025c-0.006,0.001-0.012,0.004-0.019,0.005
		c-0.956,0.229-1.877,0.64-2.716,1.229c-0.052,0.036-0.107,0.068-0.158,0.106c-0.126,0.093-0.245,0.197-0.366,0.298
		c-0.083,0.069-0.169,0.134-0.248,0.206c-0.017,0.015-0.035,0.027-0.051,0.042c-6.643,6.09-27.243,21.896-42.589,21.896
		c-15.28,0-35.931-15.81-42.594-21.897c-0.008-0.007-0.016-0.013-0.024-0.02c-0.165-0.15-0.339-0.291-0.516-0.427
		c-0.034-0.026-0.065-0.056-0.1-0.081c-0.169-0.125-0.346-0.24-0.526-0.353c-0.047-0.03-0.093-0.064-0.141-0.093
		c-0.105-0.063-0.217-0.116-0.325-0.174c-0.128-0.069-0.254-0.142-0.384-0.203c-0.034-0.016-0.07-0.027-0.103-0.043
		c-0.211-0.095-0.424-0.184-0.641-0.26c-0.025-0.009-0.051-0.015-0.076-0.023c-0.228-0.077-0.459-0.146-0.692-0.202
		c-0.008-0.002-0.016-0.005-0.025-0.007c-0.058-0.014-0.116-0.02-0.174-0.032c-0.189-0.041-0.379-0.079-0.57-0.106
		c-0.118-0.017-0.235-0.024-0.352-0.035c-0.138-0.013-0.275-0.028-0.413-0.034c-0.146-0.006-0.29-0.004-0.434-0.002
		c-0.112,0.001-0.224,0-0.335,0.006c-0.15,0.008-0.299,0.025-0.447,0.041c-0.109,0.012-0.218,0.022-0.327,0.038
		c-0.138,0.021-0.275,0.049-0.411,0.078c-0.121,0.025-0.242,0.049-0.362,0.079c-0.116,0.03-0.229,0.065-0.343,0.1
		c-0.139,0.042-0.278,0.084-0.415,0.134c-0.092,0.033-0.181,0.072-0.272,0.108c-0.153,0.062-0.305,0.125-0.454,0.197
		c-0.075,0.036-0.148,0.077-0.222,0.115c-0.155,0.08-0.31,0.162-0.46,0.254c-0.073,0.044-0.143,0.094-0.215,0.14
		c-0.142,0.093-0.284,0.185-0.421,0.287c-0.088,0.065-0.171,0.137-0.256,0.206c-0.113,0.092-0.228,0.182-0.337,0.281
		c-0.117,0.106-0.227,0.22-0.338,0.333c-0.063,0.064-0.13,0.121-0.191,0.188c-0.009,0.01-0.016,0.02-0.024,0.029
		c-0.135,0.149-0.261,0.307-0.386,0.466c-0.039,0.05-0.083,0.098-0.121,0.149c-0.108,0.145-0.205,0.299-0.303,0.452
		c-0.046,0.072-0.099,0.142-0.142,0.215c-0.046,0.077-0.084,0.16-0.128,0.24c-0.086,0.155-0.173,0.31-0.247,0.469
		c-0.007,0.015-0.012,0.031-0.019,0.046c-0.105,0.229-0.2,0.462-0.283,0.698c-0.005,0.014-0.008,0.029-0.013,0.044
		c-0.082,0.239-0.153,0.48-0.211,0.723c-0.002,0.008-0.005,0.015-0.007,0.023c-1.011,4.243-2.066,8.623-3.157,13.147
		c-10.321,42.817-24.331,100.948-31.823,179.565c-13.46-3.765-46.762-15.673-53.274-79.67c-2.805-27.563,6.65-58.67,14.247-83.664
		c5.253-17.281,9.789-32.206,9.789-43.526c0-29.286,7.574-56.702,14.701-67.63c7.798-11.957,23.65-21.706,45.841-28.191
		c17.702-5.173,39.256-8.149,59.185-8.176c19.928,0.027,41.482,3.003,59.185,8.176c22.191,6.485,38.042,16.234,45.841,28.191
		c7.126,10.927,14.701,38.343,14.701,67.63c0,11.32,4.537,26.245,9.789,43.526C393.112,188.521,402.567,219.627,399.763,247.19z"/>
	<path d="M224.274,216c-4.418,0-8,3.582-8,8v8c0,4.418,3.582,8,8,8s8-3.582,8-8v-8C232.274,219.582,228.692,216,224.274,216z"/>
	<path d="M288.273,216c-4.418,0-8,3.582-8,8v8c0,4.418,3.582,8,8,8s8-3.582,8-8v-8C296.273,219.582,292.692,216,288.273,216z"/>
</g>
<g>
</g>
<g>
</g>
<g>
</g>
<g>
</g>
<g>
</g>
<g>
</g>
<g>
</g>
<g>
</g>
<g>
</g>
<g>
</g>
<g>
</g>
<g>
</g>
<g>
</g>
<g>
</g>
<g>
</g>
</svg>
