<?xml version="1.0" encoding="iso-8859-1"?>
<!-- Generator: Adobe Illustrator 17.1.0, SVG Export Plug-In . SVG Version: 6.00 Build 0)  -->
<!DOCTYPE svg PUBLIC "-//W3C//DTD SVG 1.1//EN" "http://www.w3.org/Graphics/SVG/1.1/DTD/svg11.dtd">
<svg version="1.1" id="Capa_1" xmlns="http://www.w3.org/2000/svg" xmlns:xlink="http://www.w3.org/1999/xlink" x="0px" y="0px"
	 viewBox="0 0 512 512" style="enable-background:new 0 0 512 512;" xml:space="preserve">
<g>
	<path d="M255.736,361.733l12.405,6.203c1.148,0.574,2.369,0.846,3.571,0.846c2.935,0,5.76-1.621,7.162-4.424
		c1.976-3.952,0.374-8.757-3.578-10.733l-11.561-5.78v-11.03c4.414-0.005,7.991-3.584,7.991-8c0-4.418-3.582-8-8-8h-15.983
		c-4.418,0-8,3.582-8,8c0,4.416,3.577,7.995,7.992,8v11.03l-11.561,5.78c-3.952,1.976-5.554,6.781-3.578,10.733
		c1.401,2.803,4.227,4.424,7.162,4.424c1.202,0,2.423-0.272,3.571-0.846L255.736,361.733z"/>
	<path d="M207.787,280.857c-8.817,0-15.991,7.174-15.991,15.991s7.174,15.991,15.991,15.991c8.818,0,15.992-7.174,15.992-15.991
		S216.604,280.857,207.787,280.857z"/>
	<path d="M303.685,280.857c-8.818,0-15.992,7.174-15.992,15.991s7.174,15.991,15.992,15.991c8.817,0,15.991-7.174,15.991-15.991
		S312.502,280.857,303.685,280.857z"/>
	<path d="M501.052,126.475c-10.967-7.231-29.357-9.431-40.161-4.801c-46.24,19.817-119.791,76.59-138.016,90.922
		c-15.254-7.375-47.781-19.646-66.611-19.646c-0.089,0-0.176,0.01-0.264,0.013c-0.089-0.003-0.175-0.013-0.264-0.013
		c-18.83,0-51.357,12.271-66.611,19.646c-18.225-14.333-91.776-71.105-138.016-90.922c-10.803-4.63-29.193-2.431-40.161,4.801
		C3.888,131.131,0,137.714,0,145.011c0,28.231,20.066,93.64,41.38,124.426c5.535,7.995,15.981,20.207,28.702,30.508
		c17.116,13.859,33.871,20.887,49.799,20.887h25.5c-1.812,4.429-1.988,8.234-0.514,11.378c9.434,20.125,28.778,36.706,55.941,47.949
		c20.791,8.606,42.373,12.503,54.769,12.588c0.053,0.001,0.105,0.008,0.158,0.008c0.042,0,0.09-0.002,0.132-0.002
		s0.09,0.002,0.132,0.002c0.053,0,0.105-0.007,0.158-0.008c12.395-0.084,33.978-3.981,54.769-12.588
		c27.164-11.243,46.508-27.824,55.941-47.949c1.473-3.143,1.282-6.952-0.528-11.378h25.779c33.949,0,66.194-33.619,78.5-51.395
		C491.934,238.65,512,173.242,512,145.011C512,137.714,508.112,131.131,501.052,126.475z M225.195,345.459
		c8.69-19.223,23.07-32.619,30.541-32.619s21.851,13.396,30.541,32.62c5.601,12.39,6.024,21.312,4.034,25.071
		c-14.365,4.367-27.34,6.201-34.443,6.223c-7.155-0.022-20.266-1.88-34.755-6.316C219.178,366.626,219.639,357.749,225.195,345.459z
		 M457.465,260.329c-8.569,12.378-37.013,44.502-65.345,44.502h-8.235c-2.631-0.708-11.972-7.404-23.518-20.943
		c-11.53-13.521-16.717-23.927-16.717-26.997l-3.171-1.613c1.927-1.461,3.171-3.774,3.171-6.378v-0.148c0-4.418-3.582-8-8-8
		s-8,3.582-8,8v8.14c0,4.142,2.114,16.206,21.693,38.714c3.081,3.542,5.937,6.591,8.585,9.226h-6.03
		c-0.054,0-0.107,0.007-0.161,0.008c-1.87-0.025-3.757,0.594-5.293,1.903c-3.362,2.867-3.765,7.916-0.898,11.278
		c2.514,2.95,5.144,6.886,6.063,8.981c-8.859,17.456-26.298,29.445-44.252,37.273c-0.105-7.413-2.271-16.052-6.5-25.408
		c-4.724-10.45-11.377-20.389-18.735-27.989c-8.893-9.185-18.017-14.04-26.385-14.04s-17.492,4.855-26.385,14.04
		c-7.357,7.599-14.011,17.539-18.735,27.988c-4.207,9.306-6.376,17.906-6.502,25.293c-17.862-7.831-35.174-19.788-43.988-37.16
		c0.911-2.087,3.504-5.965,6.064-8.979c2.024-2.375,2.483-5.709,1.176-8.543c-1.308-2.833-4.144-4.647-7.264-4.647h-6.559
		c2.648-2.634,5.503-5.684,8.585-9.226c19.579-22.508,21.693-34.573,21.693-38.714l-3.171-1.613
		c1.927-1.461,3.171-3.774,3.171-6.378v-0.148c0-4.418-3.582-8-8-8s-8,3.582-8,8v8.14c0,3.07-5.187,13.476-16.717,26.997
		c-11.546,13.539-20.887,20.235-23.518,20.943h-7.706c-28.332,0-56.776-32.125-65.345-44.502C33.636,230.141,16,168.024,16,145.011
		c0-0.668,0-2.701,3.756-5.178c7.023-4.63,19.644-5.769,25.05-3.452c49.994,21.426,134.809,89.064,138.395,91.934
		c0.022,0.017,0.045,0.031,0.067,0.048c0.09,0.07,0.183,0.133,0.276,0.199c0.176,0.126,0.354,0.246,0.536,0.355
		c0.091,0.054,0.181,0.107,0.274,0.158c0.225,0.124,0.454,0.235,0.687,0.336c0.052,0.022,0.103,0.048,0.155,0.07
		c0.302,0.122,0.608,0.225,0.918,0.309c0.041,0.011,0.084,0.018,0.125,0.029c0.264,0.066,0.53,0.119,0.798,0.158
		c0.087,0.013,0.174,0.024,0.261,0.034c0.246,0.028,0.493,0.044,0.74,0.048c0.056,0.001,0.112,0.011,0.168,0.011
		c0.019,0,0.038-0.003,0.057-0.003c0.291-0.003,0.581-0.021,0.869-0.055c0.096-0.011,0.191-0.031,0.286-0.046
		c0.208-0.032,0.414-0.07,0.62-0.119c0.105-0.025,0.209-0.052,0.313-0.082c0.229-0.063,0.454-0.138,0.677-0.222
		c0.063-0.024,0.127-0.044,0.19-0.069c0.299-0.122,0.591-0.262,0.876-0.42c0.009-0.005,0.018-0.008,0.026-0.013
		c10.602-5.963,46.542-20.089,63.616-20.089c0.089,0,0.176-0.011,0.264-0.014c0.089,0.003,0.175,0.014,0.264,0.014
		c17.073,0,53.014,14.125,63.616,20.089c0.009,0.005,0.019,0.008,0.029,0.014c0.283,0.158,0.574,0.297,0.871,0.418
		c0.066,0.027,0.134,0.048,0.2,0.073c0.219,0.083,0.441,0.156,0.666,0.219c0.106,0.03,0.212,0.057,0.318,0.083
		c0.203,0.048,0.408,0.086,0.614,0.118c0.097,0.015,0.193,0.035,0.291,0.046c0.288,0.034,0.577,0.052,0.867,0.055
		c0.019,0,0.039,0.003,0.058,0.003c0.057,0,0.113-0.01,0.17-0.011c0.246-0.005,0.492-0.021,0.738-0.048
		c0.088-0.01,0.175-0.021,0.262-0.034c0.268-0.039,0.535-0.091,0.799-0.158c0.041-0.01,0.083-0.018,0.124-0.028
		c0.311-0.084,0.618-0.187,0.92-0.31c0.051-0.021,0.1-0.046,0.151-0.068c0.234-0.101,0.464-0.213,0.69-0.337
		c0.092-0.051,0.182-0.104,0.272-0.157c0.183-0.111,0.362-0.23,0.539-0.357c0.091-0.065,0.184-0.127,0.273-0.197
		c0.022-0.017,0.046-0.031,0.068-0.048c3.586-2.869,88.401-70.508,138.395-91.934c5.407-2.317,18.027-1.179,25.05,3.452
		c3.756,2.477,3.756,4.51,3.756,5.178C496,168.024,478.364,230.141,457.465,260.329z"/>
</g>
<g>
</g>
<g>
</g>
<g>
</g>
<g>
</g>
<g>
</g>
<g>
</g>
<g>
</g>
<g>
</g>
<g>
</g>
<g>
</g>
<g>
</g>
<g>
</g>
<g>
</g>
<g>
</g>
<g>
</g>
</svg>
