<?xml version="1.0" encoding="iso-8859-1"?>
<!-- Generator: Adobe Illustrator 17.1.0, SVG Export Plug-In . SVG Version: 6.00 Build 0)  -->
<!DOCTYPE svg PUBLIC "-//W3C//DTD SVG 1.1//EN" "http://www.w3.org/Graphics/SVG/1.1/DTD/svg11.dtd">
<svg version="1.1" id="Capa_1" xmlns="http://www.w3.org/2000/svg" xmlns:xlink="http://www.w3.org/1999/xlink" x="0px" y="0px"
	 viewBox="0 0 512 512" style="enable-background:new 0 0 512 512;" xml:space="preserve">
<g>
	<path d="M152,208c-8.822,0-16,7.178-16,16s7.178,16,16,16s16-7.178,16-16S160.822,208,152,208z"/>
	<path d="M360,208c-8.822,0-16,7.178-16,16s7.178,16,16,16s16-7.178,16-16S368.822,208,360,208z"/>
	<path d="M501.363,76.176c-7.328-4.293-16.222-3.956-23.208,0.881c-0.055,0.038-0.109,0.077-0.163,0.116l-82.708,60.365
		C393.22,139.044,392,141.445,392,144c0,27.148-17.211,32.045-17.944,32.24l0.105-0.026l0.089,0.376
		c-1.733-0.328-3.505-0.511-5.304-0.561c-2.724-4.935-5.784-9.644-9.18-14.111c0.193-0.781,0.272-1.604,0.216-2.45l-8-120
		c-0.006-0.088-0.013-0.176-0.022-0.264C349.579,15.389,333.894,0,312,0c-22.056,0-40,17.944-40,40v52.687l-16,16l-16-16V40
		c0-22.056-17.944-40-40-40c-21.894,0-37.579,15.389-39.96,39.204c-0.011,0.108-0.02,0.217-0.026,0.326l-7.059,119.999
		c-0.028,0.469-0.006,0.928,0.045,1.379c-3.703,4.764-7.027,9.808-9.959,15.121c-1.491,0.042-2.963,0.181-4.41,0.416
		c-0.258-0.089-0.522-0.167-0.793-0.231C137.66,176.172,120,171.682,120,144c0-2.555-1.22-4.956-3.284-6.462L34.008,77.173
		c-0.054-0.039-0.108-0.078-0.163-0.116c-6.987-4.837-15.879-5.175-23.208-0.881C3.339,80.451-0.698,88.337,0.101,96.755
		c3.874,40.83,35.97,94.581,59.529,109.945c9.694,6.322,33.004,12.71,44.406,15.59C104.02,222.859,104,223.427,104,224
		c0,23.641,14.32,43.331,33.095,47.269c3.484,20.239,8.041,38.171,12.108,54.152c5.648,22.197,10.526,41.366,10.526,58.849
		c0,42.349,20.004,80.494,52.206,99.548c0.207,0.123,0.423,0.218,0.636,0.32c0.939,1.562,1.915,3.09,2.951,4.558
		C226.13,503.724,240.505,512,256,512s29.87-8.276,40.477-23.303c1.036-1.468,2.013-2.996,2.951-4.558
		c0.216-0.103,0.435-0.2,0.645-0.325c32.196-19.056,52.197-57.199,52.197-99.543c0-17.004,4.905-36.477,10.584-59.023
		c4.037-16.026,8.56-34.003,12.037-53.975C393.673,267.34,408,247.646,408,224c0-0.573-0.019-1.141-0.036-1.709
		c11.402-2.88,34.713-9.268,44.406-15.59c23.559-15.364,55.656-69.116,59.529-109.945C512.698,88.337,508.661,80.451,501.363,76.176
		z M68.37,193.299c-20.032-13.064-49.012-62.961-52.341-98.055c-0.299-3.149,1.785-4.729,2.695-5.263
		c0.917-0.538,3.324-1.585,5.947,0.186l79.434,57.975c1.02,19.58,9.222,30.618,16.807,36.697
		c-6.31,5.373-11.268,12.879-14.141,21.64C93.042,202.956,74.714,197.436,68.37,193.299z M298.766,334.963
		C294.179,340.706,287.339,344,280,344c-1.127,0-2.243-0.09-3.345-0.248c3.578-2.719,6.839-6.149,9.636-10.224
		c2.5-3.643,1.574-8.623-2.068-11.123c-3.645-2.501-8.623-1.575-11.123,2.068C270.401,328.404,264.591,335,256,335
		s-14.401-6.596-17.1-10.527c-2.5-3.644-7.481-4.57-11.123-2.068c-3.643,2.5-4.569,7.48-2.068,11.123
		c2.797,4.075,6.058,7.505,9.636,10.224C234.243,343.91,233.127,344,232,344c-7.339,0-14.179-3.294-18.766-9.037
		c-4.656-5.83-6.284-13.174-4.583-20.681c1.913-8.441,8.878-15.492,17.332-17.545c8.98-2.18,17.947,0.648,23.994,7.564
		c1.519,1.738,3.715,2.735,6.023,2.735s4.504-0.997,6.023-2.735c6.047-6.917,15.016-9.745,23.994-7.564
		c8.454,2.053,15.419,9.104,17.333,17.546C305.05,321.789,303.422,329.134,298.766,334.963z M204.324,348.867
		C211.732,355.99,221.557,360,232,360c8.281,0,16.239-2.562,23.012-7.407c0.656-0.469,1.321-0.469,1.976,0
		C263.762,357.438,271.72,360,280,360c10.442,0,20.268-4.01,27.676-11.133C310.516,356.15,312,363.999,312,372
		c0,19.898-12.844,35.026-20.5,42.273C280.299,424.876,266.033,432,256,432c-18.677,0-56-25.939-56-60
		C200,363.998,201.483,356.149,204.324,348.867z M256,496c-10.148,0-19.881-5.871-27.405-16.53C220.473,467.964,216,452.526,216,436
		c0-1.471,0.047-2.941,0.119-4.407C229.12,441.84,243.841,448,256,448c12.064,0,26.852-6.132,39.882-16.395
		c0.072,1.462,0.118,2.928,0.118,4.395c0,16.526-4.473,31.964-12.595,43.47C275.881,490.129,266.148,496,256,496z M368,256
		c-0.045,0-0.089,0.006-0.134,0.007c-0.177,0.003-0.352,0.012-0.527,0.027c-0.09,0.007-0.181,0.015-0.27,0.025
		c-0.174,0.02-0.347,0.048-0.518,0.079c-0.091,0.017-0.183,0.033-0.273,0.053c-0.161,0.036-0.32,0.078-0.478,0.123
		c-0.097,0.028-0.195,0.055-0.291,0.087c-0.146,0.048-0.289,0.102-0.432,0.158c-0.101,0.04-0.202,0.079-0.302,0.123
		c-0.134,0.059-0.265,0.124-0.395,0.19c-0.1,0.051-0.2,0.102-0.298,0.157c-0.126,0.071-0.249,0.148-0.371,0.225
		c-0.094,0.06-0.187,0.119-0.278,0.182c-0.122,0.085-0.24,0.175-0.357,0.267c-0.083,0.065-0.166,0.129-0.246,0.197
		c-0.118,0.1-0.231,0.205-0.343,0.312c-0.072,0.069-0.145,0.136-0.214,0.208c-0.111,0.113-0.216,0.232-0.32,0.352
		c-0.064,0.074-0.128,0.146-0.189,0.222c-0.098,0.122-0.191,0.249-0.282,0.377c-0.06,0.084-0.119,0.167-0.175,0.253
		c-0.081,0.124-0.157,0.253-0.232,0.382c-0.057,0.099-0.114,0.198-0.167,0.299c-0.063,0.121-0.121,0.244-0.177,0.368
		c-0.055,0.119-0.108,0.239-0.157,0.361c-0.045,0.113-0.086,0.227-0.125,0.343c-0.049,0.14-0.095,0.281-0.136,0.424
		c-0.031,0.108-0.058,0.217-0.084,0.326c-0.037,0.152-0.07,0.305-0.097,0.46c-0.009,0.051-0.024,0.1-0.032,0.151
		c-3.465,21.698-8.403,41.303-12.761,58.601c-5.939,23.58-11.069,43.943-11.069,62.932c0,27.637-9.63,53.089-26.056,70.893
		C311.384,448.976,312,442.55,312,436c0-4.36-0.271-8.732-0.807-12.995c-0.206-1.641-0.896-3.102-1.907-4.26
		C320.31,405.85,328,389.623,328,372c0-13.773-3.524-27.216-10.184-38.968c2.414-7.031,2.853-14.715,1.137-22.285
		c-3.274-14.449-14.721-26.051-29.161-29.558c-12.138-2.949-24.276-0.364-33.793,6.925c-9.515-7.289-21.654-9.873-33.793-6.925
		c-14.44,3.507-25.887,15.109-29.16,29.558c-1.715,7.57-1.277,15.254,1.137,22.285C187.524,344.784,184,358.225,184,372
		c0,16.348,6.595,32.653,18.711,46.75c-1.009,1.157-1.698,2.617-1.903,4.255C200.271,427.268,200,431.64,200,436
		c0,6.55,0.616,12.977,1.786,19.164c-16.427-17.804-26.056-43.256-26.056-70.894c0-19.486-5.107-39.556-11.021-62.794
		c-4.38-17.214-9.345-36.725-12.806-58.72c-0.009-0.055-0.024-0.106-0.034-0.16c-0.027-0.154-0.06-0.306-0.096-0.456
		c-0.026-0.111-0.054-0.222-0.085-0.331c-0.04-0.142-0.085-0.281-0.133-0.419c-0.041-0.118-0.083-0.235-0.128-0.35
		c-0.048-0.119-0.099-0.236-0.152-0.353c-0.058-0.128-0.118-0.255-0.182-0.379c-0.051-0.098-0.105-0.193-0.16-0.288
		c-0.077-0.134-0.156-0.267-0.24-0.396c-0.053-0.081-0.109-0.159-0.164-0.238c-0.095-0.134-0.191-0.265-0.294-0.393
		c-0.056-0.07-0.115-0.138-0.174-0.206c-0.109-0.126-0.219-0.25-0.335-0.369c-0.064-0.065-0.13-0.128-0.195-0.19
		c-0.118-0.113-0.238-0.224-0.362-0.329c-0.073-0.062-0.149-0.121-0.224-0.18c-0.124-0.098-0.249-0.193-0.379-0.283
		c-0.084-0.059-0.17-0.114-0.257-0.169c-0.128-0.082-0.258-0.162-0.391-0.237c-0.092-0.052-0.186-0.1-0.281-0.148
		c-0.135-0.069-0.271-0.136-0.41-0.198c-0.096-0.042-0.193-0.081-0.291-0.12c-0.145-0.057-0.291-0.112-0.439-0.161
		c-0.095-0.031-0.192-0.059-0.289-0.087c-0.158-0.045-0.316-0.087-0.477-0.123c-0.092-0.02-0.185-0.038-0.279-0.055
		c-0.169-0.031-0.338-0.058-0.51-0.078c-0.093-0.011-0.187-0.019-0.282-0.027c-0.17-0.014-0.341-0.023-0.514-0.026
		C144.097,256.006,144.049,256,144,256c-13.234,0-24-14.355-24-32s10.766-32,24-32c1.423,0,2.757-0.376,3.915-1.027
		c0.158,0.009,0.316,0.027,0.474,0.027c2.91,0,5.717-1.593,7.131-4.363c7.626-14.936,18.747-27.563,33.052-37.529
		c3.625-2.525,4.517-7.512,1.991-11.137c-2.526-3.625-7.513-4.517-11.137-1.991c-3.313,2.308-6.472,4.748-9.487,7.305l6.038-102.646
		C177.595,24.979,186.344,16,200,16c13.233,0,24,10.767,24,24v56c0,2.122,0.843,4.157,2.343,5.657l11.609,11.609
		c-5.351,0.741-10.691,1.797-15.985,3.188c-4.273,1.123-6.827,5.497-5.704,9.771s5.497,6.829,9.771,5.704
		C235.954,129.322,246.036,128,256,128c12.583,0,25.187,2.072,37.461,6.157c0.838,0.279,1.69,0.412,2.527,0.412
		c3.351,0,6.473-2.122,7.589-5.476c1.396-4.192-0.872-8.722-5.063-10.117c-8.049-2.679-16.233-4.569-24.471-5.707l11.613-11.613
		c1.5-1.5,2.343-3.535,2.343-5.657V40c0-13.234,10.766-24,24-24c13.665,0,22.417,8.99,24.027,24.67l6.89,103.347
		c-2.599-2.245-5.308-4.403-8.134-6.463c-3.57-2.603-8.574-1.818-11.177,1.752c-2.603,3.57-1.818,8.574,1.752,11.177
		c13.683,9.975,24.313,22.453,31.593,37.088c1.398,2.811,4.229,4.438,7.169,4.438c0.651,0,1.307-0.088,1.955-0.253
		c0.617,0.153,1.26,0.243,1.924,0.243c13.234,0,24,14.355,24,32S381.234,256,368,256z M495.971,95.245
		c-3.329,35.094-32.309,84.99-52.341,98.055c-6.336,4.132-24.668,9.654-38.402,13.179c-2.874-8.761-7.831-16.267-14.141-21.639
		c7.585-6.079,15.787-17.117,16.807-36.697l79.434-57.975c2.625-1.771,5.03-0.724,5.947-0.186
		C494.186,90.515,496.27,92.095,495.971,95.245z"/>
</g>
<g>
</g>
<g>
</g>
<g>
</g>
<g>
</g>
<g>
</g>
<g>
</g>
<g>
</g>
<g>
</g>
<g>
</g>
<g>
</g>
<g>
</g>
<g>
</g>
<g>
</g>
<g>
</g>
<g>
</g>
</svg>
