<?xml version="1.0" encoding="iso-8859-1"?>
<!-- Generator: Adobe Illustrator 17.1.0, SVG Export Plug-In . SVG Version: 6.00 Build 0)  -->
<!DOCTYPE svg PUBLIC "-//W3C//DTD SVG 1.1//EN" "http://www.w3.org/Graphics/SVG/1.1/DTD/svg11.dtd">
<svg version="1.1" id="Capa_1" xmlns="http://www.w3.org/2000/svg" xmlns:xlink="http://www.w3.org/1999/xlink" x="0px" y="0px"
	 viewBox="0 0 512 512" style="enable-background:new 0 0 512 512;" xml:space="preserve">
<g>
	<path d="M510.529,232.613c0.211-0.298,0.403-0.611,0.572-0.938c0.028-0.053,0.051-0.107,0.078-0.161
		c0.156-0.317,0.293-0.644,0.406-0.982c0.009-0.026,0.02-0.051,0.028-0.076c0.113-0.349,0.197-0.709,0.261-1.077
		c0.013-0.075,0.023-0.15,0.034-0.225c0.048-0.333,0.08-0.671,0.086-1.017c0-0.035,0.005-0.069,0.005-0.104
		c0-0.011,0.002-0.021,0.002-0.033c0-0.361-0.032-0.714-0.079-1.063c-0.011-0.08-0.023-0.159-0.036-0.238
		c-0.126-0.771-0.362-1.504-0.692-2.184c-0.015-0.03-0.022-0.062-0.037-0.092l-11.704-23.41c-3.462-6.925-4.698-15.289-3.672-24.859
		c0.305-2.845,0.293-5.748-0.033-8.631c-1.402-12.365-9.308-23.733-21.148-30.41c-4.837-2.728-9.846-4.381-14.886-4.916
		c-5.716-0.607-13.774-2.701-19.697-9.234c-14.496-15.986-31.204-29.65-49.682-40.659l9.258-27.772
		c1.135-3.405-0.136-7.148-3.109-9.158C395.431,44.663,370.477,28,344,28c-3.051,0-5.875,1.326-7.954,3.735
		c-2.744,3.18-5.103,8.872-4.751,26.411c-23.535-5.744-47.869-7.48-72.467-5.136c-41.748,3.98-80.207,20.097-111.725,44.769
		C134.47,77.87,118.605,60,88,60c-3.236,0-6.153,1.949-7.391,4.938s-0.554,6.431,1.734,8.719C82.56,73.873,104,95.824,104,140
		c0,0.814,0.124,1.6,0.35,2.341c-20.14,28.051-33.729,61.081-38.415,96.812c-0.95,0.918-1.667,1.552-2.204,1.988
		c-0.274-0.367-0.601-0.838-0.981-1.436c-1.882-2.957-5.727-9.714-10.179-17.538c-5.374-9.443-12.062-21.195-17.667-30.394
		c-9.994-16.397-12.988-19.208-17.47-19.813c-2.633-0.36-5.22,0.512-7.087,2.38c-0.142,0.136-0.634,0.477-0.994,0.727
		C4.827,178.2,0,182.661,0,196c0,7.352,3.642,20.546,7.859,35.824C11.675,245.647,16,261.315,16,268
		c0,6.661-4.324,22.284-8.139,36.068C3.643,319.31,0,332.473,0,339.811c0,13.319,4.832,17.771,9.36,20.899
		c0.359,0.249,0.852,0.589,0.991,0.722c1.869,1.865,4.452,2.728,7.083,2.375c4.477-0.604,7.47-3.409,17.466-19.766
		c5.606-9.174,12.294-20.896,17.668-30.314c4.451-7.802,8.295-14.539,10.176-17.486c0.382-0.6,0.71-1.069,0.985-1.437
		c0.542,0.439,1.269,1.079,2.235,2.011C80.219,403.725,171.742,484,280,484c57.696,0,111.938-22.468,152.735-63.265
		C473.532,379.938,496,325.695,496,268c0-19.194,10.453-31.14,13.657-34.343c0.001-0.001,0.002-0.003,0.004-0.005
		c0.269-0.269,0.511-0.563,0.74-0.868C510.443,232.728,510.487,232.672,510.529,232.613z M105.458,79.148
		c12.898,5.162,21.307,16.157,29.3,29.064c-5.478,4.984-10.701,10.245-15.646,15.761C116.932,104.35,111.039,89.399,105.458,79.148z
		 M409.626,420.174C409.093,420.062,408.548,420,408,420c-2.11,0-4.17,0.859-5.66,2.34c-1.465,1.465-2.307,3.481-2.334,5.555
		c-16.918,12.729-35.911,22.84-56.374,29.725c-0.383-1.227-1.055-2.363-1.971-3.279c-1.49-1.49-3.55-2.34-5.66-2.34
		c-2.11,0-4.17,0.85-5.66,2.34c-1.49,1.49-2.34,3.56-2.34,5.66c0,0.71,0.104,1.413,0.289,2.093
		c-12.38,3.081-25.208,5.014-38.371,5.66c1.405-0.351,2.711-1.069,3.741-2.093c1.48-1.49,2.34-3.551,2.34-5.66
		c0-2.11-0.86-4.17-2.34-5.66c-1.49-1.49-3.55-2.34-5.66-2.34c-2.11,0-4.17,0.85-5.66,2.34c-1.49,1.49-2.34,3.56-2.34,5.66
		c0,2.1,0.85,4.16,2.34,5.66c1.172,1.164,2.699,1.937,4.323,2.217C284.45,467.95,282.231,468,280,468
		c-11.519,0-22.83-0.992-33.855-2.88c1.18-1.428,1.855-3.254,1.855-5.12c0-2.11-0.86-4.17-2.34-5.66c-1.49-1.49-3.55-2.34-5.66-2.34
		c-2.1,0-4.17,0.85-5.66,2.34c-1.49,1.49-2.34,3.56-2.34,5.66c0,0.764,0.115,1.52,0.328,2.246
		c-22.152-5.433-42.923-14.567-61.576-26.748c1.083-0.397,2.086-1.016,2.908-1.838c1.49-1.49,2.34-3.551,2.34-5.66
		c0-2.11-0.85-4.17-2.34-5.66c-1.49-1.48-3.55-2.34-5.66-2.34c-2.1,0-4.17,0.859-5.66,2.34c-1.482,1.482-2.329,3.528-2.338,5.627
		c-29.78-22.352-53.205-52.873-66.808-88.488C94.089,339.814,95.04,340,96,340c2.1,0,4.17-0.851,5.66-2.34
		c1.49-1.49,2.34-3.561,2.34-5.66c0-2.11-0.85-4.17-2.34-5.66c-1.49-1.48-3.55-2.34-5.66-2.34c-2.11,0-4.17,0.859-5.66,2.34
		c-0.459,0.459-0.849,0.977-1.18,1.528c-3.586-11.477-6.179-23.417-7.661-35.732c-0.209-1.74-0.985-3.364-2.207-4.621
		c-5.225-5.373-10.481-10.153-17.361-9.438c-6.305,0.644-10.253,5.762-12.675,9.557c-2.094,3.281-5.841,9.849-10.585,18.163
		c-5.719,10.023-16.226,28.438-22.472,37.921c-0.131-0.967-0.199-2.227-0.199-3.907c0-5.165,3.868-19.143,7.281-31.474
		C27.765,292.137,32,276.835,32,268c0-8.853-4.234-24.192-8.717-40.433C19.869,215.2,16,201.184,16,196
		c0-1.69,0.068-2.957,0.2-3.929c6.247,9.511,16.748,27.963,22.464,38.009c4.745,8.338,8.493,14.925,10.587,18.215
		c2.421,3.805,6.369,8.937,12.68,9.581c6.88,0.698,12.13-4.066,17.346-9.442c1.223-1.261,1.998-2.89,2.203-4.635
		c1.447-12.28,4.038-24.223,7.644-35.728c0.338,0.575,0.74,1.114,1.216,1.589C91.83,211.149,93.9,212,96,212
		c2.11,0,4.17-0.851,5.66-2.34c1.49-1.49,2.34-3.551,2.34-5.66c0-2.101-0.85-4.17-2.34-5.66C100.17,196.85,98.1,196,96,196
		c-0.982,0-1.955,0.192-2.867,0.543c13.563-35.415,37.006-66.05,66.869-88.516c0.007,2.1,0.855,4.149,2.339,5.633
		c1.49,1.489,3.55,2.34,5.66,2.34c2.11,0,4.17-0.851,5.66-2.34c1.49-1.49,2.34-3.551,2.34-5.66c0-2.101-0.85-4.17-2.34-5.66
		c-0.83-0.825-1.84-1.448-2.933-1.846c18.653-12.217,39.436-21.393,61.62-26.814C232.119,74.428,232,75.21,232,76
		c0,2.109,0.85,4.17,2.34,5.66C235.83,83.149,237.9,84,240,84c2.11,0,4.17-0.851,5.66-2.34C247.15,80.16,248,78.1,248,76
		c0-1.888-0.692-3.731-1.896-5.167c4.698-0.797,9.445-1.438,14.243-1.895c8.827-0.84,17.614-1.104,26.335-0.818
		c-1.632,0.277-3.165,1.051-4.342,2.22C280.85,71.83,280,73.89,280,76c0,2.1,0.85,4.17,2.34,5.66c1.49,1.489,3.55,2.34,5.66,2.34
		c2.11,0,4.17-0.851,5.66-2.34C295.15,80.17,296,78.1,296,76c0-2.11-0.85-4.17-2.34-5.66c-1.03-1.023-2.335-1.741-3.738-2.092
		c14.329,0.698,28.465,2.919,42.28,6.649c0.039,0.483,0.075,0.955,0.116,1.449c1.399,16.755,3.672,32.178,3.768,32.826
		c0.647,4.37,4.717,7.386,9.086,6.741c4.371-0.647,7.389-4.716,6.741-9.087c-3.981-26.876-5.648-53.582-4.088-62.681
		c13.937,1.051,27.453,7.488,34.553,11.418l-21.968,65.905c-1.397,4.192,0.868,8.723,5.06,10.12
		c0.839,0.279,1.692,0.412,2.531,0.412c3.35,0,6.471-2.12,7.588-5.472l9.553-28.659c5.108,3.165,10.066,6.55,14.859,10.153
		c0.007,2.101,0.855,4.151,2.339,5.636c1.49,1.489,3.55,2.34,5.66,2.34c0.577,0,1.149-0.069,1.708-0.192
		c6.346,5.418,12.365,11.235,18.022,17.436c-0.5,0.313-0.97,0.676-1.39,1.097c-1.49,1.49-2.34,3.56-2.34,5.66
		c0,2.109,0.85,4.17,2.34,5.66c1.49,1.489,3.56,2.34,5.66,2.34s4.17-0.851,5.66-2.34c0.865-0.865,1.507-1.926,1.899-3.074
		c5.451,2.927,11.669,4.8,18.463,5.521c2.898,0.308,5.75,1.271,8.716,2.943c7.383,4.163,12.283,10.995,13.108,18.275
		c0.195,1.719,0.203,3.443,0.022,5.123c-1.357,12.666,0.417,24.011,5.271,33.719L491.056,220H480
		c-11.492,0-20.999,3.208-29.066,9.809c-3.419,2.798-3.923,7.838-1.126,11.257c1.582,1.934,3.879,2.935,6.197,2.935
		c1.781,0,3.575-0.592,5.061-1.809C466.3,237.909,472.139,236,480,236h8.258c-3.436,6.208-6.6,14.273-7.769,24.024
		c-0.163-0.01-0.325-0.024-0.489-0.024c-2.11,0-4.17,0.859-5.66,2.34c-1.49,1.49-2.34,3.55-2.34,5.66c0,2.109,0.85,4.17,2.34,5.66
		c1.449,1.448,3.438,2.286,5.487,2.331c-1.141,28.88-8.432,56.203-20.602,80.696c-1.01-0.444-2.109-0.688-3.224-0.688
		c-2.11,0-4.17,0.85-5.66,2.34c-1.49,1.49-2.34,3.55-2.34,5.66c0,2.109,0.85,4.17,2.34,5.66c0.378,0.377,0.792,0.713,1.235,1.005
		c-4.162,6.93-8.731,13.587-13.675,19.94c-0.08-0.088-0.155-0.181-0.24-0.266c-1.5-1.49-3.56-2.34-5.66-2.34
		c-2.11,0-4.17,0.85-5.66,2.34c-1.49,1.49-2.34,3.55-2.34,5.66c0,2.109,0.85,4.17,2.34,5.66c0.407,0.407,0.86,0.761,1.341,1.068
		C422.034,408.913,416,414.737,409.626,420.174z"/>
	<path d="M144,260c-2.11,0-4.17,0.859-5.66,2.34c-1.49,1.49-2.34,3.56-2.34,5.66c0,2.109,0.85,4.17,2.34,5.66
		c1.49,1.489,3.55,2.34,5.66,2.34c2.11,0,4.17-0.851,5.66-2.34c1.49-1.49,2.34-3.551,2.34-5.66c0-2.101-0.85-4.17-2.34-5.66
		C148.17,260.859,146.11,260,144,260z"/>
	<path d="M96,260c-2.11,0-4.17,0.859-5.66,2.34C88.85,263.83,88,265.89,88,268c0,2.109,0.85,4.17,2.34,5.66
		c1.49,1.489,3.55,2.34,5.66,2.34c2.11,0,4.17-0.851,5.66-2.34c1.49-1.49,2.34-3.551,2.34-5.66c0-2.11-0.85-4.17-2.34-5.66
		C100.17,260.859,98.11,260,96,260z"/>
	<path d="M192,260c-2.11,0-4.17,0.859-5.66,2.34c-1.49,1.49-2.34,3.55-2.34,5.66c0,2.109,0.85,4.17,2.34,5.66
		c1.49,1.489,3.55,2.34,5.66,2.34c2.11,0,4.17-0.851,5.66-2.34c1.49-1.49,2.34-3.551,2.34-5.66c0-2.11-0.85-4.17-2.34-5.66
		C196.17,260.859,194.11,260,192,260z"/>
	<path d="M240,260c-2.11,0-4.17,0.859-5.66,2.34c-1.49,1.49-2.34,3.55-2.34,5.66c0,2.109,0.85,4.17,2.34,5.66
		c1.49,1.489,3.55,2.34,5.66,2.34c2.1,0,4.17-0.851,5.66-2.34c1.49-1.49,2.34-3.551,2.34-5.66c0-2.11-0.85-4.17-2.34-5.66
		C244.17,260.859,242.1,260,240,260z"/>
	<path d="M288,260c-2.11,0-4.17,0.859-5.66,2.34c-1.49,1.49-2.34,3.55-2.34,5.66c0,2.109,0.85,4.17,2.34,5.66
		c1.49,1.489,3.55,2.34,5.66,2.34c2.11,0,4.17-0.851,5.66-2.34c1.49-1.49,2.34-3.551,2.34-5.66c0-2.11-0.85-4.17-2.34-5.66
		C292.17,260.859,290.11,260,288,260z"/>
	<path d="M336,260c-2.11,0-4.17,0.859-5.66,2.34c-1.49,1.49-2.34,3.55-2.34,5.66c0,2.109,0.85,4.17,2.34,5.66
		c1.49,1.489,3.55,2.34,5.66,2.34c2.11,0,4.17-0.851,5.66-2.34c1.49-1.49,2.34-3.551,2.34-5.66c0-2.11-0.85-4.17-2.34-5.66
		C340.17,260.859,338.11,260,336,260z"/>
	<path d="M384,260c-2.11,0-4.17,0.859-5.66,2.34c-1.49,1.49-2.34,3.55-2.34,5.66c0,2.109,0.85,4.17,2.34,5.66
		c1.49,1.489,3.55,2.34,5.66,2.34c2.11,0,4.17-0.851,5.66-2.34c1.49-1.49,2.34-3.551,2.34-5.66c0-2.101-0.85-4.17-2.34-5.66
		C388.17,260.859,386.11,260,384,260z"/>
	<path d="M432,276c2.11,0,4.17-0.851,5.66-2.34c1.48-1.49,2.34-3.551,2.34-5.66c0-2.11-0.86-4.17-2.34-5.66
		c-1.49-1.48-3.55-2.34-5.66-2.34c-2.11,0-4.17,0.859-5.66,2.34c-1.49,1.49-2.34,3.55-2.34,5.66c0,2.109,0.85,4.17,2.34,5.66
		C427.83,275.149,429.89,276,432,276z"/>
	<path d="M168,228c-2.1,0-4.17,0.85-5.66,2.34c-1.49,1.49-2.34,3.55-2.34,5.66c0,2.109,0.85,4.17,2.34,5.66
		c1.49,1.489,3.55,2.34,5.66,2.34c2.1,0,4.17-0.851,5.66-2.34c1.48-1.49,2.34-3.551,2.34-5.66c0-2.11-0.86-4.17-2.34-5.66
		C172.16,228.85,170.1,228,168,228z"/>
	<path d="M120,228c-2.1,0-4.17,0.85-5.66,2.34c-1.49,1.49-2.34,3.56-2.34,5.66c0,2.1,0.85,4.16,2.34,5.66
		c1.49,1.489,3.55,2.34,5.66,2.34c2.1,0,4.17-0.851,5.66-2.34c1.49-1.49,2.34-3.561,2.34-5.66c0-2.11-0.85-4.17-2.34-5.66
		C124.16,228.85,122.1,228,120,228z"/>
	<path d="M216,228c-2.1,0-4.17,0.85-5.66,2.34c-1.49,1.49-2.34,3.55-2.34,5.66c0,2.109,0.85,4.17,2.34,5.66
		c1.49,1.489,3.55,2.34,5.66,2.34c2.1,0,4.17-0.851,5.66-2.34c1.49-1.49,2.34-3.551,2.34-5.66c0-2.11-0.85-4.17-2.34-5.66
		C220.16,228.85,218.1,228,216,228z"/>
	<path d="M264,228c-2.1,0-4.16,0.85-5.66,2.34c-1.49,1.49-2.34,3.55-2.34,5.66c0,2.109,0.85,4.17,2.34,5.66
		c1.49,1.489,3.55,2.34,5.66,2.34c2.1,0,4.17-0.851,5.66-2.34c1.49-1.49,2.34-3.551,2.34-5.66c0-2.11-0.85-4.17-2.34-5.66
		C268.16,228.85,266.1,228,264,228z"/>
	<path d="M312,228c-2.1,0-4.16,0.85-5.66,2.34c-1.49,1.49-2.34,3.55-2.34,5.66c0,2.109,0.85,4.17,2.34,5.66
		c1.49,1.489,3.56,2.34,5.66,2.34c2.11,0,4.17-0.851,5.66-2.34c1.49-1.5,2.34-3.561,2.34-5.66c0-2.101-0.85-4.17-2.34-5.66
		C316.16,228.85,314.1,228,312,228z"/>
	<path d="M360,228c-2.1,0-4.16,0.85-5.66,2.34c-1.49,1.49-2.34,3.55-2.34,5.66c0,2.109,0.85,4.17,2.34,5.66
		c1.49,1.489,3.56,2.34,5.66,2.34c2.11,0,4.17-0.851,5.66-2.34c1.49-1.5,2.34-3.561,2.34-5.66c0-2.101-0.85-4.17-2.34-5.66
		C364.17,228.85,362.1,228,360,228z"/>
	<path d="M408,228c-2.1,0-4.16,0.85-5.66,2.34c-1.49,1.49-2.34,3.55-2.34,5.66c0,2.109,0.85,4.17,2.34,5.66
		c1.49,1.489,3.55,2.34,5.66,2.34c2.11,0,4.17-0.851,5.66-2.34c1.49-1.5,2.34-3.561,2.34-5.66c0-2.101-0.85-4.17-2.34-5.66
		C412.17,228.85,410.1,228,408,228z"/>
	<path d="M144,324c-2.11,0-4.17,0.859-5.66,2.34c-1.49,1.49-2.34,3.55-2.34,5.66c0,2.109,0.85,4.17,2.34,5.66
		c1.49,1.489,3.56,2.34,5.66,2.34c2.11,0,4.17-0.851,5.66-2.34c1.49-1.49,2.34-3.551,2.34-5.66c0-2.11-0.85-4.17-2.34-5.66
		C148.17,324.859,146.11,324,144,324z"/>
	<path d="M192,324c-2.11,0-4.17,0.859-5.66,2.34c-1.48,1.49-2.34,3.55-2.34,5.66c0,2.109,0.86,4.17,2.34,5.66
		c1.49,1.489,3.55,2.34,5.66,2.34c2.1,0,4.17-0.851,5.66-2.34c1.49-1.49,2.34-3.561,2.34-5.66c0-2.11-0.85-4.17-2.34-5.66
		C196.17,324.859,194.11,324,192,324z"/>
	<path d="M240,324c-2.11,0-4.17,0.859-5.66,2.34c-1.49,1.49-2.34,3.55-2.34,5.66c0,2.1,0.85,4.17,2.34,5.66
		c1.49,1.489,3.56,2.34,5.66,2.34s4.16-0.851,5.66-2.34c1.48-1.49,2.34-3.551,2.34-5.66c0-2.11-0.86-4.17-2.34-5.66
		C244.17,324.859,242.11,324,240,324z"/>
	<path d="M288,324c-2.11,0-4.17,0.859-5.66,2.34c-1.49,1.49-2.34,3.55-2.34,5.66c0,2.109,0.85,4.17,2.34,5.66
		c1.49,1.489,3.55,2.34,5.66,2.34c2.11,0,4.17-0.851,5.66-2.34c1.49-1.49,2.34-3.551,2.34-5.66c0-2.11-0.85-4.17-2.34-5.66
		C292.17,324.859,290.11,324,288,324z"/>
	<path d="M336,324c-2.11,0-4.17,0.859-5.66,2.34c-1.49,1.49-2.34,3.55-2.34,5.66c0,2.109,0.85,4.17,2.34,5.66
		c1.49,1.489,3.55,2.34,5.66,2.34c2.1,0,4.17-0.851,5.66-2.34c1.49-1.49,2.34-3.561,2.34-5.66c0-2.11-0.85-4.17-2.34-5.66
		C340.17,324.859,338.11,324,336,324z"/>
	<path d="M384,324c-2.11,0-4.17,0.859-5.66,2.34c-1.49,1.49-2.34,3.55-2.34,5.66c0,2.1,0.85,4.17,2.34,5.66
		c1.49,1.489,3.56,2.34,5.66,2.34c2.11,0,4.17-0.851,5.66-2.34c1.49-1.49,2.34-3.551,2.34-5.66c0-2.11-0.85-4.17-2.34-5.66
		C388.17,324.859,386.11,324,384,324z"/>
	<path d="M432,340c2.11,0,4.17-0.851,5.66-2.34c1.49-1.49,2.34-3.551,2.34-5.66c0-2.11-0.85-4.17-2.34-5.66
		c-1.49-1.48-3.55-2.34-5.66-2.34c-2.11,0-4.17,0.859-5.66,2.34c-1.49,1.49-2.34,3.55-2.34,5.66c0,2.109,0.85,4.17,2.34,5.66
		C427.83,339.149,429.89,340,432,340z"/>
	<path d="M168,292c-2.1,0-4.16,0.85-5.66,2.34c-1.49,1.49-2.34,3.56-2.34,5.66c0,2.109,0.85,4.17,2.34,5.66
		c1.49,1.489,3.55,2.34,5.66,2.34c2.11,0,4.17-0.851,5.66-2.34c1.49-1.49,2.34-3.551,2.34-5.66c0-2.101-0.85-4.17-2.34-5.66
		C172.16,292.85,170.1,292,168,292z"/>
	<path d="M120,292c-2.11,0-4.17,0.85-5.66,2.34c-1.49,1.49-2.34,3.55-2.34,5.66c0,2.109,0.85,4.17,2.34,5.66
		c1.49,1.489,3.55,2.34,5.66,2.34c2.11,0,4.17-0.851,5.66-2.34c1.49-1.49,2.34-3.551,2.34-5.66c0-2.101-0.85-4.17-2.34-5.66
		C124.17,292.85,122.1,292,120,292z"/>
	<path d="M216,292c-2.1,0-4.17,0.85-5.66,2.34c-1.49,1.49-2.34,3.55-2.34,5.66c0,2.109,0.85,4.17,2.34,5.66
		c1.49,1.489,3.55,2.34,5.66,2.34c2.11,0,4.17-0.851,5.66-2.34c1.48-1.49,2.34-3.551,2.34-5.66c0-2.11-0.86-4.17-2.34-5.66
		C220.17,292.85,218.1,292,216,292z"/>
	<path d="M264,292c-2.11,0-4.17,0.85-5.66,2.34c-1.49,1.49-2.34,3.55-2.34,5.66c0,2.109,0.85,4.17,2.34,5.66
		c1.49,1.489,3.55,2.34,5.66,2.34c2.11,0,4.17-0.851,5.66-2.34c1.49-1.49,2.34-3.551,2.34-5.66c0-2.101-0.85-4.17-2.34-5.66
		C268.17,292.85,266.1,292,264,292z"/>
	<path d="M312,292c-2.1,0-4.17,0.85-5.66,2.34c-1.49,1.49-2.34,3.56-2.34,5.66c0,2.109,0.85,4.17,2.34,5.66
		c1.49,1.489,3.55,2.34,5.66,2.34c2.11,0,4.17-0.851,5.66-2.34c1.49-1.49,2.34-3.551,2.34-5.66c0-2.11-0.85-4.17-2.34-5.66
		C316.17,292.85,314.11,292,312,292z"/>
	<path d="M360,292c-2.11,0-4.17,0.85-5.66,2.34c-1.49,1.49-2.34,3.55-2.34,5.66c0,2.109,0.85,4.17,2.34,5.66
		c1.49,1.489,3.55,2.34,5.66,2.34c2.11,0,4.17-0.851,5.66-2.34c1.49-1.49,2.34-3.551,2.34-5.66c0-2.101-0.85-4.17-2.34-5.66
		C364.17,292.85,362.1,292,360,292z"/>
	<path d="M408,292c-2.1,0-4.16,0.85-5.66,2.34c-1.49,1.49-2.34,3.56-2.34,5.66c0,2.109,0.85,4.17,2.34,5.66
		c1.49,1.489,3.55,2.34,5.66,2.34c2.11,0,4.17-0.851,5.66-2.34c1.49-1.49,2.34-3.551,2.34-5.66c0-2.101-0.85-4.17-2.34-5.66
		C412.16,292.85,410.1,292,408,292z"/>
	<path d="M456,308c2.11,0,4.17-0.851,5.66-2.34c1.48-1.49,2.34-3.551,2.34-5.66c0-2.11-0.86-4.17-2.34-5.66
		c-1.49-1.49-3.55-2.34-5.66-2.34c-2.1,0-4.17,0.85-5.66,2.34c-1.49,1.49-2.34,3.56-2.34,5.66c0,2.109,0.85,4.17,2.34,5.66
		C451.83,307.149,453.89,308,456,308z"/>
	<path d="M144,132c-2.11,0-4.17,0.85-5.66,2.34c-1.49,1.49-2.34,3.55-2.34,5.66c0,2.109,0.85,4.17,2.34,5.66
		c1.49,1.489,3.55,2.34,5.66,2.34c2.11,0,4.17-0.851,5.66-2.34c1.49-1.49,2.34-3.551,2.34-5.66c0-2.101-0.85-4.17-2.34-5.66
		C148.17,132.85,146.11,132,144,132z"/>
	<path d="M192,132c-2.11,0-4.17,0.85-5.66,2.34c-1.49,1.49-2.34,3.55-2.34,5.66c0,2.109,0.85,4.17,2.34,5.66
		c1.49,1.489,3.55,2.34,5.66,2.34c2.11,0,4.17-0.851,5.66-2.34c1.49-1.49,2.34-3.561,2.34-5.66c0-2.101-0.85-4.16-2.34-5.66
		C196.17,132.85,194.11,132,192,132z"/>
	<path d="M240,132c-2.11,0-4.17,0.85-5.66,2.34c-1.49,1.49-2.34,3.55-2.34,5.66c0,2.109,0.85,4.17,2.34,5.66
		c1.49,1.489,3.55,2.34,5.66,2.34c2.11,0,4.17-0.851,5.66-2.34c1.49-1.49,2.34-3.561,2.34-5.66c0-2.101-0.85-4.16-2.34-5.66
		C244.17,132.85,242.11,132,240,132z"/>
	<path d="M288,132c-2.11,0-4.17,0.85-5.66,2.34c-1.49,1.5-2.34,3.56-2.34,5.66c0,2.1,0.85,4.17,2.34,5.66
		c1.49,1.489,3.55,2.34,5.66,2.34c2.11,0,4.17-0.851,5.66-2.34c1.49-1.49,2.34-3.551,2.34-5.66c0-2.11-0.85-4.17-2.34-5.66
		C292.17,132.85,290.11,132,288,132z"/>
	<path d="M336,132c-2.11,0-4.17,0.85-5.66,2.34c-1.49,1.5-2.34,3.56-2.34,5.66c0,2.1,0.85,4.17,2.34,5.66
		c1.49,1.489,3.55,2.34,5.66,2.34c2.11,0,4.17-0.851,5.66-2.34c1.49-1.49,2.34-3.551,2.34-5.66c0-2.11-0.85-4.17-2.34-5.66
		C340.17,132.85,338.11,132,336,132z"/>
	<path d="M384,132c-2.11,0-4.17,0.85-5.66,2.34c-1.49,1.49-2.34,3.56-2.34,5.66c0,2.109,0.85,4.17,2.34,5.66
		c1.49,1.489,3.55,2.34,5.66,2.34c2.1,0,4.17-0.851,5.66-2.34c1.48-1.49,2.34-3.551,2.34-5.66c0-2.11-0.86-4.17-2.34-5.66
		C388.17,132.85,386.11,132,384,132z"/>
	<path d="M216,100c-2.11,0-4.17,0.859-5.66,2.34c-1.49,1.49-2.34,3.56-2.34,5.66c0,2.109,0.85,4.17,2.34,5.66
		c1.49,1.489,3.55,2.34,5.66,2.34c2.11,0,4.17-0.851,5.66-2.34c1.49-1.49,2.34-3.551,2.34-5.66c0-2.101-0.85-4.17-2.34-5.66
		C220.17,100.859,218.11,100,216,100z"/>
	<path d="M264,100c-2.11,0-4.17,0.859-5.66,2.34c-1.49,1.49-2.34,3.56-2.34,5.66c0,2.109,0.85,4.17,2.34,5.66
		c1.49,1.489,3.55,2.34,5.66,2.34c2.11,0,4.17-0.851,5.66-2.34c1.49-1.49,2.34-3.551,2.34-5.66c0-2.11-0.85-4.17-2.34-5.66
		C268.17,100.859,266.11,100,264,100z"/>
	<path d="M312,100c-2.11,0-4.17,0.859-5.66,2.34c-1.49,1.5-2.34,3.56-2.34,5.66c0,2.1,0.85,4.16,2.34,5.66
		c1.49,1.489,3.55,2.34,5.66,2.34c2.11,0,4.17-0.851,5.66-2.34c1.49-1.49,2.34-3.551,2.34-5.66c0-2.101-0.85-4.17-2.34-5.66
		C316.17,100.859,314.11,100,312,100z"/>
	<path d="M144,196c-2.1,0-4.16,0.85-5.66,2.34c-1.49,1.49-2.34,3.55-2.34,5.66c0,2.109,0.85,4.17,2.34,5.66
		c1.49,1.489,3.56,2.34,5.66,2.34s4.17-0.851,5.66-2.34c1.49-1.49,2.34-3.551,2.34-5.66c0-2.11-0.85-4.17-2.34-5.66
		C148.16,196.85,146.1,196,144,196z"/>
	<path d="M192,196c-2.1,0-4.17,0.85-5.66,2.34c-1.49,1.49-2.34,3.56-2.34,5.66c0,2.109,0.85,4.17,2.34,5.66
		c1.49,1.489,3.56,2.34,5.66,2.34c2.11,0,4.17-0.851,5.66-2.34c1.49-1.49,2.34-3.551,2.34-5.66c0-2.101-0.85-4.17-2.34-5.66
		C196.17,196.85,194.1,196,192,196z"/>
	<path d="M240,196c-2.1,0-4.16,0.85-5.66,2.34c-1.49,1.49-2.34,3.55-2.34,5.66c0,2.109,0.85,4.17,2.34,5.66
		c1.49,1.489,3.56,2.34,5.66,2.34s4.17-0.851,5.66-2.34c1.49-1.49,2.34-3.551,2.34-5.66c0-2.11-0.85-4.17-2.34-5.66
		C244.16,196.85,242.1,196,240,196z"/>
	<path d="M288,196c-2.1,0-4.17,0.85-5.66,2.34c-1.49,1.49-2.34,3.56-2.34,5.66c0,2.109,0.85,4.17,2.34,5.66
		c1.49,1.489,3.56,2.34,5.66,2.34c2.11,0,4.17-0.851,5.66-2.34c1.49-1.49,2.34-3.551,2.34-5.66c0-2.101-0.85-4.17-2.34-5.66
		C292.17,196.85,290.1,196,288,196z"/>
	<path d="M336,196c-2.1,0-4.16,0.85-5.66,2.34c-1.49,1.49-2.34,3.55-2.34,5.66c0,2.109,0.85,4.17,2.34,5.66
		c1.49,1.489,3.56,2.34,5.66,2.34s4.17-0.851,5.66-2.34c1.49-1.49,2.34-3.551,2.34-5.66c0-2.11-0.85-4.17-2.34-5.66
		C340.16,196.85,338.1,196,336,196z"/>
	<path d="M384,196c-2.1,0-4.17,0.85-5.66,2.34c-1.49,1.49-2.34,3.56-2.34,5.66c0,2.109,0.85,4.17,2.34,5.66
		c1.49,1.489,3.56,2.34,5.66,2.34c2.11,0,4.17-0.851,5.66-2.34c1.49-1.49,2.34-3.551,2.34-5.66c0-2.101-0.85-4.17-2.34-5.66
		C388.17,196.85,386.1,196,384,196z"/>
	<path d="M432,212c2.1,0,4.17-0.851,5.66-2.34c1.49-1.49,2.34-3.551,2.34-5.66c0-2.11-0.85-4.17-2.34-5.66
		c-1.5-1.49-3.56-2.34-5.66-2.34s-4.16,0.85-5.66,2.34c-1.49,1.49-2.34,3.55-2.34,5.66c0,2.109,0.85,4.17,2.34,5.66
		C427.83,211.149,429.9,212,432,212z"/>
	<path d="M168,164c-2.1,0-4.17,0.85-5.66,2.34c-1.49,1.49-2.34,3.56-2.34,5.66c0,2.1,0.85,4.17,2.34,5.66
		c1.49,1.489,3.56,2.34,5.66,2.34c2.11,0,4.17-0.851,5.66-2.34c1.49-1.49,2.34-3.561,2.34-5.66c0-2.11-0.85-4.17-2.34-5.66
		C172.17,164.85,170.11,164,168,164z"/>
	<path d="M120,164c-2.11,0-4.17,0.85-5.66,2.34c-1.49,1.49-2.34,3.56-2.34,5.66c0,2.1,0.85,4.16,2.34,5.66
		c1.49,1.489,3.55,2.34,5.66,2.34c2.11,0,4.17-0.851,5.66-2.34c1.49-1.5,2.34-3.561,2.34-5.66c0-2.101-0.85-4.17-2.34-5.66
		C124.17,164.85,122.11,164,120,164z"/>
	<path d="M216,164c-2.11,0-4.17,0.85-5.66,2.34c-1.49,1.49-2.34,3.55-2.34,5.66c0,2.1,0.85,4.17,2.34,5.66
		c1.49,1.489,3.55,2.34,5.66,2.34c2.1,0,4.17-0.851,5.66-2.34c1.49-1.49,2.34-3.561,2.34-5.66c0-2.11-0.85-4.17-2.34-5.66
		C220.17,164.85,218.1,164,216,164z"/>
	<path d="M264,164c-2.11,0-4.17,0.85-5.66,2.34c-1.49,1.49-2.34,3.55-2.34,5.66c0,2.1,0.85,4.17,2.34,5.66
		c1.49,1.489,3.55,2.34,5.66,2.34c2.1,0,4.17-0.851,5.66-2.34c1.49-1.49,2.34-3.561,2.34-5.66c0-2.101-0.85-4.17-2.34-5.66
		C268.17,164.85,266.1,164,264,164z"/>
	<path d="M312,164c-2.11,0-4.17,0.85-5.66,2.34c-1.49,1.49-2.34,3.56-2.34,5.66c0,2.1,0.85,4.16,2.34,5.66
		c1.49,1.489,3.55,2.34,5.66,2.34c2.11,0,4.17-0.851,5.66-2.34c1.49-1.5,2.34-3.561,2.34-5.66c0-2.101-0.85-4.17-2.34-5.66
		C316.17,164.85,314.11,164,312,164z"/>
	<path d="M360,164c-2.11,0-4.17,0.85-5.66,2.34c-1.49,1.49-2.34,3.56-2.34,5.66c0,2.1,0.85,4.16,2.34,5.66
		c1.49,1.489,3.55,2.34,5.66,2.34c2.11,0,4.17-0.851,5.66-2.34c1.49-1.5,2.34-3.561,2.34-5.66c0-2.101-0.85-4.16-2.34-5.66
		C364.17,164.85,362.11,164,360,164z"/>
	<path d="M408,164c-2.1,0-4.17,0.85-5.66,2.34c-1.49,1.49-2.34,3.56-2.34,5.66c0,2.1,0.85,4.17,2.34,5.66
		c1.49,1.489,3.56,2.34,5.66,2.34c2.11,0,4.17-0.851,5.66-2.34c1.49-1.49,2.34-3.561,2.34-5.66c0-2.11-0.85-4.17-2.34-5.66
		C412.17,164.85,410.11,164,408,164z"/>
	<path d="M144,388c-2.11,0-4.17,0.85-5.66,2.34c-1.49,1.49-2.34,3.56-2.34,5.66c0,2.1,0.85,4.16,2.34,5.66
		c1.49,1.489,3.55,2.34,5.66,2.34c2.1,0,4.16-0.851,5.66-2.34c1.49-1.5,2.34-3.561,2.34-5.66c0-2.101-0.85-4.17-2.34-5.66
		C148.16,388.85,146.1,388,144,388z"/>
	<path d="M192,388c-2.11,0-4.17,0.85-5.66,2.34c-1.49,1.49-2.34,3.55-2.34,5.66c0,2.109,0.85,4.17,2.34,5.66
		c1.49,1.489,3.55,2.34,5.66,2.34c2.1,0,4.16-0.851,5.66-2.34c1.49-1.5,2.34-3.561,2.34-5.66c0-2.101-0.85-4.16-2.34-5.66
		C196.16,388.85,194.1,388,192,388z"/>
	<path d="M240,388c-2.1,0-4.17,0.85-5.66,2.34c-1.48,1.49-2.34,3.55-2.34,5.66c0,2.109,0.86,4.17,2.34,5.66
		c1.49,1.489,3.56,2.34,5.66,2.34s4.17-0.851,5.66-2.34c1.49-1.5,2.34-3.561,2.34-5.66c0-2.101-0.85-4.17-2.34-5.66
		C244.17,388.85,242.1,388,240,388z"/>
	<path d="M288,388c-2.1,0-4.17,0.85-5.66,2.34c-1.49,1.49-2.34,3.56-2.34,5.66c0,2.1,0.85,4.16,2.34,5.66
		c1.49,1.489,3.56,2.34,5.66,2.34s4.17-0.851,5.66-2.34c1.48-1.49,2.34-3.551,2.34-5.66c0-2.11-0.86-4.17-2.34-5.66
		C292.17,388.85,290.1,388,288,388z"/>
	<path d="M336,388c-2.1,0-4.16,0.85-5.66,2.34c-1.49,1.5-2.34,3.56-2.34,5.66c0,2.1,0.85,4.16,2.34,5.66
		c1.5,1.489,3.56,2.34,5.66,2.34c2.11,0,4.17-0.851,5.66-2.34c1.49-1.5,2.34-3.561,2.34-5.66c0-2.101-0.85-4.16-2.34-5.66
		C340.17,388.85,338.11,388,336,388z"/>
	<path d="M384,388c-2.11,0-4.17,0.85-5.66,2.34c-1.49,1.49-2.34,3.56-2.34,5.66c0,2.1,0.85,4.16,2.34,5.66
		c1.49,1.489,3.55,2.34,5.66,2.34c2.1,0,4.16-0.851,5.66-2.34c1.49-1.5,2.34-3.561,2.34-5.66c0-2.101-0.85-4.17-2.34-5.66
		C388.16,388.85,386.1,388,384,388z"/>
	<path d="M168,356c-2.11,0-4.17,0.85-5.66,2.34c-1.49,1.49-2.34,3.55-2.34,5.66c0,2.109,0.85,4.17,2.34,5.66
		c1.49,1.489,3.56,2.34,5.66,2.34c2.11,0,4.17-0.851,5.66-2.34c1.49-1.49,2.34-3.551,2.34-5.66c0-2.11-0.85-4.17-2.34-5.66
		C172.17,356.85,170.11,356,168,356z"/>
	<path d="M120,356c-2.11,0-4.17,0.85-5.66,2.34c-1.49,1.49-2.34,3.55-2.34,5.66c0,2.109,0.85,4.17,2.34,5.66
		c1.49,1.489,3.55,2.34,5.66,2.34c2.1,0,4.17-0.851,5.66-2.34c1.49-1.49,2.34-3.551,2.34-5.66c0-2.11-0.85-4.17-2.34-5.66
		C124.17,356.85,122.11,356,120,356z"/>
	<path d="M216,356c-2.11,0-4.17,0.85-5.66,2.34c-1.49,1.49-2.34,3.55-2.34,5.66c0,2.109,0.85,4.17,2.34,5.66
		c1.49,1.489,3.55,2.34,5.66,2.34c2.1,0,4.17-0.851,5.66-2.34c1.49-1.49,2.34-3.561,2.34-5.66c0-2.11-0.85-4.17-2.34-5.66
		C220.17,356.85,218.11,356,216,356z"/>
	<path d="M264,356c-2.11,0-4.17,0.85-5.66,2.34c-1.49,1.49-2.34,3.55-2.34,5.66c0,2.109,0.85,4.17,2.34,5.66
		c1.49,1.489,3.56,2.34,5.66,2.34c2.11,0,4.17-0.851,5.66-2.34c1.49-1.49,2.34-3.551,2.34-5.66c0-2.11-0.85-4.17-2.34-5.66
		C268.17,356.85,266.11,356,264,356z"/>
	<path d="M312,356c-2.11,0-4.17,0.85-5.66,2.34c-1.49,1.49-2.34,3.55-2.34,5.66c0,2.109,0.85,4.17,2.34,5.66
		c1.49,1.489,3.55,2.34,5.66,2.34c2.1,0,4.17-0.851,5.66-2.34c1.49-1.49,2.34-3.561,2.34-5.66c0-2.11-0.85-4.17-2.34-5.66
		C316.17,356.85,314.11,356,312,356z"/>
	<path d="M360,356c-2.11,0-4.17,0.85-5.66,2.34c-1.49,1.49-2.34,3.55-2.34,5.66c0,2.109,0.85,4.17,2.34,5.66
		c1.49,1.489,3.55,2.34,5.66,2.34c2.11,0,4.17-0.851,5.66-2.34c1.49-1.49,2.34-3.551,2.34-5.66c0-2.11-0.85-4.17-2.34-5.66
		C364.17,356.85,362.11,356,360,356z"/>
	<path d="M408,356c-2.11,0-4.17,0.85-5.66,2.34c-1.49,1.49-2.34,3.55-2.34,5.66c0,2.109,0.85,4.17,2.34,5.66
		c1.49,1.489,3.55,2.34,5.66,2.34c2.1,0,4.17-0.851,5.66-2.34c1.49-1.49,2.34-3.561,2.34-5.66c0-2.11-0.85-4.17-2.34-5.66
		C412.17,356.85,410.11,356,408,356z"/>
	<path d="M216,420c-2.1,0-4.17,0.859-5.66,2.34c-1.49,1.49-2.34,3.55-2.34,5.66c0,2.1,0.85,4.17,2.34,5.66
		c1.5,1.489,3.56,2.34,5.66,2.34s4.16-0.851,5.66-2.34c1.49-1.49,2.34-3.561,2.34-5.66c0-2.11-0.85-4.17-2.34-5.66
		C220.17,420.859,218.11,420,216,420z"/>
	<path d="M264,420c-2.11,0-4.17,0.859-5.66,2.34c-1.49,1.49-2.34,3.55-2.34,5.66c0,2.109,0.85,4.17,2.34,5.66
		c1.49,1.489,3.56,2.34,5.66,2.34s4.16-0.851,5.66-2.34c1.49-1.49,2.34-3.561,2.34-5.66c0-2.11-0.85-4.17-2.34-5.66
		C268.17,420.859,266.1,420,264,420z"/>
	<path d="M312,420c-2.11,0-4.17,0.859-5.66,2.34c-1.49,1.49-2.34,3.55-2.34,5.66c0,2.1,0.85,4.17,2.34,5.66
		c1.49,1.489,3.56,2.34,5.66,2.34s4.17-0.851,5.66-2.34c1.49-1.5,2.34-3.561,2.34-5.66c0-2.11-0.85-4.17-2.34-5.66
		C316.17,420.859,314.11,420,312,420z"/>
	<path d="M360,420c-2.11,0-4.17,0.859-5.66,2.34c-1.49,1.49-2.34,3.55-2.34,5.66c0,2.1,0.85,4.17,2.34,5.66
		c1.5,1.489,3.56,2.34,5.66,2.34s4.16-0.851,5.66-2.34c1.49-1.49,2.34-3.551,2.34-5.66c0-2.11-0.85-4.17-2.34-5.66
		C364.17,420.859,362.11,420,360,420z"/>
	<path d="M456,188c8.822,0,16-7.178,16-16s-7.178-16-16-16s-16,7.178-16,16S447.178,188,456,188z"/>
</g>
<g>
</g>
<g>
</g>
<g>
</g>
<g>
</g>
<g>
</g>
<g>
</g>
<g>
</g>
<g>
</g>
<g>
</g>
<g>
</g>
<g>
</g>
<g>
</g>
<g>
</g>
<g>
</g>
<g>
</g>
</svg>
