<?xml version="1.0" encoding="iso-8859-1"?>
<!-- Generator: Adobe Illustrator 17.1.0, SVG Export Plug-In . SVG Version: 6.00 Build 0)  -->
<!DOCTYPE svg PUBLIC "-//W3C//DTD SVG 1.1//EN" "http://www.w3.org/Graphics/SVG/1.1/DTD/svg11.dtd">
<svg version="1.1" id="Capa_1" xmlns="http://www.w3.org/2000/svg" xmlns:xlink="http://www.w3.org/1999/xlink" x="0px" y="0px"
	 viewBox="0 0 512 512" style="enable-background:new 0 0 512 512;" xml:space="preserve">
<g>
	<path d="M168,308c-8.822,0-16,7.178-16,16s7.178,16,16,16s16-7.178,16-16S176.822,308,168,308z"/>
	<path d="M344,308c-8.822,0-16,7.178-16,16s7.178,16,16,16s16-7.178,16-16S352.822,308,344,308z"/>
	<path d="M511.155,288.422C509.8,285.712,507.03,284,504,284h-25.441c2.567-4.242,5.519-9.318,8.487-14.836
		C498.296,248.246,504,231.705,504,220c0-7.327-7.13-8.664-14.026-9.957c-2.535-0.476-5.679-1.007-9.387-1.588l7.332-51.324
		c0.392-2.745-0.665-5.497-2.793-7.273c-2.128-1.776-5.025-2.325-7.656-1.447l-11.395,3.798l5.815-34.894
		c0.461-2.767-0.561-5.574-2.694-7.397c-2.133-1.822-5.065-2.395-7.727-1.507L448,112.9V92c0-2.463-1.135-4.79-3.077-6.306
		s-4.474-2.052-6.864-1.456l-24.239,6.06l-6.06-24.239c-0.631-2.524-2.45-4.583-4.876-5.521c-2.427-0.938-5.158-0.638-7.322,0.806
		l-14.061,9.374l-5.657-28.286c-0.539-2.694-2.423-4.924-4.989-5.904c-2.567-0.98-5.458-0.575-7.655,1.073l-21.845,16.384
		l-5.51-27.553c-0.579-2.893-2.703-5.233-5.526-6.088c-2.825-0.854-5.889-0.086-7.975,2l-23.421,23.421l-11.494-28.735
		c-1.074-2.685-3.512-4.581-6.379-4.96c-2.867-0.377-5.715,0.819-7.449,3.131L256,38.667L238.4,15.2
		c-1.735-2.313-4.581-3.509-7.449-3.131c-2.867,0.379-5.305,2.275-6.379,4.96l-11.494,28.735l-23.421-23.421
		c-2.086-2.087-5.152-2.854-7.975-2c-2.824,0.855-4.948,3.195-5.526,6.088l-5.51,27.553L148.8,37.6
		c-2.198-1.648-5.087-2.054-7.655-1.073c-2.566,0.98-4.45,3.21-4.989,5.904l-5.657,28.286l-14.061-9.374
		c-2.165-1.443-4.896-1.742-7.322-0.806c-2.427,0.938-4.246,2.998-4.876,5.521l-6.06,24.239l-24.239-6.06
		c-2.391-0.596-4.922-0.061-6.864,1.456S64,89.537,64,92v20.9l-13.47-4.49c-2.663-0.888-5.595-0.315-7.727,1.507
		c-2.133,1.823-3.156,4.63-2.694,7.397l5.815,34.894l-11.395-3.798c-2.632-0.877-5.527-0.329-7.656,1.447
		c-2.129,1.777-3.186,4.529-2.793,7.273l7.332,51.324c-3.708,0.581-6.851,1.113-9.387,1.588C15.131,211.336,8,212.673,8,220
		c0,11.705,5.704,28.246,16.954,49.164c2.968,5.518,5.92,10.594,8.487,14.836H8c-3.03,0-5.8,1.712-7.155,4.422
		c-1.355,2.71-1.063,5.954,0.755,8.377l20.604,27.472l-12.86,19.291c-2.002,3.003-1.746,6.974,0.626,9.694
		c0.652,0.748,13.928,15.702,38.154,23.306l-13.78,13.78c-2.288,2.288-2.973,5.729-1.734,8.718S36.764,404,40,404
		c25.898,0,65.078,23.656,102.967,46.533c41.195,24.873,80.151,48.383,110.938,49.418c0.694,0.032,1.392,0.05,2.095,0.05
		c0.703,0,1.401-0.017,2.095-0.05c30.787-1.035,69.743-24.545,110.938-49.418C406.923,427.656,446.102,404,472,404
		c3.236,0,6.153-1.949,7.391-4.938s0.554-6.43-1.734-8.718l-13.78-13.78c24.226-7.604,37.502-22.558,38.154-23.306
		c2.372-2.72,2.628-6.691,0.626-9.694l-12.86-19.291L510.4,296.8C512.218,294.376,512.511,291.132,511.155,288.422z M53.47,171.589
		c2.661,0.887,5.594,0.314,7.727-1.507c2.133-1.823,3.156-4.63,2.694-7.397l-5.815-34.894l11.395,3.798
		c2.439,0.813,5.121,0.405,7.208-1.1C78.764,128.986,80,126.572,80,124v-21.754l22.06,5.515c4.287,1.072,8.63-1.535,9.702-5.821
		l5.247-20.987l14.555,9.703c2.22,1.481,5.034,1.756,7.499,0.735c2.466-1.021,4.26-3.205,4.783-5.822l5.51-27.553L171.2,74.4
		c2.198,1.648,5.087,2.054,7.655,1.073c2.566-0.98,4.45-3.21,4.989-5.904l5.068-25.342l21.43,21.43
		c1.901,1.902,4.63,2.722,7.265,2.18c2.634-0.541,4.821-2.369,5.819-4.865l10.713-26.783L249.6,56.8c1.511,2.015,3.882,3.2,6.4,3.2
		c2.518,0,4.889-1.186,6.4-3.2l15.459-20.612l10.713,26.783c0.999,2.497,3.185,4.325,5.819,4.865
		c2.633,0.541,5.364-0.278,7.265-2.18l21.43-21.43l5.068,25.342c0.539,2.694,2.423,4.924,4.989,5.904
		c2.568,0.981,5.458,0.576,7.655-1.073l21.845-16.384l5.51,27.553c0.523,2.617,2.317,4.801,4.783,5.822
		c2.465,1.021,5.278,0.746,7.499-0.735l14.555-9.703l5.247,20.987c1.071,4.287,5.413,6.891,9.702,5.821l22.06-5.515V124
		c0,2.572,1.236,4.986,3.322,6.49c2.087,1.504,4.768,1.913,7.208,1.1l11.395-3.798l-5.815,34.894
		c-0.461,2.767,0.561,5.574,2.694,7.397c2.133,1.822,5.064,2.394,7.727,1.507l11.72-3.907l-5.495,38.462
		c-3.89-0.536-7.454-1.009-10.208-1.369C455.957,195.443,456,188.715,456,188c0-4.128-3.141-7.578-7.25-7.965
		c-1.156-0.109-18.375-1.621-37.017,2.367c3.738-9.598,4.226-17.422,4.256-17.975c0.142-2.65-1.041-5.197-3.155-6.801
		c-2.114-1.604-4.887-2.054-7.401-1.204c-6.795,2.3-24.564,7.393-37.433,7.924V140c0-3.211-1.92-6.112-4.877-7.365
		c-2.958-1.254-6.376-0.618-8.685,1.615c-11.522,11.145-23.152,21.644-34.734,31.36C319.901,162.4,320,159.194,320,156
		c0-2.122-0.848-4.161-2.349-5.661c-1.5-1.5-3.541-2.347-5.663-2.347c-2.757,0-3.512,0.225-13.958,8.145
		c-4.716,3.575-11.946,9.229-19.607,15.859c-10.842,9.384-17.879,16.657-22.423,22.417c-4.545-5.76-11.581-13.033-22.423-22.417
		c-7.661-6.63-14.891-12.284-19.607-15.859c-10.447-7.919-11.201-8.145-13.958-8.145c-2.122,0-4.162,0.847-5.663,2.347
		c-1.5,1.5-2.349,3.54-2.349,5.661c0,3.194,0.099,6.4,0.296,9.61c-11.582-9.716-23.212-20.215-34.734-31.36
		c-2.308-2.232-5.728-2.869-8.685-1.615C145.921,133.888,144,136.789,144,140v24.347c-12.868-0.532-30.637-5.624-37.431-7.923
		c-2.513-0.853-5.286-0.403-7.402,1.201c-2.115,1.604-3.297,4.152-3.156,6.803c0.03,0.553,0.518,8.378,4.256,17.976
		c-18.641-3.989-35.862-2.476-37.017-2.368C59.141,180.422,56,183.872,56,188c0,0.715,0.043,7.443,1.452,16.776
		c-2.753,0.36-6.318,0.833-10.208,1.369l-5.495-38.462L53.47,171.589z M392,207.71c1.2-0.916,2.465-1.761,3.776-2.543
		c0.116-0.064,0.233-0.125,0.347-0.196c8.929-5.214,19.987-7.501,28.529-8.487c5.689-0.656,10.899-0.818,14.879-0.807
		c-0.87,9.054-3.353,24.477-10.42,37.244c-2.655-10.506-5.873-16.369-6.134-16.836c-1.439-2.565-4.133-4.086-6.976-4.086
		c-0.644,0-1.295,0.078-1.941,0.239L392,217.754V207.71z M120,207.71v10.044l-22.06-5.515c-3.5-0.876-7.152,0.701-8.917,3.847
		c-0.262,0.467-3.479,6.33-6.134,16.836c-7.069-12.77-9.551-28.194-10.42-37.244c3.993-0.015,9.192,0.151,14.879,0.807
		c8.543,0.986,19.604,3.273,28.533,8.489c0.104,0.064,0.211,0.12,0.317,0.179C117.518,205.939,118.792,206.788,120,207.71z M232,464
		c0-11.028,10.767-20,24-20c13.233,0,24,8.972,24,20c0,10.623-9.991,19.334-22.553,19.96c-0.483,0.015-0.972,0.04-1.447,0.04
		c-0.475,0-0.964-0.024-1.447-0.04C241.991,483.334,232,474.623,232,464z M473.344,328.438l12.275,18.413
		c-6.361,5.377-19.565,14.445-38.768,17.233c-2.996,0.435-5.489,2.523-6.443,5.396c-0.954,2.873-0.205,6.038,1.936,8.178
		l12.503,12.503c-27.366,6.393-59.947,26.065-94.083,46.676c-22.588,13.638-45.626,27.544-66.195,36.689
		c0.927-3.036,1.432-6.228,1.432-9.525c0-19.851-17.944-36-40-36s-40,16.149-40,36c0,3.297,0.505,6.489,1.432,9.525
		c-20.569-9.145-43.607-23.051-66.195-36.689c-34.136-20.611-66.717-40.283-94.083-46.676l12.503-12.503
		c2.141-2.14,2.89-5.305,1.936-8.178c-0.954-2.873-3.447-4.96-6.443-5.396c-19.031-2.763-32.334-11.878-38.75-17.261l12.256-18.384
		c1.882-2.822,1.779-6.524-0.256-9.237L24,300h24c2.964,0,5.686-1.639,7.072-4.26c1.386-2.62,1.209-5.792-0.459-8.243
		c-7.691-11.296-26.464-42.173-30.025-61.665c7.729-1.448,22.477-3.592,36.218-5.362c3.358,11.913,9.061,24.849,18.752,34.6
		c-0.376,6.514-0.302,13.771,0.481,21.715c0.407,4.13,3.887,7.215,7.952,7.215c0.263,0,0.528-0.013,0.795-0.039
		c4.396-0.434,7.61-4.35,7.176-8.747c-0.77-7.806-0.752-14.799-0.316-20.851c0.337-1.094,0.433-2.241,0.293-3.36
		c0.563-5.495,1.45-10.087,2.333-13.665c0.786-3.187,1.629-5.843,2.382-7.93l25.407,6.352c2.392,0.597,4.922,0.061,6.864-1.456
		C134.865,232.79,136,230.463,136,228v-24c0-2.222-0.924-4.344-2.551-5.857c-2.59-2.409-5.424-4.51-8.419-6.342
		c-5.206-5.059-8.37-11.088-10.259-16.281c11.199,2.917,27.009,6.07,38.392,4.396C157.09,179.338,160,175.969,160,172v-13.468
		c12.588,11.554,25.241,22.311,37.77,32.107c2.625,2.053,6.249,2.263,9.094,0.527c2.845-1.736,4.316-5.054,3.692-8.327
		c-0.656-3.44-1.187-6.899-1.591-10.365c4.563,3.573,9.874,7.89,15.158,12.504c22.72,19.839,23.829,26.618,23.877,27.06
		c0.001,0.143,0.015,0.281,0.023,0.422c0.007,0.125,0.008,0.252,0.021,0.375c0.014,0.131,0.039,0.258,0.059,0.387
		c0.021,0.137,0.036,0.275,0.064,0.41c0.019,0.093,0.047,0.181,0.07,0.272c0.041,0.167,0.079,0.336,0.13,0.499
		c0.01,0.033,0.025,0.064,0.036,0.097c1.049,3.201,4.051,5.527,7.596,5.527c4.418,0,8-3.556,8-7.974
		c0.024-0.275,0.85-6.965,23.879-27.075c5.284-4.614,10.594-8.931,15.158-12.504c-0.404,3.466-0.935,6.925-1.591,10.365
		c-0.624,3.273,0.847,6.591,3.692,8.327c2.846,1.736,6.469,1.526,9.094-0.527c12.529-9.796,25.182-20.553,37.77-32.107V172
		c0,3.969,2.91,7.338,6.837,7.915c11.388,1.673,27.193-1.478,38.391-4.395c-1.889,5.194-5.052,11.222-10.257,16.28
		c-2.995,1.832-5.829,3.933-8.419,6.343C376.924,199.656,376,201.778,376,204v24c0,2.463,1.135,4.79,3.077,6.306
		c1.942,1.516,4.473,2.054,6.864,1.456l25.407-6.352c0.754,2.088,1.597,4.745,2.382,7.93c0.882,3.577,1.77,8.17,2.333,13.665
		c-0.14,1.12-0.044,2.267,0.293,3.36c0.436,6.052,0.453,13.045-0.316,20.851c-0.434,4.397,2.78,8.313,7.176,8.747
		c0.267,0.026,0.532,0.039,0.795,0.039c4.064,0,7.544-3.085,7.952-7.215c0.783-7.944,0.857-15.201,0.481-21.715
		c9.691-9.751,15.394-22.687,18.752-34.6c13.74,1.77,28.487,3.914,36.216,5.362c-3.564,19.475-22.334,50.363-30.024,61.667
		c-1.667,2.45-1.843,5.623-0.457,8.242S461.036,300,464,300h24l-14.4,19.2C471.565,321.914,471.462,325.615,473.344,328.438z"/>
</g>
<g>
</g>
<g>
</g>
<g>
</g>
<g>
</g>
<g>
</g>
<g>
</g>
<g>
</g>
<g>
</g>
<g>
</g>
<g>
</g>
<g>
</g>
<g>
</g>
<g>
</g>
<g>
</g>
<g>
</g>
</svg>
