<?xml version="1.0" encoding="iso-8859-1"?>
<!-- Generator: Adobe Illustrator 17.1.0, SVG Export Plug-In . SVG Version: 6.00 Build 0)  -->
<!DOCTYPE svg PUBLIC "-//W3C//DTD SVG 1.1//EN" "http://www.w3.org/Graphics/SVG/1.1/DTD/svg11.dtd">
<svg version="1.1" id="Capa_1" xmlns="http://www.w3.org/2000/svg" xmlns:xlink="http://www.w3.org/1999/xlink" x="0px" y="0px"
	 viewBox="0 0 512 512" style="enable-background:new 0 0 512 512;" xml:space="preserve">
<g>
	<path d="M128.068,112.206c-8.82,0-15.996,7.176-15.996,15.996s7.176,15.996,15.996,15.996c8.82,0,15.996-7.176,15.996-15.996
		S136.889,112.206,128.068,112.206z"/>
	<path d="M383.932,112.206c-8.82,0-15.996,7.176-15.996,15.996s7.176,15.996,15.996,15.996c8.82,0,15.996-7.176,15.996-15.996
		S392.751,112.206,383.932,112.206z"/>
	<path d="M415.448,84.179c2.57-1.42,4.967-3.195,7.094-5.321c12.472-12.472,12.472-32.765,0-45.236s-32.765-12.472-45.236,0
		c-1.533,1.534-2.89,3.196-4.064,4.962C340.546,12.983,301.137,0,256,0c-45.17,0-84.554,12.979-117.24,38.584
		c-1.174-1.766-2.531-3.429-4.064-4.963c-12.472-12.472-32.765-12.472-45.236,0s-12.472,32.765,0,45.236
		c2.127,2.127,4.523,3.902,7.093,5.321c-36.458,53.386-56.441,130.917-56.441,219.928c0,35.23,6.179,66.44,18.365,92.765
		c11.256,24.317,27.688,44.646,48.838,60.425c1.436,1.071,3.114,1.588,4.777,1.588c0.635,0,1.267-0.079,1.883-0.228
		c4.454,7.205,9.873,13.645,16.313,19.409C155.799,500.9,196.96,512,256.122,512s100.323-11.1,125.834-33.934
		c6.431-5.756,11.845-12.186,16.295-19.38c0.551,0.118,1.113,0.183,1.677,0.183c1.664,0,3.342-0.518,4.778-1.589
		c21.144-15.779,37.57-36.109,48.823-60.423c12.182-26.321,18.358-57.527,18.358-92.751
		C471.889,215.097,451.906,137.565,415.448,84.179z M371.286,466.144C348.84,486.234,311.17,496,256.122,496
		s-92.718-9.766-115.164-29.856c-15.132-13.544-23.556-32.045-25.997-57.461c20.668,12.931,51.852,6.34,84.756-0.621
		c19.24-4.071,39.135-8.28,56.405-8.28c17.125,0,36.863,4.208,55.951,8.277c19.08,4.067,37.575,8.011,53.756,8.011
		c12.029,0,22.771-2.194,31.525-8.123C395.007,433.744,386.564,452.469,371.286,466.144z M389.961,393.55
		c-14.475,11.669-43.658,5.449-74.552-1.138c-19.899-4.242-40.475-8.629-59.287-8.629c-18.943,0-39.671,4.385-59.717,8.626
		c-31.158,6.591-60.59,12.818-75.21,1.122c-8.468-6.774-19.188-35.8-17.409-67.684c1.833-32.882,15.52-48.185,26.678-55.232
		c48.683-30.747,98.757-30.747,125.658-30.747c26.686,0,76.357,0,124.646,30.732c20.038,12.753,25.453,37.044,26.466,55.177
		C409.02,357.701,398.377,386.766,389.961,393.55z M409.385,432.312c3.128-11.82,4.657-25.156,4.657-40.252
		c0-1.652-0.501-3.187-1.359-4.461c7.437-16.751,11.768-40.513,10.527-62.714c-1.728-30.917-13.75-54.99-33.851-67.782
		c-52.22-33.234-106.94-33.234-133.237-33.234c-26.488,0-81.605,0-134.202,33.219c-20.269,12.802-32.383,36.905-34.109,67.87
		c-1.265,22.68,3.324,46.997,11.12,63.784c-0.463,1.012-0.728,2.134-0.728,3.319c0,15.23,1.556,28.668,4.741,40.566
		c-31.091-30.065-46.832-73.198-46.832-128.519c0-88.711,20.291-165.166,57.189-215.922c3.177-0.113,6.358-0.695,9.433-1.78
		c4.167-1.469,6.354-6.038,4.884-10.205s-6.039-6.355-10.205-4.884c-5.779,2.037-12.31,0.557-16.64-3.772
		c-6.233-6.233-6.233-16.376,0-22.609s16.376-6.233,22.609,0c3.019,3.019,4.682,7.033,4.683,11.302c0.001,4.417,3.583,7.998,8,7.998
		c0,0,0.001,0,0.001,0c4.419-0.001,8-3.583,7.999-8.002c0-0.446-0.015-0.89-0.033-1.333C174.728,29.086,212.377,16,256,16
		c43.322,0,80.792,12.918,111.371,38.396c0.194,0.162,0.395,0.31,0.599,0.45c-0.02,0.461-0.034,0.924-0.034,1.388
		c-0.001,4.418,3.58,8.001,7.998,8.002c0.001,0,0.001,0,0.001,0c4.418,0,8-3.581,8-7.998c0.001-4.27,1.664-8.283,4.683-11.302
		c6.233-6.233,16.376-6.233,22.609,0s6.233,16.376,0,22.609c-4.33,4.329-10.862,5.808-16.64,3.772
		c-4.166-1.47-8.736,0.718-10.205,4.884c-1.47,4.167,0.717,8.736,4.884,10.205c3.075,1.085,6.256,1.667,9.433,1.78
		c36.898,50.756,57.189,127.21,57.189,215.922C455.889,359.234,440.26,402.261,409.385,432.312z"/>
	<path d="M216.021,256.128c-13.229,0-23.992,10.763-23.992,23.992s10.763,23.991,23.992,23.991s23.991-10.762,23.991-23.991
		S229.25,256.128,216.021,256.128z M216.021,288.111c-4.407,0-7.992-3.585-7.992-7.991c0-4.407,3.585-7.992,7.992-7.992
		c4.406,0,7.991,3.585,7.991,7.992C224.013,284.526,220.428,288.111,216.021,288.111z"/>
	<path d="M295.979,256.128c-13.229,0-23.991,10.763-23.991,23.992s10.762,23.991,23.991,23.991s23.992-10.762,23.992-23.991
		S309.208,256.128,295.979,256.128z M295.979,288.111c-4.406,0-7.991-3.585-7.991-7.991c0-4.407,3.585-7.992,7.991-7.992
		c4.407,0,7.992,3.585,7.992,7.992C303.97,284.526,300.385,288.111,295.979,288.111z"/>
	<path d="M297.513,412.703c-11.75-2.297-27.073-4.933-41.391-4.933c-14.411,0-29.814,2.628-41.624,4.918
		c-4.337,0.841-7.172,5.039-6.331,9.376c0.841,4.337,5.039,7.172,9.376,6.331c11.107-2.153,25.529-4.625,38.578-4.625
		c12.945,0,27.28,2.478,38.322,4.636c0.519,0.101,1.034,0.15,1.543,0.15c3.749,0,7.096-2.649,7.843-6.467
		C304.678,417.753,301.85,413.551,297.513,412.703z"/>
</g>
<g>
</g>
<g>
</g>
<g>
</g>
<g>
</g>
<g>
</g>
<g>
</g>
<g>
</g>
<g>
</g>
<g>
</g>
<g>
</g>
<g>
</g>
<g>
</g>
<g>
</g>
<g>
</g>
<g>
</g>
</svg>
