<?xml version="1.0" encoding="iso-8859-1"?>
<!-- Generator: Adobe Illustrator 17.1.0, SVG Export Plug-In . SVG Version: 6.00 Build 0)  -->
<!DOCTYPE svg PUBLIC "-//W3C//DTD SVG 1.1//EN" "http://www.w3.org/Graphics/SVG/1.1/DTD/svg11.dtd">
<svg version="1.1" id="Capa_1" xmlns="http://www.w3.org/2000/svg" xmlns:xlink="http://www.w3.org/1999/xlink" x="0px" y="0px"
	 viewBox="0 0 512 512" style="enable-background:new 0 0 512 512;" xml:space="preserve">
<g>
	<path d="M191.333,297.333c-8.455,0-15.333,6.878-15.333,15.333c0,8.455,6.878,15.333,15.333,15.333
		c8.455,0,15.333-6.878,15.333-15.333C206.667,304.212,199.788,297.333,191.333,297.333z M191.333,313.333
		c-0.368,0-0.667-0.299-0.667-0.667s0.299-0.667,0.667-0.667s0.667,0.299,0.667,0.667S191.701,313.333,191.333,313.333z"/>
	<path d="M319.333,328c8.455,0,15.333-6.878,15.333-15.333c0-8.455-6.878-15.333-15.333-15.333c-8.455,0-15.333,6.878-15.333,15.333
		C304,321.122,310.878,328,319.333,328z M319.333,312c0.368,0,0.667,0.299,0.667,0.667s-0.299,0.667-0.667,0.667
		s-0.667-0.299-0.667-0.667S318.966,312,319.333,312z"/>
	<path d="M462.315,37.075C447.75,0,410.959,0,398.869,0c-51.597,0-82.783,67.564-107.841,121.854
		c-8.606,18.646-16.788,36.37-24.021,46.766c-7.324-0.824-14.69-0.824-22.015,0c-7.233-10.396-15.414-28.121-24.021-46.766
		C195.914,67.564,164.728,0,113.131,0c-12.09,0-48.881,0-63.446,37.075c-6.211,15.809-2.678,54.89,16.103,96.179
		c10.35,22.755,23.822,42.789,40.041,59.547c17.153,17.723,37.024,31.326,59.171,40.521C151.417,263.05,144,301.927,144,344
		c0,55.432,21.174,99.561,58.162,121.523c1.361,5.458,3.35,10.686,5.91,15.544c0.148,0.333,0.318,0.659,0.516,0.976
		c2.656,4.844,5.878,9.306,9.627,13.222C228.545,506.057,241.964,512,256,512c19.851,0,37.31-11.876,47.258-29.728
		c0.261-0.388,0.486-0.79,0.671-1.205c2.548-4.806,4.545-10.03,5.922-15.55C346.831,443.551,368,399.426,368,344
		c0-42.073-7.417-80.95-21-110.678c22.147-9.196,42.018-22.799,59.171-40.521c16.219-16.758,29.691-36.792,40.041-59.547
		C464.993,91.965,468.526,52.884,462.315,37.075z M248,455.19v13.706c-3.778,3.819-11.108,9.826-17.37,9.685
		c-1.137-0.027-4.526-0.125-8.495-5.113C218.174,465.902,216,457.099,216,448c0-4.556,0.522-8.997,1.553-13.277
		C224.781,444.685,235.569,452.707,248,455.19z M294.448,434.723c1.03,4.28,1.552,8.721,1.552,13.277
		c0,9.324-2.235,18.03-6.084,25.404c-3.99,5.052-7.404,5.15-8.546,5.177c-6.29,0.136-13.603-5.874-17.37-9.684V455.19
		C276.431,452.707,287.22,444.684,294.448,434.723z M256,440c-16.934,0-32-17.895-32-32c0-7.299,5.552-16,32-16s32,8.701,32,16
		C288,422.105,272.934,440,256,440z M241.243,492.587c5.935-2.233,11.052-5.962,14.757-9.225c3.708,3.265,8.83,6.999,14.772,9.231
		C266.198,494.783,261.217,496,256,496C250.907,496,245.906,494.817,241.243,492.587z M431.648,126.628
		c-14.227,31.277-41.661,72.086-92.158,92.466c-10.504-17.101-22.381-27.651-30.887-33.637c-3.612-2.541-8.604-1.675-11.146,1.938
		c-2.542,3.613-1.675,8.604,1.938,11.146c6.579,4.63,19.115,15.191,29.407,33.983c0.033,0.066,0.058,0.135,0.092,0.201
		C343.795,261.048,352,300.565,352,344c0,44.055-14.438,79.855-40.078,100.639c-0.367-8.224-2.082-16.156-5.119-23.624
		c-0.774-1.902-2.2-3.338-3.912-4.171c0.72-2.979,1.109-5.952,1.109-8.844c0-11.339-5.534-20.231-16.004-25.714
		C280.032,378.115,269.267,376,256,376s-24.032,2.115-31.996,6.286C213.534,387.769,208,396.661,208,408
		c0,2.885,0.388,5.851,1.104,8.823c-1.703,0.833-3.122,2.264-3.893,4.159c-3.045,7.477-4.764,15.42-5.132,23.656
		C174.439,423.855,160,388.055,160,344c0-43.435,8.205-82.952,23.104-111.273c0.035-0.066,0.06-0.135,0.092-0.201
		c10.292-18.792,22.828-29.354,29.407-33.983c3.613-2.543,4.481-7.533,1.938-11.146c-2.542-3.613-7.532-4.48-11.146-1.938
		c-8.506,5.986-20.382,16.536-30.887,33.637c-50.497-20.38-77.93-61.189-92.158-92.466C63.316,89.176,60.245,53.953,64.577,42.925
		C73.952,19.061,95.45,16,113.131,16c16.518,0,32.385,10.06,48.372,30.694c0.265,0.908,0.688,1.785,1.292,2.584
		c12.426,16.426,13.55,39.044,14.637,60.918c0.796,16.021,1.548,31.153,6.378,44.522c1.177,3.258,4.25,5.284,7.524,5.284
		c0.902,0,1.82-0.154,2.718-0.478c4.155-1.501,6.307-6.087,4.806-10.242c-4.017-11.118-4.711-25.088-5.446-39.879
		c-0.156-3.147-0.317-6.353-0.514-9.592c4.758,9.712,9.259,19.456,13.548,28.749c10.543,22.843,19.649,42.57,28.806,53.706
		c1.81,2.2,4.652,3.27,7.466,2.814c8.784-1.433,17.78-1.433,26.564,0c2.812,0.455,5.655-0.614,7.466-2.814
		c9.157-11.135,18.263-30.863,28.806-53.706c4.06-8.795,8.312-17.995,12.789-27.189c-0.156,2.708-0.29,5.392-0.422,8.033
		c-0.735,14.791-1.43,28.762-5.446,39.879c-1.501,4.155,0.65,8.741,4.806,10.242c0.898,0.325,1.815,0.478,2.718,0.478
		c3.275,0,6.348-2.026,7.524-5.284c4.83-13.369,5.582-28.5,6.378-44.521c1.087-21.875,2.211-44.494,14.637-60.919
		c0.017-0.023,0.031-0.048,0.048-0.071C365.222,26.875,381.693,16,398.869,16c17.681,0,39.179,3.061,48.554,26.925
		C451.755,53.953,448.684,89.176,431.648,126.628z"/>
</g>
<g>
</g>
<g>
</g>
<g>
</g>
<g>
</g>
<g>
</g>
<g>
</g>
<g>
</g>
<g>
</g>
<g>
</g>
<g>
</g>
<g>
</g>
<g>
</g>
<g>
</g>
<g>
</g>
<g>
</g>
</svg>
