<?xml version="1.0" encoding="iso-8859-1"?>
<!-- Generator: Adobe Illustrator 17.1.0, SVG Export Plug-In . SVG Version: 6.00 Build 0)  -->
<!DOCTYPE svg PUBLIC "-//W3C//DTD SVG 1.1//EN" "http://www.w3.org/Graphics/SVG/1.1/DTD/svg11.dtd">
<svg version="1.1" id="Capa_1" xmlns="http://www.w3.org/2000/svg" xmlns:xlink="http://www.w3.org/1999/xlink" x="0px" y="0px"
	 viewBox="0 0 511.892 511.892" style="enable-background:new 0 0 511.892 511.892;" xml:space="preserve">
<g>
	<path d="M478.772,71.839c-20.866-20.867-50.641-32.087-81.699-30.773c-31.708,1.337-60.83,15.407-82.328,39.699
		c-18.727-5.686-38.189-8.568-57.981-8.568c-20.247,0-40.148,3.019-59.272,8.969c-21.531-24.535-50.794-38.755-82.674-40.1
		c-31.054-1.313-60.833,9.906-81.699,30.773c-41.98,41.98-44.375,107.893-5.337,146.93c9.155,9.155,20.774,14.385,33.167,15.218
		c-2.349,12.322-3.55,24.941-3.55,37.576c0,109.931,89.435,199.366,199.366,199.366c109.931,0,199.366-89.435,199.366-199.366
		c0-12.677-1.21-25.337-3.574-37.696c11.786-1.162,22.797-6.342,31.552-15.098C523.147,179.732,520.752,113.819,478.772,71.839z
		 M439.706,217.32c-11.909-2.444-21.499-10.104-25.653-20.49c-1.64-4.102-6.297-6.099-10.399-4.457
		c-4.102,1.641-6.098,6.297-4.457,10.399c6.107,15.269,19.876,26.497,36.875,30.123c0.023,0.153,0.041,0.305,0.073,0.458
		c2.645,12.477,3.985,25.333,3.985,38.21c0,101.108-82.258,183.366-183.366,183.366S73.399,372.672,73.399,271.563
		c0-12.876,1.341-25.733,3.986-38.212c0.061-0.286,0.103-0.572,0.132-0.857c16.214-3.994,29.275-14.966,35.178-29.722
		c1.641-4.102-0.354-8.758-4.457-10.399c-4.103-1.641-8.758,0.354-10.399,4.457c-4.154,10.386-13.745,18.046-25.653,20.49
		c-12.247,2.513-24.308-1.082-33.09-9.864C6.297,174.656,8.691,118.895,44.433,83.152c8.09-8.09,17.79-14.462,28.473-18.898
		c0.389,0.022,0.781,0.026,1.18-0.01c33.186-2.972,41.323,6.45,43.996,9.546c6.571,7.612,8.033,19.883,9.581,32.875
		c2.084,17.498,4.446,37.331,20.131,51.273c1.524,1.355,3.421,2.021,5.312,2.021c2.206,0,4.402-0.907,5.982-2.685
		c2.935-3.302,2.638-8.359-0.665-11.294c-11.145-9.906-12.956-25.11-14.873-41.207c-1.964-16.484-4.216-35.367-19.109-46.752
		c23.203,3.405,44.336,14.927,60.542,33.143c0.008,0.86,0.149,1.732,0.451,2.587c1.473,4.166,6.046,6.349,10.209,4.877
		c19.584-6.922,40.148-10.432,61.122-10.432c20.979,0,41.547,3.511,61.134,10.436c0.882,0.312,1.782,0.46,2.667,0.46
		c3.295,0,6.381-2.052,7.542-5.336c0.499-1.411,0.569-2.866,0.294-4.234c16.002-17.266,36.553-28.201,59.052-31.501
		c-14.895,11.385-17.149,30.268-19.113,46.752c-1.917,16.096-3.728,31.3-14.873,41.207c-3.302,2.935-3.6,7.992-0.665,11.294
		c1.581,1.778,3.776,2.685,5.982,2.685c1.89,0,3.788-0.666,5.312-2.021c15.685-13.942,18.047-33.774,20.131-51.273
		c1.547-12.992,3.009-25.263,9.581-32.875c2.672-3.096,10.804-12.517,43.996-9.546c0.4,0.036,0.793,0.032,1.181,0.01
		c10.682,4.436,20.382,10.809,28.471,18.898c35.742,35.742,38.136,91.504,5.337,124.303
		C464.013,216.238,451.951,219.833,439.706,217.32z"/>
	<path d="M308.088,384.547c-4.283,2.906-8.4,5.251-12.441,7.144c0.665-2.641,1.012-5.475,1.012-8.498v-63.789
		c0-21.998-17.896-39.895-39.895-39.895c-21.998,0-39.894,17.897-39.894,39.895v63.789c0,3.022,0.347,5.857,1.012,8.498
		c-4.041-1.893-8.158-4.238-12.44-7.144c-3.655-2.48-8.631-1.528-11.112,2.128c-2.481,3.656-1.528,8.631,2.127,11.112
		c21.193,14.381,39.436,17.327,60.307,17.327s39.115-2.947,60.308-17.327c3.656-2.481,4.608-7.456,2.127-11.112
		C316.719,383.02,311.745,382.066,308.088,384.547z M232.871,383.193v-63.789c0-13.176,10.719-23.895,23.894-23.895
		s23.895,10.719,23.895,23.895v63.789c0,3.938,0,15.921-23.895,15.921C232.871,399.114,232.871,387.131,232.871,383.193z"/>
	<path d="M278.111,419.572c-6.761,2.298-13.943,3.463-21.347,3.463s-14.585-1.165-21.346-3.463c-4.18-1.422-8.727,0.817-10.149,5
		c-1.421,4.183,0.817,8.727,5,10.149c8.422,2.862,17.336,4.313,26.495,4.313c9.159,0,18.073-1.451,26.495-4.313
		c4.183-1.422,6.422-5.966,5-10.149C286.838,420.389,282.295,418.152,278.111,419.572z"/>
	<path d="M169.056,271.537c-8.808,0-15.974,7.166-15.974,15.973s7.166,15.974,15.974,15.974s15.974-7.166,15.974-15.974
		S177.864,271.537,169.056,271.537z"/>
	<path d="M344.474,271.537c-8.808,0-15.974,7.166-15.974,15.973s7.166,15.974,15.974,15.974s15.974-7.166,15.974-15.974
		S353.282,271.537,344.474,271.537z"/>
</g>
<g>
</g>
<g>
</g>
<g>
</g>
<g>
</g>
<g>
</g>
<g>
</g>
<g>
</g>
<g>
</g>
<g>
</g>
<g>
</g>
<g>
</g>
<g>
</g>
<g>
</g>
<g>
</g>
<g>
</g>
</svg>
