<?xml version="1.0" encoding="iso-8859-1"?>
<!-- Generator: Adobe Illustrator 17.1.0, SVG Export Plug-In . SVG Version: 6.00 Build 0)  -->
<!DOCTYPE svg PUBLIC "-//W3C//DTD SVG 1.1//EN" "http://www.w3.org/Graphics/SVG/1.1/DTD/svg11.dtd">
<svg version="1.1" id="Capa_1" xmlns="http://www.w3.org/2000/svg" xmlns:xlink="http://www.w3.org/1999/xlink" x="0px" y="0px"
	 viewBox="0 0 512 512" style="enable-background:new 0 0 512 512;" xml:space="preserve">
<g>
	<path d="M192,200c-8.822,0-16,7.178-16,16s7.178,16,16,16s16-7.178,16-16S200.822,200,192,200z"/>
	<path d="M320,200c-8.822,0-16,7.178-16,16s7.178,16,16,16s16-7.178,16-16S328.822,200,320,200z"/>
	<path d="M433.976,211.754l20.455,4.091c0.521,0.104,1.046,0.155,1.569,0.155c1.833,0,3.629-0.631,5.072-1.813
		c1.854-1.52,2.928-3.79,2.928-6.187c0-21.271-7.823-44.546-16.672-64.081c0.704-4.66,0.679-7.668,0.67-8.083
		c-0.08-3.883-2.936-7.148-6.774-7.743c-0.194-0.03-0.799-0.12-1.76-0.23c-3.205-6.088-6.284-11.467-8.918-15.864H448
		c3.03,0,5.8-1.712,7.155-4.422c1.355-2.71,1.063-5.954-0.755-8.377c-16.18-21.574-41.821-32.943-59.055-38.482l9.092-6.062
		c2.335-1.557,3.684-4.223,3.554-7.026c-0.129-2.803-1.718-5.333-4.187-6.668c-16.59-8.967-38.755-13.158-65.886-12.459
		c-8.949,0.23-16.918,0.971-23.031,1.726c0.342-1.299,0.693-2.636,1.042-3.972c1.211-4.646,2.158-8.385,2.814-11.112
		c1.403-5.829,2.108-8.754-0.373-11.997C316.857,1.17,314.491,0,312,0c-20.906,0-44.106,14.42-56,29.569
		C244.106,14.42,220.906,0,200,0c-2.491,0-4.857,1.17-6.371,3.148c-2.481,3.243-1.776,6.167-0.373,11.997
		c0.657,2.727,1.604,6.466,2.814,11.112c0.348,1.336,0.699,2.673,1.042,3.972c-6.113-0.755-14.082-1.495-23.031-1.726
		c-27.128-0.698-49.296,3.491-65.886,12.459c-2.469,1.334-4.058,3.865-4.187,6.668c-0.13,2.803,1.219,5.469,3.554,7.026l9.092,6.062
		C99.421,66.257,73.78,77.626,57.6,99.2c-1.818,2.424-2.111,5.667-0.755,8.377C58.2,110.288,60.97,112,64,112h17.477
		c-2.621,4.387-5.694,9.771-8.897,15.859c-0.988,0.113-1.607,0.205-1.804,0.235c-3.838,0.595-6.694,3.86-6.774,7.743
		c-0.009,0.416-0.035,3.447,0.678,8.141C53.618,168.328,48,189.837,48,208c0,2.396,1.075,4.667,2.928,6.187
		C52.371,215.369,54.167,216,56,216c0.522,0,1.048-0.051,1.569-0.155l20.456-4.091C52.743,247.944,40,294.797,40,352
		c0,2.571,1.236,4.986,3.322,6.49c2.087,1.504,4.769,1.912,7.208,1.099l14.353-4.785c4.864,50.49,18.333,97.591,33.096,114.464
		c1.659,1.897,4.121,2.902,6.628,2.708c2.513-0.191,4.789-1.555,6.142-3.681c3.162-4.967,6.583-10.271,9.384-14.54
		c26.695,34.133,59.124,48.888,60.605,49.55c2.104,0.939,4.512,0.926,6.605-0.038c2.094-0.964,3.67-2.783,4.326-4.993
		c1.263-4.258,2.691-8.928,3.953-12.91c26.1,19.417,57.264,26.156,58.729,26.464c0.543,0.115,1.096,0.172,1.648,0.172
		s1.104-0.057,1.648-0.172c1.465-0.308,32.63-7.047,58.729-26.464c1.262,3.982,2.69,8.652,3.953,12.91
		c0.655,2.21,2.232,4.029,4.326,4.993c2.094,0.963,4.5,0.978,6.605,0.038c1.481-0.662,33.91-15.417,60.605-49.55
		c2.801,4.269,6.223,9.573,9.384,14.54c1.353,2.126,3.629,3.49,6.142,3.681c2.511,0.193,4.969-0.812,6.628-2.708
		c14.763-16.873,28.232-63.974,33.096-114.464l14.353,4.785c2.438,0.813,5.121,0.405,7.208-1.099
		c2.086-1.504,3.322-3.919,3.322-6.49C472,294.797,459.257,247.944,433.976,211.754z M329.058,314.26
		c-1.481-6.326-3.193-13.092-5.143-20.307c-3.243-11.999-6.311-22.133-8.313-28.522c-1.045-3.334-2.054-6.453-2.842-8.781
		c-1.393-4.12-2.234-6.607-5.692-8.041c-2.989-1.239-6.434-0.554-8.722,1.732c-2.493,2.491-2.999,6.217-1.517,9.209
		C298.99,265.365,320,330.53,320,360c0,21.625-4.353,35.428-12.257,38.865c-12.172,5.297-34.04-10.17-43.743-18.456V376
		c0-8.822,7.178-16,16-16c4.418,0,8-3.582,8-8s-3.582-8-8-8h-48c-4.418,0-8,3.582-8,8s3.582,8,8,8c8.822,0,16,7.178,16,16v4.386
		c-3.117,2.649-8.833,7.228-15.621,11.341c-11.995,7.268-21.98,9.805-28.114,7.142C196.356,395.437,192,381.633,192,360
		c0-29.47,21.01-94.635,23.171-100.45c1.482-2.992,0.976-6.718-1.517-9.209c-2.289-2.286-5.732-2.971-8.722-1.732
		c-3.458,1.433-4.299,3.92-5.692,8.041c-0.788,2.329-1.796,5.447-2.842,8.781c-2.003,6.389-5.071,16.524-8.313,28.522
		c-1.91,7.066-3.588,13.697-5.048,19.91c-1.351-4.335-2.786-8.816-4.268-13.438C169.971,272.995,160,241.905,160,216
		c0-22.526,4.796-42.338,13.781-58.477c0.873-0.915,1.513-2.017,1.875-3.213c9.94-16.28,24.377-28.507,42.662-35.568l0.598-0.224
		c8.677-3.124,16.393-2.779,21.727,0.969C245.387,122.823,248,128.688,248,136v16c0,4.418,3.582,8,8,8s8-3.582,8-8v-16
		c0-7.313,2.613-13.177,7.358-16.512c5.334-3.749,13.05-4.093,21.727-0.969c0.051,0.018,0.102,0.036,0.153,0.053
		c18.501,7.054,33.085,19.329,43.099,35.712c0.364,1.219,1.016,2.344,1.911,3.271C347.22,173.682,352,193.478,352,216
		c0,25.663-10.133,57.685-19.072,85.938C331.59,306.166,330.289,310.279,329.058,314.26z M298.138,261.431
		c-0.069-0.075-0.137-0.148-0.202-0.224C298.001,261.283,298.07,261.356,298.138,261.431z M256,394.59
		c9.347,7.664,28.48,21.304,46.294,21.303c0.113,0,0.226-0.006,0.339-0.007C297.201,431.127,276.308,440,256,440
		c-20.128,0-41.336-8.398-46.699-24.116c0.135,0.001,0.27,0.009,0.406,0.009C227.519,415.891,246.652,402.253,256,394.59z
		 M213.859,261.433c0.068-0.074,0.137-0.147,0.202-0.223C213.996,261.286,213.929,261.358,213.859,261.433z M104.185,182.048
		c-14.954-12.376-20.67-26.628-22.846-35.932c0.452-0.95,0.906-1.889,1.36-2.816c12.446-0.171,34.971,1.683,54.373,14.885
		C124.989,165.165,114.024,173.121,104.185,182.048z M429.317,143.299c0.45,0.919,0.9,1.85,1.348,2.791
		c-2.173,9.313-7.887,23.574-22.849,35.958c-9.839-8.927-20.805-16.883-32.887-23.863
		C394.344,144.974,416.886,143.126,429.317,143.299z M447.386,198.119l-27.356-5.471c9.297-8.153,15.52-16.937,19.663-25.111
		C443.329,177.603,446.187,188.058,447.386,198.119z M137.315,71.891c3.238-0.54,5.818-3.002,6.507-6.212
		c0.689-3.209-0.653-6.514-3.384-8.335l-11.576-7.718c33.575-10.454,77.053-1.886,77.544-1.786c2.719,0.554,5.531-0.343,7.429-2.366
		c1.898-2.024,2.613-4.887,1.887-7.565c-1.891-6.981-3.873-14.482-5.37-20.337c7.282,2.06,15.108,6.065,22.301,11.542
		C243.239,37.176,248,45.011,248,48c0,4.418,3.582,8,8,8s8-3.582,8-8c0-2.989,4.761-10.824,15.347-18.886
		c7.193-5.478,15.019-9.482,22.301-11.542c-1.497,5.855-3.479,13.355-5.37,20.337c-0.726,2.678-0.011,5.541,1.887,7.565
		c1.898,2.023,4.71,2.918,7.429,2.366c0.494-0.102,43.928-8.708,77.55,1.783l-11.582,7.721c-2.729,1.819-4.066,5.12-3.382,8.327
		s3.262,5.672,6.495,6.219c0.375,0.063,31.497,5.527,54.441,24.11H416c-2.973,0-5.701,1.648-7.083,4.281
		c-1.382,2.632-1.19,5.814,0.498,8.261c0.138,0.201,5.154,7.54,11.526,18.853c-16.797,0.864-41.125,5.482-61.7,22.57
		c-3.035-1.438-6.131-2.821-9.287-4.152c-0.399-0.649-0.786-1.306-1.199-1.946c-11.942-18.53-29.28-32.489-50.14-40.368
		c-0.142-0.054-0.285-0.103-0.429-0.148c-13.6-4.808-26.384-3.729-36.027,3.048c-2.314,1.626-4.374,3.548-6.158,5.718
		c-1.784-2.17-3.844-4.092-6.158-5.718c-9.718-6.83-22.626-7.872-36.436-2.901l-0.77,0.288
		c-21.843,8.435-39.019,22.902-50.727,42.085c-3.109,1.313-6.159,2.678-9.15,4.095c-20.571-17.083-44.892-21.704-61.689-22.569
		c6.366-11.312,11.377-18.653,11.515-18.854c1.688-2.447,1.879-5.629,0.498-8.261C101.701,97.648,98.973,96,96,96H82.883
		C105.828,77.417,136.948,71.953,137.315,71.891z M72.315,167.551c4.144,8.17,10.365,16.948,19.656,25.096l-27.354,5.471
		C65.817,188.068,68.677,177.618,72.315,167.551z M442.53,336.409c-2.343-0.78-4.916-0.437-6.971,0.935
		c-2.055,1.371-3.361,3.614-3.539,6.078c-3.32,45.931-13.843,85.998-23.981,105.846c-0.352-0.542-0.706-1.088-1.061-1.633
		c-2.298-3.529-4.165-6.352-5.55-8.388c-3.051-4.484-4.892-7.191-9.294-7.255c-2.707-0.053-5.245,1.29-6.756,3.519
		c-17.694,26.099-40.589,41.838-52.551,48.849c-0.271-0.877-0.55-1.773-0.832-2.668c-4.186-13.328-5.057-16.102-9.829-17.416
		c-2.663-0.733-5.562-0.029-7.593,1.845c-21.06,19.44-51.256,27.843-58.58,29.662c-7.333-1.81-37.434-10.153-58.569-29.662
		c-2.03-1.874-4.926-2.578-7.592-1.845c-4.771,1.313-5.643,4.087-9.829,17.416c-0.281,0.895-0.56,1.791-0.832,2.667
		c-11.967-7.014-34.859-22.752-52.551-48.848c-1.512-2.23-4.033-3.544-6.756-3.52c-4.402,0.064-6.244,2.771-9.294,7.255
		c-1.385,2.036-3.252,4.858-5.55,8.388c-0.355,0.545-0.709,1.091-1.061,1.633c-10.138-19.848-20.661-59.915-23.981-105.846
		c-0.178-2.463-1.484-4.707-3.539-6.078c-2.054-1.371-4.626-1.716-6.971-0.935l-13.296,4.433
		c1.333-42.268,10.323-78.267,26.776-107.13c15.673-27.495,38.638-49.335,68.417-65.142C146.53,182.791,144,198.708,144,216
		c0,28.408,10.377,60.765,19.533,89.312c6.422,20.024,12.488,38.938,12.488,49.965c0,0.348,0.03,0.688,0.073,1.024
		C176.038,357.583,176,358.829,176,360c0,25.418,5.273,41.912,16.067,50.128c0.683,13.438,7.816,25.363,20.286,33.758
		C223.957,451.698,239.457,456,256,456c35.532,0,62.545-19.574,63.933-45.872C330.727,401.911,336,385.418,336,360
		c0-1.143-0.036-2.358-0.089-3.606c0.054-0.375,0.091-0.755,0.091-1.145c0-9.991,5.917-28.688,12.18-48.484
		C357.471,277.408,368,244.134,368,216c0-17.301-2.472-33.158-7.357-47.424c29.774,15.806,52.736,37.644,68.407,65.136
		c16.453,28.863,25.444,64.863,26.776,107.13L442.53,336.409z"/>
</g>
<g>
</g>
<g>
</g>
<g>
</g>
<g>
</g>
<g>
</g>
<g>
</g>
<g>
</g>
<g>
</g>
<g>
</g>
<g>
</g>
<g>
</g>
<g>
</g>
<g>
</g>
<g>
</g>
<g>
</g>
</svg>
