<?xml version="1.0" encoding="iso-8859-1"?>
<!-- Generator: Adobe Illustrator 17.1.0, SVG Export Plug-In . SVG Version: 6.00 Build 0)  -->
<!DOCTYPE svg PUBLIC "-//W3C//DTD SVG 1.1//EN" "http://www.w3.org/Graphics/SVG/1.1/DTD/svg11.dtd">
<svg version="1.1" id="Capa_1" xmlns="http://www.w3.org/2000/svg" xmlns:xlink="http://www.w3.org/1999/xlink" x="0px" y="0px"
	 viewBox="0 0 511.986 511.986" style="enable-background:new 0 0 511.986 511.986;" xml:space="preserve">
<g>
	<path d="M452.183,358.311c4.903-7.275,9.454-14.95,13.552-23.045c6.585,2.308,12.899,4.968,18.671,8.034
		c1.196,0.635,2.48,0.937,3.747,0.937c2.864,0,5.634-1.542,7.072-4.248c2.073-3.902,0.59-8.746-3.312-10.818
		c-6.093-3.237-12.669-6.053-19.482-8.506c9.802-23.781,15.723-50.836,15.723-81.498c0-63.695-15.545-97.261-40.909-146.751
		c-18.681-36.45-51.389-62.69-97.215-77.992C312.451,1.874,274.982,0,255.993,0C216.242,0,123.152,0,72.844,92.232
		c-2.388,4.378-4.738,8.631-7.036,12.79c-23.452,42.447-41.976,75.975-41.976,134.144c0,30.662,5.921,57.717,15.723,81.498
		c-6.813,2.453-13.389,5.27-19.482,8.506c-3.902,2.073-5.384,6.917-3.312,10.818c1.438,2.706,4.207,4.248,7.072,4.248
		c1.266,0,2.551-0.301,3.747-0.937c5.769-3.065,12.083-5.723,18.672-8.031c4.098,8.094,8.648,15.768,13.551,23.042
		c-16.612,10.318-31.575,22.896-42.356,37.142c-2.666,3.523-1.971,8.541,1.552,11.207c1.444,1.093,3.14,1.621,4.822,1.621
		c2.42,0,4.812-1.094,6.385-3.173c9.762-12.9,23.625-24.383,39.028-33.814c5.489,7.024,11.295,13.625,17.31,19.826
		C70.523,406.357,57.8,423.128,49.22,435.832c-2.473,3.661-1.509,8.634,2.153,11.107c1.373,0.927,2.929,1.371,4.47,1.371
		c2.568,0,5.091-1.235,6.637-3.524c8.169-12.097,20.351-28.186,35.521-42.552c16.246,14.864,33.467,27.071,49.785,36.918
		c0.625,0.377,1.282,0.654,1.952,0.845c11.543,18.984,26.284,38.086,44.956,54.375c15.961,13.923,29.555,17.614,39.485,17.614
		c6.663,0,11.678-1.663,14.646-3.012c2.694-1.225,5.099-2.792,7.168-4.593c2.069,1.802,4.474,3.368,7.168,4.593
		c2.968,1.349,7.981,3.012,14.646,3.012c9.93,0,23.525-3.692,39.485-17.614c18.672-16.288,33.414-35.391,44.956-54.375
		c0.67-0.19,1.327-0.467,1.952-0.844c16.318-9.847,33.539-22.055,49.785-36.918c15.17,14.365,27.352,30.454,35.521,42.552
		c1.546,2.289,4.068,3.524,6.637,3.524c1.541,0,3.097-0.444,4.47-1.371c3.662-2.473,4.625-7.446,2.153-11.107
		c-8.579-12.704-21.303-29.475-37.325-44.712c6.015-6.2,11.821-12.802,17.31-19.826c15.404,9.431,29.266,20.914,39.028,33.814
		c1.573,2.079,3.965,3.173,6.385,3.173c1.682,0,3.377-0.528,4.822-1.621c3.523-2.667,4.218-7.684,1.552-11.207
		C483.758,381.207,468.795,368.629,452.183,358.311z M83.464,363.359c9.821-4.959,19.934-9.078,29.764-12.206
		c0.889,3.755,2.306,9.28,4.365,16.1c-6.662,3.939-12.998,8.431-18.975,13.259C93.368,375.122,88.292,369.407,83.464,363.359z
		 M110.204,391.663c4.018-3.167,8.193-6.145,12.516-8.859c3.068,8.586,6.898,18.194,11.615,28.316
		C126.217,405.265,118.093,398.794,110.204,391.663z M205.08,420.809c0.043-0.299,0.068-0.602,0.076-0.91
		c0.187-1.729,0.67-3.388,1.596-4.882c2.942-4.746,5.77-6.731,9.869-6.731c3.805,0,8.705,1.711,15.809,4.513
		c4.823,1.903,10.083,3.974,15.564,5.117v14.387c0,4.418,3.582,8,8,8s8-3.582,8-8v-14.387c5.481-1.144,10.74-3.215,15.563-5.117
		c14.758-5.821,20.004-6.932,25.677,2.218c0.756,1.219,1.223,2.548,1.473,3.935c-0.006,0.103-0.01,0.176-0.011,0.193
		c-0.057,0.857,0.027,1.689,0.226,2.479c-0.025,5.538-2.763,11.513-4.833,15.232c-10.152,18.239-32.554,35.482-46.096,35.482
		c-13.542,0-35.944-17.244-46.095-35.482C207.726,432.954,204.816,426.567,205.08,420.809z M306.774,482.315
		c-13.644,11.902-27.473,16.422-36.991,12.094c-3.95-1.796-5.791-4.681-5.791-6.065c0-0.324-0.025-0.641-0.062-0.955
		c19.722-4.482,41.806-24.19,52.138-42.751c5.184-9.313,7.415-18.232,6.682-26.104c0.535-11.465,2.111-77.091-27.797-134.055
		c-2.054-3.913-6.891-5.418-10.802-3.364c-3.912,2.054-5.418,6.89-3.364,10.802c19.026,36.238,24.362,77.299,25.706,102.734
		c-10.985-5.337-23.169-0.537-32.808,3.266c-6.37,2.513-12.387,4.886-17.692,4.886c-5.306,0-11.323-2.374-17.693-4.886
		c-9.682-3.819-21.934-8.651-32.957-3.198c1.338-25.431,6.667-66.531,25.71-102.802c2.054-3.912,0.548-8.748-3.364-10.802
		c-3.91-2.053-8.748-0.548-10.802,3.364c-31.074,59.185-28.162,127.722-27.741,135.148c-0.437,7.6,1.826,16.128,6.771,25.011
		c10.332,18.562,32.417,38.27,52.138,42.751c-0.037,0.314-0.062,0.631-0.062,0.955c0,1.384-1.84,4.269-5.791,6.065
		c-9.52,4.329-23.348-0.192-36.991-12.093c-36.744-32.054-57.507-77.066-68.1-107.23c7.622-3.382,15.597-5.807,23.864-6.903
		c4.38-0.581,7.46-4.602,6.879-8.982c-0.581-4.38-4.599-7.458-8.982-6.879c-9.295,1.232-18.212,3.86-26.7,7.499
		c-1.615-5.466-2.744-9.854-3.456-12.816c8.338-1.803,16.212-2.769,23.202-2.769c4.418,0,8-3.582,8-8s-3.582-8-8-8
		c-22.136,0-51.267,8.133-78.09,22.094c-4.28-6.279-8.269-12.883-11.906-19.812c35.922-9.412,73.635-10.291,74.14-10.3
		c4.417-0.087,7.928-3.737,7.842-8.154c-0.086-4.416-3.723-7.927-8.151-7.843c-2.208,0.043-42.369,0.966-80.787,11.58
		c-9.422-22.347-15.134-47.785-15.134-76.633c0-54.042,16.77-84.396,39.98-126.406c2.312-4.184,4.675-8.461,7.077-12.866
		C132.65,16,215.958,16,255.993,16c18.018,0,53.536,1.767,88.969,13.598c41.717,13.93,71.339,37.52,88.043,70.113
		c25.002,48.786,39.148,79.316,39.148,139.454c0,28.848-5.712,54.286-15.134,76.633c-38.418-10.613-78.579-11.537-80.787-11.58
		c-4.465-0.073-8.067,3.427-8.152,7.845s3.427,8.067,7.845,8.152c0.504,0.01,38.203,0.87,74.142,10.294
		c-3.639,6.932-7.629,13.538-11.91,19.819c-26.822-13.961-55.954-22.094-78.09-22.094c-4.418,0-8,3.582-8,8s3.582,8,8,8
		c6.99,0,14.864,0.966,23.202,2.769c-0.712,2.963-1.841,7.35-3.456,12.816c-8.488-3.638-17.406-6.267-26.7-7.499
		c-4.375-0.578-8.401,2.5-8.982,6.879c-0.581,4.38,2.5,8.401,6.879,8.982c8.267,1.096,16.241,3.521,23.863,6.903
		C364.281,405.25,343.518,450.262,306.774,482.315z M377.651,411.12c4.718-10.122,8.548-19.73,11.615-28.316
		c4.323,2.714,8.498,5.693,12.516,8.859C393.894,398.794,385.769,405.265,377.651,411.12z M413.368,380.511
		c-5.977-4.828-12.313-9.32-18.975-13.259c2.059-6.819,3.476-12.345,4.365-16.1c9.83,3.129,19.943,7.248,29.764,12.206
		C423.695,369.407,418.618,375.122,413.368,380.511z"/>
	<path d="M80.784,256.236c-4.388-0.508-8.357,2.641-8.864,7.03c-0.506,4.389,2.641,8.358,7.03,8.864
		c19.235,2.22,29.542,8.011,33.419,18.78c1.174,3.262,4.249,5.292,7.527,5.292c0.899,0,1.814-0.153,2.709-0.475
		c4.157-1.497,6.313-6.08,4.817-10.237C119.385,263.165,96.956,258.102,80.784,256.236z"/>
	<path d="M389.38,295.727c0.896,0.322,1.81,0.475,2.709,0.475c3.278,0,6.353-2.03,7.527-5.292
		c3.877-10.769,14.184-16.56,33.419-18.78c4.389-0.506,7.537-4.475,7.03-8.864c-0.507-4.389-4.47-7.542-8.864-7.03
		c-16.172,1.866-38.601,6.929-46.639,29.254C383.067,289.647,385.224,294.23,389.38,295.727z"/>
</g>
<g>
</g>
<g>
</g>
<g>
</g>
<g>
</g>
<g>
</g>
<g>
</g>
<g>
</g>
<g>
</g>
<g>
</g>
<g>
</g>
<g>
</g>
<g>
</g>
<g>
</g>
<g>
</g>
<g>
</g>
</svg>
