<?xml version="1.0" encoding="iso-8859-1"?>
<!-- Generator: Adobe Illustrator 17.1.0, SVG Export Plug-In . SVG Version: 6.00 Build 0)  -->
<!DOCTYPE svg PUBLIC "-//W3C//DTD SVG 1.1//EN" "http://www.w3.org/Graphics/SVG/1.1/DTD/svg11.dtd">
<svg version="1.1" id="Capa_1" xmlns="http://www.w3.org/2000/svg" xmlns:xlink="http://www.w3.org/1999/xlink" x="0px" y="0px"
	 viewBox="0 0 512 512" style="enable-background:new 0 0 512 512;" xml:space="preserve">
<g>
	<path d="M204,216c-6.953,0-12,6.729-12,16s5.047,16,12,16s12-6.729,12-16S210.953,216,204,216z"/>
	<path d="M308.313,216c-6.953,0-12,6.729-12,16s5.047,16,12,16s12-6.729,12-16S315.266,216,308.313,216z"/>
	<path d="M499.988,60.964C491.564,56.151,461.682,40,440,40c-2.807,0-6.936,0.966-10.665,5.566
		c-4.798,5.92-7.982,17.716-9.932,29.965c-2.154-4.314-4.14-7.581-5.747-9.188c-6.106-6.106-15.873-6.982-23.224-2.082
		c-6.395,4.263-11.285,13.539-5.831,26.784c2.804,6.81,8.579,22.812,12.994,38.984c5.785,21.191,5.568,29.119,5.202,31.563
		c-7.648,2.91-26.876,3.302-48.146,2.407c10.706-13.358,16.642-30.314,17.343-49.96c0.708-19.829-4.162-35.428-4.37-36.083
		c-1.186-3.737-4.908-6.063-8.784-5.496c-0.374,0.055-9.267,1.369-19.906,4.029c-14.905,3.726-25.659,8.196-31.962,13.287
		c-12.876,10.4-21.611,31.49-25.99,62.707C278.139,152.168,275.151,152,272,152h-32c-3.151,0-6.139,0.168-8.983,0.484
		c-4.38-31.217-13.115-52.307-25.99-62.707c-6.303-5.091-17.057-9.561-31.962-13.287c-10.639-2.66-19.533-3.974-19.906-4.029
		c-3.876-0.566-7.598,1.759-8.784,5.496c-0.208,0.654-5.078,16.254-4.37,36.083c0.701,19.647,6.638,36.604,17.345,49.962
		c-21.269,0.895-40.497,0.502-48.148-2.409c-0.367-2.443-0.583-10.372,5.202-31.563c4.415-16.172,10.189-32.174,12.994-38.984
		c5.454-13.246,0.564-22.521-5.831-26.784c-7.351-4.9-17.118-4.024-23.224,2.082c-1.607,1.607-3.593,4.874-5.747,9.188
		c-1.95-12.249-5.133-24.045-9.932-29.965C78.936,40.966,74.807,40,72,40c-21.682,0-51.564,16.151-59.988,20.964
		C4.108,64.145,0,72.265,0,80c0,8.762,7.03,65.596,16.977,83.831c5.478,10.042,17.873,17.839,36.841,23.176
		c8.875,2.497,17.068,3.852,21.635,4.488c9.047,10.789,31.223,16.444,68.97,17.688c5.288,0.174,10.506,0.246,15.507,0.246
		c5.201,0,10.161-0.078,14.723-0.197C170.715,215.122,168,222.635,168,232c0,10.884,2.375,16.969,4.471,22.337
		C174.364,259.188,176,263.378,176,272c0,42.225,9.563,64.408,16.545,80.604c3.586,8.319,6.188,14.369,6.275,20.423
		c-0.702,2.3-1.463,4.681-2.245,7.123c-3.912,12.211-8.346,26.051-7.918,38.62c0.552,16.197,8.872,27.329,24.728,33.086
		c1.501,0.545,3.101,0.923,4.744,1.177c3.567,6.534,13.3,18.549,36.779,18.956c0.138,0.007,0.276,0.011,0.416,0.011h0.817
		c0.14,0,0.278-0.003,0.416-0.011c23.589-0.409,33.305-12.538,36.831-19.05c1.439-0.252,2.839-0.603,4.162-1.084
		c15.938-5.787,24.36-17,25.034-33.33c0.523-12.695-3.818-26.644-7.648-38.95c-0.421-1.353-0.836-2.688-1.239-4
		c0.207-0.711,0.324-1.461,0.324-2.24c0-6.214,2.545-12.345,6.067-20.831C326.802,336.326,336,314.169,336,272
		c0-8.622,1.636-12.812,3.529-17.663C341.625,248.969,344,242.884,344,232c0-9.365-2.715-16.878-6.654-22.768
		c4.562,0.119,9.522,0.197,14.723,0.197c5,0,10.221-0.071,15.507-0.246c37.747-1.244,59.923-6.899,68.97-17.688
		c4.567-0.636,12.761-1.992,21.635-4.488c18.969-5.336,31.364-13.134,36.841-23.176C504.97,145.596,512,88.762,512,80
		C512,72.265,507.892,64.145,499.988,60.964z M286.578,152.126c-0.448,0.08-0.883,0.198-1.302,0.35
		C285.691,152.325,286.125,152.207,286.578,152.126z M287.257,152.034c-0.177,0.016-0.35,0.043-0.524,0.071
		C286.906,152.077,287.079,152.05,287.257,152.034z M317.027,102.224c2.844-2.297,14.663-8.633,36.964-12.747
		c2.972,14.846,6.703,51.003-20.528,73.274c-5.019-0.373-9.979-0.793-14.762-1.247c0.83-5.818,2.626-14.625,7.469-27.731
		c1.532-4.145-0.586-8.746-4.731-10.277c-4.142-1.531-8.746,0.586-10.277,4.73c-5.492,14.862-7.484,25.111-8.379,31.597
		c-1.906-1.287-3.97-2.415-6.191-3.385C301.224,121.602,310.225,107.717,317.027,102.224z M226.725,152.476
		c-0.419-0.152-0.854-0.27-1.302-0.35C225.875,152.207,226.309,152.325,226.725,152.476z M225.267,152.105
		c-0.173-0.028-0.347-0.054-0.524-0.071C224.921,152.05,225.094,152.077,225.267,152.105z M156.013,113.933
		c-0.404-9.93,0.857-18.758,2-24.456c22.3,4.114,34.117,10.449,36.961,12.746c6.802,5.493,15.803,19.379,20.434,54.215
		c-2.221,0.97-4.285,2.098-6.191,3.385c-0.895-6.486-2.887-16.735-8.379-31.597c-1.532-4.144-6.133-6.261-10.277-4.73
		c-4.145,1.532-6.263,6.133-4.731,10.277c4.844,13.106,6.64,21.913,7.469,27.732c-4.782,0.454-9.739,0.874-14.757,1.247
		C164.45,151.257,156.865,134.856,156.013,113.933z M31.023,156.169C22.992,141.446,16,87.083,16,80
		c0-1.613,0.391-2.812,1.115-3.556c0.303-0.134,0.602-0.282,0.893-0.457c0.169-0.102,0.357-0.213,0.539-0.32
		c0.154-0.034,0.306-0.071,0.473-0.084c1.903-0.154,4.394,1.241,5.074,5.64c8.915,57.65,13.461,71.866,24.322,76.055
		c4.124,1.592,8.753-0.463,10.343-4.585c1.554-4.029-0.372-8.543-4.308-10.23c-0.588-0.56-2.744-3.308-5.709-15.243
		c-2.494-10.037-5.136-24.523-8.834-48.441c-0.647-4.183-2.384-8.3-5.059-11.645c11.307-5.306,25.235-10.631,35.697-11.1
		c1.534,2.227,4.673,9.591,6.922,26.369c1.665,12.422,1.936,23.391,1.648,27.437c-0.871,2.689-1.694,5.346-2.449,7.92
		c-6.959,23.715-9.522,42.621-7.686,56.478C53.789,171.222,35.899,165.108,31.023,156.169z M144.829,193.188
		c-49.534-1.648-56.757-10.972-57.703-12.824c-4.813-9.435-3.167-30.138,4.516-56.801c0.66-2.289,1.337-4.531,2.024-6.719
		c0.438-0.735,0.769-1.55,0.957-2.435c0.064-0.303,0.121-0.675,0.173-1.08c6.2-18.915,12.904-33.059,14.959-35.76
		c0.697-0.575,2.054-0.583,2.937,0.006c1.707,1.137,1.073,4.558-0.089,7.379c-3.401,8.259-10.155,27.154-14.824,45.354
		c-6.948,27.087-6.248,40.046,2.417,44.73c16.13,8.719,68.759,4.935,95.444,2.326c-1.694,4.456-2.797,9.496-3.305,15.116
		C182.575,193.034,163.96,193.822,144.829,193.188z M255.732,455.999c-8.262-0.063-13.786-2.022-17.441-4.324
		c1.343-0.308,2.443-0.597,3.196-0.807c4.261-1.19,8.141-1.769,11.861-1.769h4.237c3.719,0,7.599,0.579,11.86,1.769
		c0.832,0.232,2.085,0.561,3.629,0.905C269.426,454.026,263.924,455.937,255.732,455.999z M324.625,248.519
		C322.457,254.072,320,260.366,320,272c0,38.598-8.324,59.029-14.507,73.926c-3.105-7.978-7.601-17.544-13.49-28.667
		c-0.549-1.037-1.083-2.036-1.6-3.005C283.477,301.283,280,294.772,280,272.5c0-4.418-3.582-8-8-8s-8,3.582-8,8
		c0,26.276,4.889,35.432,12.29,49.291c0.509,0.953,1.034,1.936,1.573,2.955c14.208,26.836,16.431,37.519,16.727,40.866
		c0.033,0.376,0.075,0.844,0.197,1.411c1.167,5.408,2.966,11.188,4.871,17.308c8.654,27.805,12.463,45.212-7.569,52.485
		c-2.911,1.058-10.146,0.929-18.339-1.358c-5.682-1.587-10.969-2.358-16.164-2.358h-4.237c-5.195,0-10.482,0.771-16.165,2.358
		c-8.194,2.289-15.429,2.415-18.339,1.359c-18.222-6.616-16.998-20.685-7.033-51.785c2.041-6.37,3.968-12.387,5.181-18.008
		c0.169-0.784,0.192-1.431,0.209-1.903c0.12-3.354,1.907-14.002,15.869-40.375c0.977-1.845,1.919-3.567,2.821-5.216
		C242.656,307.16,248,297.39,248,272.5c0-4.418-3.582-8-8-8s-8,3.582-8,8c0,20.8-3.819,27.783-10.146,39.352
		c-0.935,1.709-1.911,3.495-2.924,5.407c-5.445,10.285-9.636,19.273-12.582,26.942C200.025,329.458,192,309.158,192,272
		c0-11.634-2.457-17.928-4.625-23.481C185.49,243.688,184,239.872,184,232c0-18.676,16.245-23.761,18.042-24.265
		c0.029-0.008,0.056-0.018,0.085-0.026c0.107-0.029,0.211-0.064,0.316-0.098c0.128-0.041,0.256-0.084,0.381-0.131
		c0.107-0.04,0.212-0.083,0.316-0.128c0.124-0.053,0.245-0.109,0.365-0.167c0.096-0.047,0.192-0.093,0.286-0.144
		c0.132-0.071,0.26-0.148,0.388-0.226c0.075-0.046,0.152-0.09,0.226-0.138c0.199-0.131,0.392-0.269,0.577-0.416
		c0.003-0.002,0.006-0.005,0.009-0.008c0.185-0.148,0.361-0.304,0.531-0.467c0.051-0.049,0.099-0.101,0.148-0.151
		c0.119-0.12,0.236-0.242,0.347-0.369c0.055-0.063,0.108-0.128,0.162-0.193c0.099-0.121,0.195-0.245,0.287-0.371
		c0.052-0.071,0.103-0.142,0.152-0.214c0.088-0.13,0.171-0.263,0.251-0.398c0.043-0.073,0.089-0.145,0.13-0.219
		c0.087-0.158,0.167-0.32,0.244-0.484c0.025-0.054,0.054-0.106,0.079-0.161c0.094-0.213,0.178-0.43,0.253-0.652
		c0.029-0.085,0.052-0.173,0.078-0.26c0.044-0.144,0.086-0.289,0.122-0.436c0.024-0.1,0.044-0.201,0.064-0.302
		c0.028-0.141,0.053-0.282,0.074-0.425c0.015-0.101,0.028-0.203,0.039-0.305c0.016-0.155,0.027-0.312,0.034-0.469
		c0.004-0.09,0.01-0.18,0.011-0.27c0-0.036,0.004-0.071,0.004-0.107c0-23.028,8.972-32,32-32h32c23.028,0,32,8.972,32,32
		c0,0.036,0.004,0.071,0.004,0.107c0.001,0.091,0.007,0.18,0.011,0.27c0.007,0.157,0.018,0.314,0.034,0.469
		c0.011,0.102,0.024,0.204,0.039,0.305c0.021,0.143,0.046,0.284,0.074,0.425c0.02,0.101,0.04,0.202,0.064,0.302
		c0.036,0.147,0.078,0.292,0.122,0.436c0.026,0.086,0.049,0.174,0.078,0.26c0.075,0.221,0.159,0.439,0.253,0.652
		c0.024,0.055,0.053,0.107,0.079,0.161c0.077,0.164,0.156,0.326,0.244,0.484c0.041,0.074,0.086,0.146,0.13,0.219
		c0.08,0.135,0.163,0.268,0.251,0.398c0.049,0.073,0.1,0.144,0.152,0.214c0.092,0.127,0.188,0.25,0.287,0.371
		c0.053,0.065,0.106,0.13,0.162,0.193c0.111,0.127,0.228,0.249,0.347,0.369c0.05,0.05,0.097,0.102,0.148,0.151
		c0.17,0.163,0.347,0.319,0.531,0.467c0.003,0.002,0.006,0.005,0.009,0.008c0.185,0.147,0.378,0.285,0.577,0.416
		c0.074,0.049,0.151,0.092,0.226,0.138c0.127,0.078,0.256,0.155,0.388,0.226c0.094,0.051,0.189,0.097,0.286,0.144
		c0.12,0.058,0.241,0.114,0.365,0.167c0.104,0.045,0.209,0.087,0.316,0.128c0.125,0.047,0.253,0.09,0.381,0.131
		c0.105,0.034,0.209,0.068,0.316,0.098c0.029,0.008,0.056,0.019,0.085,0.026C310.695,207.93,328,212.718,328,232
		C328,239.872,326.51,243.688,324.625,248.519z M367.171,193.188c-19.134,0.634-37.747-0.154-47.506-0.708
		c-0.509-5.62-1.612-10.66-3.305-15.116c26.685,2.609,79.314,6.393,95.444-2.326c8.665-4.684,9.365-17.643,2.417-44.73
		c-4.668-18.2-11.423-37.094-14.824-45.354c-1.162-2.822-1.795-6.242-0.089-7.379c0.884-0.589,2.24-0.581,2.937-0.006
		c2.055,2.702,8.759,16.846,14.959,35.76c0.052,0.406,0.109,0.778,0.173,1.08c0.187,0.885,0.518,1.7,0.957,2.435
		c0.688,2.188,1.365,4.43,2.024,6.719c7.683,26.664,9.329,47.367,4.516,56.801C423.929,182.216,416.706,191.54,367.171,193.188z
		 M480.977,156.169c-4.876,8.939-22.766,15.053-37.958,18.069c1.836-13.857-0.727-32.763-7.686-56.478
		c-0.755-2.574-1.578-5.231-2.449-7.92c-0.288-4.046-0.017-15.016,1.648-27.437c2.249-16.777,5.389-24.142,6.922-26.368
		c10.442,0.469,24.377,5.798,35.693,11.105c-2.672,3.344-4.407,7.459-5.053,11.638c-3.698,23.918-6.341,38.405-8.834,48.441
		c-2.966,11.936-5.121,14.684-5.709,15.243c-3.937,1.687-5.862,6.202-4.308,10.23c1.589,4.122,6.22,6.177,10.343,4.585
		c10.86-4.189,15.407-18.405,24.322-76.055c0.68-4.398,3.155-5.786,5.074-5.64c0.167,0.013,0.318,0.05,0.472,0.084
		c0.182,0.108,0.37,0.219,0.54,0.321c0.291,0.175,0.59,0.323,0.893,0.457C495.609,77.188,496,78.387,496,80
		C496,87.083,489.008,141.446,480.977,156.169z"/>
</g>
<g>
</g>
<g>
</g>
<g>
</g>
<g>
</g>
<g>
</g>
<g>
</g>
<g>
</g>
<g>
</g>
<g>
</g>
<g>
</g>
<g>
</g>
<g>
</g>
<g>
</g>
<g>
</g>
<g>
</g>
</svg>
