<?xml version="1.0" encoding="iso-8859-1"?>
<!-- Generator: Adobe Illustrator 17.1.0, SVG Export Plug-In . SVG Version: 6.00 Build 0)  -->
<!DOCTYPE svg PUBLIC "-//W3C//DTD SVG 1.1//EN" "http://www.w3.org/Graphics/SVG/1.1/DTD/svg11.dtd">
<svg version="1.1" id="Capa_1" xmlns="http://www.w3.org/2000/svg" xmlns:xlink="http://www.w3.org/1999/xlink" x="0px" y="0px"
	 viewBox="0 0 512.003 512.003" style="enable-background:new 0 0 512.003 512.003;" xml:space="preserve">
<g>
	<path d="M289.551,348.743c0.564-0.87,1.12-1.769,1.662-2.716c8.473-14.79,12.769-37.009,12.769-66.038c0-4.418-3.582-8-8-8
		s-8,3.582-8,8c0,62.612-20.037,71.961-31.98,71.961c-11.944,0-31.98-9.349-31.98-71.961c0-4.418-3.582-8-8-8s-8,3.582-8,8
		c0,29.029,4.296,51.248,12.769,66.038c0.542,0.947,1.099,1.846,1.662,2.716c-29.875-5.54-57.32-17.356-82.316-28.126
		c-29.407-12.671-57.184-24.64-84.037-24.64c-4.418,0-8,3.582-8,8s3.582,8,8,8c23.553,0,49.857,11.334,77.706,23.333
		c35.506,15.3,75.75,32.64,122.197,32.64s86.691-17.34,122.197-32.64c27.849-11.999,54.153-23.333,77.706-23.333
		c4.418,0,8-3.582,8-8s-3.582-8-8-8c-26.853,0-54.629,11.969-84.037,24.64C346.871,331.387,319.425,343.202,289.551,348.743z"/>
	<path d="M455.904,271.989c-19.508,0-43.221-2.078-64.874-5.576c-8.474-43.707-23.189-75.484-44.926-97.052
		c-22.586-22.411-52.059-33.306-90.103-33.306c-73.593,0-117.791,42.653-135.019,130.356c-21.655,3.499-45.373,5.577-64.883,5.577
		c-17.638,0-31.988,14.35-31.988,31.988s14.35,31.988,31.988,31.988c7.589,0,33.354,11.979,58.27,23.563
		c46.379,21.564,104.1,48.401,141.633,48.401c37.532,0,95.253-26.837,141.633-48.401c24.916-11.584,50.68-23.563,58.269-23.563
		c17.638,0,31.988-14.35,31.988-31.988C487.891,286.338,473.542,271.989,455.904,271.989
		C455.904,271.989,455.904,271.989,455.904,271.989z M471.891,303.977c0,8.816-7.172,15.988-15.988,15.988
		c-10.61,0-30.598,9.054-65.015,25.056c-42.579,19.797-100.893,46.909-134.887,46.909s-92.308-27.112-134.887-46.909
		c-34.417-16.002-54.405-25.056-65.015-25.056c-8.816,0-15.988-7.172-15.988-15.988s7.172-15.988,15.988-15.988
		c25.194,0,57.093-3.317,83.248-8.657c12.662-2.586,51.192-10.453,59.841-27.749c3.509-7.019,2.671-14.729-2.186-20.122
		c-5.11-5.676-13.536-7.616-20.968-4.823c-4.702,1.765-15.673,8.147-15.988,29.244c-0.009,0.583,0.045,1.153,0.156,1.703
		c-5.902,1.867-13.218,3.794-22.23,5.687c16.442-75.802,54.138-111.216,118.031-111.216c33.609,0,59.396,9.376,78.833,28.664
		c18.383,18.241,31.256,45.319,39.223,82.558c-9.025-1.895-16.349-3.824-22.257-5.693c0.11-0.55,0.165-1.12,0.156-1.703
		c-0.315-21.097-11.286-27.479-15.988-29.244c-7.433-2.79-15.858-0.852-20.968,4.823c-4.857,5.394-5.695,13.104-2.186,20.122
		c8.648,17.296,47.179,25.163,59.841,27.749c26.155,5.34,58.053,8.657,83.248,8.657l0,0
		C464.719,287.989,471.891,295.16,471.891,303.977z M176.446,251.061c0.896-5.769,3.126-8.662,5.211-9.444
		c0.458-0.172,0.913-0.247,1.341-0.247c0.916,0,1.704,0.341,2.115,0.798c0.142,0.157,0.575,0.639-0.235,2.259
		C184.616,244.949,183.054,247.535,176.446,251.061z M335.557,251.061c-6.609-3.525-8.17-6.112-8.432-6.635
		c-0.811-1.62-0.377-2.102-0.235-2.259c0.411-0.457,1.2-0.798,2.115-0.798c0.428,0,0.883,0.075,1.341,0.247
		C332.431,242.399,334.66,245.292,335.557,251.061z"/>
	<path d="M218.697,241.398c4.363,0.719,8.479-2.225,9.202-6.583c6.401-38.584,18.983-58.771,28.103-58.771
		c9.12,0,21.702,20.189,28.104,58.776c0.649,3.915,4.04,6.691,7.882,6.691c0.435,0,0.876-0.035,1.319-0.108
		c4.358-0.724,7.306-4.843,6.583-9.202c-7.608-45.856-23.604-72.157-43.888-72.157c-20.283,0-36.279,26.299-43.887,72.152
		C211.391,236.554,214.338,240.674,218.697,241.398z"/>
	<path d="M68.093,216.024c6.616,0,11.998-5.382,11.998-11.998s-5.382-11.998-11.998-11.998s-11.998,5.382-11.998,11.998
		S61.477,216.024,68.093,216.024z M68.093,200.024c2.207,0,4.002,1.795,4.002,4.002s-1.795,4.002-4.002,4.002
		s-4.002-1.795-4.002-4.002S65.887,200.024,68.093,200.024z"/>
	<path d="M443.909,192.028c-6.616,0-11.998,5.382-11.998,11.998s5.382,11.998,11.998,11.998s11.998-5.382,11.998-11.998
		S450.525,192.028,443.909,192.028z M443.909,208.028c-2.207,0-4.002-1.795-4.002-4.002s1.795-4.002,4.002-4.002
		s4.002,1.795,4.002,4.002S446.116,208.028,443.909,208.028z"/>
	<path d="M511.346,282.955c-2.553-22.828-12.919-41.171-30.812-54.611c4.644-6.971,7.358-15.332,7.358-24.318
		c0-4.831-0.794-9.478-2.24-13.83c7.522-3.824,26.228-16.33,26.228-46.141c0-2.579-1.555-7.177-7.383-8.046
		c-0.44-0.065-1.088-0.146-1.922-0.237c-1.422-0.155-3.479-0.356-6.013-0.603c-9.111-0.887-24.361-2.371-38.402-4.559
		c-8.21-1.279-14.031-2.5-18.153-3.559c7.986-7.326,8.015-14.004,7.878-15.645c-0.314-3.771-3.233-6.807-6.988-7.275
		c-0.418-0.052-42.297-5.515-84.841-30.914c-19.386-11.573-55.47-33.115-100.054-33.115s-80.668,21.542-100.054,33.115
		c-42.543,25.399-84.422,30.862-84.833,30.913c-3.761,0.463-6.681,3.5-6.995,7.276c-0.137,1.641-0.108,8.319,7.878,15.645
		c-4.122,1.059-9.943,2.28-18.153,3.559c-14.041,2.188-29.291,3.672-38.402,4.559c-2.535,0.246-4.591,0.447-6.013,0.603
		c-0.834,0.092-1.482,0.172-1.922,0.237c-5.828,0.869-7.383,5.467-7.383,8.046c0,29.81,18.706,42.317,26.228,46.141
		c-1.446,4.352-2.24,8.999-2.24,13.83c0,8.986,2.714,17.348,7.358,24.318c-17.893,13.44-28.259,31.784-30.812,54.611
		c-2.275,20.335,1.833,40.63,5.134,56.938c1.943,9.601,4.362,21.549,2.937,24.993c-1.021,2.468-0.743,5.283,0.741,7.504
		c1.484,2.222,3.979,3.555,6.651,3.555h20.884l-4.486,13.458c-0.927,2.782-0.251,5.846,1.75,7.988
		c2.001,2.145,5.024,3.022,7.86,2.282c0.219-0.055,20.562-5.191,45.952-1.111v9.363c0,4.418,3.582,8,8,8
		c27.474,0,51.731,15.47,73.133,29.119l2.533,1.614c3.272,2.082,7.569,1.518,10.192-1.343c1.173-1.279,2.511-2.707,3.694-3.939
		l67.121,29.832c0.307,0.136,0.618,0.246,0.932,0.341c0.076,0.023,0.153,0.04,0.23,0.061c0.267,0.073,0.534,0.131,0.803,0.175
		c0.086,0.014,0.171,0.029,0.258,0.04c0.341,0.044,0.683,0.074,1.023,0.074c0.001,0,0.003,0,0.004,0c0.001,0,0.003,0,0.004,0
		c0.34,0,0.681-0.03,1.022-0.074c0.087-0.011,0.172-0.026,0.258-0.04c0.269-0.044,0.536-0.102,0.803-0.175
		c0.076-0.021,0.153-0.038,0.229-0.061c0.313-0.095,0.625-0.205,0.932-0.341l67.121-29.832c1.183,1.232,2.521,2.66,3.694,3.939
		c2.622,2.86,6.918,3.425,10.192,1.343l2.533-1.614c21.401-13.649,45.659-29.119,73.133-29.119c4.418,0,8-3.582,8-8v-9.363
		c25.391-4.08,45.732,1.055,45.937,1.107c2.839,0.749,5.862-0.121,7.872-2.265c2.009-2.143,2.683-5.215,1.753-8.002l-4.486-13.458
		h20.884c2.671,0,5.167-1.333,6.651-3.555c1.484-2.221,1.763-5.036,0.741-7.504c-1.425-3.444,0.993-15.393,2.937-24.993
		C509.513,323.585,513.621,303.29,511.346,282.955z M443.909,232.008c-15.43,0-27.982-12.553-27.982-27.982
		s12.553-27.982,27.982-27.982s27.982,12.553,27.982,27.982S459.339,232.008,443.909,232.008z M40.111,204.026
		c0-15.43,12.553-27.982,27.982-27.982s27.982,12.553,27.982,27.982s-12.553,27.982-27.982,27.982S40.111,219.455,40.111,204.026z
		 M490.53,336.719c-1.86,9.192-3.411,16.852-3.635,23.227H463.9c-2.572,0-4.986,1.236-6.49,3.322
		c-1.504,2.086-1.913,4.768-1.1,7.208l3.789,11.366c-10.983-1.219-27.496-1.722-45.875,2.274c-3.678,0.8-6.301,4.054-6.301,7.817
		v8.351c-27.28,2.435-50.995,16.808-70.649,29.304c-4.537-4.699-6.283-5.674-9.308-5.674c-1.119,0-2.226,0.235-3.249,0.689
		l-68.716,30.54l-68.716-30.54c-1.023-0.454-2.13-0.689-3.249-0.689c-3.024,0-4.771,0.975-9.308,5.674
		c-19.654-12.496-43.369-26.869-70.649-29.304v-8.351c0-3.764-2.623-7.018-6.301-7.817c-18.382-3.997-34.893-3.494-45.875-2.273
		l3.789-11.367c0.813-2.44,0.404-5.122-1.1-7.208c-1.503-2.086-3.918-3.322-6.49-3.322H25.108
		c-0.225-6.375-1.775-14.034-3.635-23.227c-6.12-30.237-14.463-71.463,21.252-96.798c7.175,5.085,15.925,8.087,25.368,8.087
		c24.252,0,43.982-19.73,43.982-43.982s-19.73-43.982-43.982-43.982c-13.697,0-25.949,6.296-34.021,16.143
		c-3.1-1.436-14.821-7.939-17.431-25.058c0.117-0.012,0.234-0.023,0.351-0.034c60.548-5.893,74.212-11.384,78.248-19.454
		c0.01-0.019,0.016-0.038,0.025-0.057c0.01-0.02,0.022-0.038,0.031-0.058c0.05-0.105,0.088-0.213,0.134-0.319
		c0.054-0.126,0.112-0.251,0.159-0.379c0.045-0.123,0.081-0.247,0.12-0.371c0.042-0.132,0.086-0.263,0.121-0.396
		c0.032-0.125,0.055-0.251,0.081-0.377c0.027-0.132,0.058-0.263,0.078-0.396c0.02-0.129,0.03-0.258,0.044-0.387
		c0.014-0.13,0.031-0.26,0.038-0.39c0.007-0.13,0.005-0.26,0.006-0.39c0.001-0.129,0.005-0.257,0-0.385
		c-0.006-0.13-0.02-0.259-0.032-0.388c-0.012-0.127-0.02-0.254-0.038-0.381c-0.018-0.128-0.045-0.254-0.069-0.38
		c-0.024-0.125-0.044-0.251-0.074-0.375c-0.03-0.124-0.068-0.245-0.103-0.367c-0.036-0.124-0.069-0.249-0.111-0.371
		c-0.04-0.118-0.089-0.232-0.135-0.347c-0.049-0.123-0.094-0.247-0.149-0.367c-0.051-0.112-0.11-0.22-0.166-0.33
		c-0.061-0.119-0.119-0.238-0.185-0.354c-0.061-0.107-0.13-0.209-0.197-0.313c-0.072-0.113-0.142-0.227-0.219-0.337
		c-0.072-0.101-0.151-0.196-0.227-0.294c-0.083-0.106-0.164-0.214-0.252-0.316c-0.083-0.095-0.173-0.184-0.26-0.276
		c-0.093-0.097-0.183-0.195-0.281-0.288c-0.095-0.09-0.197-0.172-0.296-0.258c-0.101-0.086-0.198-0.174-0.304-0.255
		c-0.106-0.082-0.22-0.157-0.332-0.234c-0.109-0.075-0.215-0.153-0.328-0.224c-0.115-0.072-0.238-0.136-0.358-0.202
		c-0.1-0.056-0.196-0.117-0.3-0.169c-0.021-0.01-0.042-0.017-0.062-0.027c-0.019-0.009-0.035-0.02-0.054-0.029
		c-2.3-1.104-4.144-2.165-5.622-3.147c16.58-3.574,46.958-12.08,78.225-30.748c19.33-11.54,51.681-30.854,91.853-30.854
		s72.523,19.313,91.852,30.854c31.268,18.668,61.646,27.174,78.226,30.748c-1.478,0.982-3.321,2.043-5.622,3.147
		c-0.019,0.009-0.035,0.02-0.054,0.029c-0.021,0.01-0.042,0.017-0.062,0.028c-0.104,0.052-0.199,0.114-0.3,0.169
		c-0.12,0.067-0.243,0.13-0.358,0.202c-0.113,0.07-0.219,0.148-0.328,0.224c-0.112,0.077-0.225,0.152-0.332,0.234
		c-0.105,0.081-0.203,0.169-0.304,0.255c-0.1,0.085-0.202,0.168-0.296,0.258c-0.098,0.093-0.189,0.192-0.282,0.289
		c-0.087,0.091-0.177,0.18-0.259,0.274c-0.089,0.102-0.17,0.21-0.253,0.317c-0.076,0.097-0.155,0.193-0.226,0.293
		c-0.078,0.11-0.147,0.224-0.219,0.337c-0.066,0.104-0.135,0.206-0.197,0.313c-0.066,0.116-0.125,0.235-0.185,0.354
		c-0.056,0.11-0.115,0.218-0.166,0.33c-0.054,0.12-0.1,0.244-0.149,0.367c-0.046,0.116-0.094,0.23-0.135,0.347
		c-0.042,0.122-0.075,0.247-0.111,0.371c-0.035,0.122-0.074,0.243-0.103,0.367c-0.03,0.124-0.05,0.25-0.074,0.375
		c-0.024,0.127-0.051,0.252-0.069,0.38c-0.018,0.126-0.026,0.253-0.038,0.381c-0.012,0.129-0.026,0.258-0.032,0.388
		c-0.005,0.129-0.001,0.258,0,0.387c0.001,0.129-0.002,0.258,0.006,0.387c0.007,0.131,0.024,0.262,0.038,0.393
		c0.013,0.129,0.024,0.257,0.044,0.386c0.021,0.132,0.051,0.264,0.078,0.396c0.026,0.126,0.049,0.252,0.081,0.377
		c0.034,0.133,0.079,0.264,0.121,0.396c0.039,0.124,0.074,0.248,0.12,0.371c0.047,0.127,0.105,0.253,0.159,0.379
		c0.045,0.106,0.083,0.214,0.134,0.319c0.008,0.016,0.018,0.03,0.026,0.046c0.011,0.023,0.019,0.047,0.031,0.07
		c4.035,8.07,17.7,13.562,78.248,19.454c0.116,0.011,0.233,0.022,0.349,0.034c-2.613,17.064-14.308,23.597-17.432,25.055
		c-8.073-9.845-20.323-16.14-34.019-16.14c-24.252,0-43.982,19.73-43.982,43.982s19.73,43.982,43.982,43.982
		c9.444,0,18.194-3.002,25.368-8.087C504.993,265.256,496.65,306.482,490.53,336.719z"/>
</g>
<g>
</g>
<g>
</g>
<g>
</g>
<g>
</g>
<g>
</g>
<g>
</g>
<g>
</g>
<g>
</g>
<g>
</g>
<g>
</g>
<g>
</g>
<g>
</g>
<g>
</g>
<g>
</g>
<g>
</g>
</svg>
