<?xml version="1.0" encoding="iso-8859-1"?>
<!-- Generator: Adobe Illustrator 17.1.0, SVG Export Plug-In . SVG Version: 6.00 Build 0)  -->
<!DOCTYPE svg PUBLIC "-//W3C//DTD SVG 1.1//EN" "http://www.w3.org/Graphics/SVG/1.1/DTD/svg11.dtd">
<svg version="1.1" id="Capa_1" xmlns="http://www.w3.org/2000/svg" xmlns:xlink="http://www.w3.org/1999/xlink" x="0px" y="0px"
	 viewBox="0 0 511.969 511.969" style="enable-background:new 0 0 511.969 511.969;" xml:space="preserve">
<g>
	<path d="M482.55,163.025c5.85-16.478,11.277-35.781,16.252-57.848c4.819-21.368,8.132-40.723,10.063-53.197
		c3.746-24.195,3.366-25.067,2.449-27.175c-1.24-2.848-4.021-4.725-7.126-4.807c-3.095-0.06-5.985,1.648-7.374,4.427
		c-13.139,26.278-27.83,42.957-43.383,60.615c-6.546,7.432-13.363,15.174-20.347,23.972
		c-44.012-32.523-103.559-49.011-177.099-49.011c-73.54,0-133.087,16.489-177.099,49.011c-6.985-8.798-13.801-16.54-20.347-23.972
		C42.985,67.382,28.294,50.703,15.155,24.425c-1.39-2.778-4.282-4.518-7.374-4.427c-3.105,0.082-5.886,1.959-7.126,4.807
		c-0.917,2.107-1.297,2.979,2.449,27.175c1.931,12.475,5.244,31.829,10.063,53.197c4.976,22.067,10.403,41.371,16.252,57.849
		C9.896,195.292,0,233.274,0,275.987c0,57.962,26.81,112.369,75.492,153.199c48.276,40.489,112.376,62.788,180.492,62.788
		s132.216-22.299,180.492-62.788c48.682-40.83,75.492-95.237,75.492-153.199C511.969,233.273,502.073,195.293,482.55,163.025z
		 M465.438,95.615c8.634-9.803,17.015-19.317,25.082-30.298c-7.778,43.964-23.858,113.401-48.546,141.381
		c-2.923,3.313-2.607,8.368,0.706,11.292c3.312,2.922,8.368,2.607,11.292-0.706c7.434-8.425,14.44-20.132,20.989-35.014
		c13.947,27.307,21.009,58.75,21.009,93.718c0,44.866-17.823,86.327-47.876,119.729c-0.474,0.276-0.928,0.603-1.351,0.985
		c-13.055,11.812-25.249,17.049-37.259,16.012c-24.327-2.102-46.292-30.229-65.671-55.047
		c-9.287-11.893-18.059-23.125-26.911-31.495c-0.062-0.058-0.128-0.107-0.191-0.163c2.506-3.245,5.358-6.677,8.501-10.384
		c9.11,19.552,28.879,32.359,50.766,32.359c30.877,0,55.997-25.12,55.997-55.997c0-28.924-22.043-52.794-50.212-55.699
		c5.909-11.033,11.818-23.344,17.599-37.218C421.845,145.106,444.006,119.947,465.438,95.615z M373.172,251.473
		c0.874,0.328,1.816,0.516,2.805,0.516c22.055,0,39.997,17.942,39.997,39.997s-17.942,39.997-39.997,39.997
		c-16.925,0-32.085-10.715-37.723-26.661c-0.398-1.127-1.03-2.103-1.813-2.907C347.459,289.308,360.162,273.248,373.172,251.473z
		 M37.009,182.27c6.549,14.883,13.554,26.589,20.989,35.014c2.923,3.313,7.979,3.629,11.292,0.706
		c3.313-2.924,3.629-7.979,0.706-11.292c-24.688-27.979-40.768-97.417-48.546-141.381c8.067,10.98,16.448,20.495,25.082,30.298
		c21.431,24.332,43.592,49.491,66.077,103.454c5.781,13.875,11.69,26.185,17.599,37.218c-28.169,2.905-50.212,26.775-50.212,55.699
		c0,30.877,25.12,55.997,55.997,55.997c21.886,0,41.655-12.806,50.766-32.359c3.049,3.596,5.819,6.931,8.27,10.089
		c-0.182,0.145-0.363,0.294-0.535,0.457c-8.853,8.37-17.624,19.603-26.911,31.495c-19.379,24.817-41.345,52.945-65.671,55.047
		c-11.809,1.019-23.777-4.032-36.573-15.409C34.408,363.631,16,321.57,16,275.987C16,241.02,23.062,209.576,37.009,182.27z
		 M138.797,251.473c13.01,21.774,25.713,37.834,36.73,50.941c-0.783,0.804-1.414,1.78-1.812,2.907
		c-5.638,15.946-20.797,26.661-37.723,26.661c-22.055,0-39.997-17.942-39.997-39.997s17.942-39.997,39.997-39.997
		C136.98,251.989,137.923,251.801,138.797,251.473z M101.334,428.78c0.651-0.031,1.302-0.07,1.953-0.127
		c31.271-2.701,55.515-33.748,76.905-61.14c8.322-10.658,16.213-20.762,23.721-28.194c2.645,5.358,4.074,10.691,4.074,16.663
		c0,4.418,3.582,8,8,8s8-3.582,8-8c0-21.434-12.278-35.804-29.272-55.692c-18.614-21.784-44.105-51.618-67.337-107.375
		c-12.963-31.11-26.103-53.37-38.848-71.136c41.19-30.378,97.494-45.778,167.455-45.778c69.962,0,126.266,15.4,167.455,45.777
		c-12.745,17.766-25.885,40.027-38.848,71.137c-23.232,55.757-48.724,85.591-67.337,107.375
		c-16.994,19.889-29.272,34.259-29.272,55.692c0,4.418,3.582,8,8,8s8-3.582,8-8c0-5.831,1.351-11.052,3.876-16.282
		c7.395,7.395,15.161,17.334,23.344,27.813c21.39,27.392,45.634,58.438,76.904,61.14c0.833,0.072,1.667,0.117,2.5,0.147
		c-41.794,29.414-95.762,47.174-154.621,47.174C197.111,475.974,143.133,458.206,101.334,428.78z"/>
	<path d="M255.984,347.982c-17.644,0-31.999,14.354-31.999,31.999c0,0.462,0.04,0.924,0.12,1.379
		c0.036,0.202,3.596,20.467,8.346,40.467c7.27,30.608,12.905,46.149,23.533,46.149c7.951,0,12.143-8.542,15.489-17.772
		c2.509-6.922,5.215-16.469,8.043-28.377c4.75-20,8.311-40.265,8.346-40.467c0.08-0.455,0.12-0.917,0.12-1.379
		C287.983,362.337,273.628,347.982,255.984,347.982z M255.999,446.094c-4.369-11.707-10.596-36.045-16.001-66.74
		c0.331-8.532,7.375-15.371,15.986-15.371c8.611,0,15.655,6.84,15.986,15.371C267.558,404.386,260.945,432.757,255.999,446.094z"/>
	<path d="M135.992,315.985c13.233,0,23.999-10.766,23.999-23.999s-10.766-23.999-23.999-23.999s-23.999,10.766-23.999,23.999
		S122.759,315.985,135.992,315.985z M135.992,283.987c4.411,0,7.999,3.588,7.999,7.999s-3.588,7.999-7.999,7.999
		s-7.999-3.588-7.999-7.999S131.581,283.987,135.992,283.987z"/>
	<path d="M375.977,315.985c13.233,0,23.999-10.766,23.999-23.999s-10.766-23.999-23.999-23.999s-23.999,10.766-23.999,23.999
		S362.744,315.985,375.977,315.985z M375.977,283.987c4.411,0,7.999,3.588,7.999,7.999s-3.588,7.999-7.999,7.999
		s-7.999-3.588-7.999-7.999S371.566,283.987,375.977,283.987z"/>
</g>
<g>
</g>
<g>
</g>
<g>
</g>
<g>
</g>
<g>
</g>
<g>
</g>
<g>
</g>
<g>
</g>
<g>
</g>
<g>
</g>
<g>
</g>
<g>
</g>
<g>
</g>
<g>
</g>
<g>
</g>
</svg>
