<?xml version="1.0" encoding="iso-8859-1"?>
<!-- Generator: Adobe Illustrator 17.1.0, SVG Export Plug-In . SVG Version: 6.00 Build 0)  -->
<!DOCTYPE svg PUBLIC "-//W3C//DTD SVG 1.1//EN" "http://www.w3.org/Graphics/SVG/1.1/DTD/svg11.dtd">
<svg version="1.1" id="Capa_1" xmlns="http://www.w3.org/2000/svg" xmlns:xlink="http://www.w3.org/1999/xlink" x="0px" y="0px"
	 viewBox="0 0 512 512" style="enable-background:new 0 0 512 512;" xml:space="preserve">
<g>
	<path d="M512,252c0-70.853-25.642-123.791-76.215-157.343C393.121,66.353,332.632,52,256,52S118.879,66.353,76.215,94.657
		C25.642,128.209,0,181.147,0,252c0,3.478,0.095,6.963,0.27,10.445c-0.275,1.032-0.35,2.136-0.179,3.26
		c0.183,1.198,0.397,2.374,0.624,3.54c2.428,30.266,10.607,59.664,17.651,80.37c4.41,12.963,17.515,47.752,25.09,52.979
		C92.445,436.394,179.846,460,256,460s163.555-23.606,212.543-57.406c7.575-5.227,20.68-40.016,25.09-52.979
		c7.044-20.706,15.223-50.105,17.651-80.37c0.227-1.166,0.442-2.341,0.624-3.54c0.171-1.124,0.096-2.228-0.179-3.26
		C511.905,258.963,512,255.478,512,252z M16,252c0-8.269,0.38-16.277,1.125-24.022c20.079-0.231,39.533-6.578,60.106-13.305
		c11.625-3.803,23.646-7.734,36.66-10.899c56.339-13.706,79.076-0.858,97.048,9.898c-2.556,1.899-5.219,3.889-8.008,5.978
		C185.732,232.531,159.742,252,152,252c-3.674,0-6.876,2.503-7.763,6.068c-0.887,3.566,0.769,7.277,4.015,8.999
		c0.33,0.176,33.161,17.659,46.091,30.59c1.664,1.664,3.545,3.614,5.537,5.68C214.803,318.81,235.24,340,256,340
		s41.197-21.19,56.12-36.663c1.992-2.065,3.873-4.016,5.537-5.68c12.93-12.931,45.761-30.414,46.091-30.59
		c3.246-1.722,4.902-5.433,4.015-8.999C366.876,254.503,363.674,252,360,252c-7.742,0-33.732-19.469-50.93-32.351
		c-2.789-2.089-5.452-4.079-8.008-5.978c17.971-10.756,40.706-23.602,97.048-9.898c13.014,3.165,25.035,7.097,36.66,10.899
		c20.573,6.728,40.027,13.074,60.106,13.305C495.62,235.723,496,243.731,496,252c0,4.997-0.219,10.064-0.616,15.158
		c-7.39,35.094-39.034,44.658-78.74,56.646c-8.888,2.683-18.078,5.458-27.261,8.637c-20.869,7.224-37.808,17.361-54.19,27.165
		C309.734,374.842,287.748,388,256,388s-53.734-13.158-79.193-28.395c-16.382-9.804-33.321-19.941-54.19-27.165
		c-9.183-3.179-18.373-5.954-27.261-8.637c-39.706-11.988-71.35-21.552-78.74-56.646C16.219,262.064,16,256.997,16,252z
		 M299.478,232.455c10.162,7.612,19.045,14.185,26.835,19.545H320c-11.267,0-20.742,3.9-29.906,7.673
		C280.148,263.767,269.864,268,256,268c-13.864,0-24.148-4.233-34.094-8.327C212.742,255.9,203.267,252,192,252h-6.313
		c7.79-5.36,16.673-11.933,26.835-19.545c14.936-11.188,37.506-28.096,43.439-28.456
		C261.971,204.359,284.542,221.267,299.478,232.455z M256,284c17.028,0,29.331-5.064,40.185-9.532
		C304.616,270.997,311.897,268,320,268h10.572c-8.933,5.731-18.208,12.322-24.229,18.343c-1.767,1.767-3.697,3.769-5.74,5.887
		C289.143,304.112,269.962,324,256,324c-13.962,0-33.143-19.888-44.603-31.771c-2.043-2.118-3.974-4.12-5.74-5.887
		c-6.021-6.02-15.296-12.612-24.229-18.343H192c8.103,0,15.384,2.997,23.815,6.468C226.669,278.936,238.972,284,256,284z
		 M85.06,107.99C125.057,81.455,182.57,68,256,68s130.943,13.455,170.94,39.99c22.039,14.621,39.006,33.499,50.431,56.107
		c7.206,14.259,12.325,30.267,15.355,47.837c-16.828-0.647-33.669-6.153-52.982-12.47c-11.916-3.896-24.236-7.926-37.853-11.238
		c-63.657-15.483-90.415,0.55-109.952,12.259c-1.716,1.028-3.366,2.012-4.967,2.931C272.804,193.429,263.107,188,256,188
		c-7.107,0-16.804,5.429-30.972,15.416c-1.601-0.919-3.25-1.903-4.967-2.931c-19.537-11.71-46.294-27.743-109.952-12.259
		c-13.616,3.313-25.937,7.342-37.853,11.238c-19.313,6.317-36.154,11.823-52.982,12.47c3.03-17.57,8.149-33.578,15.355-47.837
		C46.054,141.489,63.021,122.611,85.06,107.99z M458.859,389.834C412.17,421.748,328.906,444,256,444S99.83,421.748,53.141,389.834
		c-4.429-5.765-20.263-40.372-29.767-80.83c2.963,2.571,6.202,4.982,9.723,7.237c16.179,10.363,36.316,16.442,57.635,22.879
		c8.737,2.638,17.771,5.365,26.652,8.439c19.306,6.683,35.523,16.389,51.207,25.774C194.941,389.104,219.831,404,256,404
		s61.059-14.896,87.41-30.666c15.684-9.386,31.901-19.092,51.207-25.774c8.881-3.074,17.915-5.802,26.652-8.439
		c21.319-6.437,41.456-12.516,57.635-22.879c3.521-2.255,6.76-4.666,9.723-7.237C479.122,349.462,463.288,384.069,458.859,389.834z"
		/>
	<path d="M96,260c8.822,0,16-7.178,16-16s-7.178-16-16-16s-16,7.178-16,16S87.178,260,96,260z"/>
	<path d="M416,260c8.822,0,16-7.178,16-16s-7.178-16-16-16s-16,7.178-16,16S407.178,260,416,260z"/>
</g>
<g>
</g>
<g>
</g>
<g>
</g>
<g>
</g>
<g>
</g>
<g>
</g>
<g>
</g>
<g>
</g>
<g>
</g>
<g>
</g>
<g>
</g>
<g>
</g>
<g>
</g>
<g>
</g>
<g>
</g>
</svg>
