<?xml version="1.0" encoding="iso-8859-1"?>
<!-- Generator: Adobe Illustrator 17.1.0, SVG Export Plug-In . SVG Version: 6.00 Build 0)  -->
<!DOCTYPE svg PUBLIC "-//W3C//DTD SVG 1.1//EN" "http://www.w3.org/Graphics/SVG/1.1/DTD/svg11.dtd">
<svg version="1.1" id="Capa_1" xmlns="http://www.w3.org/2000/svg" xmlns:xlink="http://www.w3.org/1999/xlink" x="0px" y="0px"
	 viewBox="0 0 512.037 512.037" style="enable-background:new 0 0 512.037 512.037;" xml:space="preserve">
<g>
	<path d="M344.019,228.141c0.08,8.773,7.242,15.854,15.996,15.854c0.05,0,0.1,0,0.149-0.001c4.274-0.039,8.276-1.739,11.271-4.789
		c2.995-3.05,4.623-7.083,4.583-11.356c-0.039-4.273-1.739-8.276-4.789-11.27c-3.05-2.995-7.094-4.64-11.356-4.583
		C351.051,212.076,343.939,219.319,344.019,228.141z"/>
	<path d="M255.272,276.241c-48.521,0.441-87.625,41.656-87.169,91.874c0.113,12.422,3.993,22.116,11.532,28.811
		c1.735,1.541,3.601,2.872,5.575,4.018c9.569,33.515,40.38,59.293,71.231,59.293c0.166,0,0.336-0.001,0.503-0.002
		c14.854-0.135,30.418-6.718,43.823-18.538c12.741-11.234,22.175-26.07,26.755-41.967c1.98-1.189,3.851-2.558,5.578-4.148
		c7.41-6.828,11.109-16.607,10.996-29.066C343.641,316.296,303.841,275.779,255.272,276.241z M256.799,444.235
		c-0.107,0.001-0.214,0.001-0.321,0.001c-18.18,0-41.066-13.974-52.055-37.427c3.515,0.411,7.123,0.588,10.763,0.587
		c8.833,0,17.835-0.989,26.035-1.89c5.775-0.635,11.23-1.234,15.215-1.271c4.1-0.03,9.663,0.468,15.542,1.003
		c11.371,1.035,24.281,2.204,36.092,0.694C297.67,427.486,276.385,444.057,256.799,444.235z M322.258,383.815
		c-9.81,9.04-32.362,6.988-48.831,5.49c-3.161-0.287-6.235-0.568-9.135-0.771l-0.076-8.37c-0.04-4.393-3.613-7.927-7.998-7.927
		c-0.024,0-0.049,0-0.074,0c-4.418,0.04-7.967,3.654-7.927,8.072l0.076,8.382c-2.8,0.25-5.768,0.575-8.821,0.911
		c-16.519,1.815-39.142,4.302-49.214-4.641c-4.072-3.616-6.085-9.174-6.157-16.992c-0.376-41.396,31.616-75.368,71.315-75.729
		c0.213-0.002,0.424-0.003,0.637-0.003c39.41,0,71.668,33.25,72.042,74.423C328.169,374.517,326.259,380.128,322.258,383.815z"/>
	<path d="M223.064,331.747c-4.274,0.039-8.276,1.739-11.271,4.789c-2.995,3.05-4.623,7.083-4.583,11.355
		c0.039,4.274,1.739,8.276,4.789,11.271c3.014,2.959,6.988,4.584,11.205,4.584c0.05,0,0.101,0,0.15-0.001
		c4.274-0.039,8.276-1.739,11.271-4.789c2.995-3.05,4.623-7.083,4.583-11.356c-0.039-4.273-1.739-8.276-4.789-11.27
		C231.37,333.335,227.329,331.7,223.064,331.747z"/>
	<path d="M287.34,331.747c-4.274,0.039-8.277,1.739-11.271,4.789c-2.994,3.049-4.622,7.082-4.583,11.356
		c0.08,8.773,7.242,15.854,15.996,15.854c0.05,0,0.1,0,0.149-0.001c4.274-0.039,8.276-1.739,11.271-4.789
		c2.994-3.049,4.622-7.083,4.583-11.355c-0.039-4.274-1.739-8.276-4.789-11.271C295.646,333.335,291.628,331.7,287.34,331.747z"/>
	<path d="M152.164,211.996c-4.268-0.018-8.306,1.589-11.355,4.583c-3.049,2.995-4.75,6.997-4.789,11.271
		c-0.039,4.273,1.589,8.306,4.583,11.355c2.995,3.049,6.997,4.75,11.27,4.789c0.05,0,0.099,0.001,0.149,0.001
		c8.754,0,15.917-7.082,15.997-15.855C168.098,219.319,160.986,212.076,152.164,211.996z"/>
	<path d="M511.389,24.878c-1.428-3.371-4.967-5.347-8.584-4.79c-44.803,6.878-74.581,16.818-96.125,27.648
		c-0.101,0.047-0.204,0.085-0.304,0.137c-0.482,0.246-0.948,0.495-1.422,0.743c-20.513,10.573-33.422,21.931-44.957,32.083
		c-11.734,10.327-21.939,19.309-37.853,25.144c-14.249-3.678-38.591-5.776-66.094-5.68c-27.57-0.107-51.908,2.002-66.157,5.68
		c-15.914-5.835-26.119-14.817-37.853-25.144c-11.534-10.152-24.443-21.51-44.955-32.082c-0.474-0.249-0.942-0.498-1.424-0.745
		c-0.1-0.051-0.203-0.09-0.305-0.137c-21.544-10.83-51.322-20.77-96.124-27.648c-3.616-0.557-7.156,1.419-8.584,4.79
		c-1.049,2.474-1.365,3.221,3.347,21.471c2.314,8.961,6.204,22.848,11.593,38.111c13.845,39.207,29.637,65.747,46.938,78.882
		c17.964,13.638,37.439,12.897,56.32-2.149c6.051-4.822,9.056-5.489,9.899-5.575c0.114,0.169,0.28,0.456,0.469,0.908
		c-0.633,14.849-9.529,34.116-19.782,56.322C93.025,248.38,72.607,292.6,72.117,346.566c-0.441,48.482,20.122,87.584,59.464,113.079
		c31.569,20.458,75.262,31.963,123.029,32.397c0.024,0,0.048,0,0.073,0l2.361,0c47.801-0.434,91.558-11.938,123.211-32.391
		c39.473-25.506,60.105-64.61,59.664-113.084c-0.49-53.966-20.908-98.187-37.314-133.718
		c-10.253-22.207-19.149-41.473-19.782-56.322c0.188-0.452,0.354-0.739,0.469-0.908c0.843,0.086,3.848,0.753,9.899,5.575
		c18.88,15.045,38.355,15.789,56.321,2.149c17.301-13.136,33.093-39.675,46.938-78.882c5.39-15.263,9.279-29.149,11.593-38.111
		C512.754,28.099,512.438,27.352,511.389,24.878z M477.849,88.676c-14.34,37.337-30.309,60.382-46.179,66.643
		c-9.08,3.583-18.406,1.412-28.507-6.639c-9.774-7.789-17.888-10.529-24.805-8.368c-3.732,1.165-8.709,4.306-11.228,12.655
		c-0.233,0.772-0.348,1.576-0.34,2.383c0.167,18.459,9.956,39.658,21.29,64.205c15.764,34.141,35.382,76.629,35.842,127.156
		c0.394,43.324-17.219,76.801-52.349,99.5c-29.14,18.829-69.865,29.423-114.601,29.83h-2.251
		c-44.755-0.412-85.394-11.003-114.438-29.825c-35.009-22.686-52.56-56.165-52.166-99.506
		c0.459-50.527,20.078-93.016,35.842-127.156c11.333-24.547,21.122-45.746,21.29-64.205c0.007-0.807-0.107-1.61-0.34-2.383
		c-2.518-8.35-7.496-11.491-11.228-12.655c-6.918-2.159-15.03,0.579-24.805,8.368c-10.102,8.05-19.425,10.222-28.507,6.639
		C48.264,142.653,25.423,67.107,18.255,37.783c36.448,6.389,61.169,14.793,79.486,23.969c0.205,0.129,0.415,0.254,0.635,0.366
		c48.954,25.036,48.138,56.66,47.7,73.649c-0.032,1.245-0.062,2.402-0.071,3.461c-0.041,4.418,3.509,8.032,7.927,8.072
		c0.025,0,0.049,0,0.074,0c4.384,0,7.958-3.534,7.998-7.927c0.009-0.978,0.037-2.045,0.066-3.194
		c0.174-6.737,0.433-16.945-2.58-28.638c7.748,5.584,16.456,10.526,27.569,14.264c1.567,0.527,3.259,0.556,4.844,0.082
		c12.152-3.636,36.678-5.816,64.146-5.723c27.37-0.104,51.931,2.086,64.083,5.723c1.583,0.474,3.275,0.446,4.844-0.082
		c11.113-3.738,19.82-8.68,27.569-14.264c-3.013,11.694-2.753,21.901-2.58,28.638c0.029,1.149,0.057,2.216,0.066,3.194
		c0.04,4.394,3.613,7.927,7.998,7.927c0.024,0,0.05,0,0.074,0c4.418-0.04,7.967-3.654,7.927-8.072
		c-0.009-1.059-0.039-2.216-0.071-3.461c-0.438-16.989-1.254-48.613,47.7-73.649c0.213-0.109,0.415-0.229,0.614-0.354
		c18.305-9.173,43.005-17.575,79.413-23.965C490.845,49.352,485.514,68.717,477.849,88.676z"/>
	<path d="M264.583,412.163c-0.024,0-0.049,0-0.074,0l-16,0.145c-4.418,0.04-7.967,3.654-7.927,8.072
		c0.04,4.394,3.613,7.928,7.998,7.928c0.024,0,0.049,0,0.074,0l15.999-0.145c4.418-0.04,7.967-3.654,7.927-8.072
		C272.541,415.697,268.967,412.163,264.583,412.163z"/>
</g>
<g>
</g>
<g>
</g>
<g>
</g>
<g>
</g>
<g>
</g>
<g>
</g>
<g>
</g>
<g>
</g>
<g>
</g>
<g>
</g>
<g>
</g>
<g>
</g>
<g>
</g>
<g>
</g>
<g>
</g>
</svg>
