<?xml version="1.0" encoding="iso-8859-1"?>
<!-- Generator: Adobe Illustrator 17.1.0, SVG Export Plug-In . SVG Version: 6.00 Build 0)  -->
<!DOCTYPE svg PUBLIC "-//W3C//DTD SVG 1.1//EN" "http://www.w3.org/Graphics/SVG/1.1/DTD/svg11.dtd">
<svg version="1.1" id="Capa_1" xmlns="http://www.w3.org/2000/svg" xmlns:xlink="http://www.w3.org/1999/xlink" x="0px" y="0px"
	 viewBox="0 0 511.96 511.96" style="enable-background:new 0 0 511.96 511.96;" xml:space="preserve">
<g>
	<path d="M191.92,256.018c-8.823,0-16.001,7.178-16.001,16.001s7.178,16.001,16.001,16.001s16.001-7.178,16.001-16.001
		S200.743,256.018,191.92,256.018z"/>
	<path d="M319.943,288.021c8.823,0,16.001-7.178,16.001-16.001s-7.178-16.001-16.001-16.001s-16.001,7.178-16.001,16.001
		S311.12,288.021,319.943,288.021z"/>
	<path d="M468.332,196.901c44.723-57.777,45.806-98.237,42.471-117.213c-2.737-15.574-10.169-27.9-20.927-34.707
		c-19.549-12.37-50.463-2.186-94.503,31.136c-14.052,10.633-26.983,21.805-36.976,30.896
		c-31.605-12.618-66.044-19.027-102.465-19.027c-36.396,0-70.812,6.399-102.398,19c-9.989-9.086-22.907-20.247-36.946-30.869
		C72.547,42.795,41.634,32.612,22.084,44.982C11.326,51.788,3.894,64.114,1.157,79.688c-3.335,18.976-2.252,59.436,42.471,117.213
		c0.467,0.604,1.01,1.112,1.596,1.542c-17.143,29.65-29.335,61.037-29.335,97.58c0,37.997,20.393,72.21,60.611,101.691
		c40.322,29.557,89.066,45.612,114.533,52.552c0.101,0.028,0.202,0.038,0.303,0.062c3.352,2.183,6.953,4.269,10.819,6.244
		c20.893,10.679,44.024,15.482,53.776,15.482s32.883-4.804,53.776-15.482c3.866-1.976,7.467-4.062,10.819-6.244
		c0.101-0.023,0.202-0.034,0.303-0.062c25.467-6.939,74.211-22.995,114.533-52.552c40.219-29.48,60.611-63.694,60.611-101.691
		c0-36.523-12.179-67.896-29.307-97.531C467.28,198.052,467.846,197.528,468.332,196.901z M255.931,424.048
		c-17.649,0-32.007-10.769-32.007-24.006c0-7.301,5.553-16.004,32.007-16.004s32.007,8.704,32.007,16.004
		C287.939,413.279,273.58,424.048,255.931,424.048z M425.904,384.81c-26.358,19.321-56.705,32.611-81.011,41.183
		c4.667-8.017,7.055-16.713,7.055-25.95c0-5.771-0.609-13.044-1.877-20.638c8.862,5.614,19.138,8.634,29.884,8.634
		c14.96,0,29.025-5.826,39.604-16.404c10.579-10.579,16.405-24.644,16.405-39.604c0-14.96-5.826-29.025-16.405-39.604
		l-60.011-60.011c-10.579-10.579-24.644-16.405-39.604-16.405s-29.025,5.826-39.604,16.404
		c-12.788,12.788-18.629,31.082-15.625,48.937c0.733,4.357,4.86,7.295,9.216,6.562c4.357-0.733,7.295-4.859,6.562-9.216
		c-2.147-12.761,2.025-25.833,11.161-34.968c7.557-7.557,17.604-11.718,28.291-11.718s20.734,4.162,28.291,11.718l60.011,60.011
		c15.599,15.6,15.599,40.981,0,56.581c-7.557,7.557-17.604,11.718-28.291,11.718c-10.687,0-20.734-4.161-28.291-11.718
		l-51.509-51.51c-3.124-3.124-8.189-3.124-11.313,0c-3.125,3.124-3.125,8.189,0,11.313l39.096,39.097
		c5.257,12.001,8.011,29.425,8.011,40.821c0,20.786-18.229,34.466-33.522,42.282c-13.987,7.149-28.881,11.214-38.494,12.86v-15.702
		c22.675-3.185,40.007-19.653,40.007-39.44c0-11.341-5.535-20.234-16.006-25.718c-7.965-4.171-18.732-6.287-32.001-6.287
		c-13.269,0-24.036,2.115-32.001,6.287c-10.471,5.484-16.006,14.377-16.006,25.718c0,19.787,17.332,36.255,40.007,39.44v15.702
		c-9.613-1.646-24.507-5.71-38.494-12.86c-15.292-7.816-33.522-21.497-33.522-42.282c0-11.396,2.755-28.818,8.012-40.822
		l39.095-39.096c3.125-3.124,3.125-8.189,0-11.313c-3.124-3.124-8.189-3.124-11.313,0l-51.509,51.51
		c-7.557,7.557-17.604,11.718-28.291,11.718c-10.687,0-20.734-4.161-28.291-11.718C96.061,352.764,91.9,342.717,91.9,332.03
		c0-10.687,4.162-20.733,11.718-28.29l60.011-60.011c7.557-7.557,17.604-11.718,28.291-11.718s20.734,4.162,28.291,11.719
		c9.135,9.135,13.308,22.207,11.161,34.968c-0.733,4.357,2.205,8.483,6.562,9.216c4.357,0.734,8.483-2.205,9.216-6.562
		c3.003-17.854-2.838-36.148-15.626-48.936c-10.579-10.579-24.644-16.405-39.604-16.405s-29.025,5.826-39.604,16.404l-60.011,60.012
		C81.726,303.004,75.9,317.07,75.9,332.03c0,14.961,5.826,29.025,16.405,39.604c10.579,10.579,24.644,16.404,39.604,16.404
		c10.746,0,21.022-3.021,29.883-8.634c-1.268,7.594-1.877,14.867-1.877,20.638c0,9.237,2.388,17.934,7.055,25.95
		c-24.306-8.572-54.653-21.861-81.011-41.183c-35.878-26.3-54.07-56.172-54.07-88.787c0-49.881,25.785-90.607,54.518-131.372
		c17.463-24.118,7.425-48.313-0.329-57.743c-2.805-3.412-7.864-3.925-11.277-1.119c-3.413,2.806-3.921,7.827-1.115,11.24
		c0.589,0.737,14.252,18.265-0.263,38.271c-0.021,0.029-0.042,0.059-0.063,0.088c-6.705,9.512-13.257,19.031-19.397,28.678
		c-28.331-37.599-41.817-74.479-37.049-101.61c1.948-11.081,6.821-19.588,13.724-23.955c12.496-7.906,40.258,3.131,76.168,30.279
		c29.711,22.461,55.141,48.315,55.394,48.574c3.092,3.155,8.156,3.206,11.313,0.114c3.155-3.092,3.207-8.156,0.115-11.313
		c-0.321-0.328-2.874-2.923-7.109-7.011c27.748-10.063,57.763-15.16,89.411-15.16c31.674,0,61.713,5.106,89.48,15.187
		c-4.218,4.071-6.761,6.657-7.081,6.984c-3.092,3.156-3.04,8.221,0.115,11.313c3.156,3.092,8.221,3.041,11.313-0.114
		c0.253-0.259,25.683-26.113,55.394-48.574c35.911-27.148,63.673-38.185,76.168-30.279c6.902,4.367,11.776,12.875,13.724,23.955
		c4.771,27.147-8.735,64.056-37.102,101.68c-6.153-9.671-12.719-19.213-19.44-28.748c-0.021-0.029-0.042-0.059-0.063-0.088
		c-14.462-19.935-0.949-37.409-0.27-38.263c2.776-3.412,2.277-8.43-1.125-11.228c-3.413-2.806-8.454-2.314-11.26,1.099
		c-7.753,9.43-17.792,33.625-0.329,57.743c28.733,40.764,54.518,81.49,54.518,131.372
		C479.974,328.638,461.782,358.51,425.904,384.81z"/>
</g>
<g>
</g>
<g>
</g>
<g>
</g>
<g>
</g>
<g>
</g>
<g>
</g>
<g>
</g>
<g>
</g>
<g>
</g>
<g>
</g>
<g>
</g>
<g>
</g>
<g>
</g>
<g>
</g>
<g>
</g>
</svg>
