<?xml version="1.0" encoding="iso-8859-1"?>
<!-- Generator: Adobe Illustrator 17.1.0, SVG Export Plug-In . SVG Version: 6.00 Build 0)  -->
<!DOCTYPE svg PUBLIC "-//W3C//DTD SVG 1.1//EN" "http://www.w3.org/Graphics/SVG/1.1/DTD/svg11.dtd">
<svg version="1.1" id="Capa_1" xmlns="http://www.w3.org/2000/svg" xmlns:xlink="http://www.w3.org/1999/xlink" x="0px" y="0px"
	 viewBox="0 0 512 512" style="enable-background:new 0 0 512 512;" xml:space="preserve">
<path d="M504,248.195H335.599c-0.611-6.123-1.933-12.037-3.851-17.678l108.776-45.057c4.082-1.69,6.021-6.37,4.33-10.452
	c-1.691-4.083-6.373-6.021-10.453-4.329l-109.303,45.275c-2.61-4.464-5.637-8.651-9.032-12.512l120.04-120.041
	c3.125-3.125,3.125-8.189,0-11.314c-3.124-3.123-8.189-3.123-11.313,0L304.36,192.521c-3.972-3.024-8.236-5.679-12.738-7.929
	l64.38-155.427c1.691-4.082-0.248-8.762-4.33-10.452c-4.081-1.689-8.762,0.247-10.453,4.329l-64.564,155.871
	c-4.101-1.097-8.326-1.885-12.656-2.317V32.195c0-4.418-3.582-8-8-8s-8,3.582-8,8v144.401c-4.955,0.495-9.771,1.459-14.42,2.819
	L162.754,8.427c-1.691-4.082-6.373-6.02-10.453-4.329c-4.082,1.69-6.021,6.37-4.33,10.452l70.78,170.878
	c-4.655,2.46-9.041,5.361-13.098,8.656l-95.997-95.997c-3.124-3.123-8.189-3.123-11.313,0c-3.125,3.125-3.125,8.189,0,11.314
	l95.942,95.942c-3.333,4.039-6.273,8.412-8.773,13.056L43.56,159.6c-4.081-1.689-8.761,0.247-10.453,4.329
	c-1.691,4.082,0.248,8.762,4.33,10.452L179.39,233.18c-1.454,4.832-2.473,9.849-2.989,15.015H8c-4.418,0-8,3.582-8,8
	c0,4.418,3.582,8,8,8h168.401c0.424,4.246,1.186,8.393,2.25,12.419L66.554,323.047c-4.082,1.69-6.021,6.37-4.33,10.452
	c1.276,3.081,4.255,4.94,7.394,4.94c1.021,0,2.058-0.196,3.059-0.611l111.609-46.23c2.272,4.583,4.967,8.92,8.041,12.957
	L72.343,424.538c-3.125,3.125-3.125,8.189,0,11.314c1.562,1.562,3.609,2.343,5.657,2.343s4.095-0.781,5.657-2.343l119.59-119.59
	c3.922,3.449,8.182,6.517,12.725,9.154l-64.51,155.741c-1.691,4.082,0.248,8.762,4.33,10.452c1.001,0.415,2.038,0.611,3.058,0.611
	c3.139,0,6.118-1.859,7.395-4.94l64.31-155.258c5.572,1.875,11.406,3.169,17.446,3.772v136.401c0,4.418,3.582,8,8,8s8-3.582,8-8
	V335.794c5.304-0.529,10.456-1.583,15.407-3.1l70.78,170.879c1.276,3.081,4.255,4.94,7.394,4.94c1.021,0,2.058-0.196,3.059-0.611
	c4.082-1.69,6.021-6.37,4.33-10.452l-70.812-170.957c4.416-2.406,8.577-5.221,12.442-8.385l97.308,97.308
	c1.562,1.562,3.609,2.343,5.657,2.343s4.095-0.781,5.657-2.343c3.125-3.125,3.125-8.189,0-11.314l-97.307-97.307
	c3.159-3.859,5.97-8.014,8.374-12.421l127.139,52.662c1.001,0.415,2.038,0.611,3.059,0.611c3.139,0,6.118-1.859,7.394-4.94
	c1.691-4.082-0.248-8.762-4.33-10.452l-127.056-52.628c1.522-4.958,2.577-10.118,3.107-15.431H504c4.418,0,8-3.582,8-8
	C512,251.777,508.418,248.195,504,248.195z M277.657,266.538c-3.124-3.123-8.189-3.123-11.313,0c-3.125,3.125-3.125,8.189,0,11.314
	l28.869,28.869c-3.641,2.833-7.588,5.288-11.794,7.291c-0.951,0.025-1.912,0.213-2.843,0.599c-0.969,0.401-1.813,0.975-2.52,1.666
	c-4.472,1.646-9.182,2.79-14.056,3.401v-23.482c0-4.418-3.582-8-8-8s-8,3.582-8,8v23.482c-3.887-0.487-7.671-1.312-11.311-2.466
	l3.916-9.453c1.691-4.082-0.248-8.762-4.33-10.452c-4.084-1.691-8.762,0.247-10.453,4.329l-3.664,8.845
	c-9.754-6.103-17.746-14.757-23.048-25.023l12.277-5.085c4.082-1.69,6.021-6.37,4.33-10.452c-1.691-4.082-6.372-6.02-10.453-4.329
	l-11.652,4.826c-1.043-4.577-1.613-9.333-1.613-14.222c0-14.882,5.12-28.583,13.672-39.465l29.122,29.122
	c1.562,1.562,3.609,2.343,5.657,2.343c2.047,0,4.095-0.781,5.657-2.343c3.125-3.125,3.125-8.189,0-11.314l-29.067-29.067
	c8.802-6.776,19.405-11.309,30.96-12.758v15.482c0,4.418,3.582,8,8,8s8-3.582,8-8v-15.482c19.422,2.435,36.158,13.596,46.151,29.433
	l-25.289,10.475c-4.082,1.69-6.021,6.37-4.33,10.452c1.276,3.081,4.255,4.94,7.394,4.94c1.021,0,2.058-0.196,3.059-0.611
	l25.952-10.75c1.982,6.165,3.063,12.729,3.063,19.543c0,14.767-5.041,28.371-13.474,39.212L277.657,266.538z"/>
<g>
</g>
<g>
</g>
<g>
</g>
<g>
</g>
<g>
</g>
<g>
</g>
<g>
</g>
<g>
</g>
<g>
</g>
<g>
</g>
<g>
</g>
<g>
</g>
<g>
</g>
<g>
</g>
<g>
</g>
</svg>
