<?xml version="1.0" encoding="iso-8859-1"?>
<!-- Generator: Adobe Illustrator 17.1.0, SVG Export Plug-In . SVG Version: 6.00 Build 0)  -->
<!DOCTYPE svg PUBLIC "-//W3C//DTD SVG 1.1//EN" "http://www.w3.org/Graphics/SVG/1.1/DTD/svg11.dtd">
<svg version="1.1" id="Capa_1" xmlns="http://www.w3.org/2000/svg" xmlns:xlink="http://www.w3.org/1999/xlink" x="0px" y="0px"
	 viewBox="0 0 512 512" style="enable-background:new 0 0 512 512;" xml:space="preserve">
<g>
	<path d="M455.727,192.422c0.165-1.447,0.273-2.915,0.273-4.422c0-43.097-21.049-83.494-59.27-113.753
		C359.059,44.424,309.08,28,256,28S152.941,44.424,115.27,74.247C77.049,104.506,56,144.903,56,188c0,1.508,0.108,2.976,0.273,4.422
		C17.174,231.86,0,259.627,0,348c0,42.987,26.688,78.498,77.18,102.694C122.648,472.483,184.483,484,256,484
		s133.352-11.517,178.82-33.306C485.312,426.498,512,390.987,512,348C512,259.627,494.826,231.86,455.727,192.422z M256,44
		c101.458,0,184,64.598,184,144c0,9.7-6.317,18.481-13.631,28.649C417.759,228.618,408,242.184,408,260
		c0,34.593-18.904,45.384-38.919,56.81c-6.355,3.627-12.815,7.325-18.544,11.824c-3.506-24.013-13.169-49.305-27.303-70.597
		C303.811,228.779,279.306,212,256,212s-47.811,16.779-67.233,46.036c-14.135,21.292-23.797,46.584-27.303,70.597
		c-5.73-4.499-12.19-8.197-18.544-11.824C122.904,305.384,104,294.593,104,260c0-17.816-9.759-31.382-18.369-43.351
		C78.317,206.481,72,197.7,72,188C72,108.598,154.542,44,256,44z M176.001,348.045c0-0.015-0.001-0.03-0.001-0.045
		c0-3.59,0.19-7.26,0.549-10.98c15.513-6.51,37.141-7.33,40.398-1.245c2.464,4.603,9.034,16.44,16.813,26.941
		C242.733,374.831,249.385,380,256,380s13.267-5.169,22.241-17.283c7.779-10.501,14.349-22.339,16.813-26.941
		c3.257-6.084,24.884-5.265,40.398,1.245C335.81,340.74,336,344.41,336,348c0,0.015-0.001,0.03-0.001,0.045c0,0.004,0,0.007,0,0.011
		c-0.013,24.048-8.202,42.61-24.343,55.169C297.753,414.043,277.987,420,256,420s-41.753-5.957-55.656-16.774
		c-16.141-12.559-24.33-31.121-24.343-55.169C176.001,348.053,176.001,348.049,176.001,348.045z M179.513,319.161
		c4.201-18.035,12.011-36.35,22.584-52.275C218.261,242.537,238.412,228,256,228s37.739,14.537,53.903,38.886
		c10.572,15.926,18.383,34.24,22.584,52.275c-18.082-5.064-43.288-6.352-51.54,9.064c-11.278,21.068-21.102,32.662-24.947,35.374
		c-3.845-2.712-13.669-14.306-24.947-35.374C222.801,312.809,197.595,314.097,179.513,319.161z M427.905,436.266
		C385.202,456.729,324.151,468,256,468s-129.202-11.271-171.905-31.734C27.814,409.296,16,373.38,16,348
		c0-78.826,12.75-103.958,45.91-138.455c3.051,5.749,6.917,11.143,10.733,16.449C80.541,236.972,88,247.341,88,260
		c0,43.882,26.053,58.755,46.987,70.705c10.677,6.095,19.984,11.41,25.038,19.483c0.522,27.853,11.036,50.525,30.494,65.665
		C207.217,428.845,230.472,436,256,436s48.783-7.155,65.481-20.147c19.458-15.139,29.972-37.812,30.494-65.665
		c5.055-8.073,14.361-13.388,25.038-19.483C397.947,318.755,424,303.882,424,260c0-12.659,7.459-23.028,15.357-34.007
		c3.816-5.305,7.682-10.7,10.733-16.449C483.25,244.042,496,269.174,496,348C496,393.982,458.97,421.38,427.905,436.266z"/>
	<path d="M384,284c9.271,0,16-10.094,16-24s-6.729-24-16-24s-16,10.094-16,24S374.729,284,384,284z"/>
	<path d="M128,284c9.271,0,16-10.094,16-24s-6.729-24-16-24s-16,10.094-16,24S118.729,284,128,284z"/>
</g>
<g>
</g>
<g>
</g>
<g>
</g>
<g>
</g>
<g>
</g>
<g>
</g>
<g>
</g>
<g>
</g>
<g>
</g>
<g>
</g>
<g>
</g>
<g>
</g>
<g>
</g>
<g>
</g>
<g>
</g>
</svg>
