<?xml version="1.0" encoding="iso-8859-1"?>
<!-- Generator: Adobe Illustrator 17.1.0, SVG Export Plug-In . SVG Version: 6.00 Build 0)  -->
<!DOCTYPE svg PUBLIC "-//W3C//DTD SVG 1.1//EN" "http://www.w3.org/Graphics/SVG/1.1/DTD/svg11.dtd">
<svg version="1.1" id="Capa_1" xmlns="http://www.w3.org/2000/svg" xmlns:xlink="http://www.w3.org/1999/xlink" x="0px" y="0px"
	 viewBox="0 0 512 512" style="enable-background:new 0 0 512 512;" xml:space="preserve">
<g>
	<path d="M487.187,210.204c-3.366-7.992-7.181-17.052-7.187-19.638c0-39.832-23.775-77.021-66.945-104.715
		C370.985,58.863,315.208,44,256,44S141.015,58.863,98.945,85.852C55.775,113.546,32,150.734,32,190.566
		c-0.005,2.586-3.821,11.646-7.187,19.638C14.932,233.666,0,269.122,0,309.887c0,43.005,27.167,83.132,76.495,112.99
		C124.567,451.975,188.317,468,256,468s131.433-16.025,179.505-45.123C484.833,393.019,512,352.892,512,309.887
		C512,269.122,497.068,233.666,487.187,210.204z M427.22,409.188C381.611,436.796,320.804,452,256,452
		s-125.611-15.204-171.22-42.812C40.427,382.342,16,347.076,16,309.887c0-37.533,14.177-71.196,23.559-93.473
		C44.642,204.345,48,196.372,48,190.566c0-6.21,0.707-12.359,2.08-18.415c1.573,9.214,4.771,17.967,9.588,25.322
		c11.351,17.331,30.284,25.313,53.313,22.467c14.404-1.775,25.488,0.661,32.94,7.25C158.4,238.223,160,259.07,160,276
		c0,4.418,3.582,8,8,8s8-3.582,8-8c0-20.287-2.214-45.53-19.481-60.797c-11.038-9.76-26.349-13.508-45.499-11.143
		c-17.138,2.114-29.91-3.051-37.967-15.354c-10.321-15.759-10.745-42.063-0.946-58.636c0.169-0.285,0.311-0.578,0.441-0.874
		c9.245-10.802,20.98-20.861,35.037-29.879C147.108,73.964,199.817,60,256,60s108.892,13.964,148.416,39.318
		c14.057,9.018,25.792,19.077,35.037,29.879c0.13,0.296,0.272,0.589,0.441,0.874c9.799,16.573,9.375,42.877-0.946,58.636
		c-8.058,12.303-20.83,17.472-37.967,15.354c-19.154-2.363-34.461,1.384-45.499,11.143C338.214,230.47,336,255.713,336,276
		c0,4.418,3.582,8,8,8s8-3.582,8-8c0-16.93,1.6-37.777,14.08-48.811c7.453-6.589,18.533-9.026,32.94-7.25
		c23.027,2.844,41.962-5.136,53.313-22.467c4.817-7.355,8.014-16.108,9.588-25.322c1.373,6.056,2.08,12.206,2.08,18.415
		c0,5.806,3.358,13.778,8.441,25.848C481.823,238.69,496,272.354,496,309.887C496,347.076,471.573,382.342,427.22,409.188z"/>
	<path d="M128,236c-9.271,0-16,10.094-16,24s6.729,24,16,24s16-10.094,16-24S137.271,236,128,236z"/>
	<path d="M384,236c-9.271,0-16,10.094-16,24s6.729,24,16,24s16-10.094,16-24S393.271,236,384,236z"/>
	<path d="M344,316h-8.43c-2.254-21.438-13.463-42.818-32.145-60.966C287.298,239.37,267.354,228,256,228
		s-31.298,11.37-47.424,27.034c-18.682,18.148-29.891,39.527-32.145,60.966H168c-4.418,0-8,3.582-8,8s3.582,8,8,8h17.517
		c11.969,47.992,55.693,48,70.483,48s58.514-0.008,70.483-48H344c4.418,0,8-3.582,8-8S348.418,316,344,316z M219.724,266.511
		C235.154,251.522,251.298,244,256,244s20.846,7.522,36.276,22.511c9.291,9.026,24.222,26.738,27.192,49.489H296
		c-18.2,0-26.073,6.772-31.822,11.717c-3.7,3.183-5.134,4.283-8.178,4.283s-4.478-1.101-8.178-4.283
		C242.073,322.772,234.2,316,216,316h-23.468C195.502,293.249,210.433,275.536,219.724,266.511z M256,364
		c-21.964,0-45.07-4.046-53.876-32H216c12.265,0,16.697,3.812,21.389,7.848C241.612,343.479,246.868,348,256,348
		s14.388-4.521,18.611-8.152C279.303,335.812,283.735,332,296,332h13.876C301.07,359.954,277.964,364,256,364z"/>
</g>
<g>
</g>
<g>
</g>
<g>
</g>
<g>
</g>
<g>
</g>
<g>
</g>
<g>
</g>
<g>
</g>
<g>
</g>
<g>
</g>
<g>
</g>
<g>
</g>
<g>
</g>
<g>
</g>
<g>
</g>
</svg>
