<?xml version="1.0" encoding="iso-8859-1"?>
<!-- Generator: Adobe Illustrator 17.1.0, SVG Export Plug-In . SVG Version: 6.00 Build 0)  -->
<!DOCTYPE svg PUBLIC "-//W3C//DTD SVG 1.1//EN" "http://www.w3.org/Graphics/SVG/1.1/DTD/svg11.dtd">
<svg version="1.1" id="Capa_1" xmlns="http://www.w3.org/2000/svg" xmlns:xlink="http://www.w3.org/1999/xlink" x="0px" y="0px"
	 viewBox="0 0 512 512" style="enable-background:new 0 0 512 512;" xml:space="preserve">
<g>
	<path d="M342.127,69.969C348.205,63.413,352,54.198,352,44c0-19.851-14.355-36-32-36c-6.267,0-12.114,2.045-17.056,5.562
		C288.899,4.684,272.733,0,256,0c-16.762,0-32.896,4.685-46.939,13.566C204.118,10.047,198.269,8,192,8c-17.645,0-32,16.149-32,36
		c0,10.198,3.795,19.413,9.873,25.969c-0.038,0.146-0.082,0.29-0.113,0.44C168.592,76.163,168,82.081,168,88
		c0,101.001,22.992,284.954,48.239,385.94C222.285,498.128,236.778,512,256,512c19.348,0,33.844-13.886,39.771-38.098
		C318.537,380.898,344,196.104,344,88c0-5.917-0.592-11.834-1.759-17.588C342.21,70.261,342.166,70.116,342.127,69.969z M256,496
		c-15.193,0-21.601-15.716-24.113-25.451c2.757,0.951,5.526,1.412,7.988,1.45c0.042,0,0.085,0.001,0.127,0.001
		c4.36,0,7.928-3.5,7.997-7.875c0.069-4.418-3.457-8.055-7.874-8.124c-0.021,0-2.364-0.142-4.503-1.228
		c-0.575-0.292-1.154-0.649-1.676-1.14C237.268,451.14,244.798,448,256,448c11.173,0,18.692,3.124,22.028,5.614
		c-1.778,1.836-4.389,2.315-6.244,2.389l0.091-0.002l0.25,15.998c2.462-0.038,5.232-0.5,7.991-1.451
		C277.665,480.266,271.328,496,256,496z M287.01,440.068c-0.17,0.021-0.338,0.046-0.504,0.077C279.284,435.099,268.487,432,256,432
		s-23.284,3.099-30.505,8.145c-0.217-0.041-0.436-0.077-0.659-0.1C202.713,336.79,184,178.638,184,88
		c0-3.01,0.209-6.014,0.578-8.988C186.962,79.652,189.445,80,192,80c4.418,0,8-3.582,8-8s-3.582-8-8-8c-8.822,0-16-8.972-16-20
		s7.178-20,16-20s16,8.972,16,20c0,4.418,3.582,8,8,8s8-3.582,8-8c0-6.614-1.601-12.812-4.379-18.144
		C230.622,19.395,243.082,16,256,16c12.896,0,25.373,3.401,36.377,9.86C289.6,31.191,288,37.388,288,44c0,4.418,3.582,8,8,8
		s8-3.582,8-8c0-11.028,7.178-20,16-20s16,8.972,16,20s-7.178,20-16,20c-4.418,0-8,3.582-8,8s3.582,8,8,8
		c2.555,0,5.038-0.348,7.422-0.988C327.791,81.987,328,84.991,328,88C328,184.357,307.547,342.321,287.01,440.068z"/>
	<path d="M216,128c-8.822,0-16,7.178-16,16s7.178,16,16,16s16-7.178,16-16S224.822,128,216,128z"/>
	<path d="M296,128c-8.822,0-16,7.178-16,16s7.178,16,16,16s16-7.178,16-16S304.822,128,296,128z"/>
</g>
<g>
</g>
<g>
</g>
<g>
</g>
<g>
</g>
<g>
</g>
<g>
</g>
<g>
</g>
<g>
</g>
<g>
</g>
<g>
</g>
<g>
</g>
<g>
</g>
<g>
</g>
<g>
</g>
<g>
</g>
</svg>
