<?xml version="1.0" encoding="iso-8859-1"?>
<!-- Generator: Adobe Illustrator 17.1.0, SVG Export Plug-In . SVG Version: 6.00 Build 0)  -->
<!DOCTYPE svg PUBLIC "-//W3C//DTD SVG 1.1//EN" "http://www.w3.org/Graphics/SVG/1.1/DTD/svg11.dtd">
<svg version="1.1" id="Capa_1" xmlns="http://www.w3.org/2000/svg" xmlns:xlink="http://www.w3.org/1999/xlink" x="0px" y="0px"
	 viewBox="0 0 511.98 511.98" style="enable-background:new 0 0 511.98 511.98;" xml:space="preserve">
<g>
	<path d="M296.007,110.533c-2.1,0-4.17,0.86-5.66,2.351c-1.49,1.49-2.34,3.55-2.34,5.66c0,2.1,0.85,4.16,2.34,5.649
		c1.49,1.49,3.55,2.34,5.66,2.34s4.17-0.85,5.66-2.34c1.49-1.489,2.34-3.55,2.34-5.649c0-2.11-0.85-4.17-2.34-5.66
		C300.177,111.394,298.117,110.533,296.007,110.533z"/>
	<path d="M415.991,102.538c-0.049,0-0.097,0.006-0.147,0.007c-0.044,0-0.088-0.003-0.132-0.002
		c-12.472,0.436-39.488,0.581-62.179-1.521c76.577-3.666,130.699-13.422,153.566-23.111c4.068-1.724,5.969-6.419,4.245-10.487
		c-1.725-4.069-6.421-5.97-10.487-4.245C474.302,74.43,396.368,86.54,288.009,86.54c-0.621,0-1.223,0.078-1.803,0.211
		c-22.023-1.626-46.033,1.239-72.298,4.377c-9.861,1.179-20.057,2.397-30.672,3.449c-15.492,1.536-24.428,5.833-29.964,11.611
		c-4.073-6.266-11.331-11.65-25.239-11.65c-1.403,0-3.284-0.027-5.548-0.06c-41.247-0.586-85.035,1.29-97.121,19.66
		c-15.34,23.315-17.212,42.87-17.284,43.69c-0.189,2.149,0.521,4.285,1.928,5.921s3.438,2.634,5.592,2.768
		c0.05,0.003,0.171,0.011,0.354,0.028C13.481,182.869-1.261,281.118,0.087,295.27c0.922,9.686,4.585,14.696,8.006,17.288
		c0.898,22.684,16.085,67.616,34.671,83.949c1.519,1.336,3.402,1.991,5.278,1.991c2.221,0,4.431-0.92,6.012-2.719
		c2.917-3.319,2.59-8.374-0.729-11.291c-13.504-11.868-27.917-50.376-29.177-71.171c2.386-1.426,4.594-3.532,6.477-6.252
		c4.766-6.884,17.78-51.415,26.498-82.457c7.618,4.016,20.661,13.347,22.984,30.956c0.531,4.025,3.968,6.955,7.921,6.955
		c0.349,0,0.701-0.022,1.056-0.069c4.38-0.578,7.463-4.598,6.885-8.978c-3.589-27.215-24.663-40-34.484-44.543
		c0.259-0.939,0.507-1.843,0.745-2.709c5.349,1.642,11.267,2.339,17.42,2.339c2.715,0,5.474-0.146,8.245-0.386
		c5.073,3.75,24.138,19.134,24.138,38.346c0,4.418,3.582,8,8,8s8-3.582,8-8c0-18.009-10.576-32.562-19.694-41.769
		c4.091-0.972,8.031-2.053,11.698-3.163c5.127,1.892,19.439,9.009,24.176,30.646c0.819,3.739,4.13,6.291,7.807,6.291
		c0.567,0,1.143-0.061,1.719-0.188c4.316-0.944,7.049-5.209,6.104-9.525c-3.757-17.158-12.217-27.731-20.214-34.144
		c2.452-1.003,4.781-2.025,6.973-3.075c7.901,2.646,24.515,9.921,29.852,25.522c1.137,3.322,4.243,5.412,7.569,5.412
		c0.858,0,1.732-0.14,2.59-0.433c4.181-1.431,6.41-5.979,4.98-10.159c-5.485-16.032-18.279-25.565-28.979-30.971
		c2.406-2.423,4.295-5.047,5.603-7.945c11.953,9.566,27.345,18.386,44.84,25.56c25.083,10.283,51.702,15.947,74.95,15.947
		c4.588,0,7.602,3.165,8.989,5.052c3.409,4.634,4.445,10.979,2.704,16.563c-0.045,0.146-0.087,0.293-0.124,0.441l-18.468,73.87
		c-5.226,2.517-12.291,4.747-15.754,3.627c-0.662-0.213-1.101-0.512-1.529-1.477c-1.79-4.04-6.518-5.862-10.555-4.073
		c-4.04,1.791-5.863,6.517-4.073,10.556c2.232,5.037,6.123,8.572,11.252,10.224c2.299,0.741,4.713,1.05,7.143,1.05
		c10.827-0.001,21.95-6.141,24.462-7.614c1.854-1.088,3.191-2.875,3.713-4.96l19.279-77.115c3.125-10.291,1.156-21.983-5.163-30.572
		c-5.41-7.354-13.383-11.57-21.877-11.57c-10.412,0-21.607-1.269-33.05-3.679c1.192,0.015,2.394,0.022,3.609,0.022
		c0.4,0,0.806-0.001,1.208-0.002c23.988-0.096,45.057-3.019,51.93-4.08l33.992,14.066c3.081,5.534,10.947,19.64,18.833,33.603
		c5.92,10.481,10.697,18.84,14.199,24.843c2.104,3.608,3.778,6.414,4.974,8.342c2.193,3.536,4.266,6.876,8.957,6.876
		c4.418,0,8-3.582,8-8c0-2.16-0.857-4.121-2.249-5.561c-3.818-5.534-26.406-45.691-40.085-70.313
		c-0.877-1.58-2.264-2.816-3.934-3.508l-38.661-15.998c-1.395-0.575-2.925-0.749-4.413-0.492c-3.451,0.592-7.721,1.215-12.573,1.795
		c6.448-3.256,11.383-6.236,14.291-8.097l74.219,14.361c18.171,18.337,29.986,28.419,35.129,29.977
		c0.773,0.234,1.554,0.346,2.322,0.346c3.433,0,6.607-2.228,7.654-5.683c1.247-4.118-0.987-8.462-5.01-9.869
		c-3.875-1.993-18.748-15.894-30.443-27.768c-1.135-1.152-2.592-1.934-4.18-2.241l-79.867-15.454
		c-2.139-0.414-4.349,0.062-6.128,1.315c-0.355,0.249-27.518,19.099-60.139,23.093c2.379-0.96,4.49-2.145,6.32-3.562
		c19.721-15.268,60.721-28.855,96.864-38.64c0.707,0.205,1.451,0.32,2.224,0.32c11.496,0,38.28,2.573,64.956,9.664
		c31.689,8.423,54.012,20.537,64.555,35.033c1.444,1.985,6.114,10.707,5.595,39.582c-0.361,20.086-3.198,45.202-7.988,70.72
		c-10.587,56.406-28.129,103.197-44.69,119.206c-12.617,12.196-57.005,21.108-118.739,23.838
		c-61.063,2.702-130.739-1.032-186.383-9.986c-4.364-0.699-8.467,2.267-9.169,6.628c-0.702,4.361,2.265,8.467,6.627,9.169
		c44.535,7.166,97.864,11.05,148.8,11.049c13.862,0,27.55-0.287,40.832-0.875c30.91-1.366,58.518-4.354,79.84-8.637
		c24.594-4.941,40.724-11.379,49.313-19.682c28.697-27.74,44.987-104.801,49.296-127.758c8.808-46.927,13.331-103.794-0.393-122.664
		c-19.736-27.138-64.437-40.587-99.353-46.727c11.341-2.52,19.304-4.099,21.655-4.557c37.719,0.028,72.061,2.178,79.588,26.371
		c1.066,3.428,4.226,5.625,7.636,5.625c0.787,0,1.588-0.117,2.379-0.363c4.219-1.313,6.575-5.797,5.262-10.016
		C499.913,102.538,449.41,102.538,415.991,102.538z M128.033,110.539c11.749,0,12.878,4.653,14.928,13.101
		c0.379,1.563,0.787,3.167,1.276,4.737c0.72,3.708,3.73,18.024,8.565,25.724c0.311,0.892,0.602,1.755,0.861,2.597
		c0.081,0.883,0.299,1.757,0.675,2.583c1.091,5.328-0.273,9.907-9.589,15.284c-0.327-0.03-0.65-0.036-0.972-0.026
		c-1.325-20.276-7.686-29.433-13.375-37.609c-4.734-6.803-8.917-12.823-10.059-26.479c0.664,0.009,1.307,0.018,1.913,0.026
		C124.615,110.512,126.573,110.539,128.033,110.539z M118.01,185.469c-0.293,0.076-0.582,0.164-0.863,0.271
		c-9.051,2.838-17.507,4.812-25.071,5.885c-0.508-0.297-1.053-0.547-1.639-0.731c-5.138-1.615-9.491-5.909-12.258-12.091
		c-4.286-9.579-3.856-21.905,1.15-32.973c6.406-14.162,8.688-25.937,6.857-34.868c6.27-0.351,12.455-0.511,18.116-0.567
		c1.333,18.943,7.472,27.779,12.966,35.673c5.727,8.229,10.677,15.355,10.759,35.945c-0.871,0.323-1.759,0.648-2.685,0.979
		C122.861,183.879,120.416,184.703,118.01,185.469z M38.73,122.934c1.158-1.76,6.766-7.495,31.155-10.55
		c1.889,4.051,1.025,13.24-5.134,26.853c-6.966,15.399-7.396,32.203-1.177,46.102c0.864,1.93,1.837,3.755,2.91,5.468
		c-1.134-0.373-2.193-0.801-3.157-1.294c-3.942-2.014-6.357-4.943-7.601-9.219c-5.391-18.53-20.431-25.544-30.268-28.183
		C27.202,145.446,30.936,134.782,38.73,122.934z M40.363,184.762c1.483,5.097,4.055,9.506,7.573,13.082
		c-2.076,7.597-4.219,15.318-6.365,22.936c-0.002-0.012-0.003-0.025-0.005-0.037c-1.504-10.756-3.382-24.005-13.184-28.994
		c1.003-6.875,1.987-13.501,2.914-19.649C35.133,174.808,38.634,178.817,40.363,184.762z M29.926,260.91l-7.221-10.831
		c-0.581-0.871-1.306-1.586-2.118-2.146c1.269-9.792,2.708-20.388,4.198-31.034c0.43,2.451,0.747,4.718,0.935,6.059
		c1.263,9.032,2.583,18.299,8.928,21.988C33.022,250.526,31.437,255.882,29.926,260.91z M17.471,297.956
		c-0.146,0.21-0.286,0.396-0.418,0.562c-0.386-0.939-0.817-2.448-1.038-4.766c-0.264-2.776,0.425-10.995,1.697-22.319l6.116,9.174
		C20.86,289.821,18.592,296.135,17.471,297.956z M243.118,160.204c-5.656,4.378-21.587,4.272-40.587-0.269
		c-19.34-4.622-33.665-11.625-36.062-14.152c-2.284-3.308-4.859-12.495-6.229-18.995c2.418-8.919,5.01-14.349,24.574-16.288
		c10.775-1.067,21.053-2.296,30.993-3.483c41.105-4.913,73.571-8.791,101.071,2.886c8.412,3.572,21.454,5.748,35.358,7.053
		C313.213,127.231,266.141,142.38,243.118,160.204z"/>
</g>
<g>
</g>
<g>
</g>
<g>
</g>
<g>
</g>
<g>
</g>
<g>
</g>
<g>
</g>
<g>
</g>
<g>
</g>
<g>
</g>
<g>
</g>
<g>
</g>
<g>
</g>
<g>
</g>
<g>
</g>
</svg>
