<?xml version="1.0" encoding="iso-8859-1"?>
<!-- Generator: Adobe Illustrator 17.1.0, SVG Export Plug-In . SVG Version: 6.00 Build 0)  -->
<!DOCTYPE svg PUBLIC "-//W3C//DTD SVG 1.1//EN" "http://www.w3.org/Graphics/SVG/1.1/DTD/svg11.dtd">
<svg version="1.1" id="Capa_1" xmlns="http://www.w3.org/2000/svg" xmlns:xlink="http://www.w3.org/1999/xlink" x="0px" y="0px"
	 viewBox="0 0 511.979 511.979" style="enable-background:new 0 0 511.979 511.979;" xml:space="preserve">
<g>
	<path d="M448.036,260.436c4.418,0,8-3.582,8-8s-3.582-8-8-8h-0.01c-4.418,0-7.995,3.582-7.995,8S443.618,260.436,448.036,260.436z"
		/>
	<path d="M488.591,242.497c-11.938-5.692-27.898-12.69-43.788-19.2c-21.873-8.96-58.985-23.341-78.561-26.284
		c-2.523-6.611-7.647-16.209-15.343-28.717c-1.158-1.881-3.041-3.2-5.204-3.645c-0.645-0.132-16.013-3.184-35.554,1.769
		c-17.339,4.395-41.385,16.114-59.13,46.827c-1.791,0.399-3.581,0.801-5.372,1.204c-4.135-5.326-20.652-25.215-42.65-33.464
		c-7.002-2.625-16.085,1.671-40.256,14.617c-12.925,6.923-27.575,14.769-36.531,17.114c-2.43,0.637-4.42,2.379-5.374,4.703
		s-0.76,4.962,0.523,7.122l6.934,11.672c-2.781,0.147-5.469,0.226-8.05,0.226c-21.271,0-41.787-6.57-61.627-12.924
		c-17.761-5.688-34.537-11.06-50.298-11.06c-3.736,0-6.974,2.586-7.801,6.229c-0.212,0.934-4.918,23.075,19.141,40.26
		c0.895,0.64,1.821,1.287,2.758,1.94c2.812,1.964,7.746,5.413,9.48,7.539c-1.734,2.126-6.667,5.575-9.48,7.539
		c-0.937,0.653-1.863,1.301-2.759,1.94c-24.059,17.185-19.353,39.325-19.141,40.26c0.827,3.643,4.065,6.229,7.801,6.229
		c15.761,0,32.538-5.372,50.298-11.06c19.841-6.354,40.356-12.924,61.627-12.924c8.888,0,16.808,0.348,23.99,0.956
		c0.243,24.868,9.834,30.186,28.014,38.021l0.79,0.341c5.231,2.257,10.198,3.202,14.901,3.202c14.819,0,27.011-9.388,36.532-16.719
		c1.524-1.173,3.006-2.314,4.449-3.378c0.492-0.362,0.924-0.774,1.307-1.217c7.592,1.427,15.931,2.439,25.652,2.772
		c5.752,0.197,11.431,0.291,17.041,0.291c13.848,0,27.238-0.582,40.113-1.602c2.346,11.257,7.888,20.86,8.162,21.331
		c1.467,2.516,4.132,3.97,6.912,3.97c0.903,0,1.818-0.153,2.708-0.474c23.394-8.423,38.111-23.895,43.228-33.296
		c24.762-4.927,46.156-11.013,63.277-16.736c44.039-14.722,69.703-29.936,70.773-30.576c2.416-1.444,3.894-4.052,3.894-6.866
		C511.979,254.663,508.482,251.982,488.591,242.497z M339.203,179.864c3.462,5.787,6.953,12.037,9.437,16.95
		c-22.204,1.255-48.115,5.847-74.926,11.49C297.929,178.407,329.079,178.815,339.203,179.864z M140.094,224.767
		c9.172-3.801,19.81-9.498,30.192-15.059c9.421-5.045,23.46-12.564,28.021-13.378c12.706,5.058,23.512,15.285,29.728,22.1
		c-29.812,6.748-58.303,13.09-82.124,16.13L140.094,224.767z M53.728,298.095c-13.231,4.237-25.875,8.286-37.194,9.735
		c1.104-4.677,4.205-11.042,12.414-16.906c0.85-0.606,1.73-1.221,2.619-1.842c7.943-5.546,16.122-11.282,16.668-19.764
		c0.033-0.293,0.053-0.591,0.053-0.893c0-0.311-0.022-0.616-0.056-0.917c-0.583-8.487-9.099-14.458-16.665-19.74
		c-0.889-0.621-1.77-1.235-2.619-1.842c-8.209-5.864-11.311-12.229-12.414-16.906c11.319,1.449,23.962,5.498,37.194,9.735
		c7.91,2.533,16.242,5.194,24.887,7.493c-2.573,10.954-3.865,29.149-0.044,44.365C69.942,292.91,61.624,295.566,53.728,298.095z
		 M179.366,325.036l-0.793-0.342c-14.918-6.43-18-7.759-18.328-21.392c15.571,2.491,27.418,6.257,39.027,9.952
		c3.741,1.19,7.439,2.363,11.193,3.48C199.388,324.906,190.154,329.689,179.366,325.036z M256.418,308.398
		c-22.022-0.754-36.727-5.435-52.294-10.389c-20.029-6.375-42.73-13.6-83.889-13.6c-8.87,0-17.59,1.014-26.08,2.616
		c-3.378-12.924-1.899-28.937,0.052-37.192c5.91,1.114,11.934,1.931,18.041,2.33c-0.003,0.091-0.014,0.181-0.014,0.272v15.989
		c0,4.418,3.582,8,8,8s8-3.582,8-8v-15.989c0-0.068-0.009-0.134-0.01-0.202c5.073-0.246,10.413-0.708,15.989-1.354v15.213
		c0,4.418,3.582,8,8,8s8-3.582,8-8v-15.989c0-0.488-0.051-0.964-0.135-1.429c5.227-0.831,10.604-1.774,16.114-2.812v14.567
		c0,4.418,3.582,8,8,8s8-3.582,8-8V244.44c0-0.589-0.068-1.162-0.189-1.715c5.304-1.099,10.7-2.258,16.167-3.457v13.167
		c0,4.418,3.582,8,8,8s8-3.582,8-8v-15.989c0-0.247-0.015-0.49-0.037-0.731c3.911-0.881,7.848-1.772,11.805-2.669
		c1.402-0.318,2.806-0.636,4.211-0.954v12.348c0,4.418,3.582,8,8,8s8-3.582,8-8v-15.947c0.076-0.017,0.151-0.034,0.227-0.051
		c1.022-0.031,2.026-0.251,2.959-0.656c4.278-0.947,8.545-1.88,12.792-2.79v14.114c0,4.418,3.582,8,8,8s8-3.582,8-8v-15.989
		c0-0.485-0.05-0.958-0.133-1.42c5.444-1.09,10.823-2.12,16.112-3.068v14.148c0,4.418,3.582,8,8,8s8-3.582,8-8v-15.989
		c0-0.271-0.014-0.538-0.041-0.801c5.492-0.824,10.845-1.529,16.02-2.086v14.545c0,4.418,3.582,8,8,8s8-3.582,8-8v-15.792
		c2.733-0.121,5.405-0.191,7.989-0.191c1.909,0,4.611,0.381,7.989,1.101v14.883c0,4.418,3.582,8,8,8s8-3.582,8-8v-10.535
		c8.648,2.691,19.013,6.306,30.624,10.697c-2.231,1.29-4.584,2.703-6.948,4.21c-16.16,10.302-23.687,19.073-23.687,27.606
		c0,11.056,10.679,23.334,18.8,31.074C364.801,301.641,314.194,310.375,256.418,308.398z M332,330.127
		c-1.038-2.452-2.135-5.433-2.92-8.568c6.992-0.773,13.804-1.67,20.43-2.667C345.036,322.725,339.215,326.769,332,330.127z
		 M431.753,282.86c-3.366,1.121-6.914,2.257-10.613,3.396c-0.047-0.039-0.088-0.082-0.136-0.119
		c-9.825-7.777-20.762-20.119-20.948-25.568c0.186-0.578,2.125-5.378,17.218-14.844c7.158-4.489,14.215-8.088,16.967-9.451
		c23.088,9.333,42.388,18.062,53.636,23.666C476.423,265.648,457.157,274.398,431.753,282.86z"/>
	<path d="M360.075,252.43h-47.968c-4.418,0-8,3.582-8,8c0,21.171,20.062,30.107,30.669,31.876c0.445,0.073,0.886,0.109,1.323,0.109
		c3.823,0,7.188-2.756,7.857-6.65c0.745-4.34-2.176-8.469-6.512-9.235c-0.529-0.094-9.951-1.843-14.678-8.1h37.31
		c4.418,0,8-3.582,8-8S364.493,252.43,360.075,252.43z"/>
</g>
<g>
</g>
<g>
</g>
<g>
</g>
<g>
</g>
<g>
</g>
<g>
</g>
<g>
</g>
<g>
</g>
<g>
</g>
<g>
</g>
<g>
</g>
<g>
</g>
<g>
</g>
<g>
</g>
<g>
</g>
</svg>
