<?xml version="1.0" encoding="iso-8859-1"?>
<!-- Generator: Adobe Illustrator 17.1.0, SVG Export Plug-In . SVG Version: 6.00 Build 0)  -->
<!DOCTYPE svg PUBLIC "-//W3C//DTD SVG 1.1//EN" "http://www.w3.org/Graphics/SVG/1.1/DTD/svg11.dtd">
<svg version="1.1" id="Capa_1" xmlns="http://www.w3.org/2000/svg" xmlns:xlink="http://www.w3.org/1999/xlink" x="0px" y="0px"
	 viewBox="0 0 512 512" style="enable-background:new 0 0 512 512;" xml:space="preserve">
<path d="M465.569,136.156c-15.901-3.18-43.084-3.689-71.863-4.229c-26.899-0.505-54.713-1.026-72.458-3.828
	c-14.771-2.334-26.434,2.113-34.535,7.313c-0.139-0.664-0.29-1.321-0.451-1.97l22.176-14.784c2.226-1.483,3.563-3.981,3.563-6.656
	V84.945l11.578-5.789c3.952-1.976,5.554-6.781,3.578-10.733c-1.975-3.95-6.779-5.553-10.733-3.577l-16,8
	c-2.71,1.355-4.422,4.125-4.422,7.155v27.719l-16.102,10.734c-0.954-1.462-1.982-2.829-3.072-4.1
	C283.699,109.985,288,103.441,288,96.001c0-13.458-14.056-24-32-24s-32,10.542-32,24c0,7.44,4.301,13.984,11.174,18.353
	c-1.09,1.271-2.118,2.638-3.072,4.1L216,107.72V80.001c0-3.03-1.712-5.8-4.422-7.155l-16-8c-3.952-1.977-8.757-0.374-10.733,3.577
	c-1.976,3.952-0.374,8.758,3.578,10.733L200,84.945v27.056c0,2.675,1.337,5.173,3.563,6.656l22.176,14.784
	c-0.161,0.651-0.312,1.308-0.451,1.973c-8.101-5.199-19.765-9.647-34.535-7.315c-17.745,2.802-45.559,3.323-72.458,3.828
	c-28.779,0.54-55.962,1.05-71.863,4.229C18.082,141.825,0,165.508,0,176.001c0,6.736,6.928,10.176,14.646,13.387
	c6.318,2.628,14.976,5.574,24.378,8.298C61.33,204.145,82.629,208.001,96,208.001c11.404,0,34.001-4.637,57.686-10.401
	c-11.099,4.907-21.051,8.875-27.759,10.675c-11.055,2.966-32.743,9.321-53.779,18.563c-23.654,10.392-39.414,21.423-46.844,32.786
	c-7.653,11.704-5.97,20.243-3.21,25.345c3.876,7.166,12.119,11.033,17.906,11.033c35.815,0,99.344-1.088,122.409-8.371
	c3.875-1.225,7.681-2.26,11.71-3.355c20.213-5.499,41.062-11.188,65.578-39.334c-0.633,15.184-2.168,33-3.667,50.372
	c-1.981,22.947-4.03,46.677-4.03,64.688c0,40.386,15.879,81.211,16.556,82.929c1.204,3.06,4.157,5.071,7.444,5.071
	s6.241-2.012,7.444-5.071c0.676-1.718,16.556-42.543,16.556-82.929c0-18.012-2.048-41.741-4.03-64.688
	c-1.5-17.373-3.035-35.188-3.667-50.372c24.517,28.146,45.365,33.836,65.578,39.334c4.029,1.096,7.834,2.131,11.71,3.355
	c23.065,7.283,86.594,8.371,122.409,8.371c5.787,0,14.029-3.867,17.906-11.033c2.76-5.102,4.443-13.641-3.21-25.345
	c-7.43-11.363-23.19-22.395-46.844-32.786c-21.036-9.241-42.724-15.597-53.778-18.563c-6.707-1.8-16.658-5.767-27.757-10.674
	c23.684,5.763,46.28,10.4,57.683,10.4c13.371,0,34.67-3.856,56.975-10.315c9.402-2.724,18.06-5.67,24.378-8.298
	c7.718-3.211,14.646-6.65,14.646-13.387C512,165.508,493.918,141.825,465.569,136.156z M256,88.001c9.767,0,16,4.738,16,8
	s-6.233,8-16,8s-16-4.738-16-8S246.233,88.001,256,88.001z M272,148.001c0,16.501-8.432,28-16,28c-9.429,0-16-14.757-16-28
	c0-16.501,8.432-28,16-28C265.429,120.001,272,134.758,272,148.001z M47.834,183.547c-14.395-3.959-24.867-7.828-30.155-10.281
	c4.004-6.265,14.712-17.984,31.89-21.42c14.496-2.899,42.217-3.419,69.026-3.922c27.441-0.515,55.817-1.047,74.653-4.021
	c12.915-2.04,22.413,3.637,27.663,8.098H192c-0.527,0-1.052,0.052-1.569,0.155l-40,8c-4.333,0.866-7.142,5.081-6.276,9.414
	c0.761,3.803,4.101,6.433,7.836,6.433c0.52,0,1.048-0.052,1.577-0.157l39.223-7.845H203.1c-36.696,10.278-89.625,24-107.1,24
	C85.09,192.001,67.084,188.841,47.834,183.547z M169.919,268.836c-4.004,1.089-8.146,2.216-12.329,3.536
	c-15.116,4.773-59.022,7.625-117.463,7.629c-0.857-0.128-3.25-1.123-4.038-2.799c-0.84-1.789,0.109-5.005,2.606-8.823
	c3.921-5.997,14.024-15.53,39.888-26.893c20.067-8.816,40.873-14.91,51.49-17.759c24.602-6.601,85.567-38.113,101.764-46.6
	c1.734,2.729,3.712,5.153,5.896,7.209c-0.444,0.132-0.883,0.296-1.311,0.51l-16,8c-1.806,0.903-3.204,2.456-3.913,4.347l-24,64
	c-0.034,0.091-0.057,0.184-0.088,0.276C184.871,264.765,177.473,266.781,169.919,268.836z M233.691,227.082
	c-6.62,8.49-12.869,15.037-18.876,20.196l15.573-41.527l3.876-1.938c0.377,3.045,1.268,5.969,2.377,9.18
	c1.054,3.053,2.199,6.385,2.843,11.033C237.285,224.169,235.153,225.207,233.691,227.082z M256,413.631
	c-3.952-14.7-8-34.444-8-53.63c0-17.322,2.019-40.702,3.97-63.313c1.981-22.947,4.03-46.677,4.03-64.688
	c0-11.963-2.448-19.053-4.235-24.229c-1.942-5.624-2.821-8.188,1.109-15.974c1.028,0.131,2.069,0.204,3.126,0.204
	s2.098-0.073,3.126-0.204c3.93,7.786,3.051,10.35,1.109,15.974c-1.787,5.177-4.235,12.267-4.235,24.229
	c0,18.011,2.048,41.74,4.03,64.688c1.952,22.61,3.97,45.99,3.97,63.313C264,379.186,259.952,398.931,256,413.631z M278.309,227.082
	c-1.462-1.875-3.594-2.913-5.793-3.057c0.644-4.647,1.789-7.98,2.843-11.032c1.109-3.212,2-6.135,2.377-9.18l3.876,1.938
	l15.573,41.527C291.178,242.119,284.929,235.572,278.309,227.082z M433.417,241.486c25.864,11.362,35.967,20.896,39.888,26.893
	c2.497,3.818,3.446,7.034,2.606,8.823c-0.787,1.676-3.18,2.671-4.038,2.799c-58.441-0.004-102.348-2.855-117.463-7.629
	c-4.183-1.32-8.324-2.447-12.329-3.536c-7.553-2.055-14.952-4.071-22.502-7.368c-0.031-0.092-0.054-0.185-0.088-0.276l-24-64
	c-0.709-1.891-2.107-3.443-3.913-4.347l-16-8c-0.428-0.214-0.867-0.378-1.311-0.51c2.184-2.056,4.161-4.479,5.895-7.208
	c16.198,8.487,77.162,39.999,101.765,46.6C392.543,226.576,413.349,232.67,433.417,241.486z M464.166,183.547
	c-19.25,5.294-37.256,8.454-48.166,8.454c-17.476,0-70.405-13.722-107.1-24h10.308l39.223,7.845c0.53,0.105,1.057,0.157,1.577,0.157
	c3.735-0.001,7.076-2.63,7.836-6.433c0.866-4.333-1.943-8.548-6.276-9.414l-40-8c-0.517-0.104-1.042-0.155-1.569-0.155h-28.91
	c5.24-4.446,14.748-10.135,27.663-8.098c18.835,2.974,47.211,3.506,74.653,4.021c26.809,0.503,54.53,1.022,69.026,3.922
	c17.178,3.436,27.886,15.155,31.89,21.42C489.033,175.719,478.561,179.588,464.166,183.547z"/>
<g>
</g>
<g>
</g>
<g>
</g>
<g>
</g>
<g>
</g>
<g>
</g>
<g>
</g>
<g>
</g>
<g>
</g>
<g>
</g>
<g>
</g>
<g>
</g>
<g>
</g>
<g>
</g>
<g>
</g>
</svg>
