<?xml version="1.0" encoding="iso-8859-1"?>
<!-- Generator: Adobe Illustrator 17.1.0, SVG Export Plug-In . SVG Version: 6.00 Build 0)  -->
<!DOCTYPE svg PUBLIC "-//W3C//DTD SVG 1.1//EN" "http://www.w3.org/Graphics/SVG/1.1/DTD/svg11.dtd">
<svg version="1.1" id="Capa_1" xmlns="http://www.w3.org/2000/svg" xmlns:xlink="http://www.w3.org/1999/xlink" x="0px" y="0px"
	 viewBox="0 0 512.003 512.003" style="enable-background:new 0 0 512.003 512.003;" xml:space="preserve">
<path d="M290.298,144.686l35.802,7.16c0.469,0.094,0.945,0.146,1.423,0.154c2.32,0.063,23.316-0.6,46.698-35.41
	c5.482-0.323,10.706-2.592,15.066-6.894c17.44-17.207,23.049-41.223,16.22-69.45C400.564,19.815,390.832,4.358,390.42,3.71
	c-2.368-3.727-7.303-4.825-11.031-2.462c-3.729,2.363-4.836,7.304-2.478,11.035c0.13,0.206,5.104,8.22,9.35,19.825
	c2.56,14.233-5.777,19.758-20.552,28.172c-7.141,4.066-14.525,8.271-20,14.383c-7.307,8.156-4.477,22.254,6.583,32.792
	c1.827,1.741,3.724,3.229,5.66,4.478c-15.002,20.501-27.141,23.563-29.833,24l-38.883-7.776c-2.623-0.524-5.334,0.297-7.226,2.188
	l-11.832,11.832c-4.3-4.122-8.906-6.175-13.845-6.175c-5.071,0-9.791,2.152-14.189,6.497l-12.154-12.154
	c-1.892-1.891-4.6-2.712-7.226-2.188l-38.883,7.776c-2.692-0.437-14.83-3.499-29.833-24c1.936-1.249,3.833-2.736,5.66-4.477
	c11.06-10.539,13.89-24.637,6.583-32.793c-5.475-6.111-12.859-10.316-20-14.383c-14.774-8.413-23.11-13.938-20.553-28.169
	c4.228-11.556,9.178-19.553,9.349-19.825c2.365-3.728,1.263-8.668-2.464-11.037c-3.73-2.37-8.673-1.269-11.043,2.461
	c-0.412,0.647-10.144,16.104-15.087,36.535c-6.829,28.228-1.221,52.243,16.22,69.45c4.361,4.303,9.583,6.572,15.066,6.895
	c23.383,34.814,44.377,35.483,46.698,35.41c0.478-0.009,0.955-0.061,1.423-0.154l35.802-7.16l11.16,11.16
	c-1.452,2.816-2.862,5.937-4.233,9.361l-1.565-0.782c-5.864-2.933-14.632-3.555-20.852-1.482l-8.822,2.939
	c-1.414,0.473-3.048,0.342-3.748,0.117l-3.654-3.654c-3.124-3.123-8.189-3.123-11.313,0c-3.125,3.125-3.125,8.189,0,11.314l4,4
	c4.921,4.92,13.674,5.435,19.775,3.402l8.822-2.939c2.161-0.721,6.6-0.404,8.637,0.613l3.468,1.734
	c-0.843,2.821-1.67,5.777-2.48,8.872l-1.833-0.916c-7.02-3.51-16.498-1.971-22.046,3.577l-12.687,12.686
	c-0.294,0.295-1.267,0.365-1.6,0.114l-19.201-14.4c-1.495-1.121-3.2-4.53-3.2-6.399v-16c0-7.38-4.977-15.434-11.578-18.733
	l-8.845-4.422c-3.954-1.976-8.757-0.374-10.733,3.578c-1.976,3.952-0.374,8.757,3.578,10.732l8.845,4.422
	c1.226,0.613,2.733,3.052,2.733,4.423v16c0,6.954,4.038,15.028,9.6,19.2l19.201,14.4c3,2.249,6.636,3.351,10.271,3.351
	c4.487,0,8.97-1.68,12.242-4.951l12.687-12.686c0.679-0.679,2.718-1.01,3.578-0.581l5.246,2.623
	c-0.727,3.487-1.419,7.036-2.066,10.644h-2.757c-6.113,0-11.952,5.505-15.094,10.219l-7.125,10.688
	c-2.129,3.194-6.379,8.379-9.094,11.094l-12.687,12.686c-2.525,2.525-7.541,6.142-10.733,7.737l-17.689,8.844
	c-6.601,3.3-11.578,11.354-11.578,18.733v8c0,4.418,3.582,8,8,8s8-3.582,8-8v-8c0-1.371,1.507-3.81,2.733-4.423l17.689-8.844
	c4.74-2.37,11.142-6.984,14.891-10.733l12.687-12.686c3.487-3.487,8.36-9.432,11.094-13.533l7.125-10.688
	c0.581-0.872,1.244-1.602,1.844-2.176c-2.032,14.632-3.368,29.562-3.856,43.56l-16.208,16.208c-0.679,0.679-2.717,1.01-3.581,0.579
	l-1.686-0.842c-3.815-1.908-8.152-2.213-12.211-0.859c-4.061,1.354-7.347,4.199-9.254,8.014l-4.422,8.845
	c-1.976,3.952-0.374,8.758,3.578,10.733c1.148,0.574,2.369,0.847,3.571,0.847c2.935,0,5.76-1.621,7.162-4.424l4.426-8.843
	l1.686,0.842c7.02,3.511,16.497,1.971,22.046-3.577l4.909-4.909c0.972,23.92,5.184,42.485,12.564,55.275
	c6.627,11.484,15.893,18.573,27.096,20.839c-0.071,8.91,0.02,24.976,1.131,43.767c2.263,38.239,7.497,67.846,15.558,87.998
	c1.251,3.128,4.255,5.031,7.43,5.031c0.989,0,1.995-0.185,2.969-0.574c4.102-1.641,6.098-6.297,4.457-10.398
	c-14.867-37.168-15.687-104.077-15.535-125.783c11.303-2.217,20.65-9.32,27.32-20.88c7.38-12.79,11.592-31.355,12.564-55.275
	l4.909,4.909c5.55,5.549,15.029,7.086,22.043,3.579l1.693-0.846l4.422,8.845c1.401,2.803,4.227,4.424,7.162,4.424
	c1.202,0,2.423-0.272,3.571-0.847c3.952-1.976,5.554-6.781,3.578-10.733l-4.422-8.845c-1.907-3.814-5.194-6.66-9.254-8.014
	c-4.059-1.354-8.397-1.047-12.208,0.857l-1.693,0.846c-0.857,0.429-2.898,0.099-3.578-0.581l-16.208-16.208
	c-0.488-13.998-1.824-28.928-3.856-43.56c0.601,0.574,1.263,1.303,1.845,2.176l7.125,10.688c2.734,4.102,7.607,10.046,11.094,13.533
	l12.687,12.686c3.749,3.749,10.151,8.363,14.892,10.733l17.689,8.844c1.226,0.613,2.733,3.052,2.733,4.423v8c0,4.418,3.582,8,8,8
	s8-3.582,8-8v-8c0-7.38-4.977-15.434-11.578-18.733l-17.689-8.844c-3.192-1.596-8.208-5.212-10.733-7.737l-12.687-12.686
	c-2.715-2.715-6.965-7.899-9.095-11.094l-7.125-10.688c-3.143-4.714-8.981-10.219-15.094-10.219h-2.757
	c-0.648-3.608-1.339-7.157-2.066-10.644l5.246-2.623c0.859-0.428,2.898-0.098,3.578,0.581l12.687,12.686
	c3.272,3.272,7.755,4.951,12.242,4.951c3.634,0,7.272-1.102,10.271-3.351l19.199-14.4c5.563-4.172,9.601-12.246,9.601-19.2v-16
	c0-1.371,1.507-3.81,2.732-4.423l8.845-4.422c3.952-1.976,5.554-6.78,3.578-10.732c-1.976-3.952-6.78-5.554-10.733-3.578
	l-8.845,4.422c-6.601,3.3-11.578,11.354-11.578,18.733v16c0,1.869-1.705,5.278-3.2,6.399l-19.199,14.4
	c-0.333,0.251-1.306,0.181-1.601-0.114l-12.687-12.686c-5.55-5.55-15.028-7.089-22.046-3.577l-1.833,0.917
	c-0.81-3.094-1.637-6.051-2.48-8.872l3.468-1.734c2.037-1.019,6.476-1.336,8.638-0.613l8.82,2.939
	c6.104,2.032,14.855,1.518,19.776-3.402l4-4c3.125-3.125,3.125-8.189,0-11.314c-3.124-3.123-8.189-3.123-11.313,0l-3.654,3.654
	c-0.7,0.224-2.334,0.354-3.749-0.117l-8.82-2.939c-6.219-2.072-14.989-1.448-20.852,1.482l-1.566,0.783
	c-1.442-3.602-2.926-6.874-4.458-9.802L290.298,144.686z M357.627,85.339c3.737-4.172,9.693-7.564,16-11.155
	c6.022-3.43,12.989-7.396,18.596-12.882c0.251,12.875-3.198,26.176-14.173,37.005c-1.17,1.153-4.731,4.667-11.85-0.118
	C359.318,93.563,357.117,86.62,357.627,85.339z M119.78,61.302c5.607,5.486,12.573,9.452,18.596,12.882
	c6.306,3.592,12.262,6.983,15.949,11.078c0.561,1.358-1.641,8.301-8.523,12.927c-7.118,4.785-10.678,1.272-11.849,0.118
	C122.978,87.478,119.529,74.178,119.78,61.302z M288.335,288.001c0,2.75-0.048,5.407-0.125,8.009
	c-0.585,0.008-1.177,0.073-1.769,0.215c-19.695,4.73-40.517,4.73-60.212,0c-0.593-0.142-1.184-0.208-1.769-0.215
	c-0.077-2.601-0.125-5.259-0.125-8.008c0-2.543,0.045-5.149,0.112-7.78c10.455,2.356,21.17,3.548,31.888,3.548
	s21.434-1.192,31.888-3.548C288.289,282.852,288.335,285.458,288.335,288.001z M225.569,312.474
	c10.099,2.19,20.431,3.296,30.766,3.296s20.668-1.106,30.766-3.296c-0.656,5.93-1.571,11.343-2.75,16.22
	c-18.378,4.087-37.654,4.087-56.032,0C227.14,323.817,226.224,318.403,225.569,312.474z M287.452,264.057
	c-0.336,0.037-0.674,0.087-1.011,0.168c-19.695,4.73-40.517,4.73-60.212,0c-0.338-0.081-0.675-0.131-1.011-0.167
	c0.352-5.07,0.808-10.206,1.358-15.358c9.777,2.046,19.768,3.07,29.759,3.07s19.982-1.024,29.759-3.07
	C286.644,253.851,287.1,258.987,287.452,264.057z M256.335,152.001c2.001,0,11.35,7.399,20.53,43.599
	c2.901,11.438,5.341,24.144,7.223,37.153c-18.211,4.009-37.294,4.009-55.505,0c1.882-13.009,4.322-25.715,7.223-37.153
	C244.985,159.401,254.334,152.001,256.335,152.001z M256.335,360.001c-9.077,0-16.063-4.459-21.355-13.631
	c-0.035-0.06-0.066-0.127-0.101-0.188c7.099,1.056,14.277,1.587,21.456,1.587s14.357-0.531,21.456-1.587
	c-0.035,0.061-0.066,0.127-0.101,0.188C272.397,355.542,265.412,360.001,256.335,360.001z"/>
<g>
</g>
<g>
</g>
<g>
</g>
<g>
</g>
<g>
</g>
<g>
</g>
<g>
</g>
<g>
</g>
<g>
</g>
<g>
</g>
<g>
</g>
<g>
</g>
<g>
</g>
<g>
</g>
<g>
</g>
</svg>
