<?xml version="1.0" encoding="iso-8859-1"?>
<!-- Generator: Adobe Illustrator 17.1.0, SVG Export Plug-In . SVG Version: 6.00 Build 0)  -->
<!DOCTYPE svg PUBLIC "-//W3C//DTD SVG 1.1//EN" "http://www.w3.org/Graphics/SVG/1.1/DTD/svg11.dtd">
<svg version="1.1" id="Capa_1" xmlns="http://www.w3.org/2000/svg" xmlns:xlink="http://www.w3.org/1999/xlink" x="0px" y="0px"
	 viewBox="0 0 512 512" style="enable-background:new 0 0 512 512;" xml:space="preserve">
<path d="M479.442,265.089c-0.653-1.667-1.856-3.096-3.455-4.015c-2.031-2.288-4.135-4.535-6.331-6.731
	c-33.1-33.1-131.245-111.548-149.792-126.311c-0.909-14.778-6.851-28.211-16.135-38.608c9.731-1.452,21.713-3.024,30.249-4.11
	l-5.824,29.117c-0.636,3.18,0.71,6.428,3.407,8.226l24,16c1.364,0.909,2.905,1.345,4.43,1.345c2.585,0,5.122-1.251,6.664-3.563
	c2.451-3.676,1.458-8.644-2.219-11.094l-19.542-13.028l6.949-34.746c0.503-2.517-0.231-5.122-1.975-7.005
	c-1.743-1.883-4.286-2.811-6.832-2.506c-1.778,0.215-42.921,5.216-56.041,7.974C277.807,70.923,267.24,68,256,68
	s-21.807,2.922-30.997,8.033c-13.119-2.758-54.263-7.76-56.041-7.974c-2.544-0.312-5.088,0.623-6.832,2.506
	s-2.479,4.488-1.975,7.005l6.949,34.746l-19.542,13.028c-3.676,2.45-4.67,7.418-2.219,11.094c1.542,2.313,4.078,3.563,6.664,3.563
	c1.525,0,3.066-0.436,4.43-1.345l24-16c2.697-1.798,4.043-5.046,3.407-8.226l-5.824-29.117c8.536,1.087,20.517,2.658,30.249,4.111
	c-9.284,10.397-15.226,23.83-16.135,38.608c-18.547,14.763-116.693,93.212-149.792,126.311c-2.196,2.196-4.3,4.443-6.331,6.731
	c-1.599,0.919-2.802,2.348-3.455,4.015C11.206,290.902,0,322.054,0,356c0,6.25,3.393,11.493,9.309,14.387
	c4.258,2.083,9.92,2.936,16.34,2.936c18.499,0,43.286-7.083,58.871-12.238c25.704-8.502,50.188-19.47,67.665-30.111
	c1.465,28.638,11.923,55.68,29.833,76.786C201.85,431.129,228.124,444,256,444c27.876,0,54.15-12.871,73.982-36.241
	c17.91-21.105,28.367-48.148,29.833-76.786c17.477,10.641,41.961,21.609,67.664,30.111c15.587,5.155,40.372,12.238,58.872,12.238
	c6.418,0,12.083-0.854,16.34-2.936C508.607,367.493,512,362.25,512,356C512,322.054,500.794,290.902,479.442,265.089z
	 M443.972,252.095c-19.118-5.035-44.247-11.356-66.054-15.867c-18.567-20.237-40.368-42.085-49.087-50.743
	c1.827-7.418,4.087-16.767,3.138-27.239C362.455,182.815,413.699,224.621,443.972,252.095z M336.774,364.52
	c-8.459,4.867-31.218,16.743-80.778,16.743c-49.542,0-72.301-11.867-80.768-16.738c-3.109-8.398-5.294-17.332-6.398-26.613
	c13.193,6.234,39.699,15.625,87.166,15.625c47.478,0,73.985-9.395,87.175-15.628C342.067,347.188,339.883,356.122,336.774,364.52z
	 M186.89,204.375c3.445,23.977,1.566,46.178-5.663,66.154c-8.798,24.312-22.231,36.117-26.139,39.157
	c-10.934,8.504-29.499,18.295-50.364,26.863c2.546-22.449,11.13-50.368,14.431-56.97
	C124.583,268.724,159.417,231.963,186.89,204.375z M256,84c22.679,0,41.722,15.815,46.712,36.993
	C283.985,116.075,257.457,116,256,116s-27.985,0.075-46.712,4.993C214.278,99.815,233.321,84,256,84z M256,132
	c24.303,0,46.413,4.067,51.056,7.717c0.488,0.383,1.013,0.677,1.552,0.93c10.999,15.351,7.629,29.073,4.623,41.279
	c-0.368,1.494-0.722,2.932-1.033,4.308c-4.563,20.156-5.531,38.309-4.112,54.376C299.999,242.185,284.499,244,256,244
	c-28.499,0-43.999-1.815-52.085-3.391c1.419-16.067,0.451-34.22-4.112-54.376c-0.312-1.376-0.665-2.813-1.033-4.307
	c-3.006-12.206-6.376-25.928,4.623-41.28c0.538-0.253,1.064-0.547,1.552-0.93C209.587,136.067,231.696,132,256,132z
	 M201.649,256.458C214.063,258.78,232.608,260,256,260c23.392,0,41.936-1.22,54.351-3.542c1.935,9.673,4.736,18.416,8.059,26.205
	c-6.84,2.847-24.55,9.338-62.412,9.338c-37.855,0-55.565-6.488-62.408-9.336C196.912,274.875,199.713,266.132,201.649,256.458z
	 M186.348,296.974c6.789,2.891,26.549,11.026,69.65,11.026c43.109,0,62.868-8.138,69.654-11.028
	c5.806,9.774,12.261,17.346,18.19,22.628c-0.295,0.119-0.587,0.252-0.872,0.409c-7.849,4.335-31.734,17.527-86.973,17.527
	c-55.237,0-79.124-13.192-86.973-17.527c-0.284-0.157-0.574-0.288-0.866-0.407C174.086,314.321,180.542,306.749,186.348,296.974z
	 M356.912,309.686c-3.908-3.04-17.341-14.846-26.139-39.157c-7.228-19.976-9.108-42.177-5.662-66.154
	c27.473,27.586,62.306,64.346,67.734,75.203c3.301,6.604,11.886,34.523,14.432,56.972
	C386.41,327.981,367.845,318.19,356.912,309.686z M183.168,185.485c-8.719,8.658-30.52,30.506-49.087,50.743
	c-21.807,4.51-46.937,10.832-66.054,15.867c30.274-27.474,81.518-69.28,112.002-93.848
	C179.081,168.718,181.342,178.067,183.168,185.485z M75.356,347.236C34.023,360.357,18.535,357.56,16,355.848
	c0.033-30.723,9.862-57.917,29.24-81.009c9.655-2.694,40.678-11.228,70.983-18.282c-5.413,6.565-9.511,12.13-11.378,15.865
	c-4.68,9.361-15.355,44.955-16.703,70.491C83.902,344.431,79.627,345.88,75.356,347.236z M256,428
	c-27.765,0-53.019-16.139-69.281-40.743c14.55,5.09,36.727,10.006,69.277,10.006c32.557,0,54.738-4.918,69.287-10.01
	C309.021,411.86,283.767,428,256,428z M436.644,347.236c-4.271-1.356-8.546-2.804-12.786-4.322
	c-1.347-25.535-12.022-61.129-16.703-70.491c-1.867-3.734-5.965-9.299-11.378-15.865c30.305,7.053,61.328,15.588,70.983,18.282
	c19.377,23.092,29.207,50.285,29.24,81.009C493.466,357.56,477.977,360.356,436.644,347.236z"/>
<g>
</g>
<g>
</g>
<g>
</g>
<g>
</g>
<g>
</g>
<g>
</g>
<g>
</g>
<g>
</g>
<g>
</g>
<g>
</g>
<g>
</g>
<g>
</g>
<g>
</g>
<g>
</g>
<g>
</g>
</svg>
