<?xml version="1.0" encoding="iso-8859-1"?>
<!-- Generator: Adobe Illustrator 17.1.0, SVG Export Plug-In . SVG Version: 6.00 Build 0)  -->
<!DOCTYPE svg PUBLIC "-//W3C//DTD SVG 1.1//EN" "http://www.w3.org/Graphics/SVG/1.1/DTD/svg11.dtd">
<svg version="1.1" id="Capa_1" xmlns="http://www.w3.org/2000/svg" xmlns:xlink="http://www.w3.org/1999/xlink" x="0px" y="0px"
	 viewBox="0 0 512.01 512.01" style="enable-background:new 0 0 512.01 512.01;" xml:space="preserve">
<path d="M511.068,196.932c-2.645-8.139-10.158-13.29-18.71-12.863l-141.443,7.37c-18.493,0.952-35.396-11.316-40.193-29.202
	l-36.7-136.799c-2.217-8.266-9.458-13.819-18.016-13.819c-8.558,0-15.798,5.554-18.015,13.819l-36.7,136.799
	c-4.797,17.886-21.706,30.178-40.192,29.202l-141.444-7.37c-8.538-0.433-16.066,4.724-18.71,12.863s0.4,16.741,7.576,21.404
	l118.763,77.177c15.526,10.089,21.982,29.96,15.352,47.25L91.915,475.007c-3.064,7.99-0.471,16.738,6.452,21.769
	c3.325,2.416,7.154,3.616,10.976,3.616c4.137,0,8.264-1.408,11.722-4.207l110.099-89.1c14.394-11.65,35.287-11.649,49.681-0.001
	l110.1,89.101c6.652,5.383,15.774,5.619,22.697,0.591c6.924-5.03,9.517-13.778,6.453-21.769l-50.718-132.244
	c-6.631-17.29-0.174-37.161,15.352-47.25l118.762-77.177C510.668,213.673,513.712,205.071,511.068,196.932z M295.267,166.383
	c6.741,25.13,30.481,42.396,56.479,41.034l122.179-6.366l-183.289,61.096c-1.487-2.567-3.245-4.957-5.245-7.124
	c0.391-0.357,0.76-0.749,1.083-1.194l24-33c2.599-3.573,1.809-8.576-1.764-11.175c-3.573-2.597-8.576-1.81-11.175,1.765l-24,33
	c-0.321,0.441-0.589,0.904-0.808,1.382c-2.755-1.274-5.674-2.251-8.722-2.872V49.854L295.267,166.383z M256.005,306.124
	c-13.233,0-24-10.767-24-24s10.767-24,24-24c13.233,0,24,10.767,24,24S269.238,306.124,256.005,306.124z M216.743,166.383
	l31.262-116.53v193.077c-3,0.611-5.875,1.569-8.592,2.813c-0.071-0.108-0.135-0.218-0.211-0.323l-24.728-34
	c-2.599-3.574-7.603-4.363-11.175-1.765c-3.573,2.599-4.363,7.602-1.764,11.175l24.728,34c0.078,0.108,0.168,0.201,0.25,0.304
	c-1.957,2.137-3.679,4.49-5.14,7.013L38.084,201.051l122.18,6.366C186.249,208.779,210.002,191.513,216.743,166.383z
	 M157.572,348.491c9.316-24.295,0.244-52.218-21.573-66.395l-99.655-64.76l179.959,59.986c-0.189,1.576-0.298,3.175-0.298,4.801
	c0,2.249,0.196,4.452,0.554,6.6l-35.426,13.625c-4.124,1.586-6.181,6.215-4.595,10.339c1.223,3.18,4.254,5.13,7.469,5.13
	c0.955,0,1.925-0.172,2.87-0.535l35.442-13.631c1.25,1.948,2.656,3.785,4.215,5.484c-0.355,0.334-0.689,0.702-0.987,1.11
	L113.367,463.755L157.572,348.491z M221.099,394.648l-91.565,74.101l108.93-149.063c0.296-0.405,0.543-0.831,0.753-1.269
	c2.774,1.289,5.716,2.276,8.788,2.902v32.805c0,4.418,3.582,8,8,8c4.418,0,8-3.582,8-8v-32.805c3.073-0.626,6.014-1.613,8.788-2.902
	c0.21,0.438,0.457,0.863,0.753,1.269l108.93,149.062l-91.565-74.101C270.684,378.277,241.324,378.278,221.099,394.648z
	 M376.011,282.097c-21.817,14.177-30.89,42.101-21.573,66.395l44.206,115.264L286.464,310.246c-0.298-0.409-0.632-0.776-0.987-1.11
	c1.558-1.699,2.965-3.536,4.215-5.484l35.442,13.631c0.945,0.363,1.916,0.535,2.87,0.535c3.214,0,6.246-1.951,7.469-5.13
	c1.586-4.124-0.471-8.753-4.595-10.339l-35.426-13.625c0.358-2.148,0.554-4.352,0.554-6.6c0-1.626-0.109-3.226-0.298-4.801
	l179.958-59.986L376.011,282.097z"/>
<g>
</g>
<g>
</g>
<g>
</g>
<g>
</g>
<g>
</g>
<g>
</g>
<g>
</g>
<g>
</g>
<g>
</g>
<g>
</g>
<g>
</g>
<g>
</g>
<g>
</g>
<g>
</g>
<g>
</g>
</svg>
