<?xml version="1.0" encoding="iso-8859-1"?>
<!-- Generator: Adobe Illustrator 17.1.0, SVG Export Plug-In . SVG Version: 6.00 Build 0)  -->
<!DOCTYPE svg PUBLIC "-//W3C//DTD SVG 1.1//EN" "http://www.w3.org/Graphics/SVG/1.1/DTD/svg11.dtd">
<svg version="1.1" id="Capa_1" xmlns="http://www.w3.org/2000/svg" xmlns:xlink="http://www.w3.org/1999/xlink" x="0px" y="0px"
	 viewBox="0 0 511.994 511.994" style="enable-background:new 0 0 511.994 511.994;" xml:space="preserve">
<g>
	<path d="M327.994,279.981c2.11,0,4.17-0.85,5.66-2.34c1.49-1.5,2.34-3.561,2.34-5.66c0-2.11-0.85-4.17-2.34-5.66
		c-1.49-1.49-3.55-2.34-5.66-2.34s-4.17,0.85-5.66,2.34c-1.49,1.49-2.34,3.55-2.34,5.66c0,2.1,0.85,4.16,2.34,5.66
		C323.824,279.132,325.884,279.981,327.994,279.981z"/>
	<path d="M503.994,263.98c-5.785,0-11.413,0.012-16.895,0.023c-79.956,0.166-128.213,0.27-178.215-38.354
		c-3.309-2.557-6.319-7.921-9.506-13.601c-7.226-12.877-17.122-30.513-41.674-35.884c-2.466-0.535-5.059,0.122-6.966,1.777
		c-3.107,2.697-2.871,5.869-2.621,9.228c1.703,22.844-1.5,31.631-4.486,34.979c-1.088,1.221-2.272,1.771-3.958,1.838
		c-66.513,2.66-172.724,23.266-177.212,24.142c-0.44,0.086-0.86,0.215-1.267,0.366c-5.041-9.27-19.403-31.23-49.171-47.426
		c-0.028-0.016-0.056-0.031-0.083-0.046c-0.046-0.025-0.09-0.051-0.136-0.077c-0.06-0.032-0.121-0.056-0.181-0.087
		c-0.153-0.078-0.306-0.153-0.462-0.221c-0.105-0.046-0.212-0.085-0.319-0.126c-0.131-0.05-0.262-0.1-0.395-0.143
		c-0.135-0.043-0.271-0.081-0.408-0.117c-0.107-0.028-0.214-0.057-0.322-0.081c-0.157-0.035-0.315-0.063-0.473-0.087
		c-0.092-0.015-0.183-0.029-0.275-0.041c-0.167-0.021-0.334-0.034-0.502-0.044c-0.089-0.005-0.177-0.011-0.267-0.013
		c-0.164-0.004-0.327-0.002-0.49,0.004c-0.098,0.003-0.195,0.007-0.293,0.014c-0.151,0.011-0.301,0.027-0.45,0.047
		c-0.111,0.014-0.222,0.03-0.333,0.049c-0.134,0.023-0.267,0.051-0.4,0.081c-0.124,0.028-0.246,0.057-0.369,0.091
		c-0.121,0.033-0.239,0.07-0.358,0.109c-0.127,0.042-0.254,0.084-0.38,0.133c-0.116,0.045-0.231,0.094-0.345,0.144
		c-0.12,0.053-0.24,0.106-0.357,0.165c-0.122,0.061-0.242,0.127-0.361,0.194c-0.103,0.058-0.206,0.116-0.306,0.179
		c-0.135,0.084-0.265,0.175-0.396,0.267c-0.08,0.057-0.161,0.112-0.239,0.173c-0.143,0.11-0.281,0.227-0.417,0.347
		c-0.046,0.041-0.096,0.076-0.141,0.118c-0.018,0.017-0.033,0.036-0.052,0.053c-0.127,0.12-0.248,0.247-0.367,0.375
		c-0.068,0.073-0.139,0.145-0.204,0.22c-0.09,0.104-0.174,0.215-0.26,0.325c-0.085,0.11-0.172,0.219-0.251,0.332
		c-0.057,0.082-0.109,0.168-0.163,0.252c-0.095,0.148-0.189,0.296-0.273,0.449c-0.012,0.021-0.027,0.041-0.038,0.063
		c-0.03,0.056-0.052,0.113-0.081,0.169c-0.081,0.159-0.16,0.318-0.23,0.481c-0.042,0.097-0.078,0.195-0.116,0.293
		c-0.054,0.141-0.107,0.282-0.153,0.426c-0.04,0.123-0.073,0.247-0.107,0.372c-0.032,0.12-0.064,0.24-0.09,0.361
		c-0.031,0.143-0.056,0.286-0.08,0.43c-0.017,0.107-0.034,0.215-0.047,0.323c-0.018,0.149-0.03,0.299-0.04,0.449
		c-0.007,0.108-0.013,0.216-0.015,0.324c-0.003,0.144-0.001,0.287,0.003,0.43c0.003,0.119,0.009,0.237,0.018,0.355
		c0.01,0.129,0.024,0.258,0.04,0.387c0.016,0.133,0.035,0.265,0.058,0.397c0.02,0.112,0.043,0.224,0.068,0.335
		c0.032,0.144,0.066,0.288,0.106,0.431c0.028,0.1,0.059,0.199,0.091,0.298c0.047,0.146,0.097,0.292,0.153,0.436
		c0.038,0.098,0.079,0.195,0.121,0.292c0.059,0.137,0.12,0.272,0.188,0.406c0.054,0.107,0.112,0.212,0.171,0.317
		c0.065,0.116,0.13,0.231,0.201,0.344c0.078,0.125,0.162,0.246,0.247,0.366c0.062,0.088,0.123,0.177,0.19,0.263
		c0.106,0.139,0.221,0.272,0.337,0.404c0.043,0.049,0.079,0.1,0.123,0.148c14.33,15.524,20.508,44.152,21.746,50.574
		c-1.24,6.43-7.418,35.053-21.746,50.574c-0.044,0.048-0.081,0.099-0.123,0.148c-0.116,0.132-0.23,0.265-0.337,0.404
		c-0.066,0.086-0.127,0.174-0.19,0.263c-0.085,0.121-0.169,0.241-0.247,0.366c-0.071,0.113-0.136,0.228-0.201,0.344
		c-0.059,0.105-0.117,0.21-0.171,0.317c-0.067,0.134-0.128,0.27-0.188,0.406c-0.042,0.097-0.083,0.193-0.121,0.292
		c-0.056,0.144-0.106,0.29-0.153,0.436c-0.032,0.099-0.063,0.198-0.091,0.298c-0.04,0.143-0.074,0.287-0.106,0.431
		c-0.025,0.111-0.048,0.223-0.068,0.335c-0.023,0.132-0.042,0.265-0.058,0.397c-0.016,0.128-0.03,0.257-0.04,0.387
		c-0.009,0.118-0.014,0.236-0.018,0.355c-0.005,0.143-0.007,0.286-0.003,0.43c0.002,0.108,0.009,0.216,0.015,0.324
		c0.01,0.15,0.021,0.299,0.04,0.449c0.013,0.108,0.03,0.216,0.047,0.323c0.023,0.144,0.048,0.287,0.08,0.43
		c0.026,0.121,0.058,0.241,0.09,0.361c0.033,0.125,0.067,0.249,0.107,0.372c0.046,0.144,0.099,0.285,0.153,0.426
		c0.038,0.098,0.074,0.196,0.116,0.293c0.07,0.163,0.149,0.322,0.23,0.481c0.029,0.056,0.051,0.113,0.081,0.169
		c0.009,0.018,0.022,0.032,0.031,0.049c0.164,0.297,0.345,0.586,0.549,0.865c0.036,0.049,0.076,0.093,0.112,0.141
		c0.158,0.206,0.327,0.405,0.508,0.598c0.08,0.086,0.162,0.169,0.246,0.25c0.055,0.054,0.104,0.112,0.161,0.165
		c0.119,0.11,0.245,0.208,0.369,0.31c0.063,0.051,0.122,0.106,0.186,0.155c0.251,0.193,0.511,0.367,0.777,0.525
		c0.06,0.036,0.122,0.067,0.182,0.102c0.235,0.132,0.474,0.251,0.718,0.357c0.058,0.025,0.115,0.052,0.173,0.076
		c0.301,0.123,0.605,0.229,0.915,0.313c0.027,0.008,0.055,0.012,0.083,0.02c0.277,0.072,0.556,0.126,0.838,0.168
		c0.085,0.013,0.17,0.025,0.256,0.035c0.287,0.034,0.575,0.055,0.863,0.058c0.025,0,0.049,0.005,0.073,0.005
		c0.074,0,0.149-0.012,0.223-0.014c0.215-0.006,0.429-0.016,0.643-0.039c0.125-0.014,0.249-0.037,0.373-0.057
		c0.177-0.028,0.353-0.059,0.528-0.098c0.118-0.027,0.236-0.058,0.354-0.091c0.195-0.054,0.387-0.116,0.578-0.184
		c0.093-0.033,0.186-0.065,0.278-0.103c0.255-0.102,0.506-0.218,0.751-0.348c0.025-0.013,0.051-0.021,0.076-0.035
		c0.01-0.006,0.02-0.011,0.03-0.017c0.036-0.02,0.072-0.04,0.107-0.06c29.819-16.196,44.203-38.185,49.251-47.466
		c0.233,0.087,0.471,0.167,0.717,0.233c26.283,7.095,53.803,13.244,81.173,18.22c-3.388,11.208-6.482,19.001-6.515,19.085
		c-1.071,2.678-0.618,5.727,1.188,7.977c1.532,1.91,3.836,2.994,6.239,2.994c0.428,0,0.859-0.034,1.29-0.104
		c1.094-0.179,24.949-4.309,35.745-23.796c20.958,2.982,41.434,5.188,60.772,6.502c-2.047,4.865-4.55,8.828-7.466,11.744
		c-2.324,2.326-2.992,5.85-1.678,8.863c1.028,2.357,3.526,4.822,7.487,4.822c0.117,0,0.235-0.003,0.354-0.007
		c6.105-0.223,28.297-5.701,43.846-25.087c1.097,0.564,2.337,0.884,3.646,0.884c0.122,0,0.245-0.003,0.368-0.008
		c27.118-1.229,45.989-8.449,64.239-15.432c21.05-8.054,42.817-16.382,79.397-16.382c0.852,0,1.671-0.136,2.441-0.382
		c11.705,0.346,24.08,0.427,37.324,0.427c4.998,0,10.123-0.011,15.374-0.021c5.471-0.012,11.088-0.023,16.861-0.023
		c4.418,0,8-3.582,8-8S508.413,263.98,503.994,263.98z M47.994,270.175c-1.57,3.098-6.139,11.248-14.844,20.538
		c4.707-13.416,6.599-24.584,6.739-25.434c0.141-0.859,0.141-1.736,0-2.596c-0.14-0.85-2.031-12.019-6.739-25.436
		c8.719,9.303,13.287,17.46,14.845,20.536V270.175z M157.253,306.269c0.556-1.76,1.128-3.632,1.706-5.589
		c1.435,0.237,2.869,0.473,4.302,0.704C161.416,303.317,159.354,304.94,157.253,306.269z M111.2,275.239
		c32.653,1.948,78.319,4.134,125.109,4.634c3.095,0.032,6.027,1.409,8.045,3.776c1.99,2.335,2.84,5.267,2.394,8.253
		c-0.149,0.997-0.313,1.971-0.485,2.933C204.601,292.215,157.27,285.295,111.2,275.239z M346.879,281.419
		c-16.348,6.255-31.884,12.179-53.23,13.987c0.668-1.541,1.309-3.117,1.891-4.77c1.467-4.168-0.723-8.735-4.891-10.202
		c-4.169-1.463-8.735,0.725-10.202,4.892c-5.023,14.276-14.123,22.774-22.446,27.783c2.002-5.59,3.529-11.878,4.57-18.839
		c1.125-7.521-1.077-15.175-6.041-20.999c-5.02-5.89-12.328-9.314-20.051-9.397c-54.813-0.586-108.078-3.499-140.414-5.61
		c37.182-6.485,100.422-16.536,144.248-18.29c6.011-0.24,11.288-2.722,15.259-7.176c7.917-8.878,9.313-24.003,8.993-37.257
		c10.333,5.58,15.665,15.081,20.859,24.338c4.006,7.141,7.791,13.885,13.678,18.433c23.769,18.36,46.77,28.666,72.103,34.439
		C362.568,275.418,354.676,278.436,346.879,281.419z"/>
</g>
<g>
</g>
<g>
</g>
<g>
</g>
<g>
</g>
<g>
</g>
<g>
</g>
<g>
</g>
<g>
</g>
<g>
</g>
<g>
</g>
<g>
</g>
<g>
</g>
<g>
</g>
<g>
</g>
<g>
</g>
</svg>
