<?xml version="1.0" encoding="iso-8859-1"?>
<!-- Generator: Adobe Illustrator 17.1.0, SVG Export Plug-In . SVG Version: 6.00 Build 0)  -->
<!DOCTYPE svg PUBLIC "-//W3C//DTD SVG 1.1//EN" "http://www.w3.org/Graphics/SVG/1.1/DTD/svg11.dtd">
<svg version="1.1" id="Capa_1" xmlns="http://www.w3.org/2000/svg" xmlns:xlink="http://www.w3.org/1999/xlink" x="0px" y="0px"
	 viewBox="0 0 512.002 512.002" style="enable-background:new 0 0 512.002 512.002;" xml:space="preserve">
<path d="M508.189,283.267l-18.521-12.348c-2.746-1.83-6.736-6.351-8.211-9.302l-17.988-35.977
	c-3.269-6.538-10.876-12.156-18.087-13.358l-94.091-15.682c-0.075-0.013-0.149-0.016-0.224-0.026
	c-8.557-18.679-15.763-32.911-20.105-39.296c-0.281-0.413-0.597-0.786-0.936-1.129c1.519-9.499,2.321-19.11,2.321-28.546
	c0-1.732-0.031-3.446-0.086-5.143l34.417-34.417c2.03-2.029,6.826-4.302,9.681-4.588l68.43-6.843
	c6.189-0.619,14.518-4.016,19.373-7.9l36.044-28.836c3.45-2.76,4.009-7.795,1.25-11.245c-2.76-3.449-7.794-4.008-11.245-1.249
	l-36.045,28.836c-2.479,1.984-7.811,4.158-10.97,4.475l-68.43,6.843c-6.466,0.646-14.807,4.599-19.402,9.193l-25.261,25.261
	c-1.873-10.114-4.925-19.332-9.07-27.523c0.193-0.167,0.381-0.341,0.56-0.529c6-6.284,9.304-14.531,9.304-23.222
	c0-18.544-15.086-33.63-33.629-33.63c-1.604,0-3.186,0.13-4.743,0.353c-0.744-0.228-1.533-0.353-2.352-0.353
	c-4.136,0-17.629-0.655-17.629-9.086c0-4.418-3.582-8-8-8s-8,3.582-8,8c0,7.389,3.325,13.935,9.362,18.43
	c1.598,1.19,3.371,2.208,5.289,3.081c-1.389,1.703-2.626,3.542-3.669,5.518c-3.755-0.563-7.602-0.856-11.525-0.856
	c-4.393,0-8.686,0.377-12.864,1.081c-0.975-1.88-2.114-3.646-3.401-5.283C251.057,25.305,255.458,16.171,255.458,8
	c0-4.418-3.582-8-8-8s-8,3.582-8,8c0,8.431-13.494,9.086-17.629,9.086c-0.984,0-1.923,0.186-2.794,0.511
	c-1.879-0.327-3.798-0.511-5.75-0.511c-18.543,0-33.629,15.086-33.629,33.63c0,9.379,3.944,18.347,10.826,24.703
	c-3.901,7.95-6.782,16.85-8.583,26.571l-25.261-25.261c-4.595-4.595-12.936-8.547-19.402-9.193l-68.429-6.843
	c-3.16-0.316-8.491-2.49-10.97-4.475L21.791,27.382c-3.45-2.759-8.484-2.2-11.245,1.25c-2.76,3.449-2.201,8.484,1.25,11.244
	L47.84,68.712c4.856,3.885,13.185,7.281,19.374,7.9l68.429,6.843c2.856,0.286,7.652,2.559,9.682,4.588l34.417,34.417
	c-0.055,1.697-0.086,3.411-0.086,5.143c0,9.436,0.803,19.038,2.323,28.543c-0.34,0.343-0.657,0.718-0.938,1.131
	c-4.342,6.386-11.548,20.617-20.105,39.297c-0.075,0.01-0.149,0.013-0.223,0.026l-94.091,15.682
	c-7.21,1.202-14.817,6.82-18.087,13.358l-17.988,35.977c-1.476,2.951-5.466,7.472-8.211,9.302L3.813,283.267
	c-3.676,2.451-4.67,7.418-2.219,11.094c1.542,2.313,4.078,3.563,6.664,3.563c1.525,0,3.066-0.436,4.43-1.345l18.521-12.348
	c5.061-3.373,10.928-10.02,13.647-15.458l17.988-35.977c0.953-1.905,4.306-4.382,6.407-4.731l83.835-13.972
	c-4.794,10.92-9.835,22.779-14.912,35.103l-21.058,5.265c-7.012,1.753-14.204,7.831-17.101,14.452L47.061,389.949
	c-1.277,2.92-4.991,7.351-7.641,9.117l-18.521,12.347c-3.676,2.45-4.67,7.417-2.219,11.094c1.542,2.313,4.078,3.563,6.664,3.563
	c1.525,0,3.066-0.436,4.43-1.345l18.521-12.347c5.165-3.442,10.936-10.328,13.424-16.016l52.954-121.037
	c0.881-2.014,4.19-4.811,6.324-5.344l9.727-2.432C108.121,324.1,86.853,385.32,85.691,409.137
	c-1.827,37.461,12.688,81.848,31.697,96.927c5.733,4.548,11.072,5.938,15.459,5.938c2.172,0,4.111-0.341,5.748-0.809
	c15.792-4.513,58.138-52.729,90.799-95.619c1.049-1.378,2.089-2.755,3.127-4.133c7.431,3.969,15.303,6.085,23.48,6.085
	s16.049-2.116,23.48-6.085c1.038,1.377,2.077,2.755,3.127,4.133c18.169,23.86,37.241,46.688,53.701,64.276
	c26.496,28.313,34.476,30.594,37.099,31.343c1.637,0.468,3.576,0.809,5.748,0.809c4.387,0,9.727-1.392,15.459-5.938
	c19.009-15.079,33.524-59.466,31.697-96.927c-1.162-23.817-22.43-85.037-45.033-141.586l9.727,2.432
	c2.133,0.533,5.442,3.33,6.324,5.344l52.953,121.036c2.488,5.688,8.259,12.573,13.424,16.017l18.521,12.347
	c1.364,0.909,2.905,1.345,4.43,1.345c2.585,0,5.123-1.251,6.664-3.563c2.451-3.677,1.458-8.644-2.219-11.094l-18.521-12.347
	c-2.65-1.768-6.364-6.197-7.641-9.117l-52.953-121.036c-2.897-6.621-10.089-12.699-17.101-14.452l-21.058-5.265
	c-5.078-12.324-10.118-24.183-14.912-35.103l83.835,13.972c2.101,0.35,5.454,2.826,6.407,4.731l17.988,35.977
	c2.719,5.438,8.586,12.085,13.647,15.458l18.521,12.348c1.364,0.909,2.905,1.345,4.43,1.345c2.585,0,5.122-1.251,6.664-3.563
	C512.859,290.685,511.865,285.718,508.189,283.267z M324.889,254.271c0,59.492-17.526,112.095-41.913,135.034
	c-6.127-8.397-11.92-16.627-17.371-24.658c6.099-9.258,11.762-18.276,16.883-26.912c16.928-28.547,27.875-52.612,32.54-71.527
	c1.058-4.29-1.563-8.625-5.853-9.683c-4.285-1.057-8.625,1.563-9.683,5.853c-5.376,21.801-20.653,52.403-43.491,87.771
	c-22.838-35.368-38.115-65.97-43.491-87.771c-1.058-4.291-5.392-6.906-9.683-5.853c-4.29,1.058-6.91,5.393-5.853,9.683
	c4.664,18.915,15.612,42.98,32.54,71.527c5.12,8.635,10.784,17.654,16.883,26.912c-5.452,8.031-11.244,16.261-17.371,24.658
	c-24.386-22.939-41.913-75.542-41.913-135.034c0-20.117,1.996-40.01,5.802-58.379c2.309,5.751,4.879,11.304,7.725,16.557
	c14.941,27.572,34.603,42.758,55.361,42.758c26.904,0,49.617-25.544,63.103-59.234C322.899,214.318,324.889,234.183,324.889,254.271
	z M218.278,210.976c8.184-0.059,16.688-2.314,23.601-4.153c5.31-1.413,10.801-2.874,14.122-2.874s8.811,1.461,14.121,2.874
	c6.914,1.839,15.418,4.093,23.602,4.151c-11.214,18.034-24.732,28.233-37.723,28.233
	C243.01,239.207,229.492,229.008,218.278,210.976z M297.268,33.086c9.721,0,17.629,7.909,17.629,17.63
	c0,3.484-1.02,6.827-2.902,9.682c-0.536-0.664-1.063-1.337-1.619-1.979c-7.36-8.499-16.435-14.903-26.633-18.996
	C287.03,35.496,291.945,33.086,297.268,33.086z M298.281,68.894c11.818,13.646,18.065,33.947,18.065,58.71
	c0,20.704-4.415,42.956-12.092,62.227c-3.006,5.773-8.289,7.311-30.018,1.53c-6.594-1.755-12.823-3.412-18.235-3.412
	c-5.413,0-11.641,1.657-18.235,3.412c-17.707,4.71-26.309,5.589-30.062-1.641c-7.649-19.246-12.048-41.452-12.048-62.116
	c0-24.763,6.247-45.064,18.065-58.71c10.607-12.247,25.228-18.721,42.28-18.721S287.674,56.646,298.281,68.894z M195.656,50.716
	c0-9.721,7.909-17.63,17.629-17.63c5.524,0,10.612,2.591,13.895,6.784c-9.758,4.107-18.454,10.352-25.553,18.549
	c-0.821,0.948-1.614,1.926-2.39,2.921C196.941,58.302,195.656,54.577,195.656,50.716z M216.977,405.472
	c-17.792,23.388-36.465,45.774-52.58,63.033c-23.272,24.925-29.936,27.222-30.197,27.304c-0.727,0.209-2.937,0.838-6.868-2.28
	c-14.716-11.674-27.187-52.308-25.659-83.612c1.156-23.705,24.897-90.154,48.557-148.17c1.832-1.619,2.863-4.029,2.686-6.549
	c7.805-18.934,15.502-36.725,22.284-51.547c-2.689,16.256-4.086,33.376-4.086,50.621c0,66.242,19.526,122.089,48.353,147.906
	C218.638,403.275,217.815,404.37,216.977,405.472z M256.001,401.526c-4.718,0-9.344-1.08-13.825-3.123
	c4.772-6.556,9.39-13.072,13.825-19.509c4.435,6.437,9.053,12.953,13.825,19.509C265.345,400.446,260.719,401.526,256.001,401.526z
	 M384.67,493.528c-3.933,3.119-6.143,2.488-6.858,2.283c-0.272-0.085-6.936-2.382-30.208-27.307
	c-16.115-17.259-34.789-39.645-52.58-63.033c-0.838-1.102-1.661-2.197-2.489-3.294c28.827-25.817,48.353-81.664,48.353-147.906
	c0-17.135-1.378-34.149-4.034-50.312c6.759,14.806,14.445,32.56,22.216,51.398c-0.121,2.409,0.859,4.708,2.583,6.291
	c2.762,6.764,5.522,13.634,8.243,20.532c24.438,61.949,39.552,109.701,40.432,127.736
	C411.857,441.221,399.387,481.854,384.67,493.528z"/>
<g>
</g>
<g>
</g>
<g>
</g>
<g>
</g>
<g>
</g>
<g>
</g>
<g>
</g>
<g>
</g>
<g>
</g>
<g>
</g>
<g>
</g>
<g>
</g>
<g>
</g>
<g>
</g>
<g>
</g>
</svg>
