<?xml version="1.0" encoding="iso-8859-1"?>
<!-- Generator: Adobe Illustrator 17.1.0, SVG Export Plug-In . SVG Version: 6.00 Build 0)  -->
<!DOCTYPE svg PUBLIC "-//W3C//DTD SVG 1.1//EN" "http://www.w3.org/Graphics/SVG/1.1/DTD/svg11.dtd">
<svg version="1.1" id="Capa_1" xmlns="http://www.w3.org/2000/svg" xmlns:xlink="http://www.w3.org/1999/xlink" x="0px" y="0px"
	 viewBox="0 0 512.023 512.023" style="enable-background:new 0 0 512.023 512.023;" xml:space="preserve">
<g>
	<path d="M511.875,311.057c-0.979-10.218-15.895-29.537-17.646-31.775c-9.115-11.643-24.037-27.722-43.367-38.201
		c-24.945-13.523-68.77-29.273-116.962-32.921c-15.852-1.199-22.575-14.127-32.23-35.119c-6.715-14.6-14.326-31.146-28.192-42.939
		c-9.862-8.39-24.929-14.038-33.427-7.978c-1.875,1.337-7.676,6.513-3.582,16.984c0.289,0.738,0.639,1.613,1.037,2.609
		c4.392,10.98,17.756,44.396,10.762,60.204c-1.466,3.313-3.736,5.448-7.145,6.721c-5.92,2.209-14.5,4.265-24.434,6.644
		c-37.302,8.934-99.329,23.792-169.338,79.767c-3.376-1.089-8.323-2.5-13.709-3.415c-14.897-2.53-25.515-0.044-31.561,7.39
		c-5.734,7.054,1.647,16.41,7.036,23.242c2.037,2.582,4.125,5.059,5.826,7.024c-4.872,9.947-14.655,31.781-14.655,46.729
		c0,4.025,3.02,7.444,7.012,7.956c0.377,0.048,0.749,0.096,1.185,0.096c1.487,0,3.719-0.556,9.421-3.54
		c3.174-1.661,8.077-4.474,13.406-8.436c9.075-6.747,20.652-17.852,25.004-32.796c3.783-2.98,20.852-9.408,49.355-13.311
		c18.363-2.513,54.18-5.611,87.755,1.879c55.418,12.366,92.407,15.342,103.592,16.002c-0.596,2.75-1.204,5.663-1.786,8.62
		c-5.562,28.244-3.479,33.395-0.414,36.841c0.917,1.032,3.246,3.104,7.138,3.104c0.82,0,1.709-0.092,2.668-0.305
		c11.056-2.452,32.864-23.191,37.124-27.324c5.316-5.158,12.726-12.775,19.146-20.93c15.212-0.888,86.682-5.128,111.413-7.87
		c19.79-2.193,31.934-7.062,37.126-14.882C512.224,316.922,512.2,313.121,511.875,311.057z M137.999,307.316
		c9.76-5.318,18.396-9.093,25.713-11.229c0.434-0.103,0.869-0.222,1.304-0.355c0.109-0.033,0.218-0.066,0.327-0.099
		c7.821-2.077,14.051-2.187,18.458-0.233c3.249,1.439,7.072,0.569,9.366-2.142s2.525-6.611,0.569-9.575
		c-0.684-1.037-1.863-2.027-3.468-2.885l0.013-0.028c-0.148-0.065-0.303-0.134-0.465-0.205c-1.323-0.655-2.904-1.224-4.71-1.665
		c-2.398-0.62-5.478-1.08-9.425-0.983c-4.569,0.057-9.771,0.803-15.365,2.522c-1.671,0.516-1.957-0.124-2.08-0.396
		c-0.251-0.558-0.064-0.787,0.48-1.121c5.349-3.271,16.078-8.692,27.909-8.373c13.1,0.373,24.688,7.793,34.44,22.054
		c8.471,12.386,18.301,22.115,28.203,29.632c-14.785-2.311-32.389-5.523-52.358-9.979
		C179.636,308.399,159.264,306.745,137.999,307.316z M330.98,352.959c-9.434,9.192-17.407,15.632-22.83,19.44
		c1.228-10.299,4.77-27.599,8.522-42.373c1.087-4.282-1.502-8.636-5.784-9.724c-4.283-1.089-8.635,1.503-9.723,5.784
		c-0.029,0.115-0.204,0.805-0.487,1.953c-0.284-0.013-0.727-0.034-1.323-0.067c-10.944-0.978-43.2-12.404-65.085-44.404
		c-12.807-18.725-28.685-28.487-47.192-29.014c-15.161-0.434-28.33,5.591-36.712,10.717c-7.423,4.54-10.249,13.519-6.718,21.348
		c0.006,0.014,0.013,0.028,0.019,0.042c-11.006,4.937-24.448,12.439-40.844,23.587c-1.396,0.194-2.792,0.382-4.184,0.596
		c-14.036,2.148-27.173,5.192-36.993,8.568c-12.831,4.413-18.954,8.785-20.475,14.621c-3.063,11.752-13.291,21.099-21.964,27.067
		c3.582-11.404,9.53-23.882,12.398-29.296c1.587-2.993,1.116-6.661-1.174-9.157c-4.968-5.415-9.884-11.5-12.567-15.428
		c6.633-1.76,19.65,0.979,28.114,4.296c2.692,1.06,5.75,0.586,7.994-1.244c68.605-55.994,129.85-70.663,166.442-79.427
		c10.875-2.604,19.465-4.661,26.302-7.213c7.397-2.761,12.993-8.029,16.182-15.237c8.55-19.324-0.96-48.593-10.324-72.085
		c2.979,0.975,6.945,2.924,10.538,5.979c11.173,9.503,17.705,23.704,24.022,37.438c9.592,20.853,19.51,42.416,45.559,44.388
		c45.677,3.457,87.053,18.297,110.544,31.032c30.012,16.271,50.454,49.984,52.576,56.917c-0.004,0-0.007,0-0.011,0
		c-9.848,0-25.364-2.119-41.792-4.363c-45.883-6.271-89.223-12.19-95.876,10.072C355.859,325.373,345.455,338.857,330.98,352.959z
		 M373.461,322.354c0.013-0.046,1.979-4.593,23.286-4.348c13.616,0.168,30.773,2.267,46.924,4.437
		c-23.91,1.806-54.43,3.706-72.08,4.77C372.353,325.555,372.991,323.929,373.461,322.354z"/>
	<path d="M387.242,295.53c6.686,2.631,14.125,3.499,21.03,3.499c12.935,0,23.991-3.045,24.691-3.242
		c2.288-0.643,4.171-2.27,5.14-4.44c0.969-2.17,0.922-4.658-0.126-6.791c-6.781-13.79-29.813-29.521-72.38-28.449
		c-2.655,0.066-5.103,1.445-6.536,3.681c-1.433,2.236-1.663,5.037-0.613,7.477C358.805,268.095,367.439,287.736,387.242,295.53z
		 M414.741,282.758c-6.832,0.617-15.003,0.495-21.639-2.117c-4.806-1.892-8.716-4.923-11.758-8.046
		C396.56,274.034,407.629,278.165,414.741,282.758z"/>
</g>
<g>
</g>
<g>
</g>
<g>
</g>
<g>
</g>
<g>
</g>
<g>
</g>
<g>
</g>
<g>
</g>
<g>
</g>
<g>
</g>
<g>
</g>
<g>
</g>
<g>
</g>
<g>
</g>
<g>
</g>
</svg>
