<?xml version="1.0" encoding="iso-8859-1"?>
<!-- Generator: Adobe Illustrator 17.1.0, SVG Export Plug-In . SVG Version: 6.00 Build 0)  -->
<!DOCTYPE svg PUBLIC "-//W3C//DTD SVG 1.1//EN" "http://www.w3.org/Graphics/SVG/1.1/DTD/svg11.dtd">
<svg version="1.1" id="Capa_1" xmlns="http://www.w3.org/2000/svg" xmlns:xlink="http://www.w3.org/1999/xlink" x="0px" y="0px"
	 viewBox="0 0 511.993 511.993" style="enable-background:new 0 0 511.993 511.993;" xml:space="preserve">
<g>
	<path d="M231.993,220.625c-2.1,0-4.17,0.85-5.66,2.34s-2.34,3.56-2.34,5.66c0,2.1,0.85,4.17,2.34,5.66
		c1.49,1.489,3.56,2.34,5.66,2.34c2.1,0,4.17-0.851,5.66-2.34c1.49-1.49,2.34-3.561,2.34-5.66c0-2.101-0.85-4.17-2.34-5.66
		C236.163,221.475,234.093,220.625,231.993,220.625z"/>
	<path d="M431.547,292.638c-7.694,0.43-14.731,0.279-21.229-0.339c-17.477-19.621-40.063-40.861-74.42-50.451
		c23.597-2.458,46.856,1.848,69.603,6.066c9.303,1.724,18.476,3.421,27.471,4.608c17.366,17.07,38.546,32.104,71.021,32.104
		c4.418,0,8-3.582,8-8s-3.582-8-8-8c-18.405,0-32.576-5.938-44.653-14.58c17.823-0.69,34.648-5.71,49.993-19.463
		c3.29-2.948,3.567-8.006,0.618-11.296c-2.949-3.293-8.007-3.568-11.297-0.618c-16.618,14.892-36.197,16.923-58.259,14.618
		c-3.445-3.543-6.794-7.18-10.121-10.798c-11.656-12.675-23.586-25.637-38.679-32.623c3.484-7.838,3.306-14.653,2.004-19.832
		c-3.706-14.748-20.756-33.729-80.935-40.396c-51.9-5.75-124.553-0.522-210.11,15.119c-4.347,0.794-7.226,4.962-6.431,9.308
		c0.795,4.347,4.968,7.229,9.308,6.431c84.048-15.366,155.097-20.536,205.471-14.955c45.539,5.046,64.562,17.976,67.179,28.394
		c0.825,3.282,0.165,7.11-2.102,11.264c-0.693-0.1-1.395-0.183-2.101-0.256c-6.373-12.922-26.216-22.154-57.994-26.857
		c-37.117-5.49-88.584-4.594-148.84,2.599c-4.387,0.523-7.519,4.504-6.996,8.892c0.524,4.388,4.509,7.526,8.892,6.995
		c74.372-8.877,119.685-6.344,144.602-2.657c15.063,2.229,27.414,5.6,35.718,9.749c1.723,0.861,3.263,1.756,4.613,2.666
		c-13.94,3.419-24.591,11.381-33.567,18.097c-8.75,6.548-16.307,12.202-24.313,12.202c-4.231,0-13.44-4.333-21.565-8.155
		c-18.23-8.579-40.411-18.997-57.525-10.13c-0.305-0.2-0.624-0.399-0.956-0.597c-5.73-3.396-13.79-5.118-23.954-5.118
		c-22.5,0-47.031,4.99-68.674,9.394c-15.692,3.192-30.565,6.218-41.308,6.571c-7.06-3.707-29.698-13.513-53.546-1.792
		c-10.431,5.126-24.173,13.814-24.753,14.182c-0.038,0.024-0.071,0.052-0.108,0.076c-0.137,0.09-0.271,0.186-0.403,0.285
		c-0.086,0.064-0.171,0.128-0.254,0.195c-0.113,0.092-0.223,0.189-0.331,0.288c-0.095,0.086-0.189,0.172-0.279,0.263
		c-0.085,0.085-0.167,0.174-0.248,0.264c-0.104,0.113-0.205,0.228-0.301,0.346c-0.063,0.078-0.124,0.159-0.185,0.241
		c-0.102,0.136-0.201,0.274-0.294,0.416c-0.023,0.036-0.05,0.067-0.073,0.103c-0.03,0.048-0.054,0.099-0.083,0.147
		c-0.085,0.14-0.166,0.282-0.241,0.427c-0.053,0.102-0.103,0.204-0.152,0.306c-0.059,0.125-0.114,0.251-0.166,0.379
		c-0.051,0.125-0.1,0.251-0.144,0.379c-0.038,0.109-0.073,0.218-0.106,0.328c-0.044,0.144-0.084,0.288-0.119,0.432
		c-0.025,0.103-0.046,0.206-0.067,0.309c-0.03,0.149-0.057,0.298-0.078,0.447c-0.016,0.109-0.027,0.218-0.038,0.327
		c-0.014,0.142-0.026,0.283-0.033,0.425C0.001,231.487,0,231.612,0,231.737c0,0.125,0.001,0.25,0.007,0.374
		c0.007,0.142,0.019,0.283,0.033,0.425c0.011,0.109,0.023,0.218,0.038,0.327c0.021,0.149,0.048,0.298,0.078,0.447
		c0.021,0.103,0.042,0.206,0.067,0.309c0.035,0.145,0.075,0.289,0.119,0.432c0.033,0.11,0.068,0.219,0.106,0.328
		c0.045,0.127,0.093,0.253,0.144,0.379c0.052,0.128,0.107,0.253,0.166,0.379c0.048,0.103,0.099,0.205,0.152,0.306
		c0.076,0.145,0.157,0.287,0.241,0.427c0.029,0.048,0.052,0.099,0.083,0.147c0.018,0.029,0.041,0.053,0.059,0.082
		c0.16,0.247,0.333,0.486,0.521,0.716c0.017,0.021,0.032,0.044,0.05,0.065c0.199,0.236,0.414,0.461,0.642,0.677
		c0.075,0.07,0.154,0.133,0.231,0.201c0.15,0.131,0.304,0.258,0.466,0.379c0.106,0.079,0.213,0.154,0.322,0.227
		c0.063,0.043,0.121,0.091,0.186,0.132c0.58,0.367,14.322,9.056,24.753,14.182c8.955,4.401,16.96,5.933,23.772,5.933
		c10.304,0,17.861-3.506,21.815-5.893c3.295,0.527,9.39,1.786,15.341,3.015c23.337,4.823,62.398,12.895,94.6,12.895
		c2.848,0,5.538,0.009,8.1,0.018c24.756,0.081,38.391,0.13,66.235-8.366c10.147-3.095,14.457-2.603,15.709-2.311
		c0.027,0.03,0.059,0.056,0.086,0.086c0.044,0.048,0.093,0.092,0.138,0.138c0.337,0.348,0.699,0.673,1.098,0.957
		c7.654,5.438,14.366,12.151,22.136,19.924c16.275,16.279,36.53,36.54,75.389,52.926c12.909,5.444,20.18,14.255,18.524,22.446
		c-1.251,6.186-7.302,10.183-15.416,10.183c-4.418,0-8,3.582-8,8s3.582,8,8,8c15.817,0,28.314-9.248,31.098-23.012
		c1.532-7.573-0.222-15.623-4.937-22.666c-4.866-7.268-12.837-13.386-23.052-17.693c-35.975-15.17-54.206-33.406-70.291-49.495
		c-1.534-1.534-3.049-3.045-4.562-4.54c12.036,3.552,22.418,10.138,33.772,17.34c17.169,10.889,36.074,22.875,64.322,26.91
		c2.072,2.393,4.094,4.764,6.07,7.085c15.563,18.282,29.005,34.071,47.58,34.071c4.418,0,8-3.582,8-8s-3.582-8-8-8
		c-10.06,0-19.717-10.158-31.403-23.765c2.555-0.026,5.161-0.097,7.849-0.248c52.679-2.945,64.188,19.157,64.298,19.38l-0.071-0.155
		l14.654-6.424C510.739,320.089,496.353,289.012,431.547,292.638z M414.854,233.368c-2.128-0.388-4.273-0.786-6.437-1.187
		c-15.718-2.913-32.375-5.994-49.633-6.812c6.518-3.784,12.25-7.742,17.061-11.835c2.472-2.104,4.634-4.176,6.531-6.211
		C394.264,211.915,404.213,221.884,414.854,233.368z M355.349,206.523c-4.734,4.695-13.303,10.25-26.965,15.838
		c0.503-0.375,1.007-0.751,1.508-1.126C337.673,215.412,345.652,209.466,355.349,206.523z M192.146,252.643
		c-2.579-0.009-5.286-0.018-8.153-0.018c-30.566,0-68.624-7.864-91.362-12.563c-12.094-2.5-17.57-3.604-20.638-3.604
		c-1.952,0-3.741,0.701-5.133,1.861c-0.984,0.757-12.62,9.195-31.338-0.003c-3.783-1.859-8.15-4.297-12.073-6.58
		c3.923-2.283,8.29-4.721,12.073-6.58c20.013-9.833,39.368,1.726,40.256,2.268c0.054,0.033,0.11,0.059,0.164,0.091
		c0.138,0.082,0.278,0.16,0.422,0.233c0.099,0.051,0.199,0.098,0.299,0.145c0.134,0.061,0.269,0.12,0.406,0.174
		c0.117,0.046,0.233,0.088,0.351,0.128c0.123,0.042,0.247,0.081,0.372,0.117c0.137,0.04,0.275,0.074,0.413,0.106
		c0.11,0.025,0.22,0.049,0.332,0.069c0.157,0.029,0.314,0.052,0.472,0.072c0.099,0.012,0.198,0.024,0.298,0.032
		c0.171,0.015,0.341,0.022,0.512,0.026c0.059,0.001,0.116,0.009,0.174,0.009c0.088,0,0.18-0.004,0.268-0.004
		c0.012,0,0.024,0,0.036-0.001c12.418-0.051,28.087-3.235,46.212-6.923c20.903-4.252,44.595-9.072,65.484-9.072
		c6.016,0,9.992,0.712,12.585,1.52c-7.342,12.843-3.043,28.532,2.135,38.457C202.265,252.675,197.505,252.66,192.146,252.643z
		 M253.659,244.974c-12.025,3.668-21.053,5.599-29.741,6.607c-0.154-1.177-0.565-2.338-1.268-3.393
		c-0.128-0.192-12.334-19.69-1.305-29.616c9.773-8.796,30.01,0.727,46.271,8.376c10.307,4.85,19.299,9.078,26.802,9.617
		c-0.509,0.229-1.018,0.448-1.527,0.685c-0.014,0.006-0.027,0.012-0.041,0.019c-0.083,0.039-0.166,0.073-0.25,0.112
		c-0.058,0.027-0.11,0.061-0.167,0.089c-0.142,0.07-0.282,0.144-0.419,0.222c-0.105,0.06-0.207,0.123-0.308,0.188
		c-0.112,0.071-0.222,0.144-0.33,0.221c-0.116,0.082-0.229,0.167-0.34,0.254c-0.086,0.068-0.17,0.137-0.253,0.208
		c-0.118,0.102-0.233,0.206-0.345,0.313c-0.072,0.069-0.142,0.14-0.211,0.212c-0.109,0.113-0.214,0.228-0.315,0.347
		c-0.068,0.08-0.134,0.162-0.199,0.245c-0.09,0.115-0.178,0.23-0.261,0.35c-0.07,0.099-0.136,0.2-0.201,0.302
		c-0.069,0.108-0.136,0.217-0.2,0.328c-0.069,0.121-0.133,0.243-0.196,0.367c-0.05,0.1-0.1,0.2-0.146,0.302
		c-0.062,0.137-0.119,0.275-0.173,0.416c-0.038,0.099-0.075,0.198-0.109,0.298c-0.048,0.141-0.092,0.284-0.133,0.429
		c-0.031,0.111-0.059,0.222-0.086,0.333c-0.031,0.133-0.059,0.266-0.083,0.401c-0.024,0.135-0.044,0.27-0.062,0.405
		c-0.015,0.115-0.028,0.23-0.038,0.347c-0.014,0.162-0.021,0.323-0.025,0.486c-0.001,0.029-0.004,0.057-0.004,0.086
		c-1.667-0.058-3.368-0.066-5.103-0.025c-1.311-0.83-2.963-1.576-5.061-2.083C271.899,240.988,263.992,241.821,253.659,244.974z
		 M329.462,256.721c21.788,5.659,38.392,16.595,52.085,29.022c-13.297-4.963-24.219-11.886-34.957-18.696
		C341.017,263.512,335.385,259.946,329.462,256.721z"/>
</g>
<g>
</g>
<g>
</g>
<g>
</g>
<g>
</g>
<g>
</g>
<g>
</g>
<g>
</g>
<g>
</g>
<g>
</g>
<g>
</g>
<g>
</g>
<g>
</g>
<g>
</g>
<g>
</g>
<g>
</g>
</svg>
