<?xml version="1.0" encoding="iso-8859-1"?>
<!-- Generator: Adobe Illustrator 17.1.0, SVG Export Plug-In . SVG Version: 6.00 Build 0)  -->
<!DOCTYPE svg PUBLIC "-//W3C//DTD SVG 1.1//EN" "http://www.w3.org/Graphics/SVG/1.1/DTD/svg11.dtd">
<svg version="1.1" id="Capa_1" xmlns="http://www.w3.org/2000/svg" xmlns:xlink="http://www.w3.org/1999/xlink" x="0px" y="0px"
	 viewBox="0 0 512 512" style="enable-background:new 0 0 512 512;" xml:space="preserve">
<path d="M414.262,236.431c-47.207-66.152-95.546-121.514-104.42-129.795c-0.659-2.613-1.659-5.09-3.046-7.409
	c-2.649-4.431-6.401-7.879-10.823-10.546c0.012-0.18,0.027-0.36,0.027-0.543c0-10.32-6.145-19.51-15.655-25.365
	c1.555-7.535,8.563-32.154,35.638-47.696c3.832-2.2,5.155-7.09,2.955-10.921c-2.2-3.834-7.09-5.156-10.921-2.956
	c-30.114,17.287-39.811,43.82-42.761,55.813c-2.973-0.566-6.07-0.875-9.256-0.875s-6.283,0.309-9.256,0.875
	c-2.95-11.993-12.647-38.526-42.761-55.813c-3.832-2.199-8.722-0.876-10.921,2.956c-2.2,3.831-0.876,8.721,2.955,10.921
	c27.195,15.611,34.107,40.091,35.643,47.693C222.147,68.625,216,77.816,216,88.138c0,0.183,0.015,0.363,0.027,0.543
	c-4.423,2.667-8.174,6.115-10.823,10.546c-1.387,2.319-2.387,4.796-3.046,7.409c-8.874,8.281-57.213,63.643-104.42,129.795
	C32.884,327.311,0,395.848,0,440.138c0,35.844,7.262,57.791,22.201,67.095c5.442,3.39,11.174,4.632,16.708,4.632
	c11.215-0.001,21.61-5.107,27.083-7.798c0.534-0.263,1.022-0.502,1.459-0.712c10.2-4.878,52.658-28.553,92.039-57.701
	c46.226-34.216,72.711-64.243,79.019-89.49c5.181,2.074,11.546,3.974,17.491,3.974s12.31-1.901,17.491-3.974
	c6.308,25.247,32.792,55.274,79.019,89.49c39.381,29.148,81.839,52.823,92.039,57.701c0.438,0.21,0.926,0.449,1.459,0.712
	c5.474,2.69,15.867,7.798,27.083,7.798c5.533,0,11.266-1.243,16.708-4.632C504.738,497.929,512,475.982,512,440.138
	C512,395.848,479.116,327.311,414.262,236.431z M223.047,132.352c-4.104-7.639-8.148-18.16-4.111-24.914
	c4.294-7.182,17.803-11.3,37.063-11.3s32.77,4.118,37.063,11.3c4.038,6.753-0.007,17.275-4.11,24.914
	c-4.489,8.354-16.687,27.786-32.953,27.786C239.734,160.138,227.537,140.706,223.047,132.352z M256,72.138
	c9.862,0,18.558,4.212,22.192,10.027c-7.461-1.525-15.233-2.027-22.192-2.027s-14.731,0.502-22.192,2.027
	C237.442,76.35,246.138,72.138,256,72.138z M149.972,432.793c-41.603,30.793-83.454,53.272-89.423,56.128
	c-0.484,0.231-1.023,0.496-1.613,0.786c-6.279,3.085-19.347,9.507-28.276,3.944C21.206,487.764,16,468.759,16,440.138
	c0-40.161,32.543-107.072,94.11-193.499c38.102-53.488,76.32-98.958,93.678-118.42c0.789,2.341,1.78,4.757,2.935,7.232
	c-8.77,12.611-37.289,53.99-65.499,98.934C94.644,308.594,72,354.962,72,376.138c0,4.418,3.582,8,8,8s8-3.582,8-8
	c0-10.03,8.671-40.672,66.743-133.195c24.47-38.987,49.182-75.285,60.861-92.212c0.871,1.239,1.789,2.486,2.76,3.729
	c-0.55,0.547-1.03,1.182-1.416,1.901C213.643,162.529,136,307.971,136,352.138c0,4.418,3.582,8,8,8s8-3.582,8-8
	c0-32.741,55.006-143.06,77.816-185.907c0.712,0.57,1.438,1.124,2.18,1.659c-0.542,7.138-8.962,119.284-7.995,176.385
	C224.365,365.751,198.074,397.189,149.972,432.793z M239.943,339.298c-0.399-51.024,5.773-139.683,7.557-164.137
	c2.708,0.63,5.541,0.978,8.5,0.978s5.791-0.348,8.5-0.978c1.785,24.454,7.956,113.108,7.557,164.133
	c-4.448,2.156-11.13,4.844-16.057,4.844C251.052,344.138,244.419,341.475,239.943,339.298z M481.34,493.652
	c-8.929,5.563-21.996-0.857-28.276-3.944c-0.59-0.29-1.129-0.555-1.613-0.786c-5.97-2.855-47.82-25.335-89.423-56.128
	c-48.103-35.604-74.394-67.042-74.029-88.52c0.968-57.099-7.452-169.242-7.995-176.384c0.742-0.535,1.468-1.089,2.18-1.659
	C304.994,209.079,360,319.397,360,352.138c0,4.418,3.582,8,8,8s8-3.582,8-8c0-44.167-77.643-189.608-80.948-195.777
	c-0.385-0.719-0.866-1.354-1.416-1.9c0.971-1.243,1.889-2.49,2.76-3.729c11.672,16.917,36.362,53.183,60.828,92.16
	C415.325,335.453,424,366.105,424,376.138c0,4.418,3.582,8,8,8s8-3.582,8-8c0-21.176-22.644-67.544-69.224-141.753
	c-28.21-44.943-56.729-86.323-65.499-98.934c1.155-2.476,2.146-4.892,2.935-7.232c17.357,19.461,55.575,64.931,93.678,118.42
	C463.457,333.066,496,399.977,496,440.138C496,468.759,490.794,487.764,481.34,493.652z"/>
<g>
</g>
<g>
</g>
<g>
</g>
<g>
</g>
<g>
</g>
<g>
</g>
<g>
</g>
<g>
</g>
<g>
</g>
<g>
</g>
<g>
</g>
<g>
</g>
<g>
</g>
<g>
</g>
<g>
</g>
</svg>
