<?xml version="1.0" encoding="iso-8859-1"?>
<!-- Generator: Adobe Illustrator 17.1.0, SVG Export Plug-In . SVG Version: 6.00 Build 0)  -->
<!DOCTYPE svg PUBLIC "-//W3C//DTD SVG 1.1//EN" "http://www.w3.org/Graphics/SVG/1.1/DTD/svg11.dtd">
<svg version="1.1" id="Capa_1" xmlns="http://www.w3.org/2000/svg" xmlns:xlink="http://www.w3.org/1999/xlink" x="0px" y="0px"
	 viewBox="0 0 512.001 512.001" style="enable-background:new 0 0 512.001 512.001;" xml:space="preserve">
<path d="M347.578,0.846c-3.952-1.976-8.758-0.374-10.733,3.577l-70.662,141.323c-3.274-1.136-6.677-1.745-10.183-1.745
	s-6.909,0.609-10.183,1.745L175.156,4.423c-1.975-3.95-6.78-5.553-10.733-3.577c-3.952,1.976-5.554,6.781-3.578,10.733
	l71.332,142.665c-14.048,13.131-23.502,37.701-24.132,66.673l-13.516-4.505c-4.192-1.396-8.722,0.869-10.119,5.06
	c-1.397,4.192,0.868,8.723,5.06,10.12l19.247,6.416c1.524,14.953,5.452,28.361,11.13,39.127l-21.736,10.868h-6.111
	c-4.418,0-8,3.582-8,8s3.582,8,8,8h8c1.242,0,2.467-0.289,3.578-0.845l19.907-9.954c0.253,14.393,0.966,39.184,2.969,63.775
	c1.874,23,4.322,40.666,7.568,53.688c-10.788,11.085-27.631,19.474-43.014,21.397c-4.384,0.548-7.494,4.547-6.946,8.931
	c0.506,4.048,3.952,7.009,7.928,7.009c0.331,0,0.666-0.021,1.002-0.063c16.478-2.06,33.707-9.82,46.713-20.76
	c2.43,4.931,5.181,8.354,8.294,10.417v66.405c0,4.418,3.582,8,8,8s8-3.582,8-8v-66.405c3.113-2.063,5.864-5.486,8.294-10.417
	c13.006,10.94,30.236,18.7,46.713,20.76c0.337,0.042,0.671,0.063,1.002,0.063c3.976,0,7.422-2.961,7.928-7.009
	c0.548-4.384-2.562-8.383-6.946-8.931c-15.383-1.923-32.226-10.312-43.014-21.397c3.246-13.021,5.695-30.688,7.568-53.688
	c2.003-24.591,2.715-49.382,2.969-63.775l19.907,9.954c1.111,0.556,2.335,0.845,3.578,0.845h8c4.418,0,8-3.582,8-8s-3.582-8-8-8
	h-6.111l-21.736-10.868c5.677-10.766,9.606-24.174,11.13-39.127l19.247-6.416c4.191-1.397,6.457-5.928,5.06-10.12
	c-1.397-4.19-5.929-6.455-10.119-5.06l-13.516,4.505c-0.63-28.971-10.084-53.542-24.132-66.673L351.156,11.58
	C353.132,7.627,351.53,2.822,347.578,0.846z M277.292,176.975c0.676,1.216,1.312,2.484,1.928,3.779
	c-6.884-3.047-14.811-4.753-23.219-4.753c-8.4,0-16.334,1.713-23.228,4.771c0.618-1.302,1.258-2.576,1.937-3.798
	c5.993-10.787,13.753-16.974,21.291-16.974S271.299,166.188,277.292,176.975z M242.769,360.001h26.464
	c-0.515,5.846-1.065,11.164-1.638,16h-23.187C243.834,371.166,243.284,365.847,242.769,360.001z M270.458,344.001h-28.914
	c-0.36-5.449-0.66-10.823-0.912-16h30.738C271.118,333.177,270.817,338.551,270.458,344.001z M239.975,312.001
	c-0.155-4.579-0.272-8.825-0.36-12.624c5.093,2.992,10.604,4.624,16.386,4.624c5.783,0,11.294-1.632,16.387-4.624
	c-0.088,3.798-0.205,8.045-0.36,12.624H239.975z M272.845,276.423c-0.367,0.734-0.61,1.498-0.738,2.267
	c-4.971,5.992-10.597,9.311-16.107,9.311s-11.136-3.318-16.107-9.311c-0.128-0.769-0.37-1.533-0.738-2.267
	c-0.26-0.521-0.572-0.997-0.922-1.433c1.87-6.285,9.118-10.989,17.767-10.989s15.896,4.704,17.767,10.989
	C273.417,275.426,273.106,275.903,272.845,276.423z M256.001,423.37c-0.802-0.987-2.115-3.082-3.665-7.368h7.33
	C258.115,420.288,256.802,422.382,256.001,423.37z M249.334,400.001c-0.412,0-0.813,0.041-1.208,0.101
	c-0.494-2.446-0.989-5.14-1.479-8.101h18.707c-0.483,2.92-0.971,5.581-1.458,8H249.334z M256.001,248.001
	c-10.683,0-20.236,4.334-26.522,11.109c-1.425-4.151-2.587-8.568-3.466-13.19c0.254-9.398,14.153-17.586,29.988-17.586
	s29.734,8.188,29.988,17.586c-0.879,4.622-2.041,9.039-3.466,13.19C276.237,252.335,266.684,248.001,256.001,248.001z
	 M256.001,212.334c-12.54,0-23.75,3.521-31.969,9.313c0.069-3.675,0.29-7.295,0.675-10.83c0.139-0.32,0.265-0.648,0.363-0.993
	c2.939-10.327,15.948-17.823,30.931-17.823c14.851,0,28.167,7.728,30.973,17.976c0.085,0.311,0.208,0.6,0.327,0.892
	c0.382,3.518,0.601,7.121,0.669,10.778C279.751,215.855,268.541,212.334,256.001,212.334z"/>
<g>
</g>
<g>
</g>
<g>
</g>
<g>
</g>
<g>
</g>
<g>
</g>
<g>
</g>
<g>
</g>
<g>
</g>
<g>
</g>
<g>
</g>
<g>
</g>
<g>
</g>
<g>
</g>
<g>
</g>
</svg>
