<?xml version="1.0" encoding="iso-8859-1"?>
<!-- Generator: Adobe Illustrator 17.1.0, SVG Export Plug-In . SVG Version: 6.00 Build 0)  -->
<!DOCTYPE svg PUBLIC "-//W3C//DTD SVG 1.1//EN" "http://www.w3.org/Graphics/SVG/1.1/DTD/svg11.dtd">
<svg version="1.1" id="Capa_1" xmlns="http://www.w3.org/2000/svg" xmlns:xlink="http://www.w3.org/1999/xlink" x="0px" y="0px"
	 viewBox="0 0 512.001 512.001" style="enable-background:new 0 0 512.001 512.001;" xml:space="preserve">
<g>
	<path d="M511.991,263.493c-0.222-6.456-4.069-12.327-11.761-17.948c-2.098-1.533-4.455-3.244-7.012-5.102
		c-18.841-13.683-47.313-34.359-64.153-50.208c-5.401-5.084-11.695-9.195-18.675-12.52c7.989-16.438,5.797-36.678,5.05-39.424
		c-0.97-3.564-3.464-5.039-4.871-5.603c-2.124-0.85-4.619-1.572-7.509-2.409c-7.604-2.202-18.018-5.218-31.375-13.048
		c-1.705-0.999-3.72-1.332-5.653-0.936c-0.518,0.106-52.148,10.674-87.477,15.906c-2.237,0.332-4.229,1.595-5.484,3.477
		l-31.968,47.952c-0.56,0.84-0.931,1.748-1.141,2.677c-1.923,0.436-3.927,0.855-6.042,1.25c-3.77-2.96-10.815-8.421-18.419-13.951
		c-22.221-16.16-28.003-17.514-31.679-17.514c-8.883,0-22.997,5.817-35.119,14.477c-15.486,11.062-25.666,25.222-28.662,39.871
		c-0.481,2.354,0.121,4.801,1.64,6.662s3.795,2.941,6.198,2.941h34.955c-9.97,6.58-19.576,12.62-29.794,16.485
		c-21.129,7.995-44.665,8.331-65.431,8.627c-26.654,0.38-51.831,0.739-65.794,17.758c-1.554,1.893-2.154,4.394-1.63,6.786
		c0.524,2.392,2.115,4.412,4.317,5.483c18.044,8.771,39.05,20.995,43.395,26.15c-0.56,8.523-5.257,37.336-6.866,47.203
		c-1.071,6.57-1.071,6.57-1.071,7.362c0,4.039,2.563,7.484,6.379,8.571c0.639,0.183,1.437,0.41,2.541,0.41
		c3.704,0,10.849-2.565,26.98-18.015c7.682-7.356,22.424-22.686,34.841-42.691c11.37-18.317,35.77-23.33,62.16-12.775
		c0.451,0.181,0.899,0.372,1.349,0.557h-6.37c-2.256,0-4.408,0.953-5.924,2.624c-1.516,1.671-2.256,3.904-2.038,6.15
		c0.012,0.121,1.197,12.263,2.778,24.248c0.942,7.138,1.844,12.862,2.68,17.016c1.116,5.54,2.802,13.913,10.496,13.913
		c23.776,0,54.483-20.792,62.301-34.807c2.306,0.823,4.68,1.639,7.143,2.443c16.41,5.359,33.644,9.017,50.754,11.392
		c0.573,4.353,2.016,15.252,3.493,26.044c1.116,8.151,2.034,14.652,2.729,19.323c0.419,2.815,0.764,5.01,1.024,6.521
		c0.427,2.474,1.561,9.043,8.418,9.043c25.671,0,50.116-37.113,55.048-57.453c25.949-0.856,47.264-3.843,58.779-6.722
		c5.064-1.266,11.572-3.153,18.661-5.529c0.117-0.035,0.231-0.075,0.346-0.115c9.491-3.193,20.002-7.26,29.519-11.913
		c21.977-10.744,31.297-20.784,29.332-31.595c-0.142-0.778-0.391-1.509-0.73-2.181C506.014,277.516,512.281,271.923,511.991,263.493
		z M284.42,147.499c30.504-4.671,70.718-12.679,81.859-14.928c13.822,7.718,24.869,10.916,32.331,13.077
		c0.575,0.166,1.132,0.327,1.666,0.484c0.221,6.007-0.288,17.419-4.934,25.865c-22.25-6.655-48.991-7.914-75.656-7.914
		c-22.666,0-35.08,5.467-48.223,11.254c-2.565,1.129-5.154,2.268-7.863,3.39L284.42,147.499z M183.38,172.107
		c4.114,1.252,17.146,10.147,30.498,20.198c-9.82,3.244-18.713,7.607-26.945,12.366c-0.956-0.403-2.007-0.627-3.109-0.627H139.16
		C149.387,184.296,175.634,172.56,183.38,172.107z M58.441,341.11c3.025-18.871,5.511-35.595,5.511-41.153
		c0-6.194-4.681-12.732-27.981-26.162c-4.596-2.648-9.161-5.127-13.083-7.195c10.809-4.957,26.953-5.188,44.95-5.444
		c3.868-0.055,7.832-0.114,11.858-0.218c-1.158,8.467-1.832,24.1,16.711,35.898C84.219,316.142,68.865,332.089,58.441,341.11z
		 M181.123,339.464c-1.35-6.563-3.048-19.116-4.411-31.508h30.534c4.861,2.376,10.05,4.8,15.719,7.213
		C217.412,322.273,198.06,336.751,181.123,339.464z M318.135,378.356c-1.371-9.207-3.608-25.563-5.717-41.516
		c12.951,1.218,25.649,1.761,37.674,1.813C345.473,351.286,331.281,372.536,318.135,378.356z M491.975,268.433
		c-0.354,0.298-0.698,0.588-1.031,0.879c-2.923,0.452-10.958-0.076-18.137-1.229c-0.421-0.068-0.847-0.103-1.274-0.103
		c-10.133,0-17.204,5.898-21.641,10.335c-3.125,3.125-3.125,8.189,0,11.314c3.124,3.123,8.189,3.123,11.313,0
		c3.743-3.743,6.708-5.458,9.791-5.634c7.018,1.103,12.371,1.507,16.46,1.476c-1.02,2.093-6.441,7.777-23.083,15.556
		c-7.783,3.638-16.021,6.826-23.653,9.434c-19.922-0.365-34.163-9.771-42.308-28.021c-4.958-11.108-6.297-22.486-6.658-27.62
		c3.803-4.154,13.363-13.487,26.806-18.864c4.102-1.641,6.098-6.297,4.457-10.398c-1.641-4.104-6.298-6.099-10.399-4.457
		c-21.751,8.701-34.778,25.305-35.322,26.007c-1.085,1.402-1.674,3.125-1.674,4.897c0,0.2,0.008,1.625,0.168,3.935
		c-15.292-4.701-41.235-11.935-56.104-11.935c-4.134,0-7.587,3.149-7.966,7.266c-0.279,3.029-2.351,29.967,10.667,42.984
		c12.72,12.719,30.091,13.702,53.244,13.702c4.418,0,8-3.582,8-8s-3.582-8-8-8c-19.882,0-33.542-0.628-41.93-9.017
		c-2.57-2.569-6.019-10.516-6.311-22.336c15.484,2.061,38.77,8.953,51.195,12.991c1.156,4.683,2.763,9.767,4.998,14.867
		c5.985,13.653,14.765,23.766,25.968,30.12c-35.382,5.724-104.387,7.688-159.308-10.246c-19.824-6.474-34.266-13.812-47.008-20.286
		c-8.24-4.187-16.024-8.142-24.432-11.505c-17.212-6.884-34.145-8.458-48.965-4.554c-8.813,2.323-16.714,6.581-23.164,12.363
		c-12.227-6.947-12.16-14.601-10.847-23.14c0.054-0.352,0.076-0.701,0.084-1.048c14.125-1.048,28.681-3.332,42.792-8.671
		c13.25-5.014,25.294-13.011,36.942-20.744c17.027-11.306,34.634-22.996,57.446-26.798c21.069-3.512,33.688-9.068,44.821-13.971
		c12.558-5.53,22.476-9.897,41.775-9.897c39.083,0,78.055,2.642,98.413,21.802c17.58,16.547,46.548,37.583,65.717,51.504
		c2.543,1.847,4.887,3.549,6.973,5.073c4.927,3.601,5.21,5.562,5.211,5.58C496.015,264.487,495.33,265.609,491.975,268.433z"/>
	<path d="M455.55,244.007c-2.11,0-4.17,0.85-5.66,2.34c-1.49,1.49-2.34,3.55-2.34,5.66c0,2.1,0.85,4.16,2.34,5.65
		c1.49,1.489,3.55,2.35,5.66,2.35s4.17-0.86,5.66-2.35c1.49-1.49,2.34-3.551,2.34-5.65c0-2.11-0.85-4.17-2.34-5.66
		C459.72,244.857,457.66,244.007,455.55,244.007z"/>
</g>
<g>
</g>
<g>
</g>
<g>
</g>
<g>
</g>
<g>
</g>
<g>
</g>
<g>
</g>
<g>
</g>
<g>
</g>
<g>
</g>
<g>
</g>
<g>
</g>
<g>
</g>
<g>
</g>
<g>
</g>
</svg>
