<?xml version="1.0" encoding="iso-8859-1"?>
<!-- Generator: Adobe Illustrator 17.1.0, SVG Export Plug-In . SVG Version: 6.00 Build 0)  -->
<!DOCTYPE svg PUBLIC "-//W3C//DTD SVG 1.1//EN" "http://www.w3.org/Graphics/SVG/1.1/DTD/svg11.dtd">
<svg version="1.1" id="Capa_1" xmlns="http://www.w3.org/2000/svg" xmlns:xlink="http://www.w3.org/1999/xlink" x="0px" y="0px"
	 viewBox="0 0 512.003 512.003" style="enable-background:new 0 0 512.003 512.003;" xml:space="preserve">
<g>
	<path d="M488.002,240.003c-20.894,0-35.969,9.317-44.916,17.101c-3.79-10.61-9.002-25.757-11.323-35.041
		c-4.816-19.263-21.518-23.73-31.966-22.147c-8.326-21.192-19.739-40.587-33.965-57.372v0.001c-2.92-3.446-6.498-6.123-10.444-7.985
		c4.637-4.958,7.285-10.883,3.812-18.046l-0.441-0.909c-1.302-2.685-2.548-5.255-3.763-7.726
		c10.893-4.682,29.006-13.975,29.006-35.874V19.697c13.975,4.259,38.924,8.165,67.241-4.38c4.04-1.79,5.863-6.516,4.074-10.555
		c-1.79-4.04-6.515-5.866-10.555-4.074c-35.202,15.596-63.795,0.89-64.966,0.271c-2.479-1.336-5.478-1.267-7.896,0.176
		c-2.417,1.444-3.897,4.053-3.897,6.868v64c0,11.622-9.485,16.98-20.397,21.628c-6.093-10.814-12.33-18.948-21.457-24.978
		c-4.23-2.795-8.93-5.054-14.454-6.851c-1.974-8.358-6.014-15.598-11.911-21.462c9.043-8.876,17.119-20.826,19.882-30.038
		c1.27-4.232-1.132-8.691-5.364-9.962c-4.232-1.263-8.692,1.134-9.961,5.364c-2.182,7.274-10.07,18.215-17.904,25.229
		c-0.034-0.017-0.066-0.035-0.099-0.052c-12.666-6.209-25.433-6.879-30.334-6.879c-4.901,0-17.668,0.67-30.334,6.879
		c-0.034,0.017-0.066,0.035-0.1,0.052c-7.834-7.015-15.722-17.956-17.904-25.229c-1.27-4.232-5.728-6.634-9.961-5.364
		c-4.232,1.271-6.633,5.729-5.364,9.962c2.763,9.212,10.839,21.161,19.882,30.038c-5.898,5.864-9.938,13.104-11.912,21.462
		c-5.524,1.796-10.224,4.056-14.454,6.851c-9.127,6.03-15.364,14.165-21.457,24.978c-10.912-4.648-20.397-10.005-20.397-21.627v-64
		c0-2.815-1.48-5.424-3.897-6.868c-2.418-1.445-5.417-1.51-7.896-0.176c-0.291,0.156-29.461,15.461-64.966-0.271
		c-4.04-1.789-8.765,0.034-10.555,4.074c-1.79,4.039,0.034,8.765,4.074,10.555c28.319,12.546,53.266,8.64,67.241,4.379v52.307
		c0,21.899,18.113,31.192,29.005,35.874c-1.215,2.472-2.461,5.041-3.763,7.727l-0.44,0.909c-3.473,7.163-0.826,13.089,3.812,18.047
		c-3.947,1.862-7.524,4.538-10.444,7.984c-14.227,16.786-25.639,36.181-33.966,57.374c-3.159-0.467-9.477-0.793-16.274,2.308
		c-5.526,2.521-12.734,8.008-15.691,19.838c-2.321,9.284-7.533,24.431-11.323,35.041c-8.947-7.783-24.022-17.101-44.916-17.101
		c-4.418,0-8,3.582-8,8s3.582,8,8,8c26.555,0,40.854,19.753,41.429,20.563c1.506,2.169,3.97,3.437,6.569,3.437
		c0.329,0,0.66-0.021,0.992-0.062c2.952-0.368,5.456-2.344,6.5-5.13c0.497-1.323,12.207-32.613,16.271-48.868
		c1.998-7.994,7.319-9.915,10.93-10.256c-7.018,22.7-10.691,47.097-10.691,72.315c0,22.92,3.069,45.26,8.95,66.282
		c-5.938,2.459-14.071,6.238-17.427,14.545c-2.204,5.457-1.816,11.646,1.153,18.395c5.538,12.586,21.122,47.586,28.306,63.711
		c-17.335,5.863-52.983,21.732-52.983,53.067c0,4.418,3.582,8,8,8s8-3.582,8-8c0-27.473,49.362-40.1,49.853-40.218
		c2.315-0.551,4.265-2.104,5.319-4.239c1.054-2.134,1.104-4.626,0.134-6.8c-0.247-0.554-24.743-55.506-31.984-71.965
		c-0.801-1.822-1.619-4.334-0.962-5.96c0.837-2.071,4.31-3.855,7.459-5.221c7.759,21.728,18.663,41.744,32.429,59.133
		c30.258,38.221,70.656,59.27,113.752,59.27s83.495-21.049,113.752-59.27c13.766-17.389,24.67-37.405,32.429-59.133
		c3.149,1.366,6.622,3.15,7.459,5.222c0.656,1.625-0.161,4.138-0.962,5.959c-7.242,16.459-31.738,71.411-31.984,71.965
		c-0.968,2.171-0.917,4.661,0.135,6.794c1.051,2.133,3,3.688,5.311,4.243c0.499,0.12,49.861,12.747,49.861,40.22
		c0,4.418,3.582,8,8,8s8-3.582,8-8c0-31.335-35.648-47.204-52.983-53.067c7.184-16.125,22.768-51.125,28.306-63.711
		c2.969-6.749,3.357-12.938,1.153-18.395c-3.355-8.307-11.488-12.085-17.426-14.545c5.881-21.023,8.95-43.362,8.95-66.282
		c0-25.219-3.674-49.616-10.692-72.316c3.611,0.341,8.932,2.263,10.93,10.257c4.064,16.255,15.774,47.545,16.271,48.868
		c1.044,2.786,3.548,4.762,6.5,5.13c0.332,0.041,0.663,0.062,0.992,0.062c2.599,0,5.063-1.268,6.569-3.437
		c0.143-0.206,14.59-20.563,41.429-20.563c4.418,0,8-3.582,8-8S492.42,240.003,488.002,240.003z M395.092,240.62
		c0.916,4.36,1.703,8.768,2.367,13.212c-1.465,1.367-3.408,2.171-5.458,2.171c-4.411,0-8-3.589-8-8s3.589-8,8-8
		C393.086,240.003,394.121,240.211,395.092,240.62z M181.09,133.348c-1.098-0.772-2.201-1.544-3.285-2.29
		c-3.597-2.477-8.889-6.119-10.305-8.184l0.141-0.291c2.501-5.159,4.756-9.808,6.898-13.998c0.14-0.2,0.284-0.397,0.408-0.613
		c0.246-0.43,0.441-0.875,0.6-1.327c0.251-0.482,0.505-0.974,0.754-1.443c5.559,2.524,12.345,4.175,19.364,4.175
		c6.417,0,13.024-1.377,19.054-4.719c10.974-6.082,17.08-17.428,17.265-31.982c6.926-0.459,14.86-0.673,24.018-0.673
		c9.158,0,17.092,0.214,24.018,0.673c0.185,14.554,6.291,25.9,17.265,31.982c6.03,3.342,12.636,4.719,19.054,4.719
		c7.018,0,13.804-1.651,19.364-4.175c0.249,0.47,0.504,0.962,0.755,1.445c0.159,0.451,0.353,0.896,0.599,1.325
		c0.124,0.216,0.267,0.412,0.407,0.612c2.143,4.19,4.397,8.84,6.898,13.999l0.141,0.291c-1.416,2.063-6.708,5.707-10.304,8.183
		c-1.085,0.747-2.188,1.519-3.287,2.292c-22.846,6.968-48.713,10.655-74.91,10.655C229.804,144.003,203.936,140.316,181.09,133.348z
		 M327.154,91.42c-6.761,2.46-15.635,2.835-22.114-0.755c-5.432-3.011-8.43-8.453-8.948-16.18
		c9.267,1.605,15.987,4.051,21.236,7.518C321.044,84.458,324.199,87.571,327.154,91.42z M232.711,45.249
		c9.93-4.868,20.337-5.246,23.291-5.246c2.954,0,13.361,0.378,23.291,5.246c6.288,3.082,10.941,7.306,13.907,12.61
		c-9.987-1.291-22.093-1.856-37.198-1.856c-15.105,0-27.211,0.566-37.198,1.856C221.77,52.556,226.422,48.331,232.711,45.249z
		 M194.675,82.002c5.249-3.468,11.969-5.913,21.236-7.518c-0.519,7.728-3.517,13.169-8.948,16.18
		c-6.479,3.589-15.353,3.214-22.114,0.754C187.804,87.571,190.959,84.457,194.675,82.002z M158.377,152.888
		c2.942-3.472,7.28-5.368,11.834-5.368c1.65,0,3.329,0.249,4.98,0.763c24.642,7.668,52.586,11.721,80.811,11.721
		c28.223,0,56.166-4.052,80.809-11.72c0.012-0.004,0.024-0.006,0.036-0.01c6.194-1.914,12.778-0.106,16.78,4.615v0.001
		c16.78,19.798,29.478,44.291,37.309,71.141c-12.74,0.56-22.933,11.097-22.933,23.973c0,13.233,10.767,24,24,24
		c2.529,0,5.004-0.412,7.352-1.172c0.423,5.689,0.648,11.418,0.648,17.172c0,34.575-7.507,66.949-20.541,94.613
		c-5.545-4.246-12.378-6.613-19.459-6.613c-17.645,0-32,14.355-32,32c0,11.003,5.662,21.073,14.631,26.88
		c-22.13,21.364-49.217,34.763-78.631,36.831V184.003c0-4.418-3.582-8-8-8c-4.418,0-8,3.582-8,8v287.711
		c-29.414-2.068-56.5-15.467-78.631-36.831c8.969-5.808,14.631-15.878,14.631-26.88c0-17.645-14.355-32-32-32
		c-7.081,0-13.914,2.367-19.459,6.613c-13.033-27.664-20.541-60.038-20.541-94.613c0-5.754,0.226-11.482,0.648-17.172
		c2.347,0.76,4.823,1.172,7.352,1.172c13.234,0,24-10.767,24-24c0-12.876-10.193-23.413-22.934-23.973
		C128.9,197.179,141.598,172.686,158.377,152.888z M120.002,240.003c4.411,0,8,3.589,8,8s-3.589,8-8,8
		c-2.05,0-3.992-0.804-5.458-2.17c0.664-4.445,1.451-8.853,2.368-13.213C117.882,240.211,118.917,240.003,120.002,240.003z
		 M140.189,397.223c3.029-3.316,7.321-5.219,11.812-5.219c8.822,0,16,7.178,16,16c0,6.499-3.953,12.336-9.91,14.79
		C151.527,415.001,145.529,406.443,140.189,397.223z M353.911,422.793c-5.957-2.454-9.91-8.291-9.91-14.79c0-8.822,7.178-16,16-16
		c4.491,0,8.783,1.904,11.812,5.219C366.474,406.443,360.476,415.001,353.911,422.793z"/>
	<path d="M192.002,328.003c17.645,0,32-14.355,32-32s-14.355-32-32-32s-32,14.355-32,32S174.357,328.003,192.002,328.003z
		 M192.002,280.003c8.822,0,16,7.178,16,16s-7.178,16-16,16s-16-7.178-16-16S183.179,280.003,192.002,280.003z"/>
	<path d="M320.002,328.003c17.645,0,32-14.355,32-32s-14.355-32-32-32s-32,14.355-32,32S302.357,328.003,320.002,328.003z
		 M320.002,280.003c8.822,0,16,7.178,16,16s-7.178,16-16,16s-16-7.178-16-16S311.179,280.003,320.002,280.003z"/>
</g>
<g>
</g>
<g>
</g>
<g>
</g>
<g>
</g>
<g>
</g>
<g>
</g>
<g>
</g>
<g>
</g>
<g>
</g>
<g>
</g>
<g>
</g>
<g>
</g>
<g>
</g>
<g>
</g>
<g>
</g>
</svg>
