<?xml version="1.0" encoding="iso-8859-1"?>
<!-- Generator: Adobe Illustrator 17.1.0, SVG Export Plug-In . SVG Version: 6.00 Build 0)  -->
<!DOCTYPE svg PUBLIC "-//W3C//DTD SVG 1.1//EN" "http://www.w3.org/Graphics/SVG/1.1/DTD/svg11.dtd">
<svg version="1.1" id="Capa_1" xmlns="http://www.w3.org/2000/svg" xmlns:xlink="http://www.w3.org/1999/xlink" x="0px" y="0px"
	 viewBox="0 0 512 512" style="enable-background:new 0 0 512 512;" xml:space="preserve">
<g>
	<path d="M422.685,280.108c-0.69,0.121-17.023,2.587-22.992-18.307c-1.214-4.248-5.641-6.707-9.89-5.494
		c-4.249,1.214-6.708,5.642-5.495,9.891c6.854,23.985,24.679,30.063,36.272,30.063c1.737,0,3.336-0.137,4.735-0.369
		c4.358-0.727,7.302-4.849,6.576-9.207C431.165,282.326,427.044,279.394,422.685,280.108z"/>
	<path d="M400,304c-3.968,0-12.99-3.869-16.845-11.578c-1.975-3.95-6.78-5.551-10.733-3.577c-3.952,1.976-5.554,6.781-3.578,10.733
		C375.236,312.361,389.705,320,400,320c4.418,0,8-3.582,8-8S404.418,304,400,304z"/>
	<path d="M506.222,256.314c-5.929-1.714-12.701-3.779-17.225-5.274c3.424-8.936,14.738-17.512,19.14-20.192
		c2.388-1.443,3.852-4.025,3.863-6.814c0.011-2.79-1.431-5.385-3.807-6.847c-1.216-0.748-3.925-2.758-7.061-5.084
		c-7.647-5.672-19.563-14.508-35.185-24.355c-5.715-11.262-26.272-32.788-57.338-51.677C376.295,116.422,321.68,93,245,93
		c-32.568,0-58.786,12.051-77.925,35.816c-16.03,19.906-24.564,44.431-31.421,64.136c-3.436,9.874-6.403,18.401-9.555,24.209
		c-1.894,3.491-3.47,5.216-4.495,5.804c-0.432,0.097-0.867,0.19-1.307,0.273c-0.503,0.036-0.992,0.12-1.465,0.245
		C116.654,223.817,114.385,224,112,224c-55.085,0-72.447-26.998-73.121-28.084c-1.196-2.015-3.215-3.404-5.524-3.801
		c-2.309-0.396-4.676,0.239-6.476,1.739C25.781,194.769,0,216.705,0,256s25.781,61.231,26.878,62.146
		c1.8,1.5,4.167,2.134,6.476,1.739c2.309-0.396,4.328-1.786,5.524-3.801C39.045,315.804,56.199,288,112,288
		c2.385,0,4.654,0.183,6.832,0.517c0.473,0.125,0.962,0.208,1.465,0.245c0.44,0.083,0.874,0.177,1.307,0.273
		c1.026,0.588,2.601,2.312,4.496,5.804c3.151,5.808,6.119,14.335,9.555,24.209c6.857,19.705,15.391,44.229,31.421,64.136
		C186.214,406.949,212.432,419,245,419c81.477,0,135.091-25.404,165.72-46.717c33.287-23.162,50.976-49.484,53.068-58.459
		c23.159-18.266,39.36-35.639,46.541-44.933c1.62-2.096,2.097-4.857,1.274-7.376C510.782,258.998,508.767,257.051,506.222,256.314z
		 M417.896,161.527c-5.797-2.687-11.822-5.315-18.077-7.842c0.117-0.544,0.181-1.106,0.181-1.685v-2.431
		C406.636,153.591,412.594,157.616,417.896,161.527z M272,110.046c5.479,0.427,10.817,0.979,16.016,1.64
		C288.012,111.792,288,111.894,288,112v16.403c-5.265-0.265-10.599-0.403-16-0.403V110.046z M304,114.135
		c5.511,0.988,10.845,2.095,16,3.304v14.185c-5.252-0.791-10.584-1.468-16-2.012V114.135z M336,121.655
		c5.608,1.648,10.971,3.403,16.085,5.238c-0.05,0.362-0.085,0.73-0.085,1.106v10.045c-5.23-1.313-10.567-2.519-16-3.609V121.655z
		 M368,133.149c5.725,2.459,11.05,4.983,16,7.511v7.039c-5.201-1.835-10.539-3.582-16-5.229V133.149z M256,109.184v19.644
		c-5.666,0.604-10.98,1.539-16,2.735v-22.453c1.643-0.072,3.309-0.109,5-0.109C248.727,109,252.384,109.071,256,109.184z
		 M224.031,136.618c-5.799,2.339-11.109,5.082-16.031,8.105v-28.382c5.016-2.276,10.346-4.013,16-5.228V136
		C224,136.209,224.016,136.414,224.031,136.618z M192,126.261v30.309c-5.906,5.169-11.167,10.681-16,16.23V144
		c0-0.14-0.014-0.275-0.021-0.413c1.146-1.61,2.321-3.199,3.558-4.735C183.388,134.07,187.539,129.88,192,126.261z M160,173.386V192
		c0,0.123,0.013,0.242,0.018,0.363c-4.143,5.159-8.122,9.959-12.184,14.183c0.965-2.686,1.935-5.473,2.931-8.335
		C153.454,190.486,156.425,181.972,160,173.386z M31.574,299.964C25.316,292.286,16,277.282,16,256
		c0-21.371,9.293-36.326,15.559-43.98c9.098,9.296,28.715,23.814,64.479,27.237C96.015,239.502,96,239.749,96,240v32.747
		C60.281,276.174,40.677,290.671,31.574,299.964z M147.834,305.454c4.062,4.224,8.041,9.024,12.184,14.183
		C160.013,319.758,160,319.877,160,320v18.614c-3.575-8.586-6.546-17.1-9.234-24.825C149.77,310.927,148.8,308.14,147.834,305.454z
		 M179.537,373.148c-1.237-1.537-2.411-3.125-3.558-4.735C175.986,368.275,176,368.14,176,368v-28.799
		c4.833,5.549,10.094,11.061,16,16.23v30.309C187.539,382.12,183.388,377.93,179.537,373.148z M224,400.886
		c-5.654-1.214-10.984-2.951-16-5.228v-28.382c4.922,3.024,10.232,5.766,16.031,8.105c-0.016,0.205-0.031,0.41-0.031,0.618V400.886z
		 M240,402.891v-22.453c5.02,1.196,10.334,2.131,16,2.735v19.647c-3.611,0.108-7.265,0.18-11,0.18
		C243.309,403,241.643,402.962,240,402.891z M352.048,384.862c-5.086,1.912-10.423,3.741-16.048,5.445v-13.625
		c5.355-1.238,10.689-2.634,16-4.186V384C352,384.292,352.018,384.579,352.048,384.862z M367.967,367.339
		c5.37-1.903,10.715-3.963,16.033-6.19V368c0,0.68,0.094,1.335,0.253,1.965c-4.988,2.793-10.397,5.569-16.253,8.258V368
		C368,367.777,367.985,367.558,367.967,367.339z M320,394.619c-5.137,1.222-10.469,2.339-16,3.33v-15.76
		c5.352-0.607,10.685-1.371,16-2.283V394.619z M288.019,400.368c-5.187,0.652-10.517,1.202-16.019,1.62V384
		c5.349,0,10.682-0.152,16-0.452V400C288,400.125,288.013,400.245,288.019,400.368z M400.681,359.773
		c-0.222,0.152-0.457,0.307-0.681,0.46v-6.306c7.961-3.86,15.857-8.092,23.685-12.689
		C417.342,347.23,409.707,353.564,400.681,359.773z M425.345,321.491C376.609,352.353,325.016,368,272,368
		c-52.978,0-74.838-27.435-95.978-53.967c-14.21-17.834-27.778-34.84-49.233-40.249c-1.401-0.496-2.885-0.823-4.473-0.94
		C119.06,272.297,115.634,272,112,272v-32c3.634,0,7.06-0.297,10.316-0.844c1.589-0.118,3.072-0.444,4.473-0.94
		c21.455-5.409,35.023-22.415,49.233-40.249C197.162,171.435,219.022,144,272,144c27.222,0,109.859,0.003,218.386,80.055
		C482.259,230.919,472,242.297,472,256c0,6.012,5.243,7.875,9.071,9.235c2.09,0.743,4.967,1.686,8.552,2.801
		c0.119,0.037,0.238,0.074,0.356,0.111C477.397,281.918,455.037,302.689,425.345,321.491z"/>
	<path d="M456.02,216c0-4.418-3.582-8-8-8h-0.01c-4.418,0-7.995,3.582-7.995,8s3.586,8,8.005,8S456.02,220.418,456.02,216z"/>
	<path d="M456.02,240h-0.01c-4.418,0-7.995,3.582-7.995,8s3.586,8,8.005,8s8-3.582,8-8S460.438,240,456.02,240z"/>
</g>
<g>
</g>
<g>
</g>
<g>
</g>
<g>
</g>
<g>
</g>
<g>
</g>
<g>
</g>
<g>
</g>
<g>
</g>
<g>
</g>
<g>
</g>
<g>
</g>
<g>
</g>
<g>
</g>
<g>
</g>
</svg>
