<?xml version="1.0" encoding="iso-8859-1"?>
<!-- Generator: Adobe Illustrator 17.1.0, SVG Export Plug-In . SVG Version: 6.00 Build 0)  -->
<!DOCTYPE svg PUBLIC "-//W3C//DTD SVG 1.1//EN" "http://www.w3.org/Graphics/SVG/1.1/DTD/svg11.dtd">
<svg version="1.1" id="Capa_1" xmlns="http://www.w3.org/2000/svg" xmlns:xlink="http://www.w3.org/1999/xlink" x="0px" y="0px"
	 viewBox="0 0 512 512" style="enable-background:new 0 0 512 512;" xml:space="preserve">
<g>
	<path d="M494.361,254.184c-9.419-6.063-21.477-12.937-33.951-19.354c-19.333-9.948-54.967-26.637-76.41-26.637
		c-7.319,0-14.129,0.179-20.715,0.352c-21.569,0.566-38.605,1.016-45.628-6.009c-3.572-3.572-8.218-9.281-13.138-15.326
		c-5.388-6.62-10.959-13.466-15.933-18.483c-3.685-3.718-12.315-12.421-20.703-7.394c-7.011,4.207-7.143,14.69-7.361,32.06
		c-0.093,7.372-0.262,20.801-1.922,24.718c-3.753,1.714-18.992,6.199-55.354,13.057c-29.559,5.575-53.768,9.026-59.247,9.026
		c-5.266,0-6.776-1.095-9.278-2.908c-2.965-2.148-7.025-5.092-14.722-5.092c-4.426,0-7.861,2.903-14.097,8.175
		c-2.899,2.451-8.204,6.936-10.442,7.825H80.479c-6.379-2.033-29.185-22.623-41.507-33.747
		c-6.411-5.788-12.465-11.254-17.101-15.148c-6.253-5.255-11.196-9.4-16.892-6.871C1.908,193.79,0,196.767,0,200.192
		c0,4.583,3.643,11.594,17.999,37.254c7.873,14.073,21.002,37.541,21.998,42.977c-0.108,3.292-2.395,12.295-4.241,19.562
		c-5.174,20.371-6.763,27.674-2.818,32.746c1.711,2.2,4.286,3.462,7.063,3.462c5.965,0,9.486-4.771,18.896-17.52
		c5.234-7.091,11.166-15.129,17.093-21.449c8.373-8.929,11.866-9.031,12.01-9.031l3.284-0.006c2.591-0.008,5.372-0.016,7.59,0.057
		c-0.484,1.126-1.147,2.572-2.057,4.428c-1.409,2.875-0.968,6.399,1.12,8.825c3.5,4.067,8.194,2.729,10.717,2.011
		c1.549-0.441,3.571-1.08,5.913-1.82c6.078-1.92,17.392-5.494,21.434-5.494c4.64,0,16,6.925,16,16c0,3.012,1.624,5.799,4.239,7.273
		c4.498,2.541,8.879,1.188,24.674-7.6c4.989-2.775,9.791-5.592,12.627-7.274c8.111,1.432,31.987,5.59,60.337,9.989
		c-0.334,0.39-0.678,0.791-0.99,1.157c-5.034,5.9-9.936,11.773-13.801,16.536c-1.683,2.073-3.087,3.837-4.063,5.101
		c-1.789,2.318-4.238,5.492-2.423,9.873c1.238,2.99,4.164,4.944,7.4,4.944c12.189,0,30.066-10.697,58.06-28.316
		c1.266-0.797,2.552-1.606,3.853-2.423c0.339,0.091,0.685,0.169,1.042,0.216c32.899,4.329,57.475,6.523,73.044,6.523
		c22.835,0,47.292-2.309,65.419-6.176c20.851-4.449,33.088-10.775,37.101-19.226c22.947-4.733,31.883-20.354,33.371-29.283
		c0.072-0.435,0.109-0.875,0.109-1.315C512,267.59,509.453,263.899,494.361,254.184z M464,288.192c-4.36,0-9.807-1.427-15.572-2.938
		c-14.854-3.893-33.341-8.735-52.865,4.281c-3.676,2.45-4.67,7.418-2.219,11.094c2.451,3.676,7.417,4.67,11.094,2.219
		c13.546-9.03,26.364-5.672,39.935-2.116c2.584,0.677,5.114,1.338,7.61,1.9c-4.151,1.431-9.692,2.945-17.099,4.388
		c-16.874,3.287-38.336,5.172-58.883,5.172c-11.822,0-29.35-1.362-52.211-4.047c11.763-6.765,22.426-11.953,28.211-11.953h24
		c4.418,0,8-3.582,8-8s-3.582-8-8-8h-24c-13.555,0-33.532,11.935-62.462,30.143c-7.397,4.655-15.526,9.771-23.144,14.215
		c10.703-12.488,24-27.438,35.263-38.7c3.125-3.125,3.125-8.189,0-11.314c-3.124-3.123-8.189-3.123-11.313,0
		c-7.981,7.98-16.64,17.443-24.09,25.838c-0.342-0.1-0.691-0.187-1.053-0.241c-38.657-5.863-71.457-11.754-71.784-11.813
		c-1.914-0.348-3.889,0.019-5.554,1.025c-7.384,4.462-16.027,9.368-21.943,12.419c-5.297-12.959-19.605-21.571-29.92-21.571
		c-4.792,0-11.748,1.791-19.836,4.243c-0.023-2.116-0.544-4.12-1.738-6.028c-3.924-6.274-11.174-6.247-23.187-6.221L88,272.192
		c-11.833,0-23.142,12.129-36.065,29.077C54.48,291.179,56,284.562,56,280.192c0-6.489-5.995-18.305-24.003-50.495
		C60.686,255.49,71.957,264.192,80,264.192h16c6.05,0,11.939-4.596,20.232-11.605c1.623-1.372,3.906-3.303,5.287-4.306
		c1.386,0.198,2.159,0.76,3.813,1.958c4.329,3.137,9.013,5.953,18.668,5.953c8.733,0,38.804-4.85,63.995-9.641
		c53.993-10.269,59.176-14.588,61.127-16.214c6.672-5.561,7.158-17.585,7.399-36.745c0.053-4.184,0.122-9.634,0.407-13.917
		c4.751,4.816,11.175,12.711,15.181,17.633c5.185,6.371,10.083,12.389,14.234,16.541c11.884,11.883,31.95,11.354,57.362,10.689
		c6.482-0.171,13.186-0.347,20.294-0.347c12.478,0,36.167,8.304,64.994,22.781c22.881,11.491,39.835,22.283,45.959,27.084
		C492.462,279.189,485.086,288.192,464,288.192z"/>
	<path d="M416,256.192c-2.11,0-4.17,0.85-5.66,2.34s-2.34,3.55-2.34,5.66c0,2.109,0.85,4.17,2.34,5.66
		c1.49,1.489,3.56,2.34,5.66,2.34c2.11,0,4.17-0.851,5.66-2.34c1.49-1.49,2.34-3.551,2.34-5.66c0-2.11-0.85-4.17-2.34-5.66
		C420.17,257.042,418.11,256.192,416,256.192z"/>
</g>
<g>
</g>
<g>
</g>
<g>
</g>
<g>
</g>
<g>
</g>
<g>
</g>
<g>
</g>
<g>
</g>
<g>
</g>
<g>
</g>
<g>
</g>
<g>
</g>
<g>
</g>
<g>
</g>
<g>
</g>
</svg>
