<?xml version="1.0" encoding="iso-8859-1"?>
<!-- Generator: Adobe Illustrator 17.1.0, SVG Export Plug-In . SVG Version: 6.00 Build 0)  -->
<!DOCTYPE svg PUBLIC "-//W3C//DTD SVG 1.1//EN" "http://www.w3.org/Graphics/SVG/1.1/DTD/svg11.dtd">
<svg version="1.1" id="Capa_1" xmlns="http://www.w3.org/2000/svg" xmlns:xlink="http://www.w3.org/1999/xlink" x="0px" y="0px"
	 viewBox="0 0 512 512" style="enable-background:new 0 0 512 512;" xml:space="preserve">
<g>
	<path d="M160,200c-8.822,0-16,7.178-16,16s7.178,16,16,16s16-7.178,16-16S168.822,200,160,200z"/>
	<path d="M352,200c-8.822,0-16,7.178-16,16s7.178,16,16,16s16-7.178,16-16S360.822,200,352,200z"/>
	<path d="M438.037,2.751c-2.4-2.76-6.366-3.541-9.634-1.896c-3.267,1.645-5.002,5.297-4.214,8.869
		c4.059,18.403,13.419,70.865,8.073,92.266c-0.013,0.028-1.223,2.277-8.476,4.902c-2.089-25.534-19.344-56.807-44.931-70.709
		l4.302-8.604c0.971-1.941,1.111-4.193,0.389-6.239c-0.722-2.046-2.244-3.712-4.218-4.614c-12.628-5.772-34.679-8.468-58.989-7.213
		C299.55,10.585,280.022,14.256,264,20.017V8c0-4.418-3.582-8-8-8c-30.491,0-63.87,10.262-92.871,28.369l-3.974-7.947
		c-0.972-1.944-2.693-3.409-4.768-4.058c-2.075-0.649-4.324-0.426-6.23,0.619c-38.796,21.246-58.472,50.685-60.042,89.869
		c-4.633-1.663-7.737-3.408-8.354-4.792c-5.363-21.452,3.993-73.927,8.051-92.337c0.787-3.572-0.948-7.224-4.216-8.868
		c-3.267-1.644-7.233-0.864-9.633,1.896C72.25,4.722,32,51.793,32,120c0,14.907,13.652,28.927,40.578,41.671
		c8.491,4.019,16.915,7.27,23.605,9.628c1.044,17.515,1.879,33.074,2.617,46.863c6.228,116.344,6.92,118.315,74.115,210.885
		c8.391,11.559,17.9,24.66,28.593,39.607c0.722,1.01,1.641,1.79,2.661,2.349c1.179,1.291,2.474,2.534,3.892,3.722
		C209.105,499.798,224.813,512,256,512c31.355,0,47.066-12.333,47.957-37.679c1.106-0.949,2.135-1.932,3.094-2.944
		c1.334-0.553,2.54-1.461,3.442-2.723c10.692-14.947,20.202-28.048,28.593-39.607c67.194-92.57,67.887-94.541,74.115-210.885
		c0.738-13.789,1.573-29.348,2.617-46.863c6.69-2.359,15.113-5.609,23.605-9.628C466.348,148.927,480,134.907,480,120
		C480,51.793,439.751,4.722,438.037,2.751z M48,120c0-29.029,8.247-54.171,17.06-72.751c-3.59,26.772-3.867,46.507-0.821,58.691
		c2.107,8.43,10.935,14.496,26.986,18.546c5.764,1.454,11.342,2.369,15.148,2.894c-1.794,10.533-0.93,21.161,1.545,31.05
		C81.742,150.13,48,133.732,48,120z M294.809,410.532c1.512,7.825-0.493,8.643-7.332,11.347C281.688,424.166,272,427.995,272,440
		c0,4.418,3.582,8,8,8s8-3.582,8-8c0-0.391,0.049-0.599,0.052-0.617c0.515-0.731,3.514-1.917,5.306-2.625
		c3.034-1.199,7.119-2.817,10.616-5.746c-0.146,9.827-1.062,19.089-5.962,26.287C291.278,467.192,277.536,472,256,472
		c-44.538,0-47.75-19.609-47.981-40.032c3.419,2.384,7.194,3.787,10.077,4.853c1.981,0.733,5.297,1.959,5.86,2.693
		c0,0.001,0.045,0.138,0.045,0.485c0,4.418,3.582,8,8,8s8-3.582,8-8c0-12.135-10.237-15.922-16.354-18.185
		c-6.934-2.565-9.283-3.458-8.278-9.795C224.332,404.089,240.227,400,256,400C270.754,400,285.614,403.579,294.809,410.532z
		 M256,496c-18.571,0-26.772-4.24-30.056-11.913C233.935,486.56,243.802,488,256,488c12.23,0,22.116-1.503,30.119-4.067
		C282.879,491.702,274.694,496,256,496z M383.969,327.221c-8.688,24.725-25.111,47.35-57.832,92.427
		c-1.982,2.73-4.031,5.553-6.138,8.459c0-0.307,0-0.609,0-0.907c0-25.436-26.318-43.2-64-43.2s-64,17.765-64,43.2
		c0,0.298,0,0.601,0,0.907c-2.107-2.906-4.156-5.729-6.138-8.459c-32.72-45.077-49.144-67.703-57.832-92.427
		c-8.695-24.746-10.219-53.208-13.254-109.914c-0.66-12.324-1.396-26.057-2.291-41.345c0.55-0.034,1.089-0.122,1.612-0.266
		c2.205,4.686,4.69,9.008,7.299,12.821c1.55,2.265,4.058,3.483,6.61,3.483c1.556,0,3.129-0.454,4.51-1.398
		c3.646-2.495,4.58-7.474,2.085-11.12c-10.829-15.826-19.308-41.998-7.568-63.672c2.104-3.885,0.661-8.74-3.224-10.844
		c-3.885-2.105-8.74-0.662-10.844,3.224c-0.66,1.219-1.256,2.45-1.822,3.686c-2.43-0.259-4.819-0.597-7.129-0.993
		c0.33-32.321,14.956-57.158,44.646-75.671l4.183,8.366c1.037,2.074,2.923,3.597,5.17,4.172c2.245,0.575,4.632,0.147,6.539-1.172
		c25.6-17.724,55.576-28.553,83.446-30.321V32c0,2.751,1.414,5.31,3.744,6.773c2.329,1.464,5.247,1.628,7.727,0.435
		c25.21-12.139,76.905-18.406,105.335-10.708l-3.961,7.923c-1.016,2.031-1.12,4.398-0.288,6.511
		c0.833,2.113,2.524,3.772,4.653,4.564c24.793,9.225,42.184,40.443,42.762,63.329c-3.038,0.52-5.585,0.853-7.123,1.034
		c-0.564-1.231-1.157-2.457-1.815-3.671c-2.104-3.886-6.96-5.329-10.844-3.224c-3.885,2.104-5.329,6.959-3.224,10.844
		c11.74,21.674,3.26,47.846-7.568,63.672c-2.495,3.646-1.562,8.625,2.085,11.12c1.381,0.945,2.954,1.398,4.51,1.398
		c2.552,0,5.06-1.218,6.61-3.483c2.609-3.813,5.095-8.135,7.299-12.821c0.524,0.143,1.062,0.232,1.612,0.266
		c-0.895,15.287-1.631,29.021-2.291,41.345C394.188,274.013,392.665,302.475,383.969,327.221z M404.082,158.427
		c2.474-9.888,3.338-20.514,1.544-31.046c3.806-0.525,9.384-1.44,15.148-2.894c16.052-4.05,24.879-10.116,26.986-18.546
		c3.046-12.184,2.769-31.921-0.821-58.69C455.754,65.831,464,90.972,464,120C464,133.706,430.258,150.112,404.082,158.427z"/>
</g>
<g>
</g>
<g>
</g>
<g>
</g>
<g>
</g>
<g>
</g>
<g>
</g>
<g>
</g>
<g>
</g>
<g>
</g>
<g>
</g>
<g>
</g>
<g>
</g>
<g>
</g>
<g>
</g>
<g>
</g>
</svg>
