<?xml version="1.0" encoding="iso-8859-1"?>
<!-- Generator: Adobe Illustrator 17.1.0, SVG Export Plug-In . SVG Version: 6.00 Build 0)  -->
<!DOCTYPE svg PUBLIC "-//W3C//DTD SVG 1.1//EN" "http://www.w3.org/Graphics/SVG/1.1/DTD/svg11.dtd">
<svg version="1.1" id="Capa_1" xmlns="http://www.w3.org/2000/svg" xmlns:xlink="http://www.w3.org/1999/xlink" x="0px" y="0px"
	 viewBox="0 0 512 512" style="enable-background:new 0 0 512 512;" xml:space="preserve">
<g>
	<path d="M226.344,434.343l-8,8c-3.125,3.124-3.125,8.189,0,11.313c1.562,1.562,3.609,2.343,5.657,2.343s4.095-0.781,5.657-2.343
		l8-8c3.125-3.124,3.125-8.189,0-11.313C234.533,431.219,229.468,431.219,226.344,434.343z"/>
	<path d="M274.344,434.343c-3.125,3.124-3.125,8.189,0,11.313l8,8c1.562,1.562,3.609,2.343,5.657,2.343s4.095-0.781,5.657-2.343
		c3.125-3.124,3.125-8.189,0-11.313l-8-8C282.533,431.219,277.468,431.219,274.344,434.343z"/>
	<path d="M479.898,310.721c-0.612-3.775-3.81-6.59-7.632-6.716c-3.801-0.131-7.2,2.47-8.06,6.197
		c-3.676,15.929-11.879,27.855-24.381,35.446c-7.744,4.702-16.477,7.409-25.275,8.677c0.957-6.057,1.45-12.192,1.45-18.325
		c0-33.564-14.217-57.489-26.761-78.597c-10.789-18.155-20.979-35.318-21.227-56.613c1.985-9.818,12.92-15.488,30.568-23.553
		c17.875-8.169,38.134-17.428,48.529-37.568c8.82-17.089,6.812-37.889,4.687-59.91c-1.71-17.711-3.478-36.025-0.134-54.403
		c1.242-6.824-0.376-13.531-4.44-18.4C443.479,2.47,438.073,0,432.001,0c-14.644,0-32.581,3.515-47.982,9.402
		c-14.974,5.724-27.623,13.593-37.283,23.088c-0.105-0.038-0.208-0.082-0.316-0.116C345.342,32.033,319.295,24,256,24h-2.372
		c-63.295,0-89.342,8.032-90.419,8.374c-0.108,0.034-0.211,0.077-0.316,0.116c-9.66-9.495-22.309-17.364-37.283-23.088
		C110.208,3.515,92.271,0,77.628,0C71.555,0,66.15,2.47,62.407,6.956c-4.064,4.87-5.682,11.576-4.44,18.4
		c3.343,18.378,1.576,36.692-0.134,54.403c-2.125,22.021-4.133,42.821,4.687,59.909c10.395,20.141,30.655,29.399,48.529,37.568
		c17.648,8.065,28.582,13.735,30.568,23.553c-0.248,21.295-10.438,38.458-21.227,56.613C107.845,278.511,93.628,302.436,93.628,336
		c0,6.001,0.474,12.004,1.391,17.934c-7.969-1.397-15.814-4.017-22.843-8.286c-12.502-7.591-20.705-19.518-24.381-35.446
		c-0.86-3.727-4.249-6.338-8.06-6.197c-3.822,0.126-7.021,2.941-7.632,6.716c-0.328,2.022-7.661,49.974,23.825,89.253
		c22.319,27.844,58.054,43.855,106.259,47.641c4.289,10.401,11.605,17.496,22.166,21.544c2.477,13.962,9.774,24.7,21.816,31.99
		C218.231,508.451,234.532,512,256.001,512s37.77-3.549,49.833-10.851c12.007-7.268,19.295-17.967,21.793-31.868
		c10.554-3.992,17.881-11.123,22.197-21.667c48.2-3.787,83.932-19.799,106.25-47.64
		C487.559,360.694,480.225,312.743,479.898,310.721z M389.732,24.348C403.406,19.121,419.207,16,432.001,16
		c1.298,0,2.258,0.395,2.936,1.207c1,1.198,1.368,3.174,0.984,5.285c-3.742,20.566-1.781,40.881-0.051,58.805
		c1.976,20.461,3.681,38.131-2.978,51.034c-7.858,15.225-24.687,22.916-40.962,30.354c-4.964,2.268-9.972,4.559-14.693,7.09
		c7.091-15.061,16.469-30.11,21.363-37.252c1.74-2.54,1.861-5.853,0.322-8.52c-1.539-2.667-4.479-4.225-7.548-3.978
		c-0.313,0.022-27.176,1.883-42.22-11.976l13.377-4.459c2.702-0.9,4.721-3.169,5.302-5.957s-0.363-5.674-2.48-7.579
		C354.426,80.22,352.052,62.3,351.724,51.01C362.168,37.046,378.039,28.818,389.732,24.348z M76.737,132.331
		c-6.659-12.902-4.953-30.573-2.978-51.034c1.73-17.923,3.691-38.239-0.051-58.805c-0.384-2.111-0.016-4.087,0.984-5.285
		C75.369,16.395,76.33,16,77.628,16c12.794,0,28.595,3.121,42.269,8.348c11.693,4.47,27.563,12.698,38.008,26.661
		c-0.328,11.294-2.703,29.211-13.628,39.045c-2.117,1.905-3.061,4.792-2.48,7.579s2.6,5.056,5.302,5.957l13.378,4.459
		c-15.045,13.858-41.906,12-42.205,11.977c-3.067-0.248-6.017,1.294-7.564,3.963c-1.547,2.669-1.421,5.99,0.322,8.534
		c4.894,7.143,14.271,22.192,21.363,37.252c-4.721-2.531-9.73-4.822-14.693-7.09C101.424,155.247,84.595,147.556,76.737,132.331z
		 M68.529,390.112C57.375,376.258,51.9,360.851,49.32,347.49c4.199,4.545,9.054,8.496,14.55,11.834
		c23.245,14.115,53.088,13.708,73.518,8.578c1.394,1.023,7.627,7.068,15.232,36.86c2.515,9.854,4.47,19.546,5.748,26.456
		C117.416,427.139,87.222,413.333,68.529,390.112z M256.001,496c-50.747,0-56.616-21.775-56.616-38.154
		c0-37.083,30.434-65.846,56.616-65.846c31.884,0,56.615,35.396,56.615,65.846C312.616,474.225,306.747,496,256.001,496z
		 M328.289,450.881c-1.566-17.201-8.823-34.537-20.458-48.468C293.606,385.38,275.199,376,256.001,376
		c-39.017,0-68.773,38.083-72.27,74.712c-3.741-2.93-6.263-6.983-7.917-12.517c-0.512-3.252-3.043-18.778-7.244-35.619
		c-8.905-35.696-17.094-44.552-22.479-48.108c-4.799-3.169-9.224-2.954-12.09-2.213c-6.601,1.703-14.375,2.841-22.532,2.951
		c-1.22-6.319-1.841-12.764-1.841-19.205c0-29.169,12.463-50.141,24.516-70.423c11.5-19.352,23.386-39.362,23.479-65.272
		c0-0.004,0-0.007,0-0.011c0-0.099,0.004-0.195,0.004-0.294c0-11.847-5.706-28.433-16.959-49.297
		c-3.039-5.636-6.063-10.803-8.674-15.087c15.134-1.557,37.732-7.427,48.682-27.833c1.116-2.079,1.256-4.545,0.385-6.737
		c-0.872-2.192-2.667-3.889-4.905-4.635l-12.959-4.32c9.737-15.486,10.909-35.431,10.749-45.879
		C184.519,44.003,209.739,40,253.628,40H256c43.9,0,69.124,4.005,79.681,6.21c-0.16,10.448,1.012,30.394,10.749,45.88l-12.959,4.32
		c-2.238,0.746-4.033,2.442-4.905,4.635c-0.871,2.192-0.73,4.658,0.385,6.737c10.951,20.408,33.547,26.276,48.682,27.833
		c-2.61,4.284-5.634,9.451-8.673,15.086c-11.253,20.865-16.959,37.451-16.959,49.297c0,0.099,0.004,0.196,0.004,0.294
		c0,0.004,0,0.007,0,0.011c0.093,25.91,11.979,45.92,23.479,65.272c12.053,20.282,24.516,41.254,24.516,70.423
		c0,6.421-0.618,12.847-1.831,19.147c-7.292-0.276-14.209-1.355-20.17-2.893c-2.867-0.741-7.291-0.957-12.09,2.213
		c-5.386,3.556-13.575,12.412-22.479,48.108c-4.203,16.85-6.735,32.383-7.245,35.624
		C334.484,443.908,332.004,447.979,328.289,450.881z M443.471,390.112c-18.694,23.221-48.889,37.027-89.841,41.105
		c1.272-6.878,3.216-16.52,5.722-26.349c7.617-29.885,13.864-35.943,15.259-36.967c20.43,5.13,50.273,5.537,73.519-8.578
		c5.497-3.338,10.35-7.288,14.549-11.833C460.099,360.852,454.623,376.26,443.471,390.112z"/>
	<path d="M320.001,208c-8.822,0-16,7.178-16,16s7.178,16,16,16s16-7.178,16-16S328.823,208,320.001,208z"/>
	<path d="M192.001,208c-8.822,0-16,7.178-16,16s7.178,16,16,16s16-7.178,16-16S200.823,208,192.001,208z"/>
</g>
<g>
</g>
<g>
</g>
<g>
</g>
<g>
</g>
<g>
</g>
<g>
</g>
<g>
</g>
<g>
</g>
<g>
</g>
<g>
</g>
<g>
</g>
<g>
</g>
<g>
</g>
<g>
</g>
<g>
</g>
</svg>
