<?xml version="1.0" encoding="iso-8859-1"?>
<!-- Generator: Adobe Illustrator 17.1.0, SVG Export Plug-In . SVG Version: 6.00 Build 0)  -->
<!DOCTYPE svg PUBLIC "-//W3C//DTD SVG 1.1//EN" "http://www.w3.org/Graphics/SVG/1.1/DTD/svg11.dtd">
<svg version="1.1" id="Capa_1" xmlns="http://www.w3.org/2000/svg" xmlns:xlink="http://www.w3.org/1999/xlink" x="0px" y="0px"
	 viewBox="0 0 512 512" style="enable-background:new 0 0 512 512;" xml:space="preserve">
<g>
	<path d="M120,184.046c-8.822,0-16,7.178-16,16s7.178,16,16,16s16-7.178,16-16S128.822,184.046,120,184.046z"/>
	<path d="M497.774,204.085c-3.374-11.705-6.861-23.809-9.965-37.774c-0.628-2.825-1.308-5.591-2.031-8.312
		c5.535-3.195,19.894-12.592,25.649-26.982c0.599-1.497,0.731-3.14,0.38-4.713c-0.26-1.163-6.475-28.822-16.655-56.978
		C480.037,27.518,465.054,8.046,448,8.046c-31.4,0-55.72,13.703-75.262,24.714c-12.696,7.154-23.665,13.333-31.206,12.374
		c-24.149-3.45-52.271-5.088-85.532-5.088c-33.26,0-61.382,1.638-85.531,5.088c-7.538,0.957-18.511-5.22-31.207-12.374
		C119.721,21.749,95.4,8.046,64,8.046c-17.054,0-32.037,19.472-47.153,61.28C6.667,97.482,0.452,125.14,0.192,126.303
		c-0.351,1.574-0.218,3.217,0.38,4.713c5.756,14.39,20.114,23.787,25.649,26.982c-0.723,2.72-1.403,5.487-2.031,8.312
		c-3.104,13.966-6.591,26.069-9.965,37.774C6.91,229.469,0,253.447,0,288.046c0,32.699,7.883,61.088,24.099,86.791
		c13.758,21.806,31.245,37.872,45.296,50.78c13.356,12.27,24.891,22.867,25.928,31.999c0.075,0.663,0.237,1.294,0.46,1.892
		c1.086,13.266,3.956,25.179,9.719,33.205c4.399,6.125,14.95,11.243,24.819,11.242c2.547,0,5.05-0.341,7.389-1.094
		C150.607,498.709,152,485.522,152,480.046c0-5.328,0.029-10.5,0.094-15.521c19.427,11.253,46.277,23.209,72.663,23.208
		c8.577,0,17.109-1.264,25.316-4.226c3.877-1.399,7.977-1.399,11.853,0c33.456,12.074,72.236-4.071,97.98-18.982
		c0.064,5.021,0.094,10.194,0.094,15.522c0,5.477,1.393,18.663,14.291,22.815c2.339,0.753,4.841,1.094,7.389,1.094
		c9.869,0,20.42-5.118,24.819-11.242c5.763-8.025,8.633-19.938,9.719-33.205c0.223-0.598,0.384-1.229,0.46-1.892
		c1.038-9.132,12.572-19.729,25.928-31.999c14.051-12.909,31.539-28.974,45.296-50.78C504.117,349.134,512,320.744,512,288.046
		C512,253.447,505.09,229.469,497.774,204.085z M480.061,74.639c8.098,22.373,13.745,45.06,15.53,52.566
		c-3.553,6.813-10.285,12.084-14.751,15.038c-6.537-17.942-15.532-33.285-27.093-46.154c-0.036-0.051-0.067-0.104-0.105-0.154
		c-12.376-16.352-32.522-46.154-28.4-62.022c0.633-2.437,2.144-5.936,7.787-8.641c4.793-0.785,9.775-1.227,14.972-1.227
		C450.295,24.046,462.629,26.485,480.061,74.639z M380.592,46.699c8.884-5.006,18.328-10.325,28.679-14.551
		c-1.733,9.579,0.72,21.293,7.447,35.358c-1.722-0.912-3.462-1.807-5.244-2.666c-11.509-5.549-24.325-10.097-38.822-13.719
		C375.241,49.712,377.882,48.226,380.592,46.699z M139.348,51.121c-14.497,3.622-27.313,8.17-38.822,13.719
		c-1.781,0.859-3.522,1.754-5.244,2.666c6.726-14.064,9.18-25.779,7.447-35.358c10.351,4.226,19.794,9.546,28.679,14.552
		C134.118,48.226,136.759,49.712,139.348,51.121z M16.41,127.203c1.779-7.487,7.399-30.075,15.484-52.438
		C49.348,26.491,61.701,24.046,64,24.046c5.197,0,10.178,0.442,14.972,1.227c5.643,2.705,7.154,6.204,7.787,8.641
		c4.123,15.868-16.024,45.67-28.4,62.022c-0.038,0.05-0.068,0.103-0.104,0.154c-11.56,12.868-20.554,28.208-27.09,46.146
		C26.695,139.27,19.954,133.987,16.41,127.203z M267.357,468.456c-1.104-0.398-2.225-0.729-3.357-1.007v-35.403c0-4.418-3.582-8-8-8
		c-4.418,0-8,3.582-8,8v35.403c-1.132,0.278-2.254,0.609-3.358,1.007c-30.909,11.153-69.588-8.131-92.11-22.365
		c1.385-37.732,5.862-65.249,17.796-82.493c13.543-19.57,38.364-27.553,85.671-27.553s72.128,7.982,85.671,27.553
		c11.934,17.244,16.411,44.761,17.796,82.493C336.946,460.325,298.262,479.609,267.357,468.456z M256,240.046
		c22.056,0,40,14.355,40,32c0,2.772-0.437,3.867-0.583,4.155c-2.002,0.914-9.714-0.467-14.85-1.386
		c-6.888-1.234-15.46-2.769-24.568-2.769c-9.108,0-17.68,1.535-24.568,2.769c-5.135,0.92-12.849,2.302-14.85,1.386
		c-0.146-0.289-0.583-1.383-0.583-4.155C216,254.401,233.944,240.046,256,240.046z M379.156,487.618
		c-0.863-0.285-3.156-1.042-3.156-7.572c0-58.625-3.542-100.077-21.172-125.553c-16.062-23.21-42.669-33.377-90.828-34.361v-31.649
		c4.83,0.49,9.475,1.316,13.747,2.081c5.5,0.985,10.632,1.904,15.26,1.904c4.846,0,9.139-1.008,12.719-4.004
		c4.222-3.532,6.273-8.903,6.273-16.419c0-4.168-0.625-8.213-1.796-12.071c24.887,8.497,44.909,25.902,59.652,51.929
		c1.472,2.6,4.18,4.059,6.968,4.059c1.336,0,2.69-0.335,3.936-1.04c3.844-2.178,5.196-7.06,3.018-10.904
		c-20.074-35.439-48.96-56.882-85.855-63.747c-10.268-9.941-25.251-16.226-41.923-16.226s-31.655,6.284-41.923,16.226
		c-36.895,6.865-65.781,28.308-85.855,63.747c-2.178,3.845-0.826,8.727,3.018,10.904c1.246,0.705,2.6,1.04,3.936,1.04
		c2.788,0,5.496-1.459,6.968-4.059c14.742-26.027,34.765-43.432,59.652-51.929c-1.17,3.858-1.796,7.903-1.796,12.071
		c0,7.516,2.052,12.887,6.273,16.419c7,5.857,16.722,4.116,27.979,2.1c4.272-0.765,8.917-1.591,13.747-2.081v31.649
		c-48.159,0.984-74.766,11.151-90.828,34.361c-11.21,16.199-18.764,38.803-20.688,94.792c-0.075,0.549-0.093,1.1-0.054,1.647
		c-0.283,8.851-0.43,18.516-0.43,29.114c0,6.531-2.293,7.287-3.156,7.572c-4.724,1.56-12.851-2.22-14.346-4.239
		c-14.37-20.009-3.931-84.31,1.304-107.397c0.222-0.977,0.258-1.988,0.106-2.979c-7.465-48.854,2.426-92.062,27.85-121.666
		c24.323-28.322,61.752-43.292,108.242-43.292s83.919,14.97,108.242,43.292c25.424,29.604,35.314,72.812,27.85,121.666
		c-0.151,0.991-0.115,2.002,0.107,2.98c5.24,23.079,15.689,87.364,1.305,107.394C392.007,485.397,383.879,489.176,379.156,487.618z
		 M431.781,413.834c-5.752,5.284-11.076,10.178-15.641,14.958c-1.692-24.643-6.421-47.646-8.008-54.869
		c7.746-52.932-3.506-100.12-31.752-133.01c-26.012-30.289-64.752-47.039-112.38-48.717v-16.15c0-4.418-3.582-8-8-8
		c-4.418,0-8,3.582-8,8v16.15c-47.628,1.678-86.368,18.428-112.38,48.717c-28.246,32.89-39.498,80.078-31.752,133.01
		c-1.587,7.222-6.316,30.226-8.008,54.869c-4.565-4.779-9.888-9.673-15.641-14.958C53.117,388.935,16,354.836,16,288.046
		c0-32.339,6.302-54.208,13.6-79.53c3.44-11.939,6.999-24.285,10.209-38.734c5.826-26.216,15.75-46.996,30.426-63.224
		c0.242-0.229,0.471-0.476,0.687-0.74c9.966-10.816,22.079-19.587,36.553-26.566c17.558-8.466,38.606-14.455,64.761-18.227
		c0.192-0.022,0.384-0.028,0.576-0.055c0.193-0.027,0.379-0.068,0.567-0.108c23.181-3.268,50.346-4.816,82.622-4.816
		c32.275,0,59.44,1.549,82.621,4.816c0.188,0.04,0.375,0.082,0.568,0.108c0.192,0.027,0.386,0.032,0.578,0.055
		c26.154,3.772,47.201,9.761,64.759,18.227c14.474,6.979,26.586,15.749,36.552,26.566c0.216,0.264,0.445,0.511,0.687,0.74
		c14.676,16.227,24.6,37.007,30.426,63.223c3.211,14.449,6.769,26.795,10.209,38.734c7.298,25.322,13.6,47.191,13.6,79.53
		C496,354.836,458.883,388.935,431.781,413.834z"/>
	<path d="M392,184.046c-8.822,0-16,7.178-16,16s7.178,16,16,16s16-7.178,16-16S400.822,184.046,392,184.046z"/>
	<path d="M306.857,352.573c-23.025-8.804-48.111-8.582-50.857-8.529c-2.74-0.054-27.832-0.274-50.857,8.529
		c-4.127,1.578-6.193,6.203-4.615,10.33c1.578,4.126,6.203,6.192,10.329,4.615c20.841-7.969,44.701-7.48,44.933-7.476
		c0.135,0.004,0.278,0.004,0.414,0c0.24-0.003,24.1-0.493,44.94,7.476c0.94,0.359,1.905,0.529,2.855,0.529
		c3.22,0,6.255-1.958,7.474-5.145C313.05,358.776,310.984,354.151,306.857,352.573z"/>
</g>
<g>
</g>
<g>
</g>
<g>
</g>
<g>
</g>
<g>
</g>
<g>
</g>
<g>
</g>
<g>
</g>
<g>
</g>
<g>
</g>
<g>
</g>
<g>
</g>
<g>
</g>
<g>
</g>
<g>
</g>
</svg>
