<?xml version="1.0" encoding="iso-8859-1"?>
<!-- Generator: Adobe Illustrator 17.1.0, SVG Export Plug-In . SVG Version: 6.00 Build 0)  -->
<!DOCTYPE svg PUBLIC "-//W3C//DTD SVG 1.1//EN" "http://www.w3.org/Graphics/SVG/1.1/DTD/svg11.dtd">
<svg version="1.1" id="Capa_1" xmlns="http://www.w3.org/2000/svg" xmlns:xlink="http://www.w3.org/1999/xlink" x="0px" y="0px"
	 viewBox="0 0 512.003 512.003" style="enable-background:new 0 0 512.003 512.003;" xml:space="preserve">
<path d="M504.081,81.227c-7.938-8.835-21.492-13.314-40.284-13.314c-67.541,0-117.735,40.295-147.95,74.099
	c-18.268,20.437-30.819,40.115-38.131,53.024c-0.52,0.918-1.513,2.694-2.734,4.977c-0.711-1.221-1.487-2.368-2.323-3.435
	L326.982,95.69c2.095-3.891,0.639-8.742-3.251-10.837c-3.891-2.093-8.742-0.64-10.837,3.251l-53.819,99.949
	c-1.006-0.165-2.03-0.259-3.074-0.259c-1.044,0-2.068,0.094-3.074,0.259l-53.819-99.949c-2.095-3.891-6.948-5.344-10.837-3.251
	c-3.89,2.095-5.346,6.946-3.251,10.837l54.324,100.888c-0.836,1.066-1.612,2.213-2.323,3.435c-1.221-2.283-2.214-4.058-2.734-4.977
	c-7.313-12.909-19.864-32.588-38.131-53.024c-20.923-23.409-51.431-49.926-90.642-64.024c-0.029-0.01-0.056-0.023-0.085-0.033
	c-0.014-0.004-0.03-0.008-0.043-0.013c-17.378-6.233-36.462-10.029-57.181-10.029c-18.792,0-32.346,4.479-40.284,13.314
	C1.65,88.206-0.918,97.461,0.29,108.734l0.335,3.17c4.687,44.693,12.882,98.075,34.833,114.301
	c12.73,9.409,33.219,10.598,56.972,11.827c-26.949,18-38.553,40.208-43.472,57.34c-8.454,29.445-2.372,61.831,16.687,88.853
	c17.605,24.963,38.39,42.333,61.776,51.627c13.88,5.516,28.535,8.238,44.506,8.238c4.181,0,8.455-0.188,12.824-0.56
	c10.473-0.891,27.506-9.513,54.405-73.815c3.163-7.561,6.135-15.124,8.846-22.315v40.207c0,4.418,3.582,8,8,8c4.418,0,8-3.582,8-8
	V347.4c2.712,7.191,5.683,14.755,8.846,22.315c26.899,64.303,43.932,72.925,54.405,73.815c4.371,0.372,8.642,0.56,12.824,0.56
	c15.969,0,30.627-2.723,44.506-8.238c23.386-9.294,44.17-26.664,61.776-51.626c19.059-27.022,25.141-59.408,16.687-88.854
	c-4.919-17.132-16.523-39.34-43.472-57.34c23.753-1.229,44.241-2.418,56.972-11.827c21.951-16.226,30.146-69.607,34.833-114.301
	l0.335-3.17C512.92,97.461,510.353,88.206,504.081,81.227z M329.398,150.876c19.026-20.918,46.536-44.581,81.489-57.425
	c0.442-0.067,0.885-0.164,1.323-0.309c1.344-0.447,4.077-0.265,4.929,0.299c0.091,0.582,0.26,3.697-4.458,11.167
	c-3.02,4.779-2.031,8.894-1.172,10.921c3.081,7.279,12.44,9.24,23.278,11.511c1.984,0.416,4.541,0.951,6.956,1.544
	c-2.633,1.123-5.543,2.284-8.053,3.285c-19.013,7.586-42.674,17.026-42.674,34.825c0,5.682,3.875,9.956,11.518,12.703
	c4.292,1.544,9.675,2.7,15.374,3.924c5.738,1.232,16.777,3.604,21.089,6.185c-2.769,1.708-7.418,3.917-10.797,5.521
	c-13.61,6.465-30.25,14.377-33.059,28.501c-18.859,1.596-38.164,4.745-54.804,13.065c-20.766,10.382-47.595,2.954-55.297,0.446
	c-1.243-3.725-2.852-7.15-4.766-10.2C282.829,217.784,299.796,183.42,329.398,150.876z M256.001,283.701
	c-9.415,0-15.977-14.738-15.977-27.965c0-16.48,8.42-27.965,15.977-27.965c9.415,0,15.977,14.738,15.977,27.965
	C271.978,272.217,263.558,283.701,256.001,283.701z M256.001,203.795c2.394,0,5.578,3.374,7.099,9.033
	c-2.278-0.685-4.65-1.057-7.099-1.057c-2.449,0-4.821,0.372-7.099,1.057C250.423,207.169,253.608,203.795,256.001,203.795z
	 M182.605,150.876c29.602,32.544,46.569,66.908,49.123,75.962c-1.914,3.05-3.522,6.475-4.766,10.199
	c-7.718,2.514-34.537,9.936-55.297-0.445c-16.46-8.23-35.527-11.399-54.191-13.012c-2.778-14.157-19.441-22.081-33.068-28.554
	c-3.378-1.604-8.028-3.813-10.797-5.521c4.312-2.581,15.351-4.952,21.089-6.185c5.699-1.224,11.082-2.38,15.374-3.924
	c7.643-2.747,11.518-7.021,11.518-12.703c0-17.799-23.662-27.239-42.674-34.825c-2.509-1.001-5.419-2.162-8.053-3.285
	c2.415-0.593,4.972-1.128,6.956-1.544c10.837-2.271,20.197-4.231,23.278-11.511c0.858-2.027,1.847-6.142-1.173-10.921
	c-4.718-7.469-4.55-10.584-4.458-11.167c0.768-0.508,3.056-0.702,4.487-0.408C135.458,105.776,163.369,129.727,182.605,150.876z
	 M24.949,166.8c-4.75-21.656-7.132-44.364-8.411-56.564l-0.338-3.206c-0.713-6.659,0.472-11.601,3.623-15.108
	c4.708-5.238,14.522-8.008,28.383-8.008c11.317,0,22.116,1.267,32.38,3.522c-2.354,5.802-1.197,13.075,3.464,21.715
	c-2.863,0.838-6.785,1.659-9.511,2.23c-12.113,2.538-25.841,5.414-25.841,16.981c0,8.678,9.143,12.326,24.29,18.369
	c7.986,3.187,17.038,6.798,23.81,10.926c4.675,2.85,6.894,5.095,7.927,6.685c-3.345,1.181-9.188,2.436-13.385,3.337
	c-7.219,1.551-14.684,3.154-20.854,5.685c-9.485,3.889-14.294,9.588-14.294,16.938c0,9.037,9.422,13.513,21.351,19.18
	c7.096,3.37,16.84,8.002,21.557,12.878c-1.599-0.085-3.187-0.167-4.762-0.249c-20.734-1.071-40.317-2.083-49.368-8.772
	C40.595,210.105,32.179,199.761,24.949,166.8z M224.395,363.54c-25.001,59.767-38.541,63.839-41.001,64.049
	c-42.905,3.646-77.144-13.551-104.674-52.586c-16.25-23.039-21.492-50.454-14.383-75.216c5.197-18.101,19.469-43.007,57.771-59.672
	c15.086,1.627,29.952,4.563,42.402,10.788c10.614,5.308,22.083,7.065,32.628,7.064c10.47,0,20.019-1.734,26.908-3.449
	c-0.008,0.406-0.022,0.809-0.022,1.218c0,20.842,10.039,37.863,23.977,42.629v0.117C246.124,304.498,236.733,334.045,224.395,363.54
	z M447.666,299.787c7.109,24.762,1.867,52.177-14.383,75.217c-27.53,39.035-61.763,56.229-104.674,52.585
	c-2.458-0.21-15.983-4.275-40.959-63.948c-12.348-29.501-21.768-59.133-23.648-65.158v-0.117
	c13.938-4.766,23.977-21.787,23.977-42.629c0-0.408-0.014-0.811-0.022-1.217c6.889,1.715,16.438,3.449,26.908,3.448
	c10.543,0,22.016-1.758,32.628-7.064c12.45-6.225,27.316-9.161,42.402-10.788C428.197,256.78,442.469,281.686,447.666,299.787z
	 M495.804,107.029l-0.338,3.206c-1.279,12.2-3.661,34.908-8.411,56.564c-7.23,32.961-15.646,43.306-20.02,46.538
	c-9.051,6.689-28.634,7.701-49.368,8.772c-1.365,0.071-2.743,0.142-4.126,0.215c4.729-4.864,14.445-9.482,21.525-12.845
	c11.929-5.667,21.351-10.143,21.351-19.18c0-7.351-4.81-13.05-14.294-16.938c-6.171-2.53-13.636-4.134-20.854-5.685
	c-4.197-0.901-10.041-2.156-13.385-3.337c1.034-1.59,3.252-3.835,7.927-6.685c6.772-4.128,15.824-7.739,23.81-10.926
	c15.147-6.043,24.29-9.691,24.29-18.369c0-11.567-13.729-14.443-25.841-16.981c-2.726-0.571-6.648-1.393-9.511-2.23
	c4.691-8.696,5.832-16.006,3.416-21.827c10.099-2.179,20.71-3.409,31.825-3.409c13.861,0,23.676,2.77,28.383,8.008
	C495.332,95.429,496.517,100.37,495.804,107.029z"/>
<g>
</g>
<g>
</g>
<g>
</g>
<g>
</g>
<g>
</g>
<g>
</g>
<g>
</g>
<g>
</g>
<g>
</g>
<g>
</g>
<g>
</g>
<g>
</g>
<g>
</g>
<g>
</g>
<g>
</g>
</svg>
