<?xml version="1.0" encoding="iso-8859-1"?>
<!-- Generator: Adobe Illustrator 17.1.0, SVG Export Plug-In . SVG Version: 6.00 Build 0)  -->
<!DOCTYPE svg PUBLIC "-//W3C//DTD SVG 1.1//EN" "http://www.w3.org/Graphics/SVG/1.1/DTD/svg11.dtd">
<svg version="1.1" id="Capa_1" xmlns="http://www.w3.org/2000/svg" xmlns:xlink="http://www.w3.org/1999/xlink" x="0px" y="0px"
	 viewBox="0 0 512.038 512.038" style="enable-background:new 0 0 512.038 512.038;" xml:space="preserve">
<g>
	<path d="M479.534,217.832L479.534,217.832c-4.986-17.891-7.514-36.819-7.514-56.258V24.083c0-9.879-5.66-18.377-14.772-22.177
		c-9.088-3.791-19.083-1.841-26.084,5.092c-17.334,17.167-44.109,43.79-64.849,64.568c-2.034,2.038-4.907,2.842-7.493,2.1
		c-44.814-12.873-160.095-12.849-205.586,0.043c-2.584,0.733-5.447-0.074-7.474-2.105c-20.811-20.85-47.584-47.471-64.887-64.605
		c-7-6.932-16.996-8.883-26.084-5.092C45.68,5.705,40.02,14.204,40.02,24.083v137.458c0,18.869-2.694,38.411-8.006,58.083
		c-7.562,28-9.775,57.013-6.579,86.235c11.75,107.429,98.181,193.58,205.512,204.849c8.449,0.887,16.856,1.33,25.213,1.33
		c25.065,0,49.659-3.983,73.388-11.907c30.319-10.124,57.795-26.157,81.667-47.654c48.81-43.954,76.804-106.81,76.804-172.45
		C488.02,258.96,485.165,238.035,479.534,217.832z M400.509,440.587c-22.228,20.017-47.808,34.944-76.028,44.367
		c-29.458,9.837-60.366,13.148-91.863,9.841c-99.896-10.488-180.34-90.679-191.277-190.676c-2.979-27.232-0.919-54.257,6.12-80.324
		c5.68-21.031,8.56-41.977,8.56-62.254V38.449l42.669,64.004c5.545,8.319,4.05,19.515-3.479,26.044
		c-12.755,11.061-22.888,23.015-30.118,35.528c-2.21,3.825-0.901,8.719,2.924,10.929c1.261,0.729,2.637,1.074,3.995,1.074
		c2.764,0,5.452-1.434,6.934-3.999c6.339-10.971,15.338-21.55,26.747-31.444c13.6-11.793,16.312-32.002,6.309-47.007L62.676,19.589
		c-0.7-1.05-1.609-1.873-2.631-2.467c0.367-0.21,0.684-0.357,0.905-0.45c0.544-0.227,1.731-0.636,3.203-0.636
		c1.635,0,3.621,0.506,5.463,2.331c17.286,17.118,44.032,43.713,64.82,64.539c6.123,6.136,14.998,8.51,23.161,6.196
		c42.634-12.082,154.833-12.116,196.805-0.059c8.185,2.351,17.088-0.015,23.236-6.175c20.717-20.756,47.465-47.352,64.783-64.502
		c3.5-3.466,7.519-2.173,8.667-1.694c0.221,0.092,0.538,0.239,0.906,0.45c-1.022,0.594-1.931,1.417-2.631,2.467l-49.326,73.988
		c-10.003,15.005-7.291,35.213,6.309,47.007c11.409,9.895,20.408,20.474,26.747,31.444c1.482,2.565,4.17,3.999,6.934,3.999
		c1.358,0,2.734-0.346,3.995-1.074c3.826-2.21,5.135-7.104,2.924-10.929c-7.229-12.513-17.363-24.467-30.118-35.528
		c-7.528-6.529-9.024-17.725-3.479-26.044l42.669-64.004v123.126c0,20.891,2.726,41.264,8.102,60.554
		c5.241,18.804,7.898,38.284,7.898,57.898C472.02,341.141,445.955,399.663,400.509,440.587z"/>
	<path d="M335.993,396.228c-4.068-1.721-8.763,0.182-10.484,4.251c-5.022,11.875-16.597,19.547-29.488,19.547
		c-16.64,0-30.349-12.769-31.856-29.021c4.708-1.82,8.985-5.195,12.316-9.858l12.101-16.94c5.46-7.644,6.701-15.7,3.406-22.104
		s-10.573-10.076-19.966-10.076h-32c-9.393,0-16.67,3.673-19.966,10.076s-2.054,14.46,3.406,22.104l12.101,16.94
		c3.331,4.664,7.607,8.038,12.316,9.858c-1.508,16.253-15.216,29.021-31.856,29.021c-12.891,0-24.466-7.672-29.488-19.547
		c-1.721-4.069-6.416-5.973-10.484-4.251c-4.069,1.721-5.973,6.416-4.252,10.485c7.532,17.807,24.891,29.313,44.225,29.313
		c16.68,0,31.394-8.557,40-21.507c8.606,12.95,23.32,21.507,40,21.507c19.333,0,36.693-11.506,44.225-29.313
		C341.966,402.644,340.062,397.95,335.993,396.228z M236.48,354.907c-2.411-3.375-2.317-5.253-2.198-5.482
		c0.118-0.23,1.591-1.397,5.739-1.397h32c4.147,0,5.621,1.167,5.739,1.397c0.119,0.229,0.212,2.107-2.198,5.482l-12.101,16.94
		c-2.167,3.035-4.81,4.706-7.44,4.706s-5.272-1.671-7.44-4.706L236.48,354.907z"/>
	<path d="M267.854,445.044c-3.488,1.951-7.58,2.982-11.834,2.982s-8.346-1.031-11.834-2.982c-3.856-2.156-8.731-0.779-10.887,3.077
		c-2.157,3.856-0.779,8.73,3.077,10.888c5.869,3.282,12.662,5.018,19.645,5.018s13.775-1.735,19.645-5.018
		c3.856-2.157,5.233-7.031,3.077-10.888C276.585,444.266,271.711,442.889,267.854,445.044z"/>
	<path d="M208.02,280.027c0-22.056-17.944-40-40-40s-40,17.944-40,40s17.944,40,40,40S208.02,302.083,208.02,280.027z
		 M168.02,304.027c-13.233,0-24-10.767-24-24s10.767-24,24-24s24,10.767,24,24S181.254,304.027,168.02,304.027z"/>
	<path d="M168.02,264.027c-4.418,0-8,3.582-8,8v16c0,4.418,3.582,8,8,8s8-3.582,8-8v-16
		C176.02,267.609,172.439,264.027,168.02,264.027z"/>
	<path d="M344.02,240.027c-22.056,0-40,17.944-40,40s17.944,40,40,40s40-17.944,40-40S366.076,240.027,344.02,240.027z
		 M344.02,304.027c-13.233,0-24-10.767-24-24s10.767-24,24-24s24,10.767,24,24S357.254,304.027,344.02,304.027z"/>
	<path d="M344.02,264.027c-4.418,0-8,3.582-8,8v16c0,4.418,3.582,8,8,8s8-3.582,8-8v-16
		C352.02,267.609,348.439,264.027,344.02,264.027z"/>
</g>
<g>
</g>
<g>
</g>
<g>
</g>
<g>
</g>
<g>
</g>
<g>
</g>
<g>
</g>
<g>
</g>
<g>
</g>
<g>
</g>
<g>
</g>
<g>
</g>
<g>
</g>
<g>
</g>
<g>
</g>
</svg>
