<?xml version="1.0" encoding="iso-8859-1"?>
<!-- Generator: Adobe Illustrator 17.1.0, SVG Export Plug-In . SVG Version: 6.00 Build 0)  -->
<!DOCTYPE svg PUBLIC "-//W3C//DTD SVG 1.1//EN" "http://www.w3.org/Graphics/SVG/1.1/DTD/svg11.dtd">
<svg version="1.1" id="Capa_1" xmlns="http://www.w3.org/2000/svg" xmlns:xlink="http://www.w3.org/1999/xlink" x="0px" y="0px"
	 viewBox="0 0 512.005 512.005" style="enable-background:new 0 0 512.005 512.005;" xml:space="preserve">
<g>
	<path d="M112.144,188.066c0-17.632-14.345-31.978-31.978-31.978s-31.978,14.345-31.978,31.978s14.345,31.978,31.978,31.978
		S112.144,205.698,112.144,188.066z M64.189,188.066c0-8.81,7.167-15.978,15.978-15.978s15.978,7.167,15.978,15.978
		s-7.167,15.978-15.978,15.978S64.189,196.876,64.189,188.066z"/>
	<path d="M156.096,307.962c7.399,0,11.996-7.659,11.996-19.989s-4.597-19.989-11.996-19.989s-11.996,7.659-11.996,19.989
		S148.696,307.962,156.096,307.962z"/>
	<path d="M511.45,188.896c-2.45-27.228-12.779-52.193-29.084-70.295c-15.419-17.118-34.49-26.31-54.212-26.286
		c-14.708-18.844-47.804-23.453-77.214-27.545c-16.241-2.259-36.454-5.071-41.156-10.067c-2.925-3.107-12.799-13.249-23.228-22.732
		c-10.507-9.554-22.4-19.748-30.553-19.748c-8.153,0-20.045,10.193-30.553,19.748c-10.429,9.483-20.303,19.625-23.228,22.732
		c-4.702,4.996-24.915,7.808-41.156,10.067c-29.41,4.092-62.506,8.701-77.214,27.545c-19.726-0.023-38.792,9.167-54.212,26.285
		c-16.306,18.103-26.635,43.067-29.084,70.295c-2.45,27.229,3.258,53.636,16.071,74.358c10.576,17.105,24.965,28.759,41.364,33.773
		c0.694,0.85,1.569,1.574,2.614,2.097c15.991,7.996,17.493,28.777,19.083,50.779c0.161,2.229,0.321,4.448,0.497,6.644
		c1.834,22.921,26.348,57.964,62.454,89.276c56.156,48.701,97.986,53.958,113.364,53.958s57.208-5.258,113.364-53.958
		c36.105-31.312,60.62-66.355,62.454-89.277c0.176-2.196,0.336-4.415,0.497-6.644c1.59-22.002,3.092-42.783,19.083-50.779
		c1.045-0.522,1.92-1.247,2.614-2.097c16.399-5.014,30.788-16.668,41.364-33.773C508.192,242.532,513.9,216.125,511.45,188.896z
		 M16.491,190.33c4.169-46.34,33.906-82.018,67.336-82.018c1.398,0,2.807,0.063,4.217,0.189
		c15.435,1.389,26.738,10.667,33.598,27.576c6.648,16.389,8.897,39.111,6.504,65.71c-2.366,26.303-8.566,47.736-17.93,61.98
		c-9.714,14.778-22.118,21.27-37.927,19.848C37.179,280.457,12.148,238.609,16.491,190.33z M415.871,355.271
		c-1.47,18.375-24.904,50.642-56.987,78.465c-36.135,31.337-74.595,50.046-102.882,50.046s-66.747-18.709-102.882-50.046
		c-32.083-27.824-55.517-60.09-56.987-78.465c-0.172-2.155-0.33-4.333-0.488-6.521c-1.233-17.053-2.592-35.695-11.617-49.476
		c15.871-2.178,29.384-11.24,39.558-26.717c10.807-16.44,17.894-40.416,20.496-69.336c5.156-57.31-9.732-96.101-40.25-107.456
		c2.373-1.491,5.045-2.831,7.955-4.038c1.274-0.308,6.194-0.411,12.985,3.864c11.252,7.083,31.263,28.636,38.864,93.408
		c4.143,35.308,14.773,97.485,39.412,117.208c1.476,1.181,3.241,1.755,4.995,1.755c2.346,0,4.67-1.027,6.25-3.001
		c2.761-3.449,2.203-8.484-1.246-11.245c-5.44-4.355-23.937-24.912-33.521-106.582c-7.358-62.708-26.362-90.311-42.386-102.423
		c8.717-1.668,17.749-2.927,26.131-4.093c23.486-3.268,42.036-5.849,50.602-14.949c14.632-15.547,35.595-34.584,42.129-37.271
		c6.535,2.687,27.497,21.723,42.129,37.271c8.566,9.101,27.116,11.682,50.602,14.949c8.382,1.166,17.415,2.425,26.131,4.093
		c-16.024,12.112-35.028,39.715-42.386,102.423c-9.584,81.67-28.08,102.227-33.521,106.582c-3.449,2.761-4.007,7.796-1.246,11.245
		c1.58,1.974,3.905,3.001,6.25,3.001c1.754,0,3.519-0.574,4.995-1.755c24.639-19.724,35.269-81.901,39.412-117.208
		c7.601-64.772,27.612-86.325,38.864-93.408c6.792-4.276,11.713-4.171,12.986-3.863c2.91,1.207,5.582,2.546,7.954,4.037
		c-30.518,11.355-45.406,50.146-40.25,107.456c2.602,28.919,9.689,52.895,20.496,69.336c10.174,15.478,23.686,24.54,39.557,26.717
		c-9.025,13.781-10.384,32.423-11.617,49.476C416.201,350.938,416.044,353.116,415.871,355.271z M439.716,283.615
		c-15.814,1.424-28.213-5.07-37.927-19.848c-9.364-14.245-15.564-35.677-17.93-61.98c-2.393-26.599-0.144-49.321,6.504-65.71
		c6.86-16.909,18.164-26.187,33.598-27.576c1.412-0.127,2.816-0.189,4.217-0.189c33.428,0,63.167,35.681,67.336,82.018
		C499.858,238.609,474.826,280.457,439.716,283.615z"/>
	<path d="M431.839,156.089c-17.632,0-31.978,14.345-31.978,31.978s14.345,31.978,31.978,31.978s31.978-14.345,31.978-31.978
		S449.471,156.089,431.839,156.089z M431.839,204.044c-8.81,0-15.978-7.167-15.978-15.978s7.167-15.978,15.978-15.978
		s15.978,7.167,15.978,15.978S440.649,204.044,431.839,204.044z"/>
	<path d="M401.604,348.1c-38.094-8.465-107.493-16.175-145.601-16.175s-107.507,7.71-145.601,16.175
		c-4.313,0.958-7.033,5.232-6.074,9.545c0.829,3.729,4.135,6.267,7.802,6.267c0.575,0,1.158-0.063,1.743-0.192
		c36.533-8.119,105.605-15.794,142.13-15.794s105.597,7.676,142.13,15.794c0.584,0.13,1.168,0.192,1.743,0.192
		c3.667,0,6.974-2.538,7.802-6.267C408.636,353.332,405.917,349.058,401.604,348.1z"/>
	<path d="M304.059,364.477c-11.474,4.638-33.444,7.41-48.056,7.41c-14.612,0-36.582-2.771-48.056-7.41
		c-4.096-1.654-8.759,0.323-10.415,4.419s0.323,8.759,4.419,10.415c13.928,5.63,37.734,8.576,54.052,8.576
		s40.125-2.946,54.052-8.576c4.096-1.656,6.075-6.319,4.419-10.415C312.818,364.8,308.156,362.822,304.059,364.477z"/>
	<path d="M355.909,307.962c7.399,0,11.996-7.659,11.996-19.989s-4.597-19.989-11.996-19.989s-11.996,7.659-11.996,19.989
		S348.51,307.962,355.909,307.962z"/>
</g>
<g>
</g>
<g>
</g>
<g>
</g>
<g>
</g>
<g>
</g>
<g>
</g>
<g>
</g>
<g>
</g>
<g>
</g>
<g>
</g>
<g>
</g>
<g>
</g>
<g>
</g>
<g>
</g>
<g>
</g>
</svg>
