<?xml version="1.0" encoding="iso-8859-1"?>
<!-- Generator: Adobe Illustrator 17.1.0, SVG Export Plug-In . SVG Version: 6.00 Build 0)  -->
<!DOCTYPE svg PUBLIC "-//W3C//DTD SVG 1.1//EN" "http://www.w3.org/Graphics/SVG/1.1/DTD/svg11.dtd">
<svg version="1.1" id="Capa_1" xmlns="http://www.w3.org/2000/svg" xmlns:xlink="http://www.w3.org/1999/xlink" x="0px" y="0px"
	 viewBox="0 0 512 512" style="enable-background:new 0 0 512 512;" xml:space="preserve">
<g>
	<path d="M340,272c5.474,0,12-4.164,12-24s-6.526-24-12-24s-12,4.164-12,24S334.526,272,340,272z"/>
	<path d="M368,320c0-0.266-0.014-0.528-0.04-0.787C382.229,286.188,384,248.463,384,232c0-26.706-8.842-54.575-16.26-73.253
		c-4.33-10.902-8.519-19.604-11.27-24.986c-4.916-9.612-6.754-13.209-11.605-13.728c-4.07-0.444-7.82,2.279-8.684,6.276
		c-2.929,13.548-9.047,17.18-16.409,19.512C323.699,136.85,328,126.637,328,112c0-4.418-3.582-8-8-8s-8,3.582-8,8
		c0,9.547-2.228,16.385-5.152,23.378c-3.935-20.212-9.534-42.525-14.652-60.561c-5.477-19.3-11.233-36.762-16.208-49.169
		C268.395,6.712,263.164,0,256,0s-12.395,6.712-19.988,25.647c-4.975,12.407-10.731,29.869-16.208,49.169
		c-5.118,18.036-10.717,40.349-14.652,60.561C202.228,128.385,200,121.547,200,112c0-4.418-3.582-8-8-8s-8,3.582-8,8
		c0,14.637,4.301,24.85,8.229,33.822c-7.362-2.332-13.48-5.964-16.409-19.513c-0.865-3.997-4.625-6.718-8.684-6.275
		c-4.851,0.519-6.69,4.115-11.605,13.728c-2.751,5.382-6.94,14.084-11.27,24.986C136.842,177.425,128,205.294,128,232
		c0,10.559,0,42.691,9.616,73.392c1.927,6.151,4.124,11.91,6.578,17.294c-0.427,13.535-3.669,29.182-6.815,44.35
		c-6.59,31.773-12.814,61.783,2.685,80.827c7.854,9.651,20.092,14.883,37.266,15.931c1.203,8.816,3.804,16.533,7.813,23.106
		C195.302,503.555,213.769,512,240.031,512c6.559,0,11.963-1.714,15.969-4.898c4.006,3.184,9.409,4.898,15.969,4.898
		c26.262,0,44.729-8.445,54.889-25.101c4.009-6.573,6.61-14.29,7.813-23.106c17.208-1.047,29.471-6.283,37.342-15.942
		c15.505-19.026,9.327-48.993,2.787-80.72C371.457,350.916,368,334.148,368,320z M166.975,146.61c2.032,3.02,4.43,5.609,7.211,7.798
		c6.036,4.748,12.592,6.561,17.859,8.018c3.884,1.074,5.864,1.7,6.881,2.415c0.67,3.373,1.073,7.032,1.073,11.159
		c0,4.418,3.582,8,8,8s8-3.582,8-8c0-16.521,6.878-52.175,17.523-90.833c9.648-35.038,17.754-55.976,22.477-65.109
		c4.722,9.133,12.828,30.071,22.477,65.109C289.122,123.825,296,159.479,296,176c0,4.418,3.582,8,8,8s8-3.582,8-8
		c0-4.128,0.403-7.786,1.073-11.159c1.017-0.715,2.997-1.341,6.881-2.415c7.101-1.964,17.647-4.881,25.048-15.862
		C354.088,165.536,368,200.521,368,232c0,11.326-0.984,40.676-10.103,68.51c-9.078,27.713-23.485,46.237-42.915,55.277
		c6.426-11.472,12.965-22.65,19.343-30.889c4.597-5.938,4.207-11.077,3.07-14.343c-3.443-9.891-16.76-13.178-30.858-16.657
		c-4.681-1.155-11.744-2.898-13.465-4.083c-0.362-0.297-0.745-0.549-1.139-0.772c5.059-10.725,10.262-23.336,15.923-37.443
		c6.103-15.205,13.697-34.128,17.585-37.739c3.238-3.007,3.425-8.068,0.419-11.306c-3.006-3.236-8.068-3.426-11.306-0.419
		c-6.213,5.769-11.947,19.584-21.547,43.505c-6.312,15.727-13.466,33.551-20.758,46.949c-10.266,18.863-15.669,19.408-16.251,19.408
		c-0.008,0-0.016,0.001-0.024,0.001c-0.681-0.014-6.074-0.752-16.227-19.407c-7.292-13.398-14.446-31.223-20.758-46.949
		c-9.6-23.921-15.334-37.736-21.547-43.505c-3.237-3.007-8.299-2.818-11.306,0.419s-2.819,8.299,0.419,11.306
		c3.889,3.611,11.483,22.534,17.585,37.739c5.659,14.101,10.86,26.708,15.917,37.43c-0.384,0.223-0.758,0.473-1.112,0.768
		c-1.684,1.185-8.786,2.938-13.486,4.098c-14.098,3.479-27.415,6.767-30.858,16.657c-1.137,3.266-1.527,8.405,3.07,14.343
		c6.442,8.321,13.047,19.641,19.536,31.233c-13.477-5.829-26.966-16.859-36.991-36.867c-0.128-2.093-1.056-3.966-2.489-5.319
		C149.387,294.82,144,268.387,144,232C144,200.545,157.889,165.593,166.975,146.61z M256,408c-11.716,0-27.702-28.825-40.546-51.987
		c-8.044-14.506-16.36-29.5-24.876-40.583c3.704-2.293,13.634-4.743,18.718-5.998c8.45-2.086,14.213-3.597,18.128-6.063
		C236.324,319.005,245.256,328,256,328c0.276,0,0.549-0.014,0.818-0.041c10.379-0.447,19.085-9.356,27.757-24.591
		c3.915,2.466,9.678,3.978,18.129,6.064c5.084,1.255,15.014,3.705,18.718,5.998c-8.516,11.083-16.832,26.077-24.876,40.583
		C283.702,379.175,267.716,408,256,408z M152.472,437.763c-10.697-13.144-4.968-40.766,0.572-67.478
		c1.712-8.255,3.449-16.646,4.79-24.9c10.395,13.178,23.38,22.459,38.888,27.746c-3.61,8.056-8.903,20.93-13.171,35.664
		c-4.162,14.368-6.46,27.354-6.911,38.916C165.095,446.775,157.143,443.502,152.472,437.763z M313.199,478.567
		c-7.155,11.73-20.642,17.433-41.23,17.433c-6.181,0-7.969-1.794-7.969-8v-40c0-4.418-3.582-8-8-8s-8,3.582-8,8v40
		c0,6.206-1.788,8-7.969,8c-20.582,0-34.066-5.699-41.223-17.422c-15.127-24.778,0.935-73.031,12.083-98.043
		C224.78,404.526,238.754,424,256,424c17.248,0,31.223-19.478,45.114-43.472C312.27,405.518,328.342,453.74,313.199,478.567z
		 M359.609,437.745c-4.687,5.752-12.666,9.031-24.25,9.966c-0.45-11.562-2.749-24.548-6.911-38.917
		c-4.29-14.809-9.615-27.738-13.225-35.785c16.633-5.987,29.262-16.562,38.855-29.413c1.362,8.854,3.22,17.888,5.05,26.766
		C364.627,397.032,370.313,424.61,359.609,437.745z"/>
	<path d="M172,272c5.474,0,12-4.164,12-24s-6.526-24-12-24s-12,4.164-12,24S166.526,272,172,272z"/>
	<path d="M256,296c4.418,0,8-3.582,8-8V120c0-4.418-3.582-8-8-8s-8,3.582-8,8v168C248,292.418,251.582,296,256,296z"/>
	<path d="M256,96c4.418,0,8-3.582,8-8v-8c0-4.418-3.582-8-8-8s-8,3.582-8,8v8C248,92.418,251.582,96,256,96z"/>
</g>
<g>
</g>
<g>
</g>
<g>
</g>
<g>
</g>
<g>
</g>
<g>
</g>
<g>
</g>
<g>
</g>
<g>
</g>
<g>
</g>
<g>
</g>
<g>
</g>
<g>
</g>
<g>
</g>
<g>
</g>
</svg>
