<?xml version="1.0" encoding="iso-8859-1"?>
<!-- Generator: Adobe Illustrator 17.1.0, SVG Export Plug-In . SVG Version: 6.00 Build 0)  -->
<!DOCTYPE svg PUBLIC "-//W3C//DTD SVG 1.1//EN" "http://www.w3.org/Graphics/SVG/1.1/DTD/svg11.dtd">
<svg version="1.1" id="Capa_1" xmlns="http://www.w3.org/2000/svg" xmlns:xlink="http://www.w3.org/1999/xlink" x="0px" y="0px"
	 viewBox="0 0 512 512" style="enable-background:new 0 0 512 512;" xml:space="preserve">
<g>
	<path d="M502.197,190.59c1.14-1.865,2.142-3.705,3.009-5.493c10.151-20.95,6.095-41.223-1.086-53.209
		c-21.08-35.185-57.623-68.105-102.897-92.697C354.695,13.918,303.12,0,256,0c-47.12,0-98.695,13.918-145.222,39.19
		C65.503,63.782,28.96,96.703,7.88,131.888C0.7,143.874-3.357,164.146,6.794,185.096c0.922,1.902,1.998,3.861,3.23,5.848
		c-0.484,0.741-0.86,1.57-1.081,2.48c-5.441,22.424-8.2,45.65-8.2,69.036c0,36.757,6.751,71.32,20.065,102.732
		c12.756,30.095,31.219,56.628,54.876,78.862C122.304,487.87,186.341,512,256,512s133.696-24.13,180.315-67.945
		c23.657-22.234,42.12-48.768,54.876-78.862c13.314-31.412,20.065-65.976,20.065-102.732c0-23.857-2.87-47.538-8.53-70.384
		C502.597,191.554,502.417,191.059,502.197,190.59z M489.448,205.843c2.256,10.833,3.86,21.839,4.801,32.942
		c-16.797,12.54-36.858,9.063-59.969,5.056c-12.387-2.148-25.43-4.407-38.819-4.305c8.316-3.521,17.694-6.193,28.589-7.602
		C456.35,227.757,476.668,217.369,489.448,205.843z M21.606,140.11c19.63-32.766,54.011-63.613,96.809-86.86
		C162.639,29.229,211.501,16,256,16s93.361,13.229,137.585,37.25c42.798,23.247,77.179,54.095,96.809,86.86
		c4.802,8.016,7.792,22.78,0.413,38.009c-9.684,19.984-34.121,33.461-68.809,37.947c-38.888,5.029-60.949,24.217-80.179,41.555
		c-2.946,2.251-5.889,4.752-8.826,7.541c-0.432,0.41-0.804,0.86-1.124,1.334C317.843,278.644,304.093,288,283.837,288
		c-0.646,0-1.271,0.085-1.873,0.229c-0.202-0.138-0.395-0.281-0.601-0.416C273.914,282.921,264.433,280,256,280
		c-8.433,0-17.915,2.921-25.363,7.813c-0.206,0.135-0.399,0.278-0.601,0.416c-0.602-0.145-1.227-0.229-1.873-0.229
		c-24.321,0-39.263-13.485-56.564-29.1c-19.57-17.662-41.75-37.681-81.597-42.834c-34.688-4.486-59.125-17.963-68.809-37.947
		C13.814,162.89,16.804,148.126,21.606,140.11z M256,296c9.223,0,23.331,6.557,23.977,15.371
		c-1.133,6.127-2.662,17.199-4.574,31.038c-2.96,21.429-6.645,48.099-10.851,71.104c-3.591,19.638-6.501,30.514-8.552,36.509
		c-2.05-5.995-4.961-16.869-8.551-36.506c-4.206-23.004-7.891-49.674-10.851-71.103c-1.912-13.841-3.442-24.915-4.575-31.043
		C232.669,302.557,246.777,296,256,296z M87.95,231.934c10.903,1.41,20.287,4.084,28.607,7.609
		c-13.695-0.21-27.034,2.103-39.688,4.298c-22.744,3.943-42.532,7.363-59.166-4.483c0.934-11.299,2.551-22.5,4.846-33.518
		C35.329,217.367,55.648,227.756,87.95,231.934z M476.46,358.948c-11.883,28.035-29.076,52.746-51.102,73.447
		C381.717,473.411,321.571,496,256,496s-125.717-22.589-169.357-63.604c-22.026-20.701-39.219-45.412-51.102-73.447
		c-12.472-29.426-18.796-61.889-18.796-96.488c0-1.692,0.021-3.383,0.051-5.074c19.857,9.654,41.631,5.89,62.808,2.219
		c30.2-5.238,58.727-10.185,87.539,17.162c0.611,0.58,1.291,1.04,2.011,1.39c13.846,12.066,28.2,22.434,48.409,25.147
		C216.534,306.087,216,309.002,216,312c0,0.513,0.049,1.023,0.147,1.527c1.064,5.474,2.704,17.338,4.602,31.076
		C235.058,448.188,241.647,472,256,472c14.353,0,20.942-23.813,35.252-127.401c1.897-13.736,3.536-25.599,4.601-31.071
		c0.098-0.504,0.147-1.015,0.147-1.527c0-2.998-0.535-5.913-1.562-8.695c24.243-3.255,40.06-17.523,56.683-32.527
		c0.299-0.27,0.599-0.54,0.898-0.81c26.106-19.623,52.128-15.113,79.527-10.363c21.475,3.724,43.568,7.554,63.65-2.625
		c0.036,1.825,0.06,3.651,0.06,5.479C495.256,297.06,488.932,329.522,476.46,358.948z"/>
	<path d="M120,264c-13.682,0-24,15.477-24,36s10.318,36,24,36s24-15.477,24-36S133.682,264,120,264z M120,320c-2.322,0-8-7.009-8-20
		s5.678-20,8-20s8,7.009,8,20S122.322,320,120,320z"/>
	<path d="M392,264c-13.682,0-24,15.477-24,36s10.318,36,24,36s24-15.477,24-36S405.682,264,392,264z M392,320c-2.322,0-8-7.009-8-20
		s5.678-20,8-20s8,7.009,8,20S394.322,320,392,320z"/>
	<path d="M219.323,271.256C229.398,266.577,242.424,264,256,264c13.576,0,26.602,2.577,36.678,7.256
		c1.091,0.507,2.236,0.746,3.364,0.746c3.018,0,5.907-1.716,7.261-4.633c1.861-4.007,0.121-8.764-3.886-10.625
		C287.274,251.105,271.855,248,256,248s-31.273,3.105-43.417,8.744c-4.007,1.861-5.747,6.618-3.886,10.625
		C210.558,271.377,215.316,273.115,219.323,271.256z"/>
</g>
<g>
</g>
<g>
</g>
<g>
</g>
<g>
</g>
<g>
</g>
<g>
</g>
<g>
</g>
<g>
</g>
<g>
</g>
<g>
</g>
<g>
</g>
<g>
</g>
<g>
</g>
<g>
</g>
<g>
</g>
</svg>
