<?xml version="1.0" encoding="iso-8859-1"?>
<!-- Generator: Adobe Illustrator 17.1.0, SVG Export Plug-In . SVG Version: 6.00 Build 0)  -->
<!DOCTYPE svg PUBLIC "-//W3C//DTD SVG 1.1//EN" "http://www.w3.org/Graphics/SVG/1.1/DTD/svg11.dtd">
<svg version="1.1" id="Capa_1" xmlns="http://www.w3.org/2000/svg" xmlns:xlink="http://www.w3.org/1999/xlink" x="0px" y="0px"
	 viewBox="0 0 512 512" style="enable-background:new 0 0 512 512;" xml:space="preserve">
<g>
	<path d="M136,131.865c-8.822,0-16,7.178-16,16s7.178,16,16,16s16-7.178,16-16S144.822,131.865,136,131.865z"/>
	<path d="M376,131.865c-8.822,0-16,7.178-16,16s7.178,16,16,16s16-7.178,16-16S384.822,131.865,376,131.865z"/>
	<path d="M511.881,210.035c0.077-2.155,0.119-4.219,0.119-6.17c0-27.298-41.068-51.736-80.784-75.37
		c-6.654-3.959-12.938-7.699-19.023-11.444c-3.3-2.031-6.331-6.312-9.539-10.844c-6.675-9.429-15.817-22.343-34.654-22.343
		c-15.982,0-25.62,8.695-31.378,13.89c-0.852,0.768-1.955,1.764-2.637,2.292c-7.734,0.793-16.826-0.838-28.214-2.882
		c-13.155-2.361-29.527-5.3-49.771-5.3s-36.615,2.938-49.771,5.3c-11.389,2.045-20.48,3.677-28.214,2.882
		c-0.682-0.529-1.786-1.524-2.637-2.292c-5.758-5.195-15.396-13.89-31.378-13.89c-18.837,0-27.979,12.914-34.654,22.343
		c-3.208,4.532-6.239,8.813-9.539,10.844c-6.084,3.745-12.369,7.484-19.023,11.444C41.068,152.129,0,176.567,0,203.865
		c0,1.951,0.042,4.015,0.119,6.17c-0.112,0.668-0.151,1.359-0.085,2.065c0.084,0.912,0.189,1.801,0.308,2.674
		c2.326,40.777,16.311,109.735,32.4,144.455c11.686,25.218,41.256,42.03,92.316,51.429c0.726,3.861,1.642,7.714,2.779,11.506
		c1.035,3.449,4.112,5.805,7.657,5.863c0.061,0.001,0.122,0.001,0.182,0.001c5.991,0,7.637-4.9,9.378-10.085
		c0.377-1.122,0.827-2.461,1.348-3.949c11.343,1.49,23.56,2.69,36.685,3.606c0.976,5.234,2.279,9.884,8.027,10.49
		c0.285,0.03,0.569,0.045,0.85,0.045c3.763,0,7.067-2.643,7.877-6.437c0.201-0.942,0.48-1.983,0.795-3.068
		c17.061,0.825,35.49,1.234,55.365,1.234c19.773,0,38.115-0.405,55.103-1.222c0.313,1.081,0.591,2.117,0.791,3.055
		c0.81,3.794,4.115,6.437,7.877,6.437c0.281,0,0.565-0.015,0.85-0.045c5.741-0.606,7.048-5.246,8.024-10.472
		c14.019-0.974,27.013-2.268,39.004-3.895c0.562,1.6,1.043,3.03,1.443,4.221c1.741,5.185,3.386,10.085,9.378,10.084
		c0.06,0,0.121,0,0.182-0.001c3.545-0.058,6.622-2.415,7.656-5.863c1.178-3.927,2.12-7.919,2.858-11.918
		c49.702-9.476,78.577-26.166,90.093-51.017c16.09-34.719,30.075-103.677,32.4-144.455c0.119-0.873,0.224-1.762,0.308-2.674
		C512.031,211.394,511.993,210.703,511.881,210.035z M141.489,364.153c3.593,1.737,7.618,3.329,12.086,4.775
		c-6.126,6.392-10.904,14.011-14.575,21.305C138.638,381.163,139.254,371.824,141.489,364.153z M172.757,373.742
		c1.725,0.333,3.499,0.649,5.308,0.954c0.257,8.659,1.568,19.728,2.499,26.691c-9.865-0.737-19.157-1.64-27.893-2.712
		C157.28,389.174,163.823,379.161,172.757,373.742z M194.17,376.931c2.082,0.233,4.195,0.457,6.367,0.663
		c-1.718,3.62-3.546,7.5-5.348,11.462C194.73,384.803,194.364,380.625,194.17,376.931z M256,403.865
		c-17.698,0-34.158-0.322-49.44-0.971c3.205-7.455,6.911-15.247,9.852-21.43c0.424-0.891,0.832-1.75,1.232-2.593
		c11.709,0.663,24.488,0.993,38.356,0.993c13.767,0,26.457-0.327,38.096-0.98c0.398,0.838,0.804,1.693,1.226,2.58
		c2.943,6.185,6.65,13.982,9.856,21.44C289.97,403.546,273.598,403.865,256,403.865z M311.209,377.618
		c2.166-0.203,4.275-0.425,6.353-0.657c-0.195,3.687-0.559,7.853-1.017,12.093C314.748,385.102,312.924,381.231,311.209,377.618z
		 M331.167,401.408c0.93-6.95,2.24-18.006,2.501-26.667c2.476-0.415,4.88-0.853,7.198-1.318c9.124,5.293,15.794,15.389,20.486,25
		C351.951,399.615,341.898,400.609,331.167,401.408z M372.365,363.224c2.466,7.84,3.156,17.567,2.78,27.009
		c-3.774-7.5-8.714-15.347-15.091-21.845C364.643,366.828,368.743,365.106,372.365,363.224z M464.742,352.501
		c-8.192,17.678-29.251,30.423-64.382,38.965c-2.988,0.727-6.081,1.419-9.267,2.08c0.805-16.246-1.498-31.113-5.345-40.236
		c0.674-0.75,1.318-1.511,1.899-2.293c3.51-4.732,5.32-10.07,5.412-15.753c9.922-1.557,18.777-5.704,25.953-12.242
		c11.386-10.372,18.428-26.417,20.933-47.692c5-42.478,15.442-54.136,21.221-57.305c1.524-0.836,6.161-3.377,15.35,1.067
		c3.978,1.924,8.761,0.258,10.685-3.718c1.924-3.978,0.259-8.762-3.718-10.686c-13.734-6.641-23.9-4.042-30.009-0.692
		c-15.28,8.378-24.903,31.1-29.419,69.463c-3.263,27.721-15.053,43.529-34.231,46.123c-4.362-14.557-7.652-26.886-6.029-33.919
		c0.994-4.305-1.691-8.601-5.996-9.594c-4.304-0.996-8.601,1.69-9.594,5.996c-2.674,11.585,1.15,25.185,8.139,48.225
		c1.356,4.47,0.878,7.922-1.548,11.195c-14.98,20.198-88.068,22.379-118.796,22.379s-103.815-2.181-118.796-22.379
		c-2.427-3.272-2.904-6.725-1.548-11.195c6.989-23.041,10.813-36.64,8.139-48.225c-0.993-4.306-5.293-6.991-9.594-5.996
		c-4.305,0.993-6.99,5.289-5.996,9.594c1.623,7.033-1.667,19.362-6.029,33.919c-19.178-2.594-30.967-18.402-34.231-46.123
		c-4.517-38.363-14.14-61.085-29.419-69.463c-6.11-3.35-16.276-5.949-30.009,0.692c-3.978,1.924-5.642,6.708-3.718,10.686
		c1.923,3.977,6.707,5.642,10.685,3.718c9.189-4.443,13.826-1.903,15.35-1.067c5.779,3.168,16.221,14.827,21.221,57.305
		c2.505,21.274,9.547,37.32,20.933,47.692c7.176,6.537,16.031,10.684,25.953,12.242c0.092,5.683,1.902,11.021,5.412,15.753
		c0.995,1.342,2.142,2.631,3.412,3.878c-3.497,9.296-5.512,23.585-4.692,39.092c-3.957-0.793-7.773-1.631-11.433-2.521
		c-35.13-8.542-56.189-21.288-64.382-38.965c-11.539-24.9-21.944-68.327-27.35-104.954c3.577,2.407,6.913,3.92,9.282,4.809
		c0.926,0.347,1.875,0.511,2.808,0.511c3.239,0,6.287-1.981,7.492-5.193c1.551-4.137-0.545-8.749-4.682-10.3
		c-6.046-2.267-16.22-8.422-18.557-24.401C16.086,209.729,16,206.68,16,203.865c0-18.2,40.458-42.275,72.966-61.62
		c6.412-3.815,13.042-7.76,19.227-11.566c6.084-3.745,10.216-9.581,14.212-15.226c6.841-9.664,11.545-15.587,21.595-15.587
		c9.832,0,15.836,5.417,20.661,9.77c3.348,3.02,6.239,5.628,10.296,6.162c10.406,1.37,21.387-0.602,34.1-2.883
		c13.183-2.366,28.124-5.048,46.943-5.048s33.761,2.682,46.943,5.048c12.713,2.282,23.694,4.253,34.101,2.883
		c4.057-0.534,6.948-3.142,10.295-6.162c4.825-4.353,10.829-9.77,20.661-9.77c10.05,0,14.753,5.923,21.595,15.587
		c3.996,5.645,8.128,11.481,14.212,15.226c6.186,3.807,12.815,7.751,19.227,11.566c32.508,19.345,72.966,43.42,72.966,61.62
		c0,2.815-0.086,5.864-0.252,9.109c-2.337,15.979-12.511,22.133-18.557,24.401c-4.137,1.551-6.233,6.163-4.682,10.3
		c1.205,3.211,4.252,5.193,7.492,5.193c0.933,0,1.883-0.165,2.808-0.511c2.37-0.889,5.705-2.401,9.282-4.809
		C486.686,284.174,476.281,327.601,464.742,352.501z"/>
</g>
<g>
</g>
<g>
</g>
<g>
</g>
<g>
</g>
<g>
</g>
<g>
</g>
<g>
</g>
<g>
</g>
<g>
</g>
<g>
</g>
<g>
</g>
<g>
</g>
<g>
</g>
<g>
</g>
<g>
</g>
</svg>
