<?xml version="1.0" encoding="iso-8859-1"?>
<!-- Generator: Adobe Illustrator 17.1.0, SVG Export Plug-In . SVG Version: 6.00 Build 0)  -->
<!DOCTYPE svg PUBLIC "-//W3C//DTD SVG 1.1//EN" "http://www.w3.org/Graphics/SVG/1.1/DTD/svg11.dtd">
<svg version="1.1" id="Capa_1" xmlns="http://www.w3.org/2000/svg" xmlns:xlink="http://www.w3.org/1999/xlink" x="0px" y="0px"
	 viewBox="0 0 512 512" style="enable-background:new 0 0 512 512;" xml:space="preserve">
<g>
	<path d="M167.051,242.643c4.486-12.818,2.971-30.079-4.505-51.301c-5.333-15.139-11.79-26.757-12.062-27.244
		c-1.839-3.293-5.728-4.847-9.335-3.737c-3.606,1.109-5.946,4.594-5.616,8.352c0.032,0.364,2.964,36.493-17.162,39.368
		c-3.964,0.566-6.894,3.904-6.965,7.938c-0.096,5.41,8.438,16.465,12.11,20.967c8.958,10.979,17.221,17.213,24.556,18.526
		c1.044,0.187,2.065,0.279,3.062,0.279C158.281,255.79,164.107,251.055,167.051,242.643z M151.95,237.357
		c-0.482,1.377-0.92,2.076-1.164,2.394c-1.465-0.293-5.92-2.535-12.875-10.512c-2.651-3.04-4.972-6.11-6.788-8.715
		c7.744-4.16,13.56-11.668,16.984-22.023C152.624,211.921,155.592,226.949,151.95,237.357z"/>
	<path d="M428.4,161.015l-7.798,13.971l-0.093-0.053c0.367,0.219,9.05,5.521,14.477,20.593c5.217,14.491,8.176,40.906-7.354,84.454
		c-17.014,47.71-47.36,109.729-95.307,134.251c-15.866,8.115-29.357,9.947-38.22,9.972c0.783-3.38,1.579-6.84,2.396-10.423
		c4.41-19.343,9.363-41.063,12.575-47.956c0.328-0.278,0.644-0.575,0.932-0.914c2.998-3.521,16.351-13.187,32.84-13.187
		c4.418,0,8-3.582,8-8s-3.582-8-8-8c-11.326,0-21.663,3.317-29.774,7.514c-0.1-2.684-0.29-5.702-0.593-9.123
		c-1.14-12.874-3.646-28.969-7.25-46.544c-1.963-9.575-4.391-20.145-7.167-30.826c0.002-0.082,0.012-0.161,0.012-0.243
		c0-36.009,12.871-150.115,52.279-179.582c9.201-6.88,19.195-8.597,30.551-5.248c0.58,0.172,1.164,0.268,1.744,0.306
		c16.289,19.765,24.519,43.841,24.519,72.02c0,33.36-10.724,41.1-10.832,41.174c0.211-0.145,0.334-0.197,0.334-0.197l7.662,14.047
		c3.145-1.716,18.835-12.432,18.835-55.023c0-119.561-132.513-144-168-144c-13.448,0-57.356,4.616-98.482,25.695
		C106.191,51.575,79.501,92.484,79.501,144c0,6.983,0.677,13.12,1.82,18.516c-9.379,6.827-42.288,37.967-12.022,122.839
		c14.447,40.51,31.702,73.755,51.287,98.813c15.979,20.444,33.581,35.579,52.315,44.983c17.731,8.901,33.175,11,43.8,11
		c1.153,0,2.248-0.025,3.284-0.069c1.671,6.904,3.282,13.295,4.856,19.179c0.066,0.295,0.124,0.6,0.192,0.893
		c0.084,0.362,0.198,0.709,0.328,1.047C234.678,495.545,242.823,512,255.167,512c12.344,0,20.489-16.456,29.807-50.8
		c0.129-0.338,0.243-0.684,0.327-1.046c0.068-0.293,0.126-0.597,0.192-0.893c1.574-5.886,3.186-12.279,4.858-19.186
		c1.104,0.048,2.27,0.077,3.507,0.077c10.769-0.001,26.425-2.096,44.37-10.982c18.982-9.399,36.782-24.532,52.905-44.976
		c19.768-25.065,37.118-58.32,51.568-98.841C476.916,189.416,430.397,162.129,428.4,161.015z M163.983,39.934
		C202.1,20.396,243.626,16,255.167,16c11.958,0,50.934,4.285,87.201,23.854c8.149,4.397,15.532,9.221,22.154,14.462
		c-8.392,0.984-16.334,4.246-23.75,9.791c-35.085,26.234-50.178,100.45-55.805,150.333c-2.813-7.461-5.748-14.221-8.747-19.824
		C271.944,186.625,265.109,176,255.167,176c-9.941,0-16.777,10.625-21.054,18.616c-2.999,5.603-5.934,12.363-8.747,19.824
		c-5.627-49.883-20.72-124.099-55.805-150.333c-8.782-6.566-18.302-9.922-28.433-10.089
		C147.983,48.93,155.599,44.231,163.983,39.934z M84.369,279.979c-15.53-43.548-12.57-69.963-7.353-84.454
		c2.996-8.32,6.982-13.659,10.015-16.813c8.465,16.142,21.142,20.611,21.94,20.877c0.839,0.279,1.692,0.412,2.531,0.412
		c3.35,0,6.471-2.12,7.588-5.472c1.397-4.192-0.868-8.723-5.06-10.12c-0.185-0.062-18.53-7.107-18.53-40.41
		c0-28.791,9.127-53.323,27.207-73.362c1.907,1.278,4.347,1.731,6.722,1.035c11.357-3.35,21.351-1.633,30.551,5.248
		c39.408,29.467,52.279,143.573,52.279,179.582c0,0.082,0.01,0.161,0.012,0.243c-2.776,10.681-5.204,21.25-7.167,30.826
		c-3.604,17.575-6.111,33.67-7.25,46.544c-0.305,3.451-0.496,6.493-0.595,9.195c-8.24-4.098-18.677-7.311-30.091-7.311
		c-4.418,0-8,3.582-8,8s3.582,8,8,8c16.456,0,29.881,9.039,33.601,12.862c3.182,5.571,8.425,28.563,13.065,48.918
		c0.814,3.569,1.606,7.016,2.387,10.384C191.436,423.944,130.422,409.118,84.369,279.979z M223.822,386.118
		c-3.798-15.64-6.742-25.528-9.874-30.367c-4.206-10.187,7.691-88.61,27.759-139.225c1.771-4.466,3.398-8.129,4.87-11.135
		c-1.797,34.956-7.488,72.538-13.036,109.097C229.76,339.399,226.073,363.701,223.822,386.118z M269.721,456.514
		c-0.978,3.615-1.966,7.117-2.964,10.447c-5.65,18.855-9.67,25.675-11.59,28.077c-1.92-2.402-5.94-9.222-11.59-28.077
		c-0.998-3.329-1.986-6.832-2.964-10.447c-7.535-32.337,0.374-84.451,8.747-139.625c1.978-13.032,3.97-26.192,5.808-39.337
		c1.838,13.145,3.83,26.306,5.808,39.337C269.348,372.063,277.256,424.177,269.721,456.514z M286.513,386.118
		c-2.251-22.417-5.939-46.719-9.719-71.629c-5.548-36.56-11.24-74.142-13.036-109.097c1.472,3.006,3.1,6.669,4.87,11.135
		c20.068,50.614,31.965,129.038,27.759,139.225C293.255,360.59,290.31,370.479,286.513,386.118z"/>
	<path d="M370.866,160.357c-3.609-1.117-7.506,0.443-9.349,3.74c-0.272,0.487-6.729,12.105-12.062,27.244
		c-7.476,21.223-8.992,38.482-4.505,51.301c2.944,8.413,8.77,13.147,15.917,13.147c0.996,0,2.019-0.093,3.062-0.279
		c7.336-1.313,15.598-7.547,24.556-18.526c3.673-4.502,12.207-15.557,12.111-20.967c-0.071-4.033-3-7.371-6.964-7.938
		c-20.074-2.867-17.21-38.814-17.164-39.365C376.806,164.957,374.471,161.474,370.866,160.357z M380.878,220.523
		c-1.815,2.605-4.137,5.676-6.788,8.716c-6.956,7.977-11.411,10.219-12.876,10.512c-0.243-0.317-0.681-1.017-1.163-2.394
		c-3.632-10.377-0.663-25.403,3.851-38.83C367.328,208.869,373.14,216.368,380.878,220.523z"/>
</g>
<g>
</g>
<g>
</g>
<g>
</g>
<g>
</g>
<g>
</g>
<g>
</g>
<g>
</g>
<g>
</g>
<g>
</g>
<g>
</g>
<g>
</g>
<g>
</g>
<g>
</g>
<g>
</g>
<g>
</g>
</svg>
