<?xml version="1.0" encoding="iso-8859-1"?>
<!-- Generator: Adobe Illustrator 17.1.0, SVG Export Plug-In . SVG Version: 6.00 Build 0)  -->
<!DOCTYPE svg PUBLIC "-//W3C//DTD SVG 1.1//EN" "http://www.w3.org/Graphics/SVG/1.1/DTD/svg11.dtd">
<svg version="1.1" id="Capa_1" xmlns="http://www.w3.org/2000/svg" xmlns:xlink="http://www.w3.org/1999/xlink" x="0px" y="0px"
	 viewBox="0 0 512 512" style="enable-background:new 0 0 512 512;" xml:space="preserve">
<g>
	<path d="M96,152c-13.921,0-16,25.062-16,40s2.079,40,16,40s16-25.062,16-40S109.921,152,96,152z"/>
	<path d="M416,152c-13.921,0-16,25.062-16,40s2.079,40,16,40s16-25.062,16-40S429.921,152,416,152z"/>
	<path d="M318.401,260.714c-15.744-7.006-39.834-7.818-62.401,9.315c-22.567-17.133-46.657-16.319-62.401-9.315
		C177.809,267.738,168,281.411,168,296.396c0,25.167,13.298,45.486,27.377,66.999c10.922,16.689,22.217,33.947,28.994,55.41
		c6.052,19.164,13.646,31.189,22.569,35.742c3.056,1.56,5.75,1.993,7.802,1.993c0.452,0,0.871-0.022,1.258-0.056
		c0.386,0.035,0.806,0.056,1.258,0.056c2.051,0,4.746-0.434,7.802-1.993c8.924-4.553,16.517-16.578,22.569-35.742
		c6.778-21.463,18.072-38.721,28.995-55.41C330.702,341.883,344,321.563,344,296.396C344,281.411,334.191,267.738,318.401,260.714z
		 M272.371,413.987c-7.197,22.79-13.959,26.112-15.079,26.513c-0.065-0.011-0.129-0.014-0.194-0.023
		c-0.135-0.019-0.27-0.036-0.406-0.048c-0.105-0.009-0.21-0.014-0.315-0.019c-0.128-0.006-0.257-0.011-0.386-0.011
		c-0.112,0-0.224,0.005-0.336,0.01c-0.122,0.005-0.243,0.011-0.365,0.022c-0.12,0.011-0.24,0.026-0.359,0.043
		c-0.075,0.01-0.149,0.014-0.224,0.027c-1.12-0.4-7.882-3.723-15.08-26.513c-7.441-23.563-19.885-42.577-30.864-59.354
		c-3.815-5.83-7.479-11.431-10.768-16.938c0.448,0.182,0.895,0.363,1.339,0.542c7.22,2.913,14.04,5.666,19.175,11.464
		c1.581,1.784,3.781,2.695,5.992,2.695c1.886,0,3.779-0.663,5.301-2.012c3.308-2.929,3.614-7.985,0.685-11.293
		c-7.632-8.617-16.947-12.376-25.165-15.692c-11.553-4.663-17.75-7.613-20.595-18.117c-0.471-2.912-0.729-5.867-0.729-8.886
		c0-8.574,6.17-16.646,16.103-21.064c18.916-8.416,38.502,0.162,50.53,10.997c0.207,0.188,0.422,0.362,0.643,0.524
		c0.035,0.026,0.072,0.046,0.107,0.071c0.182,0.129,0.366,0.254,0.556,0.366c0.096,0.056,0.195,0.102,0.292,0.154
		c0.132,0.071,0.263,0.146,0.398,0.208c0.143,0.066,0.29,0.12,0.435,0.178c0.094,0.037,0.186,0.08,0.282,0.113
		c0.167,0.059,0.336,0.104,0.506,0.151c0.078,0.022,0.155,0.049,0.233,0.068c0.17,0.042,0.342,0.071,0.514,0.102
		c0.081,0.014,0.161,0.034,0.243,0.046c0.162,0.023,0.324,0.035,0.486,0.049c0.094,0.008,0.188,0.021,0.282,0.026
		c0.147,0.007,0.293,0.003,0.44,0.002c0.111-0.001,0.221,0.004,0.332-0.001c0.13-0.006,0.259-0.023,0.388-0.036
		c0.127-0.012,0.254-0.02,0.381-0.038c0.116-0.017,0.23-0.044,0.346-0.066c0.138-0.026,0.276-0.048,0.412-0.081
		c0.114-0.028,0.226-0.066,0.339-0.099c0.134-0.039,0.269-0.074,0.401-0.12c0.131-0.046,0.259-0.103,0.388-0.156
		c0.11-0.045,0.222-0.085,0.33-0.135c0.169-0.078,0.333-0.169,0.497-0.26c0.065-0.036,0.131-0.066,0.195-0.103
		c0.22-0.13,0.435-0.271,0.644-0.424c0.007-0.005,0.013-0.008,0.02-0.013c0.223-0.163,0.439-0.339,0.647-0.528
		c12.028-10.835,31.613-19.41,50.528-10.995c9.933,4.419,16.103,12.49,16.103,21.064c0,3.019-0.257,5.974-0.729,8.886
		c-2.846,10.504-9.043,13.454-20.595,18.117c-8.218,3.316-17.532,7.075-25.165,15.692c-2.929,3.308-2.623,8.364,0.685,11.293
		c1.522,1.35,3.416,2.012,5.301,2.012c2.21,0,4.411-0.911,5.992-2.695c5.135-5.798,11.955-8.551,19.175-11.464
		c0.444-0.179,0.891-0.36,1.339-0.542c-3.288,5.507-6.952,11.108-10.768,16.938C292.256,371.41,279.813,390.424,272.371,413.987z"/>
	<path d="M486.457,297.019c-0.017-0.155-0.048-0.304-0.074-0.456c0-0.001,0-0.002,0-0.002c0-0.003-0.001-0.005-0.001-0.007
		c-0.023-0.136-0.043-0.273-0.072-0.406c-2.629-15.28-6.542-28.043-11.986-38.709c-10.426-25.69-10.359-61.655-10.327-78.948
		L464,176c0-47.278-21.817-91.643-61.433-124.92C363.353,18.141,311.301,0,256,0S148.647,18.141,109.433,51.08
		C69.817,84.357,48,128.722,48,176l0.003,2.491c0.032,17.293,0.099,53.258-10.327,78.948c-5.443,10.667-9.356,23.43-11.986,38.709
		c-0.03,0.133-0.049,0.27-0.073,0.406c0,0.002-0.001,0.004-0.001,0.006c0,0,0,0.001,0,0.002c-0.026,0.152-0.057,0.301-0.074,0.456
		C24.505,306.388,24,315.213,24,324c0,57.91,23.793,106.373,68.807,140.149C133.93,495.006,191.886,512,256,512
		c64.012,0,121.971-17.085,163.202-48.107C464.21,430.027,488,381.653,488,324C488,315.213,487.495,306.388,486.457,297.019z
		 M409.582,451.107C371.107,480.057,316.563,496,256,496c-60.673,0-115.219-15.856-153.59-44.648C61.581,420.715,40,376.678,40,324
		c0-8.084,0.465-16.227,1.412-24.874c6.66-39.016,21.25-52.344,34.647-60.233c3.807-2.241,5.077-7.146,2.834-10.952
		c-2.242-3.808-7.146-5.078-10.953-2.835c-2.374,1.398-4.636,2.889-6.802,4.468c2.918-20.013,2.885-39.523,2.864-51.113L64,176
		c0-88.225,86.131-160,192-160s192,71.775,192,160l-0.003,2.462c-0.022,11.59-0.054,31.1,2.864,51.113
		c-2.165-1.579-4.427-3.07-6.802-4.468c-3.807-2.244-8.711-0.975-10.953,2.835c-2.242,3.807-0.973,8.711,2.834,10.952
		c13.398,7.888,27.987,21.217,34.647,60.233C471.535,307.773,472,315.916,472,324C472,376.43,450.416,420.383,409.582,451.107z"/>
</g>
<g>
</g>
<g>
</g>
<g>
</g>
<g>
</g>
<g>
</g>
<g>
</g>
<g>
</g>
<g>
</g>
<g>
</g>
<g>
</g>
<g>
</g>
<g>
</g>
<g>
</g>
<g>
</g>
<g>
</g>
</svg>
