<?xml version="1.0" encoding="iso-8859-1"?>
<!-- Generator: Adobe Illustrator 17.1.0, SVG Export Plug-In . SVG Version: 6.00 Build 0)  -->
<!DOCTYPE svg PUBLIC "-//W3C//DTD SVG 1.1//EN" "http://www.w3.org/Graphics/SVG/1.1/DTD/svg11.dtd">
<svg version="1.1" id="Capa_1" xmlns="http://www.w3.org/2000/svg" xmlns:xlink="http://www.w3.org/1999/xlink" x="0px" y="0px"
	 viewBox="0 0 512 512" style="enable-background:new 0 0 512 512;" xml:space="preserve">
<g>
	<path d="M328,223.895c-8.822,0-16,7.178-16,16s7.178,16,16,16s16-7.178,16-16S336.822,223.895,328,223.895z"/>
	<path d="M184,223.895c-8.822,0-16,7.178-16,16s7.178,16,16,16s16-7.178,16-16S192.822,223.895,184,223.895z"/>
	<path d="M464.084,181.123c-28.992-13.292-61.921-21.228-88.084-21.228c-0.077,0-0.152,0.009-0.229,0.012
		c-5.637-13.544-13.929-26.972-23.911-38.464c0.02-0.112,0.047-0.221,0.063-0.335c3.229-23.091,8.674-50.423,12.168-57.746
		c6.598-0.688,23.547,1.603,63.259,24.396c25.548,14.664,47.761,30.58,47.982,30.739c3.36,2.414,8.005,1.868,10.714-1.258
		c2.708-3.126,2.588-7.802-0.279-10.784c-0.252-0.262-25.51-26.488-53.875-52.365C378.747,5.607,360.844,0,352,0
		c-15.32,0-30.393,11.788-44.8,35.036c-10.905,17.597-19.596,38.607-25.327,54.359c-4.939,0.889-9.777,2.467-14.455,4.76
		c-7.148,3.503-15.685,3.504-22.833,0c-4.679-2.293-9.517-3.872-14.456-4.761c-5.732-15.752-14.422-36.761-25.327-54.358
		C190.393,11.788,175.32,0,160,0c-8.844,0-26.747,5.607-79.892,54.09c-28.365,25.877-53.623,52.104-53.875,52.365
		c-2.867,2.982-2.988,7.657-0.279,10.784c2.708,3.126,7.354,3.671,10.714,1.258c0.221-0.159,22.434-16.075,47.982-30.739
		c39.715-22.796,56.664-25.087,63.259-24.396c3.494,7.323,8.938,34.655,12.168,57.746c0.016,0.114,0.042,0.223,0.063,0.335
		c-9.981,11.491-18.274,24.919-23.911,38.463c-0.077-0.002-0.152-0.012-0.229-0.012c-26.163,0-59.092,7.936-88.084,21.228
		C6.225,200.236,0,216.125,0,223.895c0,15.925,20.217,34.124,43.264,38.945c3.832,0.801,7.543,1.196,11.121,1.196
		c17.876-0.001,32.311-9.872,40.589-28.152c6.774-9.878,15.654-13.809,27.138-11.983c5.735,0.911,10.791,3.076,13.968,4.692
		c2.146,72.656,52.177,210.612,56.229,221.671c4.479,19.866,11.458,34.518,21.327,44.783C224.453,506.295,238.706,512,256,512
		c27.391,0,43.829-15.544,53.698-34.388c1.248-1.265,1.995-2.867,2.221-4.537c3.428-7.468,5.932-15.281,7.746-22.738
		c3.919-10.6,54.142-147.824,56.257-221.747c3.177-1.615,8.231-3.78,13.965-4.691c11.482-1.826,20.364,2.105,27.138,11.983
		c8.279,18.282,22.712,28.152,40.589,28.152c3.576,0,7.291-0.395,11.121-1.196C491.783,258.019,512,239.82,512,223.895
		C512,216.125,505.775,200.236,464.084,181.123z M352,16c3.376,0,18.333,3.596,69.053,49.86c0.144,0.131,0.288,0.263,0.431,0.394
		c-29.679-15.642-50.556-21.527-63.589-17.972c-6.352,1.732-10.441,8-16.496,38.931c-1.445,7.382-2.683,14.648-3.601,20.358
		c-2.214-1.849-4.47-3.605-6.773-5.228c-10.494-7.393-21.315-11.839-31.961-13.283C316.306,43.73,336.256,16,352,16z
		 M154.105,48.282c-13.034-3.553-33.911,2.331-63.589,17.972c0.125-0.114,0.251-0.229,0.376-0.343C141.656,19.599,156.622,16,160,16
		c15.744,0,35.694,27.73,52.936,73.06c-10.646,1.445-21.467,5.891-31.961,13.284c-2.304,1.623-4.56,3.379-6.774,5.228
		c-0.918-5.71-2.155-12.976-3.601-20.359C165.776,62.568,162.077,50.456,154.105,48.282z M46.54,247.178
		C29.977,243.713,16,230.412,16,223.895c0-3.675,11.318-15.727,38.584-28.228c25.099-11.507,53.147-18.685,76.233-19.643
		c-0.013,0.053-0.029,0.106-0.042,0.159c-10.468,1.629-31.698,10.437-50.104,52.506C72.18,248.094,57.426,249.454,46.54,247.178z
		 M111.167,207.851c6.655-8.261,12.682-12.263,17.04-14.195c-0.095,2.938-0.006,5.798,0.304,8.546
		c0.277,2.454,0.737,4.788,1.352,7.006C124.27,207.766,117.835,206.975,111.167,207.851z M229.228,487.693
		c0.231,0.003,0.46,0.014,0.692,0.014c3.844,0,7.819-0.469,11.889-1.414c5.896-1.369,10.877-3.501,14.191-5.158
		c3.314,1.657,8.295,3.79,14.191,5.158c3.947,0.916,7.801,1.376,11.536,1.403C274.56,493.25,266.007,496,256,496
		C245.274,496,236.442,493.314,229.228,487.693z M263.935,439.026C263.453,435.068,260.088,432,256,432
		c-4.092,0-7.461,3.074-7.937,7.038c-10.741-2.672-19.549-11.142-22.745-22.073c-0.861-2.943-1.304-5.912-1.317-8.825
		c-0.001-0.335-0.006-1.356,1.044-1.887c0.229-0.116,0.572-0.239,0.996-0.239c0.455,0,1.001,0.142,1.599,0.586
		C235.902,412.75,245.708,416,256,416s20.098-3.25,28.361-9.399c1.038-0.773,2.189-0.665,2.86-0.334
		c0.701,0.344,0.767,0.78,0.774,1.193L288,408c0,9.495-4.18,18.441-11.468,24.546C272.778,435.69,268.502,437.866,263.935,439.026z
		 M304.5,445.215c-0.111,0.3-0.205,0.607-0.28,0.918c-1.913,7.969-4.266,14.954-7.062,20.991
		c-12.245,8.398-26.552,3.343-33.159,0.147v-11.963c8.335-1.405,16.209-4.971,22.805-10.496C297.733,435.66,304,422.242,304,408
		c0-0.273-0.002-0.545-0.007-0.821c-0.118-6.633-3.751-12.342-9.717-15.273c-6.306-3.097-13.765-2.385-19.467,1.859
		C269.328,397.844,262.824,400,256,400s-13.328-2.156-18.808-6.235c-5.714-4.251-13.133-4.939-19.362-1.792
		c-6.096,3.08-9.862,9.303-9.83,16.242c0.021,4.408,0.68,8.862,1.96,13.241c5.082,17.381,19.713,30.634,37.275,33.764
		c0.255,0.045,0.509,0.078,0.764,0.119v11.922c-6.728,3.228-21.546,8.425-33.898-0.656c-2.488-5.848-4.575-12.608-6.293-20.339
		c-0.078-0.349-0.179-0.693-0.302-1.029c-0.535-1.452-51.547-140.772-55.283-213.354c3.025-0.128,5.847-1.968,7.07-4.954
		c1.676-4.088-0.28-8.761-4.369-10.436c-6.138-2.516-9.578-7.777-10.515-16.085c-2.603-23.058,16.423-64.301,45.78-84.983
		c20.832-14.676,37.249-11.854,47.351-6.902c11.558,5.665,25.358,5.664,36.917,0c10.102-4.951,26.519-7.773,47.351,6.902
		c29.357,20.682,48.382,61.925,45.78,84.983c-0.938,8.309-4.377,13.57-10.515,16.085c-4.088,1.675-6.044,6.348-4.369,10.436
		c1.224,2.987,4.05,4.818,7.077,4.944C356.106,305.478,305.036,443.774,304.5,445.215z M382.137,209.208
		c0.615-2.218,1.075-4.552,1.352-7.007c0.31-2.747,0.398-5.607,0.304-8.544c4.358,1.933,10.383,5.935,17.038,14.193
		C394.164,206.976,387.73,207.767,382.137,209.208z M465.46,247.178c-10.887,2.276-25.641,0.916-34.131-18.49
		c-18.405-42.068-39.635-50.876-50.103-52.506c-0.013-0.053-0.029-0.106-0.042-0.159c23.086,0.959,51.135,8.136,76.233,19.643
		C484.682,208.167,496,220.22,496,223.895C496,230.412,482.023,243.713,465.46,247.178z"/>
</g>
<g>
</g>
<g>
</g>
<g>
</g>
<g>
</g>
<g>
</g>
<g>
</g>
<g>
</g>
<g>
</g>
<g>
</g>
<g>
</g>
<g>
</g>
<g>
</g>
<g>
</g>
<g>
</g>
<g>
</g>
</svg>
