<?xml version="1.0" encoding="iso-8859-1"?>
<!-- Generator: Adobe Illustrator 17.1.0, SVG Export Plug-In . SVG Version: 6.00 Build 0)  -->
<!DOCTYPE svg PUBLIC "-//W3C//DTD SVG 1.1//EN" "http://www.w3.org/Graphics/SVG/1.1/DTD/svg11.dtd">
<svg version="1.1" id="Capa_1" xmlns="http://www.w3.org/2000/svg" xmlns:xlink="http://www.w3.org/1999/xlink" x="0px" y="0px"
	 viewBox="0 0 511.996 511.996" style="enable-background:new 0 0 511.996 511.996;" xml:space="preserve">
<g>
	<path d="M511.468,210.397c0.13-0.339,0.24-0.682,0.321-1.03c0.003-0.014,0.008-0.028,0.011-0.042
		c0.082-0.36,0.132-0.724,0.163-1.088c0.006-0.074,0.011-0.146,0.016-0.22c0.021-0.361,0.024-0.721-0.004-1.08
		c-0.002-0.03-0.008-0.059-0.011-0.089c-0.03-0.334-0.084-0.666-0.155-0.994c-0.016-0.075-0.031-0.149-0.049-0.224
		c-0.085-0.345-0.191-0.684-0.322-1.015c-0.022-0.055-0.047-0.108-0.07-0.163c-0.134-0.319-0.287-0.629-0.462-0.931
		c-0.018-0.031-0.033-0.063-0.052-0.094c-0.194-0.324-0.417-0.632-0.659-0.929c-0.018-0.022-0.031-0.048-0.049-0.07
		c-0.65-0.78-16.223-19.318-42.696-38.005c-35.269-24.895-73.24-38.054-109.811-38.054c-7.547,0-14.167,0.389-20.089,1.091
		c-8.161-7.132-35.647-25.484-61.222-25.484c-4.076,0-7.501,3.065-7.951,7.116c-0.117,1.051-2.382,23.541,13.146,41.733
		c-13.743,8.461-30.929,17.466-63.789,24.508c-26.485,5.675-51.323,9.896-75.344,13.979C80.239,199.876,31.149,208.22,2.619,234.155
		c-2.446,2.224-3.272,5.722-2.081,8.805s4.157,5.115,7.462,5.115h25.153c-9.136,6.626-17.299,13.359-23.75,19.938
		c-2.609,2.661-3.036,6.771-1.028,9.911c2.008,3.139,5.918,4.474,9.427,3.226c0.472-0.168,47.517-16.813,79.641-16.813
		c21.063,0,47.272,5.4,58.14,20.499c-0.423,0.726-0.743,1.527-0.923,2.394c-6.671,32.021-24.796,57.698-39.362,78.333
		c-2.457,3.484-1.725,8.351,1.631,10.978c2.258,1.768,6.742,2.293,11.276,2.293c6.588,0,13.281-1.109,13.394-1.129
		c6.67-1.158,15.12-3.567,23.112-8.479c-2.221,10.595-5.547,20.605-9.985,29.086c-1.739,3.321-0.937,7.405,1.928,9.823
		c1.487,1.254,3.322,1.886,5.16,1.886c1.705,0,3.413-0.543,4.848-1.637c2.453-1.868,60.07-46.42,60.07-103.259
		c0-49.516,8.028-74.355,13.58-79.669c9.986,9.625,38.985,36.634,62.791,49.574c-2.471,2.434-5.261,5.188-8.058,7.957
		c-4.749,4.702-8.531,8.474-11.242,11.209c-6.462,6.521-8.199,8.274-7.134,12.768c0.646,2.729,2.68,4.927,5.352,5.781
		c20.858,6.675,27.041,26.351,27.282,27.146c0.828,2.838,3.154,4.988,6.048,5.592c0.543,0.113,1.09,0.168,1.633,0.168
		c2.346,0,4.608-1.034,6.146-2.879l40.656-48.787c1.396-1.675,1.988-3.752,1.824-5.767c0.507-0.069,1.008-0.144,1.496-0.226
		c15.897-0.159,32.255-2.288,47.919-6.452c29.422-7.821,69.935-26.297,95.853-69.9c0.01-0.018,0.016-0.037,0.027-0.054
		c0.19-0.325,0.352-0.659,0.492-0.999C511.422,210.523,511.444,210.46,511.468,210.397z M316.502,132.032
		c-8.125,2.729-14.752,6.258-21.197,10.163c-7.502-7.728-10.025-17.018-10.803-23.474
		C296.429,120.8,308.235,126.858,316.502,132.032z M85.08,216.195c-9.22,4.921-18.669,10.279-27.826,15.894
		c-0.154-0.009-0.31-0.014-0.466-0.014H34.751C48.617,225.435,65.588,220.495,85.08,216.195z M164.578,348.672
		c-7.645,8.82-18.756,12.341-27.489,13.599c10.112-14.883,21.001-32.781,28.147-53.488c2.469,11.373,3.302,24.47,2.509,37.667
		C166.561,346.904,165.467,347.646,164.578,348.672z M242.449,208.358c-18.943,0-24.667,27.289-26.548,36.257
		c-4.496,21.436-5.167,47.111-5.167,60.509c0,26.783-15.997,51.284-30.539,68.024c7.218-33.455,5.055-73.555-11.12-96.966
		c-12.047-17.436-38.825-27.846-71.631-27.846c-14.506,0-31.304,2.945-46.125,6.438c38.275-25.832,88.705-48.263,99.521-50.361
		c0.686-0.133,1.334-0.35,1.936-0.638c21.793-3.716,44.329-7.658,68.311-12.798c40.916-8.768,60.032-20.9,75.392-30.65
		c16.424-10.426,28.292-17.958,61.162-17.958c66.661,0,118.669,47.729,134.911,64.535c-8.599,4.903-25.083,8.986-38.895,12.405
		c-15.551,3.85-31.632,7.831-42.806,13.676c-16.256,8.503-23.572,18.377-29.45,26.311c-5.014,6.768-8.142,10.983-15.347,12.634
		c-16.796,0.077-32.959-2.21-46.447-6.889c-25.791-8.948-71.053-53.895-71.507-54.348
		C246.599,209.199,244.567,208.358,242.449,208.358z M318.829,322.937c-4.083-6.654-10.643-14.641-20.691-20.464
		c5.51-5.511,13.332-13.244,21.006-20.784c9.148,2.757,19.073,4.609,29.423,5.563L318.829,322.937z M410.915,266.075
		c-5.662,1.505-11.465,2.714-17.322,3.641c0.221-0.298,0.442-0.596,0.663-0.894c5.412-7.305,11.007-14.857,24.01-21.658
		c9.47-4.954,24.601-8.699,39.234-12.322c6.571-1.626,12.893-3.193,18.785-4.846C455.276,250.554,430.411,260.892,410.915,266.075z"
		/>
	<path d="M358.763,227.749c1.424,2.494,4.136,4.063,7.008,4.063c16.717,0,33.786-1.173,45.386-9.68
		c3.563-2.612,4.333-7.619,1.721-11.182s-7.619-4.334-11.182-1.721c-5.573,4.086-14.701,5.636-22.915,6.223
		c1.721-4.494,3.121-9.962,3.121-16.034c0-5.957-1.347-11.332-3.023-15.777c7.584,0.826,15.603,2.688,24.108,6.737
		c3.989,1.901,8.763,0.205,10.663-3.783c1.899-3.989,0.205-8.763-3.784-10.662c-16.442-7.829-30.91-8.908-44.095-8.908
		c-2.872,0-5.584,1.569-7.008,4.063c-2.385,4.179-0.243,7.807,1.037,9.974c1.98,3.354,6.102,10.332,6.102,18.356
		s-4.122,15.003-6.102,18.356C358.52,219.942,356.378,223.57,358.763,227.749z"/>
	<path d="M447.146,207.419c4.418,0,8.063-3.646,8.063-8.063s-3.645-8.063-8.063-8.063s-8.063,3.646-8.063,8.063
		S442.728,207.419,447.146,207.419z"/>
</g>
<g>
</g>
<g>
</g>
<g>
</g>
<g>
</g>
<g>
</g>
<g>
</g>
<g>
</g>
<g>
</g>
<g>
</g>
<g>
</g>
<g>
</g>
<g>
</g>
<g>
</g>
<g>
</g>
<g>
</g>
</svg>
