<?xml version="1.0" encoding="iso-8859-1"?>
<!-- Generator: Adobe Illustrator 17.1.0, SVG Export Plug-In . SVG Version: 6.00 Build 0)  -->
<!DOCTYPE svg PUBLIC "-//W3C//DTD SVG 1.1//EN" "http://www.w3.org/Graphics/SVG/1.1/DTD/svg11.dtd">
<svg version="1.1" id="Capa_1" xmlns="http://www.w3.org/2000/svg" xmlns:xlink="http://www.w3.org/1999/xlink" x="0px" y="0px"
	 viewBox="0 0 512 512" style="enable-background:new 0 0 512 512;" xml:space="preserve">
<g>
	<path d="M192.007,192c-8.822,0-16,7.178-16,16s7.178,16,16,16s16-7.178,16-16S200.829,192,192.007,192z"/>
	<path d="M336.007,192c-8.822,0-16,7.178-16,16s7.178,16,16,16s16-7.178,16-16S344.829,192,336.007,192z"/>
	<path d="M380.302,173.972c-0.2-1.08-0.61-2.068-1.178-2.931c2.521-16.635,0.478-30.685-3.195-41.879
		c6.349-31.227,3.873-91.836-17.346-125.434c-1.804-2.856-5.207-4.27-8.506-3.536c-3.208,0.715-5.641,3.315-6.158,6.542
		c-1.356,4.95-15.347,29.974-34.558,61.871c-22.103-5.313-42.13-4.747-45.355-4.613c-3.23-0.134-23.348-0.7-45.516,4.656
		c-19.226-31.921-33.227-56.961-34.584-61.914c-0.517-3.227-2.95-5.827-6.158-6.542c-3.296-0.735-6.701,0.679-8.505,3.536
		c-21.425,33.922-17.67,85.994-16.009,101.146c0.014,0.129,0.041,0.253,0.061,0.38c-8.455,7.384-16.682,16.05-23.817,26.123
		c-2.554,3.605-1.701,8.598,1.904,11.152c1.404,0.995,3.018,1.472,4.617,1.472c2.507,0,4.976-1.175,6.535-3.376
		c1.761-2.486,3.604-4.869,5.5-7.169c-2.289,5.651-3.516,11.501-3.915,17.258c-0.068,0.42-0.113,0.848-0.113,1.287
		c0,0.119,0.013,0.235,0.018,0.353c-0.375,8.785,1.126,17.271,3.611,24.399c-8.721,50.861,0.619,110.483,25.201,160.131
		c2.699,5.451,5.574,10.725,8.354,15.824c13.184,24.186,26.816,49.196,26.816,103.292c0,32.051,29.565,56,56,56h0.406
		c26.435,0,56-23.949,56-56c0-54.097,13.632-79.106,26.816-103.292c2.78-5.1,5.654-10.374,8.354-15.824
		C380.613,286.33,389.854,225.428,380.302,173.972z M175.863,26.82c5.022,9.48,13.345,24.175,27.174,47.183
		c-8.515,3.719-21.273,10.068-34.758,19.532C166.086,62.09,170.955,40.225,175.863,26.82z M341.244,329.784
		c-2.559,5.169-5.233,10.074-8.063,15.267c-14.143,25.946-28.768,52.775-28.768,110.95c0,24.417-23.691,40-40,40h-0.406
		c-16.309,0-40-15.583-40-40c0-58.174-14.625-85.004-28.768-110.95c-2.83-5.193-5.504-10.098-8.063-15.267
		c-21.162-42.741-30.34-93.225-25.496-137.981c0.995-0.213,1.968-0.599,2.858-1.211c3.641-2.503,4.563-7.484,2.06-11.125
		c-0.91-1.324-1.824-3.014-2.669-4.98c-0.155-1.306-0.631-2.537-1.359-3.594c-1.091-3.307-1.942-7.115-2.334-11.165
		c38.634-2.506,73.778-22.7,102.067-58.794c2.726-3.478,2.116-8.506-1.361-11.231c-3.478-2.727-8.506-2.117-11.231,1.361
		c-25.177,32.122-54.825,49.754-88.238,52.535c1.042-3.81,2.683-7.551,5.104-11.034c2.521-3.628,1.624-8.614-2.004-11.135
		c-1.178-0.819-2.5-1.271-3.834-1.392c23.303-21.557,49.741-32.064,56.455-34.505c23.163-6.625,46.173-5.556,46.396-5.544
		c0.278,0.015,0.557,0.015,0.835,0c0.193-0.012,16.379-0.791,35.347,2.905c-10.961,13.042-26.802,25.436-38.441,29.566
		c-4.164,1.478-6.342,6.051-4.864,10.215c1.164,3.279,4.248,5.327,7.54,5.327c0.888,0,1.791-0.149,2.675-0.462
		c17.122-6.076,39.456-24.586,51.951-43.057c0.406-0.6,0.711-1.238,0.935-1.893c0.137-0.187,0.268-0.381,0.39-0.582
		c16.887-27.874,26.56-44.893,32.124-55.413c8.715,22.655,11.714,53.317,10.632,77.502c-2.802-3.61-4.904-5.624-5.24-5.938
		c-3.215-3.009-8.241-2.84-11.265,0.359c-3.025,3.199-2.881,8.254,0.302,11.295c1.124,1.074,27.377,26.815,13.834,71.884
		c-1.271,4.231,1.128,8.692,5.359,9.964c0.347,0.104,0.696,0.176,1.044,0.232C371.571,236.627,362.392,287.072,341.244,329.784z"/>
	<path d="M253.341,458.038c-3.724-3.332-5.825-13.273-5.354-25.328c0.014-0.363,0.02-0.604,0.02-0.71c0-4.418-3.582-8-8-8
		c-4.375,0-7.929,3.511-7.999,7.868l-0.008,0.217c-0.399,10.222,0.456,28.735,10.673,37.877c1.527,1.366,3.433,2.038,5.332,2.038
		c2.197,0,4.385-0.9,5.965-2.666C256.915,466.042,256.634,460.985,253.341,458.038z"/>
	<path d="M295.921,431.873c-0.068-4.36-3.624-7.873-7.999-7.873c-4.418,0-8,3.582-8,8c0,0.105,0.005,0.344,0.019,0.704
		c0.456,11.902-1.652,22.107-5.246,25.392c-3.261,2.981-3.488,8.042-0.506,11.302c1.578,1.727,3.738,2.602,5.907,2.602
		c1.927,0,3.861-0.693,5.396-2.096c9.992-9.135,10.829-27.612,10.438-37.813L295.921,431.873z"/>
</g>
<g>
</g>
<g>
</g>
<g>
</g>
<g>
</g>
<g>
</g>
<g>
</g>
<g>
</g>
<g>
</g>
<g>
</g>
<g>
</g>
<g>
</g>
<g>
</g>
<g>
</g>
<g>
</g>
<g>
</g>
</svg>
