<?xml version="1.0" encoding="iso-8859-1"?>
<!-- Generator: Adobe Illustrator 17.1.0, SVG Export Plug-In . SVG Version: 6.00 Build 0)  -->
<!DOCTYPE svg PUBLIC "-//W3C//DTD SVG 1.1//EN" "http://www.w3.org/Graphics/SVG/1.1/DTD/svg11.dtd">
<svg version="1.1" id="Capa_1" xmlns="http://www.w3.org/2000/svg" xmlns:xlink="http://www.w3.org/1999/xlink" x="0px" y="0px"
	 viewBox="0 0 511.949 511.949" style="enable-background:new 0 0 511.949 511.949;" xml:space="preserve">
<g>
	<path d="M343.742,229.968c-8.829,0-16.012,7.183-16.012,16.012s7.183,16.012,16.012,16.012s16.012-7.183,16.012-16.012
		S352.572,229.968,343.742,229.968z"/>
	<path d="M167.488,229.968c-8.829,0-16.012,7.183-16.012,16.012s7.183,16.012,16.012,16.012c8.829,0,16.011-7.183,16.011-16.012
		S176.316,229.968,167.488,229.968z"/>
	<path d="M270.998,445.699c-4.798,0.386-9.973,0.582-15.383,0.582c-5.409,0-10.585-0.196-15.383-0.582
		c-4.398-0.352-8.262,2.929-8.616,7.333c-0.354,4.404,2.929,8.262,7.333,8.616c5.224,0.42,10.831,0.633,16.667,0.633
		c5.836,0,11.443-0.213,16.666-0.633c4.404-0.354,7.687-4.211,7.333-8.616C279.26,448.628,275.411,445.341,270.998,445.699z"/>
	<path d="M487.893,90.345c-14.165-30.01-34.027-51.152-59.036-62.841c-21.719-10.151-46.491-12.538-71.637-6.901
		c-45.557,10.211-82.478,44.164-91.005,81.18h-20.483c-8.527-37.016-45.448-70.969-91.005-81.18
		c-25.146-5.636-49.918-3.25-71.637,6.901C58.082,39.193,38.22,60.335,24.056,90.345C-7.099,156.351-1.298,226.506,4.934,262.45
		c8.78,50.643,27.966,92.902,46.657,102.767c6.515,3.438,12.181,4.681,16.97,4.681c5.238,0,9.426-1.487,12.521-3.213
		c19.216-10.717,22.025-44.269,22.282-48.059c0.256-3.781-2.179-7.216-5.828-8.238c-3.649-1.021-7.519,0.664-9.263,4.028
		c-2.994,5.774-7.765,11.033-9.796,11.577c-0.696-0.51-4.137-3.66-7.342-17.701c-6.707-29.38-5.795-66.938,2.438-100.468
		c1.223-4.98,2.584-9.743,4.056-14.254c5.527,15.781,14.603,25.836,22.507,32.001c7.235,5.643,14.413,8.799,19.387,10.493
		c1.287,45.132,15.383,142.925,16.011,147.259c0.006,0.045,0.013,0.089,0.021,0.134c6.599,40.69,19.376,79.082,66.956,85.879
		c10.567,16.345,28.561,24.991,53.104,24.991c24.538,0,42.53-8.642,53.098-24.981c19.893-2.817,34.838-11.177,45.591-25.483
		c10.207-13.579,16.798-32.209,21.37-60.405c0.007-0.044,0.014-0.089,0.021-0.134c0.626-4.327,14.674-101.777,16.005-147.017
		c4.986-1.629,12.518-4.812,20.113-10.736c7.904-6.165,16.98-16.22,22.507-32.001c1.472,4.511,2.833,9.274,4.056,14.254
		c8.232,33.529,9.144,71.087,2.438,100.468c-3.205,14.041-6.646,17.191-7.342,17.701c-2.031-0.544-6.802-5.803-9.789-11.563
		c-1.734-3.377-5.603-5.069-9.258-4.053c-3.657,1.017-6.096,4.462-5.839,8.249c0.257,3.791,3.065,37.342,22.282,48.059
		c3.095,1.727,7.282,3.213,12.521,3.213c4.789,0,10.457-1.243,16.97-4.681c18.691-9.865,37.877-52.124,46.657-102.767
		C513.246,226.506,519.048,156.351,487.893,90.345z M55.537,311.853c2.767,12.123,7.944,28.428,20.9,30.057
		c1.816,0.229,3.567,0.121,5.243-0.246c-2.14,4.938-4.914,9.107-8.391,11.047c-1.337,0.746-5.405,3.013-14.231-1.644
		c-9.669-5.103-27.855-35.84-37.413-86.15c-0.015-0.116-0.022-0.231-0.042-0.347c-5.986-34.898-0.661-64.595,15.399-85.879
		c2.661-3.527,1.959-8.543-1.568-11.205c-3.525-2.66-8.543-1.959-11.205,1.568c-2.71,3.591-5.087,7.289-7.192,11.056
		c2.221-26.315,8.333-55.067,21.487-82.936c6.21-13.156,13.589-24.346,22.071-33.519c11.044-9.663,27.834-20.587,46.072-4.022
		c3.27,2.972,8.329,2.728,11.3-0.542c2.971-3.27,2.728-8.33-0.542-11.3c-5.15-4.678-10.574-8.063-16.218-10.157
		c8.666-2.664,17.782-4.007,27.15-4.007c7.497,0,15.157,0.86,22.87,2.589c21.488,4.816,41.69,15.929,56.885,31.29
		c15.095,15.26,23.429,33.059,23.479,50.135c-0.093,1.88-1.783,25.085-28.247,41.415c-14.222,8.775-31.683,9.685-43.711,8.936
		c0.06-25.464-7.461-64.689-22.861-93.971c-2.057-3.912-6.896-5.415-10.804-3.357c-3.911,2.057-5.414,6.894-3.357,10.804
		c11.774,22.387,18.874,52.614,20.61,75.652c-7.095-10.981-14.164-17.316-20.798-20.602c-16.759-9.867-46.997-6.456-71.245,8.243
		c-3.779,2.29-4.985,7.209-2.695,10.988c1.504,2.482,4.144,3.855,6.849,3.854c1.412,0,2.843-0.374,4.139-1.16
		c7.754-4.7,15.647-7.75,23.027-9.513c-10.062,12.158-18.568,31.076-24.462,55.08C49.237,239.843,48.302,280.159,55.537,311.853z
		 M105.977,150.257c7.193-2.543,14.118,2.733,19.836,9.968c-10.422-1.764-21.424-2.238-30.074-2.251
		C99.111,154.111,102.567,151.463,105.977,150.257z M89.37,174.066c11.667-0.262,29.337,0.26,41.97,3.709
		c-6.231,12.926-10.096,26.915-11.403,41.252C109.569,214.203,93.265,202.257,89.37,174.066z M303.088,414.156
		c-9.511,4.649-22.769,7.309-39.473,7.94v-17.16c14.146-4.501,24.035-20.088,24.035-30.771c0-5.317-2.266-8.688-4.166-10.578
		c-5.573-5.544-14.453-5.498-24.731-5.444c-2.054,0.011-4.221,0.011-6.274,0c-10.278-0.055-19.158-0.1-24.731,5.444
		c-1.9,1.891-4.166,5.261-4.166,10.578c0,10.682,9.888,26.27,24.035,30.771v17.16c-16.704-0.631-29.961-3.291-39.473-7.94
		c-11.347-5.545-16.632-13.434-16.632-24.826c0-31.107,34.46-55.234,64.104-55.234c36.102,0,64.105,29.692,64.105,55.234
		C319.719,400.722,314.435,408.611,303.088,414.156z M255.615,390.2c-7.951,0-15.414-10.162-15.998-15.406
		c2.535-0.705,8.6-0.672,12.778-0.651c2.107,0.012,4.333,0.012,6.44,0c4.175-0.021,10.243-0.054,12.778,0.651
		C271.029,380.038,263.566,390.2,255.615,390.2z M255.615,478.327c-19.451,0-32.884-6.277-40.511-19.027
		c-0.305-0.885-0.756-1.706-1.336-2.425c-3.497-6.852-5.515-15.359-6.069-25.561c12.474,4.597,28.539,6.933,47.917,6.933
		s35.443-2.335,47.917-6.933c-0.554,10.203-2.573,18.71-6.07,25.562c-0.58,0.719-1.031,1.54-1.336,2.425
		C288.499,472.05,275.066,478.327,255.615,478.327z M359.869,380.963c-4.079,25.121-9.912,42.053-18.355,53.286
		c-6.303,8.386-14.416,13.962-24.976,17.095c2.088-7.711,3.158-16.399,3.158-26.028c0-0.85-0.135-1.667-0.38-2.436
		c10.762-8.214,16.404-19.637,16.404-33.551c0-17.375-8.644-35.261-23.714-49.071c-15.597-14.292-35.624-22.164-56.39-22.164
		s-40.793,7.871-56.39,22.164c-15.071,13.81-23.714,31.695-23.714,49.071c0,13.913,5.641,25.337,16.404,33.551
		c-0.245,0.768-0.38,1.586-0.38,2.436c0,9.629,1.07,18.317,3.158,26.028c-10.56-3.133-18.673-8.709-24.976-17.095
		c-8.444-11.233-14.276-28.166-18.355-53.287c-0.472-3.271-15.931-110.906-15.931-151.006c0-16.489,3.917-32.722,11.346-47.292
		c11.775,1.938,41.13,4.719,64.971-9.992c34.676-21.396,35.812-53.342,35.844-54.691c0.001-0.062,0.002-0.124,0.002-0.186
		c0-0.004,0-0.008,0-0.012h16.766c0,0.004,0,0.008,0,0.012c0,0.062,0,0.124,0.002,0.186c0.032,1.35,1.167,33.296,35.844,54.691
		c23.394,14.435,52.114,12.028,64.308,10.101c7.393,14.543,11.29,30.737,11.29,47.183
		C375.801,270.052,360.339,377.705,359.869,380.963z M391.322,219.385c-1.269-14.397-5.116-28.45-11.35-41.436
		c12.672-3.608,30.75-4.147,42.61-3.883C418.608,203.031,401.676,214.816,391.322,219.385z M406.948,158.221
		c-7.737,0.318-14.683,1.001-20.838,2.033c5.722-7.251,12.655-12.545,19.86-9.997c3.425,1.211,6.894,3.875,10.28,7.764
		C413.38,158.03,410.242,158.087,406.948,158.221z M452.89,351.067c-8.818,4.653-12.884,2.393-14.221,1.65
		c-3.581-1.992-6.351-6.18-8.453-11.064c1.692,0.376,3.461,0.488,5.295,0.257c12.956-1.628,18.133-17.934,20.9-30.057
		c7.235-31.694,6.301-72.009-2.498-107.844c-5.863-23.878-14.311-42.723-24.303-54.888c8.539,2.178,16.797,5.641,22.868,9.321
		c1.296,0.786,2.726,1.16,4.139,1.16c2.705,0,5.345-1.372,6.849-3.854c2.29-3.778,1.084-8.698-2.695-10.988
		c-24.246-14.697-54.481-18.109-71.24-8.246c-6.635,3.286-13.706,9.622-20.803,20.605c1.736-23.038,8.836-53.265,20.61-75.652
		c2.057-3.91,0.554-8.748-3.357-10.804c-3.91-2.058-8.748-0.554-10.804,3.357c-15.4,29.282-22.921,68.507-22.861,93.971
		c-12.031,0.75-29.49-0.161-43.711-8.935c-26.464-16.329-28.154-39.535-28.247-41.415c0.05-17.076,8.383-34.875,23.479-50.135
		c15.195-15.361,35.397-26.474,56.885-31.29c17.345-3.887,34.404-3.368,50.006,1.425c-5.639,2.095-11.059,5.477-16.203,10.151
		c-3.271,2.971-3.514,8.03-0.542,11.3c2.97,3.271,8.03,3.514,11.3,0.542c18.238-16.565,35.028-5.64,46.073,4.022
		c8.482,9.172,15.861,20.362,22.071,33.518c13.154,27.869,19.266,56.621,21.487,82.936c-2.105-3.767-4.482-7.465-7.192-11.056
		c-2.661-3.527-7.678-4.228-11.205-1.568c-3.527,2.661-4.229,7.678-1.568,11.205c16.06,21.285,21.385,50.981,15.399,85.879
		c-0.02,0.116-0.027,0.231-0.042,0.347C480.745,315.226,462.559,345.964,452.89,351.067z"/>
</g>
<g>
</g>
<g>
</g>
<g>
</g>
<g>
</g>
<g>
</g>
<g>
</g>
<g>
</g>
<g>
</g>
<g>
</g>
<g>
</g>
<g>
</g>
<g>
</g>
<g>
</g>
<g>
</g>
<g>
</g>
</svg>
