<?xml version="1.0" encoding="iso-8859-1"?>
<!-- Generator: Adobe Illustrator 17.1.0, SVG Export Plug-In . SVG Version: 6.00 Build 0)  -->
<!DOCTYPE svg PUBLIC "-//W3C//DTD SVG 1.1//EN" "http://www.w3.org/Graphics/SVG/1.1/DTD/svg11.dtd">
<svg version="1.1" id="Capa_1" xmlns="http://www.w3.org/2000/svg" xmlns:xlink="http://www.w3.org/1999/xlink" x="0px" y="0px"
	 viewBox="0 0 512 512" style="enable-background:new 0 0 512 512;" xml:space="preserve">
<g>
	<path d="M504.41,68.252c-5.728-19.969-15.682-31.506-30.431-35.272c-15.653-3.997-33.005-0.955-50.179,8.794
		c-5.211,2.959-9.941,6.281-14.104,9.646C359.845,38.845,309.568,32.731,256,32.731S152.155,38.845,102.304,51.42
		c-4.163-3.365-8.893-6.687-14.104-9.646c-17.173-9.75-34.525-12.79-50.179-8.794C23.271,36.745,13.317,48.283,7.59,68.252
		C2.412,86.305,0,113.149,0,152.731v72c0,49.786,15.853,100.483,44.638,142.753c30.44,44.701,73.523,76.301,121.311,88.979
		c0.688,0.183,1.377,0.27,2.057,0.27c0.114,0,0.224-0.023,0.337-0.028c2.731,1.933,5.586,3.76,8.573,5.469
		c28.209,16.146,61.657,18.557,79.085,18.557s50.876-2.411,79.085-18.557c2.987-1.709,5.841-3.536,8.573-5.469
		c0.113,0.005,0.223,0.028,0.337,0.028c0.679,0,1.37-0.087,2.057-0.27c47.788-12.678,90.871-44.279,121.311-88.979
		C496.147,325.214,512,274.516,512,224.731v-72C512,113.149,509.588,86.305,504.41,68.252z M327.137,448.287
		c-24.996,14.307-55.299,16.443-71.137,16.443s-46.141-2.136-71.137-16.443c-13.301-7.613-23.445-17.749-30.407-30.31
		c20.28,15.734,41.816,19.789,58.573,19.789c0.202,0,0.404,0,0.605-0.001c19.624-0.114,35.584-5.581,42.366-8.32
		c6.782,2.739,22.742,8.206,42.366,8.32c0.202,0.001,0.402,0.001,0.605,0.001c16.757,0,38.294-4.056,58.574-19.79
		C350.583,430.538,340.439,440.674,327.137,448.287z M256,392.731c-9.386,0-19.742-9.529-29.756-18.745
		c-4.347-4-8.842-8.136-13.385-11.61c-3.282-2.509-5.092-6.866-4.725-11.37c0.496-6.077,4.626-11.481,11.63-15.216
		c2.721-1.451,5.31-2,8.359-2c2.914,0,6.249,0.501,10.522,1.197c5.026,0.818,10.722,1.745,17.354,1.745s12.329-0.927,17.354-1.745
		c8.747-1.423,13.559-2.035,18.881,0.804c7.003,3.735,11.134,9.139,11.63,15.216c0.368,4.504-1.443,8.861-4.725,11.37
		c-4.543,3.474-9.038,7.61-13.385,11.61C275.742,383.201,265.386,392.731,256,392.731z M496,224.731
		c0,46.606-14.867,94.105-41.862,133.747c-22.611,33.204-52.623,58.584-86.274,73.404c0.874-1.322,1.724-2.66,2.531-4.031
		c6.843-11.625,11.272-25.056,13.267-40.078c0.055-0.291,0.091-0.584,0.113-0.877c0.733-5.824,1.115-11.877,1.115-18.166
		c0-13.084,4.57-18.133,4.764-18.341c-0.114,0.123-0.182,0.178-0.182,0.178l-10.942-11.673c-0.987,0.925-9.64,9.621-9.64,29.836
		c0,5.082-0.276,9.964-0.807,14.659c-17.514,25.448-40.733,38.362-69.05,38.377c-0.016,0-0.029,0-0.045,0
		c-15.413,0-28.451-3.963-34.987-6.389v-7.675c12.085-3.082,22.48-12.64,32.59-21.943c4.271-3.93,8.305-7.643,12.269-10.674
		c7.676-5.87,11.771-15.358,10.953-25.381c-0.94-11.522-8.248-21.739-20.047-28.032c-10.336-5.513-19.813-3.971-28.98-2.479
		c-4.644,0.756-9.445,1.537-14.784,1.537s-10.141-0.781-14.784-1.537c-9.167-1.492-18.645-3.035-28.98,2.479
		c-11.8,6.293-19.107,16.51-20.047,28.032c-0.818,10.023,3.276,19.511,10.953,25.381c3.964,3.031,7.998,6.744,12.269,10.674
		c10.11,9.303,20.505,18.861,32.59,21.943v7.69c-6.429,2.4-19.169,6.284-34.459,6.373c-28.55,0.159-51.985-12.75-69.623-38.376
		c-0.531-4.695-0.807-9.577-0.807-14.658c0-20.216-8.653-28.912-9.64-29.836l-10.942,11.673c0,0-0.067-0.055-0.182-0.178
		c0.194,0.208,4.764,5.257,4.764,18.341c0,6.288,0.382,12.341,1.115,18.166c0.023,0.293,0.058,0.586,0.113,0.877
		c1.994,15.022,6.424,28.453,13.267,40.078c0.807,1.37,1.657,2.709,2.531,4.031c-33.651-14.82-63.663-40.201-86.274-73.404
		C30.867,318.836,16,271.337,16,224.731v-16c0-41.99,12.271-52.212,32.599-69.147c10.717-8.928,24.055-20.04,37.76-37.999
		c2.681-3.512,2.006-8.533-1.506-11.213c-3.514-2.682-8.533-2.006-11.213,1.506c-12.613,16.527-24.657,26.561-35.282,35.413
		c-8.391,6.991-16.085,13.415-22.35,21.604c0.265-67.475,7.62-95.727,25.971-100.412c28.017-7.155,56.325,18.633,63.467,28.836
		c2.534,3.62,7.522,4.5,11.142,1.966s4.5-7.522,1.966-11.142c-0.762-1.088-1.685-2.285-2.728-3.545
		C161.246,53.931,207.212,48.731,256,48.731s94.754,5.2,140.174,15.867c-1.043,1.261-1.966,2.457-2.728,3.545
		c-2.534,3.62-1.654,8.608,1.966,11.142c3.62,2.534,8.608,1.654,11.142-1.966c7.142-10.203,35.449-35.992,63.467-28.836
		c18.351,4.686,25.706,32.938,25.971,100.412c-6.265-8.19-13.959-14.614-22.35-21.604c-10.625-8.852-22.669-18.886-35.282-35.413
		c-2.68-3.512-7.7-4.186-11.213-1.506c-3.512,2.68-4.187,7.701-1.506,11.213c13.706,17.959,27.043,29.071,37.76,37.999
		C483.729,156.519,496,166.741,496,208.731V224.731z"/>
	<path d="M152,256.731c-8.822,0-16,7.178-16,16s7.178,16,16,16s16-7.178,16-16S160.822,256.731,152,256.731z"/>
	<path d="M360,256.731c-8.822,0-16,7.178-16,16s7.178,16,16,16s16-7.178,16-16S368.822,256.731,360,256.731z"/>
</g>
<g>
</g>
<g>
</g>
<g>
</g>
<g>
</g>
<g>
</g>
<g>
</g>
<g>
</g>
<g>
</g>
<g>
</g>
<g>
</g>
<g>
</g>
<g>
</g>
<g>
</g>
<g>
</g>
<g>
</g>
</svg>
