<?xml version="1.0" encoding="iso-8859-1"?>
<!-- Generator: Adobe Illustrator 17.1.0, SVG Export Plug-In . SVG Version: 6.00 Build 0)  -->
<!DOCTYPE svg PUBLIC "-//W3C//DTD SVG 1.1//EN" "http://www.w3.org/Graphics/SVG/1.1/DTD/svg11.dtd">
<svg version="1.1" id="Capa_1" xmlns="http://www.w3.org/2000/svg" xmlns:xlink="http://www.w3.org/1999/xlink" x="0px" y="0px"
	 viewBox="0 0 512 512" style="enable-background:new 0 0 512 512;" xml:space="preserve">
<g>
	<path d="M475.309,163.208c0.891-0.425,1.721-1.013,2.432-1.782C493.692,144.17,504,116.919,504,92
		c0-19.5-7.005-39.561-19.22-55.039C472.262,21.098,455.94,12,440,12c-25.932,0-39.754,26.99-49.847,46.698
		c-1.539,3.005-3.024,5.905-4.469,8.566C343.437,37.145,297.329,20,256,20s-87.437,17.145-129.685,47.263
		c-1.444-2.661-2.93-5.561-4.469-8.566C111.754,38.99,97.932,12,72,12c-15.94,0-32.262,9.098-44.78,24.961
		C15.005,52.439,8,72.5,8,92c0,24.919,10.308,52.17,26.259,69.426c0.711,0.769,1.541,1.357,2.432,1.782
		C12.956,202.291,0,244.082,0,284c0,32.385,6.833,62.695,20.311,90.087c12.857,26.133,31.471,49.08,55.322,68.203
		C122.047,479.505,186.103,500,256,500s133.953-20.495,180.367-57.71c23.852-19.124,42.465-42.071,55.322-68.203
		C505.167,346.695,512,316.385,512,284C512,244.082,499.044,202.291,475.309,163.208z M404.395,65.991
		C413.514,48.183,423.851,28,440,28c11.011,0,22.755,6.879,32.22,18.873C482.249,59.581,488,76.029,488,92
		c0,20.749-8.353,43.286-21.328,57.785c-10.032-14.702-21.604-28.93-34.608-42.424c-0.002-1.065-0.006-2.136-0.013-3.233
		c-0.078-12.514-0.166-26.698,7.033-40.409c2.054-3.912,0.548-8.748-3.364-10.802c-3.91-2.054-8.748-0.547-10.802,3.364
		c-6.505,12.39-8.276,24.653-8.73,35.65c-5.747-5.238-11.619-10.223-17.59-14.95C400.51,73.575,402.41,69.865,404.395,65.991z
		 M24,92c0-15.971,5.751-32.419,15.78-45.127C49.245,34.879,60.989,28,72,28c16.149,0,26.486,20.183,35.605,37.991
		c1.984,3.874,3.885,7.584,5.798,10.99c-5.949,4.71-11.801,9.676-17.527,14.894c-0.462-10.99-2.253-23.24-8.806-35.618
		c-2.067-3.905-6.909-5.394-10.813-3.327s-5.395,6.909-3.327,10.813c7.254,13.701,7.165,27.877,7.086,40.384
		c-0.007,1.074-0.011,2.123-0.013,3.167c-13.031,13.514-24.626,27.765-34.674,42.491C32.353,135.286,24,112.749,24,92z
		 M256.118,411.958c-0.04-0.001-0.079-0.001-0.118-0.001s-0.079,0-0.118,0.001c-3.054-0.835-13.843-5.877-26.026-13.679
		c-14.681-9.402-20.154-15.576-21.548-18.005c1.347-1.114,5.863-3.873,19.156-6.036c10.349-1.684,21.84-2.281,28.536-2.281
		s18.188,0.597,28.536,2.281c13.293,2.163,17.81,4.922,19.156,6.036c-1.394,2.429-6.867,8.603-21.548,18.005
		C269.961,406.081,259.172,411.123,256.118,411.958z M256,454.161c7.818,4.419,18.517,5.497,25.171,5.701
		c0.927,0.028,1.866,0.043,2.822,0.043c10.314,0,22.233-1.692,33.778-5.767c-7.446,16.914-32.715,29.767-61.771,29.767
		c-29.06,0-54.332-12.856-61.774-29.774c12.616,4.452,25.677,6.063,36.603,5.73C237.483,459.658,248.182,458.581,256,454.161z
		 M426.358,429.807c-29.036,23.281-65.585,39.582-106.34,47.879c9.993-9.263,15.543-20.477,15.934-32.43
		c5.076-3.308,9.82-7.249,14.004-11.916c2.949-3.29,2.673-8.348-0.616-11.297c-3.289-2.949-8.348-2.674-11.297,0.616
		c-14.773,16.477-39.608,21.722-56.382,21.209c-9.133-0.28-14.908-2.097-17.661-3.579v-14.167c2.976-1.164,6.886-2.981,12.111-5.771
		c9.597-5.124,19.319-11.317,26.674-16.991C314.691,394.178,320,386.96,320,379.957c0-15.242-21.849-19.445-29.029-20.826
		c-12.176-2.343-26.449-3.174-34.971-3.174s-22.795,0.831-34.971,3.174c-7.18,1.381-29.029,5.584-29.029,20.826
		c0,7.003,5.309,14.221,17.214,23.404c7.355,5.674,17.078,11.866,26.674,16.991c5.233,2.794,9.134,4.606,12.111,5.77v14.168
		c-2.753,1.482-8.528,3.299-17.661,3.579c-16.774,0.512-41.61-4.732-56.382-21.209c-2.949-3.29-8.007-3.565-11.297-0.616
		s-3.565,8.007-0.616,11.297c4.184,4.667,8.928,8.608,14.004,11.916c0.391,11.953,5.941,23.166,15.934,32.43
		c-40.755-8.297-77.304-24.598-106.34-47.879C40.082,393.278,16,342.858,16,284c0-57.517,29.24-119.618,80.223-170.38
		C145.039,65.017,204.768,36,256,36s110.961,29.017,159.777,77.62C466.76,164.382,496,226.483,496,284
		C496,342.858,471.918,393.278,426.358,429.807z"/>
	<path d="M152,252c0,8.823,7.178,16,16,16s16-7.177,16-16s-7.178-16-16-16S152,243.177,152,252z"/>
	<path d="M360,252c0-8.823-7.178-16-16-16s-16,7.177-16,16s7.178,16,16,16S360,260.823,360,252z"/>
	<path d="M168,204c-12.821,0-24.875,4.993-33.941,14.059l-48,48C76.993,275.125,72,287.179,72,300s4.993,24.875,14.059,33.941
		c9.357,9.358,21.649,14.036,33.941,14.036s24.583-4.679,33.941-14.036l43.716-43.716c3.125-3.124,3.125-8.189,0-11.313
		c-3.124-3.125-8.189-3.125-11.313,0l-43.716,43.716c-12.477,12.477-32.778,12.477-45.255,0C91.329,316.583,88,308.548,88,300
		s3.329-16.583,9.373-22.627l48-48c12.477-12.477,32.778-12.477,45.255,0c6.042,6.042,9.371,14.076,9.373,22.621
		c0.001,4.418,3.582,7.999,8,7.999h0.001c4.418-0.001,8-3.583,7.999-8.001c-0.002-12.818-4.995-24.868-14.059-33.932
		C192.875,208.993,180.821,204,168,204z"/>
	<path d="M377.941,218.059c-18.715-18.715-49.167-18.715-67.882,0c-9.064,9.063-14.057,21.114-14.059,33.932
		c-0.001,4.418,3.58,8,7.999,8.001H304c4.417,0,7.999-3.581,8-7.999c0.001-8.545,3.33-16.579,9.373-22.621
		c12.477-12.477,32.778-12.477,45.255,0l48,48C420.671,283.417,424,291.452,424,300s-3.329,16.583-9.373,22.627
		c-12.477,12.477-32.778,12.477-45.255,0l-43.716-43.716c-3.124-3.125-8.189-3.125-11.313,0c-3.125,3.124-3.125,8.189,0,11.313
		l43.716,43.716c9.358,9.359,21.647,14.038,33.941,14.036c12.29-0.001,24.584-4.68,33.941-14.036
		C435.007,324.875,440,312.821,440,300s-4.993-24.875-14.059-33.941L377.941,218.059z"/>
</g>
<g>
</g>
<g>
</g>
<g>
</g>
<g>
</g>
<g>
</g>
<g>
</g>
<g>
</g>
<g>
</g>
<g>
</g>
<g>
</g>
<g>
</g>
<g>
</g>
<g>
</g>
<g>
</g>
<g>
</g>
</svg>
