<?xml version="1.0" encoding="iso-8859-1"?>
<!-- Generator: Adobe Illustrator 17.1.0, SVG Export Plug-In . SVG Version: 6.00 Build 0)  -->
<!DOCTYPE svg PUBLIC "-//W3C//DTD SVG 1.1//EN" "http://www.w3.org/Graphics/SVG/1.1/DTD/svg11.dtd">
<svg version="1.1" id="Capa_1" xmlns="http://www.w3.org/2000/svg" xmlns:xlink="http://www.w3.org/1999/xlink" x="0px" y="0px"
	 viewBox="0 0 512 512" style="enable-background:new 0 0 512 512;" xml:space="preserve">
<g>
	<path d="M446.492,232.643c-0.099-0.951-0.228-1.889-0.388-2.815c-1.357-9.232-3.417-17.613-6.111-28.557
		c-0.514-2.089-1.053-4.276-1.615-6.587c-3.399-13.97-3.881-28.175-1.432-42.221c3.404-19.534,5.281-42.864-6.618-67.786
		c-1.852-3.878-4.172-7.615-6.851-11.209c-0.521-1.381-1.423-2.637-2.694-3.585c-0.119-0.089-0.239-0.171-0.359-0.259
		c-15.399-18.322-39.941-32.612-59.839-42.062C332.319,14.14,299.052,3.86,275.795,1.363c-0.188-0.023-0.378-0.043-0.568-0.061
		l-0.033-0.002c-0.083-0.011-0.166-0.021-0.249-0.029l-1.498-0.156c-3.558-0.432-7.321-0.735-11.186-0.902
		C259.769,0.071,257.663,0,256,0c-1.674,0-3.805,0.072-6.334,0.215c-3.452,0.151-6.896,0.423-10.241,0.81
		c-23.142,2.249-56.926,12.338-86.099,25.714C127.16,38.735,93.335,58.523,80.788,84.663c-12.177,25.369-10.165,48.873-6.177,70.492
		c2.431,13.176,1.961,27.017-1.395,41.14c-0.585,2.46-1.143,4.775-1.673,6.976c-2.229,9.251-3.998,16.598-5.262,24.291
		c-0.453,1.973-0.783,4.002-0.951,6.093c-0.021,0.257-0.026,0.511-0.023,0.764C64.447,241.621,64,249.617,64,260
		c0,50.897,11.079,91.357,32.929,120.258c19.67,26.018,47.54,43.068,85.2,52.126c1.778,0.428,3.557,0.217,5.109-0.472
		c9.822,13.134,21.808,24.008,35.152,31.146c0.344,0.184,0.696,0.333,1.052,0.463c0.433,1.221,0.865,2.429,1.292,3.599
		C234.574,494.059,243.656,512,256,512s21.426-17.941,31.265-44.881c0.427-1.17,0.859-2.379,1.293-3.6
		c0.357-0.13,0.711-0.279,1.056-0.463c13.34-7.137,25.322-18.008,35.142-31.137c1.004,0.446,2.104,0.689,3.237,0.689
		c0.619,0,1.249-0.072,1.877-0.224c37.661-9.058,65.53-26.108,85.2-52.126C436.921,351.357,448,310.897,448,260
		C448,248.844,447.482,240.346,446.492,232.643z M241.041,16.942c0.051-0.005,0.102-0.01,0.153-0.017
		c3.005-0.348,6.108-0.593,9.221-0.729c0.035-0.001,0.071-0.003,0.106-0.005C252.74,16.066,254.634,16,256,16
		c1.354,0,3.223,0.065,5.407,0.19c0.038,0.002,0.076,0.004,0.114,0.006c3.493,0.148,6.877,0.422,10.059,0.811
		c0.059,0.007,0.118,0.014,0.177,0.02l1.44,0.149c0.177,0.021,0.358,0.04,0.549,0.056c0.087,0.012,0.174,0.022,0.261,0.032
		c21.617,2.305,52.906,12.021,79.713,24.752c8.459,4.017,16.213,8.198,23.205,12.482c-11.965,0.165-24.239,3.653-36.756,10.479
		c-13.312,7.259-30.669,2.522-49.046-2.491c-11.687-3.188-23.772-6.486-35.125-6.486s-23.438,3.298-35.125,6.486
		c-18.376,5.014-35.734,9.749-49.045,2.491c-12.643-6.894-25.036-10.379-37.115-10.478C168.93,33.945,215.201,19.436,241.041,16.942
		z M176,352c0-24.35,2.876-35.587,6.719-42.084c4.664,21.847,10.04,45.214,15.522,67.034c5.832,23.209,11.614,44.137,17.103,61.956
		C191.87,418.905,176,384.998,176,352z M256,495.193c-2.495-2.634-8.662-11.498-18.71-40.528
		c-7.704-22.257-16.386-52.665-25.107-87.937C196.311,302.534,184,237.292,184,224c0-10.614,9.495-35.505,27.642-62.541
		C230.866,132.819,247.772,120,256,120s25.134,12.819,44.358,41.459C318.505,188.495,328,213.386,328,224
		c0,13.292-12.311,78.534-28.183,142.729c-8.721,35.271-17.403,65.68-25.107,87.937C264.662,483.695,258.495,492.56,256,495.193z
		 M296.656,438.904c5.489-17.819,11.271-38.746,17.103-61.955c5.449-21.688,10.793-44.905,15.438-66.639
		C333.363,317.07,336,327.579,336,352C336,384.997,320.13,418.904,296.656,438.904z M402.308,370.608
		c-15.616,20.656-37.394,34.948-66.322,43.549C346.073,395.129,352,373.376,352,352c0-39.603-6.864-49.469-18.167-61.011
		l-0.507-0.519C339.714,258.879,344,233.045,344,224c0-18.121-15.247-48.946-30.357-71.458C301.474,134.413,277.804,104,256,104
		s-45.474,30.413-57.643,48.542C183.247,175.054,168,205.879,168,224c0,9.042,4.283,34.86,10.668,66.435
		C168.054,299.861,160,310.794,160,352c0,21.377,5.926,43.13,16.013,62.158c-28.927-8.601-50.705-22.894-66.321-43.549
		C89.99,344.549,80,307.335,80,260c0-12.462,0.666-21.085,1.993-29.35c3.651-14.448,19.094-23.15,29.937-23.15
		c4.779,0,8.295,2.909,13.517,7.699c6.599,6.054,16.57,15.2,31.613,7.093c3.889-2.098,5.342-6.949,3.245-10.839
		c-2.097-3.889-6.949-5.34-10.838-3.245c-4.412,2.379-6.016,1.793-13.203-4.799c-5.784-5.306-12.982-11.909-24.333-11.909
		c-7.568,0-15.505,2.238-22.65,6.28c3.409-15.542,3.773-30.847,1.065-45.527c-3.257-17.659-5.836-38.367,4.867-60.666
		c1.429-2.977,3.268-5.913,5.457-8.801c0.037-0.027,0.077-0.049,0.114-0.076c20.215-15.073,40.357-16.244,63.388-3.687
		c18.968,10.342,41.254,4.263,60.917-1.103c11.162-3.045,21.704-5.922,30.913-5.922s19.751,2.877,30.913,5.922
		c11.854,3.234,24.658,6.729,37.117,6.729c8.208-0.001,16.268-1.518,23.801-5.626c22.318-12.17,41.923-11.447,61.512,2.328
		c2.734,3.426,4.934,6.841,6.548,10.221c9.933,20.805,8.415,40.24,5.294,58.144c-2.789,16.002-2.282,32.174,1.493,48.08
		c-7.152-4.052-15.1-6.296-22.677-6.296c-11.351,0-18.549,6.604-24.333,11.909c-7.188,6.596-8.793,7.178-13.204,4.799
		c-3.887-2.095-8.741-0.645-10.838,3.245s-0.644,8.742,3.245,10.839c15.042,8.109,25.014-1.039,31.613-7.093
		c5.222-4.79,8.738-7.699,13.517-7.699c11.201,0,27.312,9.285,30.26,24.598c1.158,7.855,1.74,16.265,1.74,27.902
		C432,307.335,422.01,344.549,402.308,370.608z"/>
	<path d="M120,104.125c-9.57,0-16,11.252-16,28s6.43,28,16,28s16-11.252,16-28S129.57,104.125,120,104.125z"/>
	<path d="M392,160.125c9.57,0,16-11.252,16-28s-6.43-28-16-28s-16,11.252-16,28S382.43,160.125,392,160.125z"/>
</g>
<g>
</g>
<g>
</g>
<g>
</g>
<g>
</g>
<g>
</g>
<g>
</g>
<g>
</g>
<g>
</g>
<g>
</g>
<g>
</g>
<g>
</g>
<g>
</g>
<g>
</g>
<g>
</g>
<g>
</g>
</svg>
