<?xml version="1.0" encoding="iso-8859-1"?>
<!-- Generator: Adobe Illustrator 17.1.0, SVG Export Plug-In . SVG Version: 6.00 Build 0)  -->
<!DOCTYPE svg PUBLIC "-//W3C//DTD SVG 1.1//EN" "http://www.w3.org/Graphics/SVG/1.1/DTD/svg11.dtd">
<svg version="1.1" id="Capa_1" xmlns="http://www.w3.org/2000/svg" xmlns:xlink="http://www.w3.org/1999/xlink" x="0px" y="0px"
	 viewBox="0 0 512 512" style="enable-background:new 0 0 512 512;" xml:space="preserve">
<g>
	<path d="M84.163,176.083c7.4,0,11.997-7.659,11.997-19.989s-4.597-19.989-11.997-19.989c-7.399,0-11.996,7.659-11.996,19.989
		S76.764,176.083,84.163,176.083z"/>
	<path d="M491.814,295.718c-1.746-2.631-3.55-5.215-5.377-7.741h17.328c2.532,0,4.914-1.199,6.423-3.231s1.967-4.66,1.234-7.083
		c-0.344-1.139-7.632-24.382-31.647-38.869c0.754-0.471,1.472-0.918,2.121-1.324c2.683-1.673,5.238-3.268,7.129-4.487
		c3.575-2.306,6.158-3.972,6.687-7.851c0.321-2.356-0.428-4.753-2.035-6.506c-2.047-2.233-4.147-4.325-6.273-6.283
		c-1.034-26.145-12.712-60.16-28.016-84.408c1.474,0.113,2.946,0.179,4.415,0.179c4.418,0,8-3.582,8-8s-3.582-8-8-8
		c-6.81,0-13.972-1.726-21.164-4.337c-0.341-0.154-0.688-0.288-1.044-0.392c-9.057-3.392-18.139-8.118-26.604-12.533
		c-2.027-1.057-4.003-2.086-5.925-3.07C354.424,58.912,305.481,56.182,256,56.182s-98.424,2.73-153.065,35.598
		c-1.922,0.984-3.898,2.013-5.924,3.07c-8.467,4.415-17.55,9.142-26.609,12.534c-0.353,0.103-0.698,0.237-1.037,0.389
		c-7.194,2.612-14.357,4.339-21.168,4.339c-4.418,0-8,3.582-8,8s3.582,8,8,8c1.469,0,2.941-0.066,4.415-0.179
		c-15.304,24.248-26.982,58.263-28.016,84.408c-2.126,1.958-4.225,4.049-6.271,6.281c-1.608,1.753-2.358,4.152-2.037,6.509
		c0.528,3.879,3.111,5.545,6.687,7.851c1.891,1.22,4.446,2.814,7.129,4.487c0.649,0.405,1.367,0.853,2.121,1.324
		C8.209,253.28,0.922,276.523,0.578,277.662c-0.732,2.423-0.275,5.051,1.234,7.083s3.892,3.231,6.423,3.231h17.328
		c-1.827,2.525-3.631,5.11-5.377,7.741C6.574,316.231-0.216,333.953,0.005,348.392c0.157,10.252,3.771,18.774,10.741,25.329
		c4.497,4.229,11.681,8.056,21.576,11.501c0.084,0.489,0.21,0.977,0.39,1.458c3.897,10.419,20.677,27.731,55.14,42.232
		c42.427,17.853,99,26.904,168.148,26.904s125.721-9.052,168.148-26.904c34.463-14.501,51.242-31.813,55.14-42.232
		c0.18-0.482,0.306-0.97,0.39-1.459c9.895-3.445,17.078-7.272,21.575-11.501c6.971-6.555,10.584-15.077,10.742-25.33
		C512.216,333.953,505.426,316.231,491.814,295.718z M20.884,271.977c4.968-8.027,14.187-18.707,30.034-24.439
		c2.88-1.042,4.957-3.686,5.279-6.731c0.555-5.248-3.05-7.601-8.041-10.856c-2.728-1.78-6.214-3.954-9.585-6.057
		c-0.542-0.339-1.117-0.697-1.703-1.063c0.232-0.203,0.462-0.39,0.694-0.589c0.038-0.031,0.074-0.063,0.111-0.094
		c11.402-9.754,22.511-14.095,26.509-14.095c4.418,0,8-3.582,8-8s-3.582-8-8-8c-5.594,0-13.524,2.526-22.1,7.413
		c4.709-27.456,19.438-60.957,35.09-77.56c9.699-3.727,18.979-8.563,27.236-12.869c2.06-1.074,4.07-2.122,6.02-3.119
		c0.117-0.06,0.226-0.13,0.339-0.195c0.05-0.029,0.103-0.048,0.153-0.078C162.222,74.7,206.976,72.182,256,72.182
		s93.779,2.518,145.081,33.462c0.05,0.03,0.103,0.05,0.153,0.078c0.113,0.065,0.221,0.135,0.339,0.195
		c1.95,0.997,3.959,2.045,6.02,3.119c8.256,4.305,17.536,9.142,27.235,12.869c15.653,16.604,30.382,50.104,35.091,77.56
		c-8.575-4.887-16.505-7.413-22.1-7.413c-4.418,0-8,3.582-8,8s3.582,8,8,8c3.999,0,15.106,4.341,26.51,14.096
		c0.037,0.031,0.073,0.063,0.11,0.094c0.232,0.199,0.462,0.385,0.694,0.589c-0.586,0.366-1.161,0.724-1.703,1.063
		c-3.371,2.103-6.857,4.276-9.585,6.057c-4.99,3.256-8.596,5.608-8.041,10.856c0.322,3.046,2.398,5.69,5.278,6.731
		c15.853,5.734,25.072,16.418,30.037,24.439h-17.214c-4.61-5.455-8.931-10.135-12.437-13.642
		c-4.68-4.68-11.682-10.413-21.894-16.294c0.202-0.772,0.292-1.587,0.25-2.426c-0.089-1.779-2.551-43.858-34.962-69.787
		c-5.383-4.306-8.035-8.958-11.392-14.847c-4.31-7.56-9.195-16.129-20.618-25.147c-22.59-17.835-58.193-17.789-107.463-17.715
		c-3.077,0.004-6.207,0.009-9.388,0.009c-3.181,0-6.311-0.004-9.388-0.009c-49.278-0.078-84.874-0.12-107.463,17.715
		c-11.423,9.018-16.309,17.587-20.619,25.147c-3.357,5.889-6.009,10.541-11.392,14.846c-32.412,25.929-34.873,68.008-34.962,69.787
		c-0.042,0.839,0.048,1.654,0.25,2.426c-10.212,5.881-17.214,11.614-21.894,16.294c-3.507,3.507-7.827,8.187-12.437,13.642H20.884z
		 M256,208.037c-59.373,0-108.547,6.05-146.158,17.983c-7.778,2.468-14.693,5.081-20.851,7.752
		c1.943-11.528,8.251-35.536,28.143-51.449c7.771-6.217,11.597-12.927,15.296-19.416c3.936-6.904,7.653-13.425,16.633-20.514
		c18.221-14.384,51.479-14.341,97.526-14.272c3.084,0.004,6.222,0.009,9.41,0.009c3.188,0,6.326-0.004,9.41-0.009
		c46.05-0.069,79.307-0.112,97.527,14.272c8.979,7.089,12.697,13.61,16.632,20.514c3.7,6.489,7.525,13.199,15.297,19.417
		c19.77,15.815,26.136,39.882,28.118,51.439c-6.152-2.667-13.059-5.277-20.826-7.741C364.548,214.088,315.373,208.037,256,208.037z
		 M417.943,414.166C367.556,435.368,302.066,439.818,256,439.818s-111.556-4.45-161.942-25.652
		c-18.766-7.896-30.614-16.036-37.665-22.423c22.667,4.86,52.986,8.689,91.288,11.553c55.516,4.151,107.742,4.563,108.263,4.567
		c0.019,0,0.037,0,0.056,0c0,0,0.001,0,0.002,0c0.018,0,0.037,0,0.056,0c0.521-0.004,52.747-0.416,108.263-4.567
		c38.302-2.864,68.621-6.694,91.288-11.553C448.556,398.129,436.709,406.27,417.943,414.166z M490.291,362.066
		c-6.798,6.394-32.349,18.179-127.087,25.269c-54.197,4.056-105.254,4.513-107.205,4.528c-1.951-0.016-53.008-0.472-107.205-4.528
		c-94.738-7.09-120.289-18.875-127.087-25.269c-3.75-3.526-5.615-8.079-5.705-13.919c-0.359-23.43,27.929-60.583,45.843-78.498
		c7.761-7.761,23.228-18.984,52.834-28.377c36.043-11.436,83.59-17.234,141.319-17.234c57.73,0,105.276,5.798,141.319,17.234
		c29.607,9.393,45.073,20.617,52.834,28.377c17.915,17.915,46.202,55.068,45.843,78.498
		C495.907,353.987,494.041,358.54,490.291,362.066z"/>
	<path d="M427.837,176.083c7.4,0,11.997-7.659,11.997-19.989s-4.597-19.989-11.997-19.989c-7.399,0-11.996,7.659-11.996,19.989
		S420.437,176.083,427.837,176.083z"/>
	<path d="M240.015,343.909h-7.992c-4.418,0-8,3.582-8,8s3.582,8,8,8h7.992c4.418,0,8-3.582,8-8S244.433,343.909,240.015,343.909z"/>
	<path d="M279.977,343.909h-7.993c-4.418,0-8,3.582-8,8s3.582,8,8,8h7.993c4.418,0,8-3.582,8-8S284.396,343.909,279.977,343.909z"/>
</g>
<g>
</g>
<g>
</g>
<g>
</g>
<g>
</g>
<g>
</g>
<g>
</g>
<g>
</g>
<g>
</g>
<g>
</g>
<g>
</g>
<g>
</g>
<g>
</g>
<g>
</g>
<g>
</g>
<g>
</g>
</svg>
