<?xml version="1.0" encoding="iso-8859-1"?>
<!-- Generator: Adobe Illustrator 17.1.0, SVG Export Plug-In . SVG Version: 6.00 Build 0)  -->
<!DOCTYPE svg PUBLIC "-//W3C//DTD SVG 1.1//EN" "http://www.w3.org/Graphics/SVG/1.1/DTD/svg11.dtd">
<svg version="1.1" id="Capa_1" xmlns="http://www.w3.org/2000/svg" xmlns:xlink="http://www.w3.org/1999/xlink" x="0px" y="0px"
	 viewBox="0 0 512 512" style="enable-background:new 0 0 512 512;" xml:space="preserve">
<g>
	<path d="M336.215,246.631c-0.018-0.088-0.045-0.172-0.066-0.259c-0.02-0.086-0.033-0.172-0.056-0.258
		c-1.134-4.179-2.126-8.254-3.004-12.244C341.196,218.961,376,146.853,376,8c0-0.052-0.007-0.103-0.008-0.155
		c-0.003-0.166-0.012-0.332-0.025-0.498c-0.009-0.107-0.019-0.213-0.032-0.319c-0.018-0.147-0.041-0.294-0.067-0.44
		c-0.022-0.126-0.047-0.25-0.075-0.374c-0.028-0.121-0.059-0.241-0.093-0.361c-0.041-0.146-0.085-0.291-0.134-0.434
		c-0.034-0.098-0.07-0.196-0.107-0.294c-0.061-0.158-0.126-0.313-0.197-0.465c-0.021-0.046-0.037-0.094-0.059-0.14
		c-0.021-0.044-0.048-0.084-0.07-0.127c-0.074-0.146-0.152-0.288-0.234-0.428c-0.057-0.098-0.115-0.194-0.175-0.289
		c-0.075-0.116-0.153-0.228-0.233-0.339c-0.079-0.11-0.158-0.218-0.241-0.323c-0.071-0.089-0.145-0.174-0.22-0.26
		c-0.099-0.114-0.198-0.226-0.303-0.333c-0.072-0.074-0.148-0.145-0.223-0.217c-0.111-0.105-0.223-0.21-0.34-0.309
		c-0.083-0.071-0.17-0.137-0.257-0.204c-0.113-0.088-0.226-0.175-0.343-0.256c-0.104-0.073-0.212-0.139-0.319-0.207
		c-0.105-0.066-0.21-0.132-0.318-0.193c-0.126-0.072-0.257-0.136-0.387-0.201c-0.096-0.047-0.191-0.096-0.289-0.139
		c-0.141-0.063-0.286-0.119-0.432-0.174c-0.095-0.036-0.19-0.073-0.286-0.105c-0.143-0.048-0.288-0.089-0.435-0.129
		c-0.109-0.03-0.218-0.059-0.328-0.084c-0.131-0.029-0.263-0.054-0.396-0.077c-0.135-0.024-0.27-0.045-0.406-0.062
		c-0.112-0.013-0.224-0.023-0.336-0.032c-0.162-0.013-0.324-0.022-0.488-0.025C368.096,0.006,368.049,0,368,0
		c-0.051,0-0.1,0.007-0.151,0.008c-0.169,0.003-0.337,0.012-0.506,0.026c-0.104,0.009-0.208,0.019-0.31,0.031
		c-0.15,0.019-0.3,0.042-0.45,0.069c-0.122,0.022-0.244,0.046-0.365,0.073c-0.124,0.028-0.247,0.061-0.371,0.095
		c-0.144,0.04-0.286,0.083-0.426,0.131c-0.1,0.034-0.2,0.071-0.3,0.11c-0.157,0.061-0.31,0.125-0.462,0.195
		c-0.047,0.021-0.094,0.037-0.141,0.059c-0.091,0.044-0.181,0.095-0.272,0.139c-0.027,0.014-0.054,0.027-0.081,0.042
		c-33.978,16.636-63.074,62.556-81.523,98.222c-10.578,20.449-20.23,42.862-26.645,61.041
		c-6.414-18.179-16.067-40.592-26.645-61.041c-18.449-35.665-47.545-81.586-81.522-98.222c-0.027-0.015-0.054-0.027-0.081-0.042
		c-0.091-0.044-0.181-0.095-0.272-0.139c-0.046-0.022-0.093-0.038-0.14-0.059c-0.153-0.071-0.309-0.136-0.467-0.197
		c-0.097-0.037-0.193-0.073-0.291-0.106c-0.144-0.049-0.29-0.094-0.438-0.135c-0.119-0.033-0.238-0.064-0.357-0.092
		c-0.125-0.028-0.251-0.053-0.378-0.076c-0.146-0.026-0.291-0.049-0.438-0.067c-0.106-0.013-0.214-0.023-0.321-0.032
		c-0.166-0.014-0.331-0.022-0.496-0.025C144.103,0.007,144.052,0,144,0c-0.05,0-0.098,0.007-0.148,0.007
		c-0.161,0.003-0.322,0.012-0.482,0.024c-0.114,0.009-0.227,0.019-0.34,0.033c-0.136,0.017-0.271,0.038-0.406,0.062
		c-0.133,0.023-0.265,0.047-0.395,0.077c-0.111,0.025-0.221,0.055-0.331,0.085c-0.145,0.04-0.289,0.08-0.431,0.127
		c-0.099,0.033-0.195,0.07-0.292,0.107c-0.144,0.054-0.286,0.109-0.426,0.171c-0.1,0.045-0.198,0.094-0.296,0.143
		c-0.128,0.063-0.255,0.127-0.379,0.197c-0.111,0.062-0.218,0.13-0.326,0.198c-0.105,0.066-0.21,0.131-0.311,0.202
		c-0.12,0.083-0.235,0.172-0.35,0.262c-0.084,0.065-0.168,0.13-0.249,0.198c-0.119,0.1-0.233,0.207-0.346,0.314
		c-0.073,0.07-0.147,0.139-0.218,0.211c-0.106,0.108-0.206,0.222-0.306,0.337c-0.074,0.085-0.147,0.169-0.217,0.257
		c-0.084,0.105-0.164,0.214-0.243,0.325c-0.08,0.111-0.157,0.223-0.232,0.337c-0.061,0.095-0.119,0.192-0.176,0.291
		c-0.082,0.14-0.16,0.282-0.234,0.427c-0.022,0.043-0.048,0.083-0.07,0.127c-0.022,0.046-0.038,0.094-0.059,0.14
		c-0.07,0.153-0.136,0.308-0.197,0.465c-0.038,0.098-0.074,0.195-0.107,0.294c-0.049,0.143-0.093,0.288-0.134,0.434
		c-0.034,0.12-0.065,0.24-0.093,0.361c-0.028,0.124-0.053,0.249-0.075,0.374c-0.026,0.147-0.049,0.293-0.067,0.44
		c-0.013,0.106-0.023,0.212-0.032,0.319c-0.014,0.166-0.022,0.332-0.025,0.498C136.007,7.897,136,7.948,136,8
		c0,138.853,34.804,210.961,42.91,225.87c-0.878,3.99-1.87,8.064-3.004,12.244c-0.023,0.086-0.036,0.172-0.056,0.259
		c-0.021,0.087-0.048,0.17-0.066,0.259c-0.667,3.314-3.545,10.153-6.878,18.073C157.406,292.03,136,342.896,136,408
		c0,31.862,12.378,58.638,35.796,77.435C193.139,502.565,223.043,512,256,512s62.861-9.435,84.204-26.565
		C363.622,466.638,376,439.862,376,408c0-65.104-21.406-115.97-32.907-143.296C339.76,256.784,336.882,249.945,336.215,246.631z
		 M338.888,174.688c-3.534,12.151-7.083,22.21-10.235,30.215c-3.934-47.467,10.589-81.07,24.747-113.781
		c0.86-1.988,1.716-3.967,2.566-5.941C351.764,123.912,344.96,153.813,338.888,174.688z M156.011,85.126
		c0.857,1.993,1.721,3.99,2.589,5.996c14.155,32.702,28.673,66.296,24.751,113.742C174.41,182.081,162.228,142.507,156.011,85.126z
		 M256,488.684c2.609,2.61,5.727,4.977,9.164,7.024c-3.021,0.18-6.072,0.292-9.164,0.292s-6.144-0.111-9.164-0.292
		C250.273,493.661,253.391,491.294,256,488.684z M330.188,472.957c-1.043,0.837-2.119,1.646-3.212,2.441
		c0.68-3.511,1.023-7.313,1.023-11.398c0-4.418-3.582-8-8-8s-8,3.582-8,8c0,8.764-1.969,15.181-5.852,19.074
		c-3.102,3.109-7.526,4.686-13.152,4.686C278.019,487.76,264,476.923,264,472v-11.719l20.438-13.625
		c3.676-2.451,4.67-7.417,2.219-11.094c-2.451-3.677-7.417-4.669-11.094-2.219L256,446.385l-19.563-13.042
		c-3.675-2.452-8.643-1.458-11.094,2.219c-2.451,3.676-1.458,8.643,2.219,11.094L248,460.281V472c0,1.647-2.199,5.507-8.259,9.389
		c-6.228,3.989-13.98,6.371-20.738,6.371c-5.625,0-10.05-1.577-13.152-4.686C201.969,479.181,200,472.764,200,464
		c0-4.418-3.582-8-8-8s-8,3.582-8,8c0,4.086,0.343,7.887,1.023,11.398c-1.092-0.795-2.168-1.604-3.212-2.441
		C162.309,457.303,152,434.841,152,408c0-61.875,20.591-110.804,31.654-137.09c3.881-9.221,6.703-15.935,7.745-20.797
		c20.56-75.989,0.015-123.461-18.115-165.347c-8.915-20.597-17.426-40.265-20.277-61.764c20.182,15.291,41.813,44.255,62.138,83.548
		c17.625,34.072,28.378,64.392,31.724,78.523c-6.594,1.48-13.152,4.565-19.598,9.257c-3.572,2.601-4.359,7.604-1.759,11.176
		c2.601,3.572,7.604,4.36,11.176,1.759C243.311,202.445,249.809,200,256,200s12.689,2.445,19.313,7.267
		c1.421,1.035,3.069,1.533,4.702,1.533c2.471,0,4.908-1.142,6.474-3.292c2.6-3.572,1.813-8.576-1.759-11.176
		c-6.446-4.692-13.005-7.777-19.598-9.257c3.346-14.132,14.1-44.451,31.724-78.523c20.325-39.293,41.956-68.257,62.138-83.548
		c-2.851,21.499-11.362,41.167-20.277,61.764c-18.13,41.886-38.675,89.358-18.115,165.347c1.041,4.862,3.864,11.575,7.745,20.797
		C339.409,297.196,360,346.125,360,408C360,434.841,349.691,457.303,330.188,472.957z"/>
	<path d="M188,304c-7.402,0-12,7.664-12,20s4.598,20,12,20s12-7.664,12-20S195.402,304,188,304z"/>
	<path d="M312,324c0,12.336,4.598,20,12,20s12-7.664,12-20s-4.598-20-12-20S312,311.664,312,324z"/>
</g>
<g>
</g>
<g>
</g>
<g>
</g>
<g>
</g>
<g>
</g>
<g>
</g>
<g>
</g>
<g>
</g>
<g>
</g>
<g>
</g>
<g>
</g>
<g>
</g>
<g>
</g>
<g>
</g>
<g>
</g>
</svg>
