<?xml version="1.0" encoding="iso-8859-1"?>
<!-- Generator: Adobe Illustrator 17.1.0, SVG Export Plug-In . SVG Version: 6.00 Build 0)  -->
<!DOCTYPE svg PUBLIC "-//W3C//DTD SVG 1.1//EN" "http://www.w3.org/Graphics/SVG/1.1/DTD/svg11.dtd">
<svg version="1.1" id="Capa_1" xmlns="http://www.w3.org/2000/svg" xmlns:xlink="http://www.w3.org/1999/xlink" x="0px" y="0px"
	 viewBox="0 0 512.003 512.003" style="enable-background:new 0 0 512.003 512.003;" xml:space="preserve">
<g>
	<path d="M128.002,160.002c-22.056,0-40,17.944-40,40s17.944,40,40,40s40-17.944,40-40S150.058,160.002,128.002,160.002z
		 M128.002,224.002c-13.233,0-24-10.767-24-24s10.767-24,24-24s24,10.767,24,24S141.235,224.002,128.002,224.002z"/>
	<path d="M424.002,200.002c0-22.056-17.944-40-40-40s-40,17.944-40,40s17.944,40,40,40S424.002,222.058,424.002,200.002z
		 M384.002,224.002c-13.233,0-24-10.767-24-24s10.767-24,24-24s24,10.767,24,24S397.235,224.002,384.002,224.002z"/>
	<path d="M505.8,312.207l-2.713-0.626c5.912-20.755,8.914-42.032,8.914-63.579c0-63.791-26.748-122.752-75.316-166.022
		C388.93,39.433,324.762,16.002,256.002,16.002S123.073,39.433,75.318,81.98C26.749,125.25,0.002,184.211,0.002,248.002
		c0,21.546,3.002,42.823,8.914,63.579l-2.713,0.626c-4.305,0.993-6.99,5.289-5.996,9.594c0.854,3.7,4.146,6.203,7.788,6.203
		c0.596,0,1.201-0.067,1.806-0.207l4.028-0.929c1.92,5.345,4.024,10.652,6.34,15.913c0.925,2.101,1.886,4.184,2.867,6.255
		l-9.697,3.422c-4.167,1.471-6.352,6.04-4.881,10.207c1.16,3.286,4.247,5.339,7.544,5.339c0.883,0,1.782-0.147,2.663-0.458
		l11.752-4.147c4.81,8.659,10.135,17.029,15.959,25.089l-25.813,12.292c-3.989,1.899-5.683,6.673-3.783,10.662
		c1.371,2.879,4.238,4.563,7.228,4.563c1.153,0,2.324-0.25,3.434-0.779l28.949-13.785c5.815,7.046,12.026,13.833,18.649,20.325
		c48.847,47.873,113.114,74.237,180.962,74.237s132.115-26.365,180.962-74.237c6.624-6.492,12.834-13.279,18.649-20.325
		l28.949,13.785c1.11,0.529,2.281,0.779,3.434,0.779c2.989,0,5.857-1.684,7.228-4.563c1.9-3.989,0.206-8.763-3.783-10.662
		l-25.813-12.292c5.824-8.06,11.149-16.43,15.959-25.089l11.752,4.147c0.881,0.311,1.779,0.458,2.663,0.458
		c3.297,0,6.384-2.054,7.544-5.339c1.471-4.167-0.715-8.736-4.881-10.207l-9.697-3.422c0.981-2.072,1.942-4.154,2.867-6.255
		c2.316-5.26,4.42-10.568,6.34-15.913l4.028,0.929c0.605,0.14,1.21,0.207,1.806,0.207c3.641,0,6.934-2.503,7.788-6.203
		C512.79,317.495,510.106,313.2,505.8,312.207z M425.765,410.337c-45.839,44.924-106.128,69.665-169.763,69.665
		s-123.924-24.741-169.763-69.665c-5.249-5.145-10.223-10.485-14.931-16.001l47.131-22.443c0.081,0.941,0.323,1.883,0.757,2.784
		c10.962,22.736,25.923,33.326,47.083,33.326c18.364,0,31.832-12.213,44.856-24.024c13.597-12.33,26.44-23.976,44.867-23.976
		s31.27,11.646,44.867,23.976c13.025,11.811,26.493,24.024,44.856,24.024c21.16,0,36.121-10.589,47.083-33.326
		c0.434-0.901,0.676-1.843,0.757-2.784l47.131,22.443C435.988,399.852,431.014,405.192,425.765,410.337z M263.442,279.869
		c-2.167,3.035-4.81,4.706-7.44,4.706c-2.63,0-5.272-1.671-7.44-4.706l-12.101-16.94c-2.411-3.375-2.317-5.252-2.198-5.482
		c0.118-0.229,1.591-1.397,5.739-1.397h32c4.147,0,5.621,1.168,5.739,1.397c0.119,0.23,0.212,2.107-2.198,5.482L263.442,279.869z
		 M477.191,336.333c-1.088,2.472-2.233,4.915-3.404,7.344l-111.122-39.22c-4.166-1.47-8.736,0.715-10.207,4.881
		s0.715,8.736,4.881,10.207l108.926,38.444c-4.63,8.113-9.749,15.952-15.342,23.495l-127.482-60.706
		c-3.988-1.898-8.763-0.206-10.662,3.783c-1.9,3.989-0.206,8.763,3.783,10.662l63.484,30.231c-0.661,0.639-1.228,1.396-1.651,2.272
		c-10.313,21.391-22.303,24.274-32.671,24.274c-12.189,0-22.347-9.211-34.108-19.876c-12.901-11.699-27.335-24.774-47.615-27.571
		v-45.474c4.765-1.807,9.095-5.202,12.459-9.912l12.101-16.94c5.46-7.644,6.701-15.7,3.406-22.104
		c-3.295-6.403-10.573-10.076-19.966-10.076h-32c-9.393,0-16.67,3.673-19.966,10.076c-3.295,6.404-2.054,14.46,3.406,22.104
		l12.101,16.94c3.365,4.71,7.694,8.105,12.459,9.912v45.474c-20.279,2.797-34.714,15.872-47.615,27.571
		c-11.762,10.666-21.919,19.876-34.108,19.876c-10.368,0-22.357-2.884-32.671-24.274c-0.423-0.876-0.99-1.633-1.651-2.272
		l63.484-30.231c3.989-1.899,5.683-6.673,3.783-10.662c-1.899-3.989-6.674-5.683-10.662-3.783L61.08,381.485
		c-5.593-7.543-10.711-15.381-15.342-23.495l108.926-38.444c4.167-1.471,6.352-6.04,4.881-10.207
		c-1.47-4.166-6.04-6.352-10.207-4.881l-111.122,39.22c-1.171-2.429-2.316-4.872-3.404-7.344c-1.907-4.332-3.653-8.699-5.272-13.092
		l84.26-19.445c4.305-0.993,6.99-5.289,5.996-9.594s-5.292-6.991-9.594-5.996l-85.678,19.771
		c-5.655-19.583-8.523-39.656-8.523-59.977c0-59.164,24.845-113.883,69.959-154.076c44.822-39.932,105.21-61.924,170.041-61.924
		s125.219,21.992,170.041,61.924c45.114,40.193,69.959,94.912,69.959,154.076c0,20.32-2.868,40.394-8.523,59.977L401.8,288.207
		c-4.306-0.993-8.601,1.69-9.594,5.996c-0.994,4.305,1.691,8.601,5.996,9.594l84.26,19.445
		C480.843,327.634,479.098,332.001,477.191,336.333z"/>
	<path d="M284.731,385.374c-8.369-5.656-16.806-8.683-25.726-9.227c-0.486-0.092-0.986-0.145-1.499-0.145h-1.41
		c-0.513,0-1.013,0.053-1.498,0.145c-8.919,0.544-17.357,3.57-25.726,9.227c-3.661,2.474-4.623,7.447-2.149,11.107
		c2.475,3.661,7.447,4.623,11.108,2.148c6.408-4.331,12.44-6.42,18.97-6.567c6.53,0.147,12.563,2.237,18.971,6.567
		c1.373,0.929,2.931,1.373,4.472,1.373c2.568,0,5.09-1.234,6.636-3.521C289.354,392.82,288.392,387.847,284.731,385.374z"/>
</g>
<g>
</g>
<g>
</g>
<g>
</g>
<g>
</g>
<g>
</g>
<g>
</g>
<g>
</g>
<g>
</g>
<g>
</g>
<g>
</g>
<g>
</g>
<g>
</g>
<g>
</g>
<g>
</g>
<g>
</g>
</svg>
