<?xml version="1.0" encoding="iso-8859-1"?>
<!-- Generator: Adobe Illustrator 17.1.0, SVG Export Plug-In . SVG Version: 6.00 Build 0)  -->
<!DOCTYPE svg PUBLIC "-//W3C//DTD SVG 1.1//EN" "http://www.w3.org/Graphics/SVG/1.1/DTD/svg11.dtd">
<svg version="1.1" id="Capa_1" xmlns="http://www.w3.org/2000/svg" xmlns:xlink="http://www.w3.org/1999/xlink" x="0px" y="0px"
	 viewBox="0 0 512.105 512.105" style="enable-background:new 0 0 512.105 512.105;" xml:space="preserve">
<g>
	<path d="M478.272,230.292c13.242-10.472,42.699-38.826,31.24-76.679c-3.18-10.504-18.406-31.898-84.653-57.159
		c-31.639-12.064-66.873-21.401-96.667-25.617c-32.49-4.598-56.714-3.236-72.14,4.034c-15.426-7.269-39.649-8.631-72.139-4.034
		c-29.794,4.216-65.028,13.553-96.667,25.617c-66.247,25.26-81.473,46.654-84.653,57.159c-11.458,37.853,17.998,66.207,31.24,76.679
		c-3.517,7.635-6.478,15.273-8.763,22.708c-9.044,29.431-7.764,55.354,3.701,74.968c10.229,17.498,32.832,34.237,67.183,49.753
		c24.956,11.272,46.772,17.629,47.688,17.895c0.742,0.215,1.49,0.317,2.226,0.317c1.206,0,2.371-0.291,3.43-0.796
		c2.976,5.877,7.16,10.937,12.47,14.908c7.86,5.879,17.994,9.417,30.326,10.633c0.252,2.656,1.818,5.128,4.38,6.408
		c23.929,11.964,41.19,16.845,59.578,16.845s35.648-4.88,59.578-16.845c2.562-1.281,4.128-3.753,4.38-6.409
		c12.332-1.216,22.468-4.754,30.326-10.632c5.31-3.971,9.494-9.031,12.47-14.907c1.059,0.505,2.225,0.796,3.43,0.796
		c0.736,0,1.484-0.102,2.226-0.317c0.917-0.265,22.732-6.622,47.688-17.895c34.351-15.516,56.955-32.256,67.183-49.753
		c11.465-19.614,12.745-45.537,3.701-74.968C484.75,245.565,481.789,237.927,478.272,230.292z M160.052,371.931
		c0-10.128,2.92-17.666,8.929-23.043c7.947-7.113,20.365-9.512,31.244-9.413c-0.169,2.647-0.174,5.28-0.173,7.819v0.637
		c0,12.022,4.803,22.045,13.889,28.985c8.131,6.21,19.594,9.809,34.124,10.753c-0.003,0.087-0.013,0.173-0.013,0.261v9.952
		c-45.666,12.513-66.903,6.677-76.701-0.65C162.013,390.247,160.052,379.618,160.052,371.931z M296.052,347.288v0.643
		c0,15.925-13.458,24-40,24s-40-8.075-40-24v-0.643c-0.003-8.354,0.157-13.233,3.486-16.378c4.901-4.63,17.187-6.979,36.514-6.979
		s31.612,2.348,36.514,6.979C295.896,334.055,296.056,338.934,296.052,347.288z M219.536,420.018
		c11.043-1.362,23.224-3.949,36.516-7.763c13.293,3.814,25.472,6.402,36.515,7.763c-13.704,5.529-24.975,7.912-36.515,7.912
		C244.512,427.931,233.241,425.548,219.536,420.018z M340.754,397.232c-9.798,7.327-31.037,13.163-76.701,0.65v-9.952
		c0-0.086-0.01-0.169-0.013-0.255c43.137-2.801,48.013-28.385,48.013-39.745v-0.637c0.001-2.54-0.004-5.172-0.173-7.819
		c10.88-0.1,23.297,2.299,31.244,9.413c6.008,5.377,8.929,12.915,8.929,23.043C352.052,379.618,350.092,390.247,340.754,397.232z
		 M469.521,319.894c-8.381,14.338-29.052,29.265-59.776,43.165c-18.209,8.238-35.041,13.849-42.155,16.092
		c0.295-2.344,0.462-4.748,0.462-7.219c0-14.733-4.797-26.498-14.258-34.966c-14.823-13.267-36.172-13.926-46.576-13.321
		c-1.003-1.517-2.2-2.981-3.665-4.365c-8.307-7.848-22.957-11.348-47.501-11.348s-39.194,3.5-47.501,11.348
		c-1.465,1.384-2.662,2.848-3.665,4.365c-10.404-0.605-31.753,0.054-46.576,13.321c-9.461,8.468-14.258,20.232-14.258,34.966
		c0,2.472,0.167,4.875,0.462,7.219c-7.113-2.243-23.946-7.854-42.155-16.092c-30.724-13.9-51.395-28.826-59.776-43.165
		c-11.556-19.77-7.586-44.733-2.221-62.193c2.455-7.99,5.77-16.247,9.768-24.467c0.268-0.303,0.523-0.623,0.749-0.974
		c0.553-0.859,0.913-1.786,1.105-2.73c6.54-12.768,14.677-25.335,23.801-36.55c0.93-1.143,1.844-2.26,2.739-3.354
		c14.978-18.31,27.914-34.122,14.677-54.111c-2.439-3.684-7.402-4.693-11.087-2.253c-3.684,2.439-4.692,7.403-2.253,11.087
		c6.063,9.157,2.586,15.213-13.721,35.146c-0.904,1.105-1.827,2.233-2.766,3.388c-8.237,10.124-15.731,21.298-22.107,32.785
		c-11.354-9.673-31.317-31.141-23.362-57.418c3.105-10.259,27.513-28.722,75.04-46.845c30.572-11.657,64.545-20.669,93.208-24.725
		c27.8-3.934,49.472-3.156,61.898,2.134v11.118c0,4.418,3.582,8,8,8s8-3.582,8-8V88.813c12.426-5.29,34.098-6.067,61.898-2.134
		c28.664,4.056,62.637,13.068,93.208,24.725c47.527,18.123,71.935,36.586,75.04,46.845c7.915,26.149-12.036,47.681-23.376,57.394
		c-6.374-11.478-13.863-22.644-22.094-32.76c-0.939-1.154-1.862-2.283-2.766-3.388c-16.307-19.934-19.785-25.99-13.721-35.146
		c2.439-3.684,1.431-8.647-2.253-11.087c-3.683-2.44-8.648-1.431-11.087,2.253c-13.237,19.989-0.301,35.802,14.677,54.111
		c0.895,1.094,1.81,2.211,2.739,3.354c9.123,11.215,17.261,23.782,23.801,36.55c0.193,0.945,0.552,1.871,1.105,2.73
		c0.226,0.351,0.481,0.671,0.749,0.974c3.998,8.22,7.313,16.477,9.768,24.466C477.107,275.161,481.077,300.124,469.521,319.894z"/>
	<path d="M144.052,251.931c-8.822,0-16,7.178-16,16s7.178,16,16,16s16-7.178,16-16S152.875,251.931,144.052,251.931z"/>
	<path d="M368.052,251.931c-8.822,0-16,7.178-16,16s7.178,16,16,16s16-7.178,16-16S376.875,251.931,368.052,251.931z"/>
	<path d="M256.052,123.931c-4.418,0-8,3.582-8,8v96c0,4.418,3.582,8,8,8s8-3.582,8-8v-96
		C264.052,127.513,260.471,123.931,256.052,123.931z"/>
</g>
<g>
</g>
<g>
</g>
<g>
</g>
<g>
</g>
<g>
</g>
<g>
</g>
<g>
</g>
<g>
</g>
<g>
</g>
<g>
</g>
<g>
</g>
<g>
</g>
<g>
</g>
<g>
</g>
<g>
</g>
</svg>
