<?xml version="1.0" encoding="iso-8859-1"?>
<!-- Generator: Adobe Illustrator 17.1.0, SVG Export Plug-In . SVG Version: 6.00 Build 0)  -->
<!DOCTYPE svg PUBLIC "-//W3C//DTD SVG 1.1//EN" "http://www.w3.org/Graphics/SVG/1.1/DTD/svg11.dtd">
<svg version="1.1" id="Capa_1" xmlns="http://www.w3.org/2000/svg" xmlns:xlink="http://www.w3.org/1999/xlink" x="0px" y="0px"
	 viewBox="0 0 512.001 512.001" style="enable-background:new 0 0 512.001 512.001;" xml:space="preserve">
<g>
	<path d="M187.976,328.001c-7.402,0-12,7.664-12,20s4.598,20,12,20s12-7.664,12-20S195.377,328.001,187.976,328.001z"/>
	<path d="M311.976,348.001c0,12.336,4.598,20,12,20s12-7.664,12-20s-4.598-20-12-20S311.976,335.664,311.976,348.001z"/>
	<path d="M300.517,425.397c-3.647-2.494-8.625-1.559-11.119,2.089c-2.494,3.647-1.559,8.625,2.089,11.119
		c1.686,1.153,4.514,3.603,4.514,7.062c0,5.505-7.477,10.334-16,10.334s-16-4.829-16-10.334v-13.051
		c2.786-1.079,5.401-2.727,7.646-4.972l5.986-5.986c3.125-3.124,3.125-8.189,0-11.313c-3.124-3.124-8.189-3.124-11.313,0
		l-5.986,5.986c-2.402,2.403-6.311,2.403-8.715,0l-5.985-5.986c-3.124-3.124-8.189-3.124-11.314,0
		c-3.124,3.124-3.125,8.189,0,11.314l5.986,5.986c2.258,2.259,4.891,3.912,7.696,4.99v13.033c0,5.505-7.477,10.334-16,10.334
		s-16-4.829-16-10.334c0-3.458,2.829-5.909,4.514-7.062c3.647-2.494,4.583-7.472,2.089-11.119
		c-2.494-3.647-7.472-4.582-11.119-2.089c-7.298,4.99-11.484,12.378-11.484,20.27c0,14.521,14.355,26.334,32,26.334
		c0,2.047,0.781,4.095,2.343,5.657l3.797,3.797c4.924,4.924,11.392,7.386,17.86,7.386c6.468,0,12.936-2.462,17.86-7.386l3.797-3.797
		c1.562-1.562,2.343-3.609,2.343-5.657c17.645,0,32-11.813,32-26.334C312,437.775,307.815,430.387,300.517,425.397z
		 M249.454,470.141l-1.609-1.609c3.074-1.448,5.828-3.302,8.156-5.474c2.328,2.173,5.082,4.026,8.156,5.474l-1.609,1.609
		C258.937,473.75,253.064,473.75,249.454,470.141z"/>
	<path d="M421.638,42.324c-2.437-2.419-6.144-3.014-9.215-1.479l-15.734,7.867l11.004-38.514c1.039-3.635-0.61-7.501-3.952-9.27
		c-3.341-1.768-7.465-0.954-9.886,1.95L363.94,38.776l-4.179-16.716c-0.76-3.04-3.225-5.356-6.306-5.926
		c-3.085-0.569-6.212,0.712-8.009,3.279c-0.595,0.85-14.737,21.251-28.929,58.757c-12.301,32.51-26.828,84.343-28.374,150.302
		c-10.723-3.492-21.48-5.263-32.105-5.269c-0.012,0-0.026,0-0.038,0c-0.013,0-0.027,0-0.038,0
		c-10.625,0.007-21.382,1.777-32.105,5.269c-1.547-65.959-16.073-117.792-28.374-150.302
		c-14.191-37.505-28.333-57.907-28.929-58.757c-1.797-2.567-4.93-3.849-8.009-3.279c-3.081,0.57-5.546,2.886-6.306,5.926
		l-4.179,16.716L118.146,2.879c-2.419-2.904-6.542-3.719-9.886-1.95c-3.342,1.768-4.991,5.634-3.952,9.27l11.004,38.514
		l-15.734-7.867c-3.071-1.536-6.779-0.94-9.215,1.479c-2.436,2.419-3.057,6.123-1.543,9.204
		c0.419,0.853,41.812,85.349,55.219,133.705c-6.922,3.549-12.5,10.63-15.646,20.291c-5.069,15.568,0.795,35.333,7.002,56.259
		c6.52,21.977,13.262,44.702,8.801,64.456c-0.064,0.286-0.113,0.571-0.146,0.855c-8.469,24.322-16.076,51.171-16.076,80.907
		c0,31.97,13.261,58.803,38.351,77.599c22.727,17.025,54.564,26.401,89.699,26.401c35.085,0,66.923-9.376,89.649-26.401
		c25.089-18.795,38.351-45.628,38.351-77.599c0-29.736-7.607-56.585-16.076-80.907c-0.033-0.284-0.081-0.569-0.146-0.855
		c-4.461-19.753,2.281-42.479,8.801-64.456c6.208-20.926,12.071-40.691,7.002-56.259c-3.145-9.661-8.723-16.742-15.646-20.291
		c13.402-48.34,54.8-132.852,55.219-133.705C424.694,48.447,424.074,44.743,421.638,42.324z M143.607,210.477
		c2.733-8.395,7.216-11.598,10.5-11.797c0.117-0.007,0.233-0.01,0.349-0.01c2.575,0,4.908,1.736,6.292,4.708
		c9.629,20.678,9.099,40.801,4.107,61.83c-0.209,0.842-0.415,1.691-0.63,2.515c-0.022,0.086-0.034,0.172-0.053,0.258
		c-1.556,6.116-3.465,12.313-5.59,18.627c-2.121-10.071-5.06-19.98-7.847-29.375C145.255,238.761,140.08,221.313,143.607,210.477z
		 M361.266,257.232c-2.787,9.395-5.727,19.304-7.847,29.375c-9.781-29.067-15.006-55.653-2.166-83.229
		c1.384-2.972,3.717-4.708,6.292-4.708c0.116,0,0.232,0.003,0.349,0.01c3.284,0.199,7.766,3.403,10.5,11.797
		C371.921,221.313,366.746,238.761,361.266,257.232z M352.282,181.896c-0.133,0.489-0.213,0.979-0.252,1.467
		c-5.352,1.387-10.044,4.807-13.323,9.768c-0.029-27.474,3.595-55.407,12.685-78.162c1.639-4.103-0.358-8.758-4.461-10.397
		c-4.102-1.639-8.758,0.358-10.397,4.461c-9.325,23.342-14.1,53.151-13.807,86.206c0.232,26.263,3.705,54.151,9.527,76.514
		c0.035,0.136,0.096,0.258,0.138,0.391c3.55,13.866,8.652,27.778,13.866,41.972c10.702,29.13,21.768,59.251,21.768,93.885
		c0,26.733-11.046,49.138-31.943,64.793c-19.977,14.965-48.408,23.207-80.106,23.207c-31.649,0-60.08-8.242-80.057-23.207
		c-20.897-15.655-31.943-38.061-31.943-64.793c0-34.633,11.066-64.755,21.768-93.885c5.263-14.327,10.412-28.366,13.965-42.361
		c0,0,0-0.001,0.001-0.001c0.003-0.01,0.005-0.021,0.008-0.031c0.175-0.688,0.349-1.376,0.516-2.063
		c5.503-21.998,8.779-48.964,9.004-74.42c0.292-33.055-4.482-62.864-13.807-86.206c-1.64-4.104-6.296-6.101-10.397-4.461
		c-4.103,1.639-6.101,6.294-4.461,10.397c9.085,22.74,12.71,50.653,12.686,78.11c-3.278-4.93-7.956-8.33-13.286-9.713
		c-0.039-0.488-0.119-0.98-0.253-1.469c-9.566-35.076-32.948-87.375-46.476-116.33l11.18,5.59c2.838,1.419,6.247,1.027,8.687-0.999
		c2.441-2.026,3.455-5.304,2.583-8.354l-5.598-19.593l15.76,18.912c1.928,2.314,4.994,3.349,7.929,2.677
		c2.937-0.671,5.247-2.936,5.978-5.858l3.255-13.02c15.649,29.518,44.984,97.831,44.984,195.079c0,3.94,2.85,7.207,6.6,7.87
		c0.004,0.001,0.008,0.001,0.012,0.002c0.229,0.04,0.459,0.073,0.694,0.093c0.143,0.013,0.288,0.016,0.432,0.022
		c0.088,0.003,0.174,0.013,0.263,0.013c0.014,0,0.028-0.002,0.042-0.002c1.072,0.001,2.161-0.211,3.206-0.668
		c12.323-5.39,24.689-8.125,36.752-8.128c12.063,0.003,24.429,2.738,36.752,8.128c1.044,0.457,2.131,0.672,3.202,0.672
		c0.012,0,0.023-0.002,0.035-0.002c0.004,0,0.008,0,0.011,0c0.359,0,0.71-0.032,1.057-0.078c0.032-0.005,0.063-0.01,0.095-0.015
		c3.871-0.56,6.848-3.881,6.848-7.908c0-68.741,14.822-122.541,27.256-155.57c6.341-16.844,12.723-30.148,17.72-39.54l3.263,13.05
		c0.73,2.922,3.041,5.187,5.978,5.858c2.937,0.672,6.001-0.363,7.929-2.677l15.76-18.912l-5.598,19.593
		c-0.872,3.05,0.142,6.328,2.583,8.354c2.441,2.026,5.849,2.418,8.687,0.999l11.18-5.59
		C385.23,94.52,361.849,146.82,352.282,181.896z"/>
</g>
<g>
</g>
<g>
</g>
<g>
</g>
<g>
</g>
<g>
</g>
<g>
</g>
<g>
</g>
<g>
</g>
<g>
</g>
<g>
</g>
<g>
</g>
<g>
</g>
<g>
</g>
<g>
</g>
<g>
</g>
</svg>
