<?xml version="1.0" encoding="iso-8859-1"?>
<!-- Generator: Adobe Illustrator 17.1.0, SVG Export Plug-In . SVG Version: 6.00 Build 0)  -->
<!DOCTYPE svg PUBLIC "-//W3C//DTD SVG 1.1//EN" "http://www.w3.org/Graphics/SVG/1.1/DTD/svg11.dtd">
<svg version="1.1" id="Capa_1" xmlns="http://www.w3.org/2000/svg" xmlns:xlink="http://www.w3.org/1999/xlink" x="0px" y="0px"
	 viewBox="0 0 512 512" style="enable-background:new 0 0 512 512;" xml:space="preserve">
<g>
	<path d="M156.005,144c-7.402,0-12,7.663-12,20s4.598,20,12,20s12-7.663,12-20S163.407,144,156.005,144z"/>
	<path d="M344.005,164c0,12.337,4.598,20,12,20s12-7.663,12-20s-4.598-20-12-20S344.005,151.663,344.005,164z"/>
	<path d="M413.205,130.773c-10.859-39.62-27.574-75.71-38.509-92.477C358.124,12.887,318.191,0.002,256.006,0h-0.001
		c0,0-0.005,0.004-0.011,0c-62.185,0.002-102.118,12.887-118.689,38.297c-10.935,16.767-27.65,52.856-38.509,92.477
		c-9.473,34.563-17.54,83.491-2.173,120.308c26.215,62.807,56.933,80.073,73.435,89.349c3.292,1.851,7.364,4.14,8.294,5.33
		c0.267,1.187,0.79,2.253,1.496,3.157c2.252,21.351,4.157,50.38,4.157,91.083c0,35.953,13.724,58.563,40.874,67.555
		c0.309,0.118,0.625,0.225,0.954,0.306c0.032,0.008,0.061,0.01,0.093,0.017c8.692,2.734,18.71,4.122,30.078,4.122
		c11.369,0,21.387-1.388,30.079-4.123c0.031-0.008,0.06-0.009,0.091-0.017c0.329-0.081,0.644-0.187,0.953-0.305
		c27.152-8.991,40.876-31.601,40.876-67.555c0-40.718,1.906-69.754,4.16-91.107c0.698-0.9,1.219-1.955,1.484-3.133
		c0.93-1.19,5.002-3.479,8.294-5.33c16.502-9.276,47.22-26.542,73.435-89.349C430.745,214.265,422.678,165.336,413.205,130.773z
		 M204.993,197.065c-0.891-16.374-3.629-31.708-7.496-43.176C215.149,160.085,238.721,167,256.005,167
		c17.284,0,40.856-6.915,58.507-13.111c-3.867,11.469-6.605,26.802-7.496,43.176c-0.239,4.385-0.383,9.78-0.239,15.839
		c-7.8-8.331-16.339-13.577-23.632-12.485c-2.613,0.391-11.141,2.672-11.141,15.618c0,17.823,4.413,35.85,8.681,53.282
		c4.942,20.187,9.678,39.53,6.578,55.546C278.412,316.369,264.807,312,256.005,312s-22.407,4.369-31.259,12.865
		c-3.1-16.016,1.636-35.359,6.578-55.546c4.268-17.433,8.681-35.459,8.681-53.282c0-12.946-8.527-15.228-11.141-15.618
		c-7.295-1.085-15.833,4.16-23.633,12.489C205.376,206.848,205.232,201.452,204.993,197.065z M256.005,480.125
		c2.64,0,6.923,7.736,9.224,11.893c0.611,1.103,1.258,2.265,1.942,3.438c-3.498,0.357-7.209,0.544-11.165,0.544
		c-3.956,0-7.667-0.188-11.166-0.544c0.684-1.173,1.331-2.335,1.942-3.438C249.082,487.861,253.365,480.125,256.005,480.125z
		 M298.188,483.005c-3.878,3.758-8.645,6.68-14.349,8.798c-1.353-1.656-3.263-5.096-4.612-7.534
		c-4.706-8.501-11.151-20.144-23.222-20.144s-18.516,11.643-23.222,20.144c-1.35,2.438-3.26,5.878-4.612,7.534
		c-5.704-2.117-10.47-5.04-14.349-8.797c-9.297-9.009-13.817-23.076-13.817-43.005c0-71.112-5.731-107.405-9.156-129.089
		c-2.908-18.417-4.002-25.361,0.427-35.569c3.552-6.957,6.245-14.264,8.271-21.584c5.567-17.958,17.873-31.873,24.444-36.147
		c-0.262,15.443-4.299,31.937-8.208,47.903c-7.109,29.037-14.46,59.063,1.581,82.946c1.514,2.253,4.026,3.54,6.642,3.54
		c0.776,0,1.561-0.113,2.331-0.349c3.367-1.025,5.668-4.132,5.668-7.652c0-9.083,15.996-16,24-16s24,6.917,24,16
		c0,3.521,2.301,6.627,5.668,7.652c0.771,0.235,1.555,0.349,2.331,0.349c2.615,0,5.128-1.287,6.642-3.541
		c16.04-23.882,8.689-53.908,1.581-82.945c-3.909-15.967-7.946-32.46-8.208-47.902c6.572,4.274,18.881,18.194,24.447,36.156
		c2.026,7.319,4.719,14.624,8.271,21.58c4.426,10.206,3.332,17.15,0.425,35.563c-3.424,21.684-9.156,57.977-9.156,129.089
		C312.005,459.929,307.485,473.996,298.188,483.005z M400.612,244.919c-23.623,56.596-49.61,72.047-65.569,81.034
		c0.681-4.685,1.336-8.841,1.921-12.547c3.036-19.226,4.709-29.886-1.499-44.29c-0.012-0.031-0.026-0.062-0.038-0.093
		c-0.034-0.077-0.06-0.151-0.094-0.229c-0.032-0.074-0.073-0.142-0.107-0.215c-0.038-0.081-0.069-0.163-0.11-0.243
		c-20.87-40.512-11.176-105.584-0.712-119.536c0.698-0.931,1.157-1.966,1.398-3.032c1.908-0.79,3.098-1.304,3.388-1.43
		c4.053-1.76,5.911-6.471,4.152-10.522c-1.759-4.054-6.471-5.91-10.523-4.154C332.328,129.875,283.323,151,256.005,151
		c-27.319,0-76.323-21.125-76.815-21.339c-4.051-1.759-8.764,0.102-10.523,4.153c-1.759,4.053,0.099,8.764,4.151,10.523
		c0.29,0.126,1.481,0.64,3.389,1.43c0.241,1.066,0.699,2.101,1.398,3.032c10.464,13.952,20.158,79.024-0.712,119.536
		c-0.039,0.077-0.069,0.156-0.106,0.233c-0.036,0.076-0.078,0.147-0.112,0.224c-0.036,0.081-0.063,0.159-0.098,0.24
		c-0.01,0.026-0.022,0.052-0.032,0.078c-6.21,14.407-4.537,25.068-1.501,44.297c0.586,3.708,1.241,7.865,1.922,12.552
		c-15.958-8.987-41.951-24.431-65.579-81.04c-24.602-58.943,18.16-165.44,39.318-197.882C163.948,26.732,200.36,16,255.995,16
		c55.645,0,92.057,10.732,105.299,31.037C382.452,79.479,425.214,185.976,400.612,244.919z"/>
</g>
<g>
</g>
<g>
</g>
<g>
</g>
<g>
</g>
<g>
</g>
<g>
</g>
<g>
</g>
<g>
</g>
<g>
</g>
<g>
</g>
<g>
</g>
<g>
</g>
<g>
</g>
<g>
</g>
<g>
</g>
</svg>
