<?xml version="1.0" encoding="iso-8859-1"?>
<!-- Generator: Adobe Illustrator 17.1.0, SVG Export Plug-In . SVG Version: 6.00 Build 0)  -->
<!DOCTYPE svg PUBLIC "-//W3C//DTD SVG 1.1//EN" "http://www.w3.org/Graphics/SVG/1.1/DTD/svg11.dtd">
<svg version="1.1" id="Capa_1" xmlns="http://www.w3.org/2000/svg" xmlns:xlink="http://www.w3.org/1999/xlink" x="0px" y="0px"
	 viewBox="0 0 512 512" style="enable-background:new 0 0 512 512;" xml:space="preserve">
<g>
	<path d="M461.398,103.281C422.953,70.582,359.605,56,256,56S89.047,70.582,50.602,103.281C15.133,133.448,0,179.121,0,256
		c0,53.815,26.898,104.277,75.74,142.09C123.976,435.434,187.993,456,256,456s132.024-20.566,180.26-57.91
		C485.102,360.277,512,309.815,512,256C512,179.121,496.867,133.448,461.398,103.281z M256,440c-132.336,0-240-82.542-240-184
		c0-71.695,13.448-113.723,44.968-140.531C96.313,85.406,156.464,72,256,72s159.687,13.406,195.032,43.469
		C482.552,142.277,496,184.305,496,256C496,357.458,388.336,440,256,440z"/>
	<path d="M144,216c8.822,0,16-7.178,16-16s-7.178-16-16-16s-16,7.178-16,16S135.178,216,144,216z"/>
	<path d="M368,216c8.822,0,16-7.178,16-16s-7.178-16-16-16s-16,7.178-16,16S359.178,216,368,216z"/>
	<path d="M232,240c4.418,0,8-3.582,8-8v-8c0-4.418-3.582-8-8-8s-8,3.582-8,8v8C224,236.418,227.582,240,232,240z"/>
	<path d="M280,240c4.418,0,8-3.582,8-8v-8c0-4.418-3.582-8-8-8s-8,3.582-8,8v8C272,236.418,275.582,240,280,240z"/>
	<path d="M322.585,324.39C302.338,334.475,283.214,344,256,344s-46.338-9.525-66.585-19.61C169.289,314.366,148.478,304,120,304
		c-44.93,0-58.375,7.884-60.613,9.464l9.227,13.071c0,0-0.078,0.064-0.255,0.171C68.47,326.64,79.994,320,120,320
		c24.714,0,42.962,9.089,62.281,18.712C203.294,349.178,225.022,360,256,360s52.706-10.822,73.719-21.288
		C349.038,329.089,367.286,320,392,320c40.006,0,51.53,6.64,51.642,6.707c-0.177-0.106-0.255-0.171-0.255-0.171l9.227-13.071
		C450.375,311.884,436.93,304,392,304C363.522,304,342.711,314.366,322.585,324.39z"/>
	<path d="M332.995,384.552c-24.956,9.153-47.599,15.25-76.995,15.25s-52.04-6.096-76.995-15.25
		c-4.15-1.522-8.745,0.608-10.266,4.756c-1.521,4.148,0.608,8.744,4.756,10.266c22.979,8.429,48.879,16.228,82.505,16.228
		s59.525-7.799,82.505-16.228c4.148-1.521,6.277-6.118,4.756-10.266C341.74,385.161,337.144,383.033,332.995,384.552z"/>
</g>
<g>
</g>
<g>
</g>
<g>
</g>
<g>
</g>
<g>
</g>
<g>
</g>
<g>
</g>
<g>
</g>
<g>
</g>
<g>
</g>
<g>
</g>
<g>
</g>
<g>
</g>
<g>
</g>
<g>
</g>
</svg>
